<svg xmlns="http://www.w3.org/2000/svg" xmlns:xlink="http://www.w3.org/1999/xlink" width="500" zoomAndPan="magnify" viewBox="0 0 375 374.999991" height="500" preserveAspectRatio="xMidYMid meet" version="1.0"><defs><g/><clipPath id="9de3e51020"><path d="M 187.5 0 C 83.945312 0 0 83.945312 0 187.5 C 0 291.054688 83.945312 375 187.5 375 C 291.054688 375 375 291.054688 375 187.5 C 375 83.945312 291.054688 0 187.5 0 Z M 187.5 0 " clip-rule="nonzero"/></clipPath></defs><g clip-path="url(#9de3e51020)"><rect x="-37.5" width="450" fill="#ffffff" y="-37.499999" height="449.999989" fill-opacity="1"/></g><g fill="#ff6f00" fill-opacity="1"><g transform="translate(26.997071, 265.726405)"><g><path d="M 59.796875 -194.15625 L 59.796875 -189.234375 L 49.1875 -189.234375 C 46.9375 -189.234375 45.164062 -188.28125 43.875 -186.375 C 42.582031 -184.476562 41.9375 -181.976562 41.9375 -178.875 C 41.9375 -163.34375 41.9375 -149.707031 41.9375 -137.96875 C 41.9375 -126.238281 41.9375 -117.132812 41.9375 -110.65625 C 41.9375 -104.1875 41.847656 -100.953125 41.671875 -100.953125 C 41.671875 -97.160156 39.898438 -93.535156 36.359375 -90.078125 C 32.828125 -86.628906 28.039062 -84.039062 22 -82.3125 C 28.039062 -80.59375 32.828125 -78.050781 36.359375 -74.6875 C 39.898438 -71.320312 41.671875 -67.65625 41.671875 -63.6875 L 41.9375 14.234375 C 41.9375 17.335938 42.582031 19.835938 43.875 21.734375 C 45.164062 23.640625 46.9375 24.59375 49.1875 24.59375 L 59.796875 24.59375 L 59.796875 29.765625 L 49.1875 29.765625 C 45.21875 29.765625 41.976562 28.34375 39.46875 25.5 C 36.96875 22.65625 35.71875 18.898438 35.71875 14.234375 L 35.71875 -64.71875 C 35.71875 -69.207031 33.90625 -72.875 30.28125 -75.71875 C 26.65625 -78.5625 21.828125 -79.984375 15.796875 -79.984375 L 14.234375 -79.984375 L 14.234375 -84.390625 L 15.796875 -84.390625 C 21.828125 -84.390625 26.65625 -85.8125 30.28125 -88.65625 C 33.90625 -91.507812 35.71875 -95.175781 35.71875 -99.65625 L 35.71875 -178.609375 C 35.71875 -183.273438 36.96875 -187.03125 39.46875 -189.875 C 41.976562 -192.726562 45.21875 -194.15625 49.1875 -194.15625 Z M 59.796875 -194.15625 "/></g></g></g><g fill="#ff6f00" fill-opacity="1"><g transform="translate(94.301334, 265.726405)"><g/></g></g><g fill="#ff6f00" fill-opacity="1"><g transform="translate(131.576664, 265.726405)"><g/></g></g><g fill="#ff6f00" fill-opacity="1"><g transform="translate(168.851993, 265.726405)"><g/></g></g><g fill="#ff6f00" fill-opacity="1"><g transform="translate(206.127322, 265.726405)"><g/></g></g><g fill="#ff6f00" fill-opacity="1"><g transform="translate(243.402651, 265.726405)"><g/></g></g><g fill="#ff6f00" fill-opacity="1"><g transform="translate(280.681019, 265.726405)"><g><path d="M 7.765625 -194.15625 L 18.125 -194.15625 C 22.257812 -194.15625 25.578125 -192.726562 28.078125 -189.875 C 30.585938 -187.03125 31.84375 -183.273438 31.84375 -178.609375 C 31.84375 -162.910156 31.84375 -149.109375 31.84375 -137.203125 C 31.84375 -125.296875 31.84375 -116.0625 31.84375 -109.5 C 31.84375 -102.9375 31.753906 -99.65625 31.578125 -99.65625 C 31.753906 -95.175781 33.695312 -91.507812 37.40625 -88.65625 C 41.113281 -85.8125 45.898438 -84.390625 51.765625 -84.390625 L 53.328125 -84.390625 L 53.328125 -79.984375 L 51.765625 -79.984375 C 45.898438 -79.984375 41.113281 -78.5625 37.40625 -75.71875 C 33.695312 -72.875 31.753906 -69.207031 31.578125 -64.71875 L 31.84375 14.234375 C 31.84375 18.898438 30.585938 22.65625 28.078125 25.5 C 25.578125 28.34375 22.257812 29.765625 18.125 29.765625 L 7.765625 29.765625 L 7.765625 24.59375 L 18.125 24.59375 C 20.363281 24.59375 22.171875 23.640625 23.546875 21.734375 C 24.929688 19.835938 25.625 17.335938 25.625 14.234375 L 25.625 -63.6875 C 25.800781 -67.65625 27.703125 -71.320312 31.328125 -74.6875 C 34.953125 -78.050781 39.695312 -80.59375 45.5625 -82.3125 C 39.695312 -84.039062 34.953125 -86.628906 31.328125 -90.078125 C 27.703125 -93.535156 25.800781 -97.160156 25.625 -100.953125 L 25.625 -178.875 C 25.625 -181.976562 24.929688 -184.476562 23.546875 -186.375 C 22.171875 -188.28125 20.363281 -189.234375 18.125 -189.234375 L 7.765625 -189.234375 Z M 7.765625 -194.15625 "/></g></g></g><g fill="#000000" fill-opacity="1"><g transform="translate(108.008808, 254.704946)"><g><path d="M 41.546875 -6.734375 L 130.015625 -6.734375 L 130.015625 -141.234375 L 79.484375 -33.015625 L 28.96875 -141.46875 L 28.96875 0 L 22.234375 -0.21875 L 22.234375 -157.40625 L 28.96875 -157.40625 L 79.484375 -48.953125 L 130.015625 -157.1875 L 136.75 -157.40625 L 136.75 0 L 41.546875 -0.21875 Z M 41.546875 -6.734375 "/></g></g></g></svg>