<svg xmlns="http://www.w3.org/2000/svg" xmlns:xlink="http://www.w3.org/1999/xlink" width="608" zoomAndPan="magnify" viewBox="0 0 456 452.25" height="603" preserveAspectRatio="xMidYMid meet" version="1.0"><defs><g/></defs><g fill="#ff6f00" fill-opacity="1"><g transform="translate(62.492282, 315.2603)"><g><path d="M 61.609375 -200.015625 L 61.609375 -194.953125 L 50.671875 -194.953125 C 48.359375 -194.953125 46.535156 -193.972656 45.203125 -192.015625 C 43.867188 -190.054688 43.203125 -187.476562 43.203125 -184.28125 C 43.203125 -168.28125 43.203125 -154.234375 43.203125 -142.140625 C 43.203125 -130.054688 43.203125 -120.679688 43.203125 -114.015625 C 43.203125 -107.347656 43.113281 -104.015625 42.9375 -104.015625 C 42.9375 -100.097656 41.113281 -96.359375 37.46875 -92.796875 C 33.820312 -89.242188 28.890625 -86.582031 22.671875 -84.8125 C 28.890625 -83.03125 33.820312 -80.40625 37.46875 -76.9375 C 41.113281 -73.46875 42.9375 -69.691406 42.9375 -65.609375 L 43.203125 14.671875 C 43.203125 17.867188 43.867188 20.441406 45.203125 22.390625 C 46.535156 24.347656 48.359375 25.328125 50.671875 25.328125 L 61.609375 25.328125 L 61.609375 30.671875 L 50.671875 30.671875 C 46.578125 30.671875 43.238281 29.203125 40.65625 26.265625 C 38.082031 23.335938 36.796875 19.472656 36.796875 14.671875 L 36.796875 -66.671875 C 36.796875 -71.296875 34.929688 -75.070312 31.203125 -78 C 27.472656 -80.9375 22.492188 -82.40625 16.265625 -82.40625 L 14.671875 -82.40625 L 14.671875 -86.9375 L 16.265625 -86.9375 C 22.492188 -86.9375 27.472656 -88.40625 31.203125 -91.34375 C 34.929688 -94.28125 36.796875 -98.054688 36.796875 -102.671875 L 36.796875 -184.015625 C 36.796875 -188.816406 38.082031 -192.679688 40.65625 -195.609375 C 43.238281 -198.546875 46.578125 -200.015625 50.671875 -200.015625 Z M 61.609375 -200.015625 "/></g></g></g><g fill="#ff6f00" fill-opacity="1"><g transform="translate(131.843036, 315.2603)"><g/></g></g><g fill="#ff6f00" fill-opacity="1"><g transform="translate(170.246986, 315.2603)"><g/></g></g><g fill="#ff6f00" fill-opacity="1"><g transform="translate(208.650937, 315.2603)"><g/></g></g><g fill="#ff6f00" fill-opacity="1"><g transform="translate(247.054887, 315.2603)"><g/></g></g><g fill="#ff6f00" fill-opacity="1"><g transform="translate(285.458837, 315.2603)"><g/></g></g><g fill="#ff6f00" fill-opacity="1"><g transform="translate(323.868553, 315.2603)"><g><path d="M 8 -200.015625 L 18.671875 -200.015625 C 22.929688 -200.015625 26.347656 -198.546875 28.921875 -195.609375 C 31.503906 -192.679688 32.796875 -188.816406 32.796875 -184.015625 C 32.796875 -167.835938 32.796875 -153.613281 32.796875 -141.34375 C 32.796875 -129.082031 32.796875 -119.570312 32.796875 -112.8125 C 32.796875 -106.050781 32.707031 -102.671875 32.53125 -102.671875 C 32.707031 -98.054688 34.707031 -94.28125 38.53125 -91.34375 C 42.351562 -88.40625 47.289062 -86.9375 53.34375 -86.9375 L 54.9375 -86.9375 L 54.9375 -82.40625 L 53.34375 -82.40625 C 47.289062 -82.40625 42.351562 -80.9375 38.53125 -78 C 34.707031 -75.070312 32.707031 -71.296875 32.53125 -66.671875 L 32.796875 14.671875 C 32.796875 19.472656 31.503906 23.335938 28.921875 26.265625 C 26.347656 29.203125 22.929688 30.671875 18.671875 30.671875 L 8 30.671875 L 8 25.328125 L 18.671875 25.328125 C 20.984375 25.328125 22.847656 24.347656 24.265625 22.390625 C 25.691406 20.441406 26.40625 17.867188 26.40625 14.671875 L 26.40625 -65.609375 C 26.582031 -69.691406 28.535156 -73.46875 32.265625 -76.9375 C 36.003906 -80.40625 40.894531 -83.03125 46.9375 -84.8125 C 40.894531 -86.582031 36.003906 -89.242188 32.265625 -92.796875 C 28.535156 -96.359375 26.582031 -100.097656 26.40625 -104.015625 L 26.40625 -184.28125 C 26.40625 -187.476562 25.691406 -190.054688 24.265625 -192.015625 C 22.847656 -193.972656 20.984375 -194.953125 18.671875 -194.953125 L 8 -194.953125 Z M 8 -200.015625 "/></g></g></g><g fill="#000000" fill-opacity="1"><g transform="translate(140.325987, 297.45753)"><g><path d="M 20.96875 -141.171875 L 30.859375 -141.171875 L 87.53125 -57.671875 L 144.203125 -141.171875 L 154.078125 -141.171875 L 154.078125 0 L 143.59375 0 L 143.59375 -122.609375 L 87.734375 -41.34375 L 86.921875 -41.34375 L 31.0625 -122.609375 L 31.0625 0 L 20.96875 0 Z M 20.96875 -141.171875 "/></g></g></g><path stroke-linecap="butt" transform="matrix(0.748758, 0, 0, 0.748758, 161.461252, 290.460854)" fill="none" stroke-linejoin="miter" d="M -0.000420375 4.99797 L 132.677584 4.99797 " stroke="#000000" stroke-width="10" stroke-opacity="1" stroke-miterlimit="4"/></svg>