<svg xmlns="http://www.w3.org/2000/svg" xmlns:xlink="http://www.w3.org/1999/xlink" width="500" zoomAndPan="magnify" viewBox="0 0 375 374.999991" height="500" preserveAspectRatio="xMidYMid meet" version="1.0"><defs><g/></defs><g fill="#ff6f00" fill-opacity="1"><g transform="translate(-7.04953, 281.966428)"><g><path d="M 64.9375 -210.84375 L 64.9375 -205.5 L 53.421875 -205.5 C 50.984375 -205.5 49.0625 -204.46875 47.65625 -202.40625 C 46.25 -200.34375 45.546875 -197.628906 45.546875 -194.265625 C 45.546875 -177.390625 45.546875 -162.578125 45.546875 -149.828125 C 45.546875 -137.085938 45.546875 -127.203125 45.546875 -120.171875 C 45.546875 -113.148438 45.453125 -109.640625 45.265625 -109.640625 C 45.265625 -105.515625 43.34375 -101.578125 39.5 -97.828125 C 35.65625 -94.078125 30.453125 -91.269531 23.890625 -89.40625 C 30.453125 -87.53125 35.65625 -84.765625 39.5 -81.109375 C 43.34375 -77.453125 45.265625 -73.46875 45.265625 -69.15625 L 45.546875 15.46875 C 45.546875 18.832031 46.25 21.546875 47.65625 23.609375 C 49.0625 25.671875 50.984375 26.703125 53.421875 26.703125 L 64.9375 26.703125 L 64.9375 32.328125 L 53.421875 32.328125 C 49.109375 32.328125 45.59375 30.78125 42.875 27.6875 C 40.15625 24.59375 38.796875 20.519531 38.796875 15.46875 L 38.796875 -70.28125 C 38.796875 -75.15625 36.828125 -79.140625 32.890625 -82.234375 C 28.953125 -85.328125 23.707031 -86.875 17.15625 -86.875 L 15.46875 -86.875 L 15.46875 -91.640625 L 17.15625 -91.640625 C 23.707031 -91.640625 28.953125 -93.1875 32.890625 -96.28125 C 36.828125 -99.375 38.796875 -103.359375 38.796875 -108.234375 L 38.796875 -193.984375 C 38.796875 -199.035156 40.15625 -203.109375 42.875 -206.203125 C 45.59375 -209.296875 49.109375 -210.84375 53.421875 -210.84375 Z M 64.9375 -210.84375 "/></g></g></g><g fill="#ff6f00" fill-opacity="1"><g transform="translate(66.043119, 281.966428)"><g/></g></g><g fill="#ff6f00" fill-opacity="1"><g transform="translate(106.524247, 281.966428)"><g/></g></g><g fill="#ff6f00" fill-opacity="1"><g transform="translate(147.005376, 281.966428)"><g/></g></g><g fill="#ff6f00" fill-opacity="1"><g transform="translate(187.486504, 281.966428)"><g/></g></g><g fill="#ff6f00" fill-opacity="1"><g transform="translate(227.967633, 281.966428)"><g/></g></g><g fill="#ff6f00" fill-opacity="1"><g transform="translate(268.448762, 281.966428)"><g/></g></g><g fill="#ff6f00" fill-opacity="1"><g transform="translate(308.937683, 281.966428)"><g><path d="M 8.4375 -210.84375 L 19.671875 -210.84375 C 24.171875 -210.84375 27.78125 -209.296875 30.5 -206.203125 C 33.21875 -203.109375 34.578125 -199.035156 34.578125 -193.984375 C 34.578125 -176.921875 34.578125 -161.921875 34.578125 -148.984375 C 34.578125 -136.054688 34.578125 -126.03125 34.578125 -118.90625 C 34.578125 -111.789062 34.484375 -108.234375 34.296875 -108.234375 C 34.484375 -103.359375 36.59375 -99.375 40.625 -96.28125 C 44.65625 -93.1875 49.851562 -91.640625 56.21875 -91.640625 L 57.90625 -91.640625 L 57.90625 -86.875 L 56.21875 -86.875 C 49.851562 -86.875 44.65625 -85.328125 40.625 -82.234375 C 36.59375 -79.140625 34.484375 -75.15625 34.296875 -70.28125 L 34.578125 15.46875 C 34.578125 20.519531 33.21875 24.59375 30.5 27.6875 C 27.78125 30.78125 24.171875 32.328125 19.671875 32.328125 L 8.4375 32.328125 L 8.4375 26.703125 L 19.671875 26.703125 C 22.109375 26.703125 24.078125 25.671875 25.578125 23.609375 C 27.078125 21.546875 27.828125 18.832031 27.828125 15.46875 L 27.828125 -69.15625 C 28.015625 -73.46875 30.078125 -77.453125 34.015625 -81.109375 C 37.953125 -84.765625 43.109375 -87.53125 49.484375 -89.40625 C 43.109375 -91.269531 37.953125 -94.078125 34.015625 -97.828125 C 30.078125 -101.578125 28.015625 -105.515625 27.828125 -109.640625 L 27.828125 -194.265625 C 27.828125 -197.628906 27.078125 -200.34375 25.578125 -202.40625 C 24.078125 -204.46875 22.109375 -205.5 19.671875 -205.5 L 8.4375 -205.5 Z M 8.4375 -210.84375 "/></g></g></g><g fill="#000000" fill-opacity="1"><g transform="translate(93.464845, 281.832243)"><g><path d="M 49.015625 -7.953125 L 153.421875 -7.953125 L 153.421875 -166.671875 L 93.796875 -38.953125 L 34.1875 -166.9375 L 34.1875 0 L 26.234375 -0.265625 L 26.234375 -185.75 L 34.1875 -185.75 L 93.796875 -57.765625 L 153.421875 -185.484375 L 161.375 -185.75 L 161.375 0 L 49.015625 -0.265625 Z M 49.015625 -7.953125 "/></g></g></g></svg>