<svg xmlns="http://www.w3.org/2000/svg" xmlns:xlink="http://www.w3.org/1999/xlink" width="564" zoomAndPan="magnify" viewBox="0 0 422.88 419.249996" height="559" preserveAspectRatio="xMidYMid meet" version="1.0"><defs><g/></defs><g fill="#ff6f00" fill-opacity="1"><g transform="translate(57.949206, 292.505674)"><g><path d="M 57.15625 -185.59375 L 57.15625 -180.890625 L 47.015625 -180.890625 C 44.867188 -180.890625 43.175781 -179.976562 41.9375 -178.15625 C 40.707031 -176.34375 40.09375 -173.953125 40.09375 -170.984375 C 40.09375 -156.140625 40.09375 -143.109375 40.09375 -131.890625 C 40.09375 -120.671875 40.09375 -111.96875 40.09375 -105.78125 C 40.09375 -99.59375 40.007812 -96.5 39.84375 -96.5 C 39.84375 -92.875 38.148438 -89.410156 34.765625 -86.109375 C 31.378906 -82.816406 26.800781 -80.34375 21.03125 -78.6875 C 26.800781 -77.039062 31.378906 -74.609375 34.765625 -71.390625 C 38.148438 -68.171875 39.84375 -64.664062 39.84375 -60.875 L 40.09375 13.609375 C 40.09375 16.578125 40.707031 18.96875 41.9375 20.78125 C 43.175781 22.601562 44.867188 23.515625 47.015625 23.515625 L 57.15625 23.515625 L 57.15625 28.453125 L 47.015625 28.453125 C 43.222656 28.453125 40.128906 27.09375 37.734375 24.375 C 35.335938 21.65625 34.140625 18.066406 34.140625 13.609375 L 34.140625 -61.859375 C 34.140625 -66.148438 32.40625 -69.65625 28.9375 -72.375 C 25.476562 -75.101562 20.863281 -76.46875 15.09375 -76.46875 L 13.609375 -76.46875 L 13.609375 -80.671875 L 15.09375 -80.671875 C 20.863281 -80.671875 25.476562 -82.03125 28.9375 -84.75 C 32.40625 -87.46875 34.140625 -90.972656 34.140625 -95.265625 L 34.140625 -170.734375 C 34.140625 -175.191406 35.335938 -178.78125 37.734375 -181.5 C 40.128906 -184.226562 43.222656 -185.59375 47.015625 -185.59375 Z M 57.15625 -185.59375 "/></g></g></g><g fill="#ff6f00" fill-opacity="1"><g transform="translate(122.294412, 292.505674)"><g/></g></g><g fill="#ff6f00" fill-opacity="1"><g transform="translate(157.92647, 292.505674)"><g/></g></g><g fill="#ff6f00" fill-opacity="1"><g transform="translate(193.558528, 292.505674)"><g/></g></g><g fill="#ff6f00" fill-opacity="1"><g transform="translate(229.190586, 292.505674)"><g/></g></g><g fill="#ff6f00" fill-opacity="1"><g transform="translate(264.822644, 292.505674)"><g/></g></g><g fill="#ff6f00" fill-opacity="1"><g transform="translate(300.460052, 292.505674)"><g><path d="M 7.421875 -185.59375 L 17.328125 -185.59375 C 21.285156 -185.59375 24.457031 -184.226562 26.84375 -181.5 C 29.238281 -178.78125 30.4375 -175.191406 30.4375 -170.734375 C 30.4375 -155.722656 30.4375 -142.523438 30.4375 -131.140625 C 30.4375 -119.765625 30.4375 -110.941406 30.4375 -104.671875 C 30.4375 -98.398438 30.351562 -95.265625 30.1875 -95.265625 C 30.351562 -90.972656 32.207031 -87.46875 35.75 -84.75 C 39.300781 -82.03125 43.878906 -80.671875 49.484375 -80.671875 L 50.96875 -80.671875 L 50.96875 -76.46875 L 49.484375 -76.46875 C 43.878906 -76.46875 39.300781 -75.101562 35.75 -72.375 C 32.207031 -69.65625 30.351562 -66.148438 30.1875 -61.859375 L 30.4375 13.609375 C 30.4375 18.066406 29.238281 21.65625 26.84375 24.375 C 24.457031 27.09375 21.285156 28.453125 17.328125 28.453125 L 7.421875 28.453125 L 7.421875 23.515625 L 17.328125 23.515625 C 19.460938 23.515625 21.191406 22.601562 22.515625 20.78125 C 23.835938 18.96875 24.5 16.578125 24.5 13.609375 L 24.5 -60.875 C 24.664062 -64.664062 26.476562 -68.171875 29.9375 -71.390625 C 33.40625 -74.609375 37.941406 -77.039062 43.546875 -78.6875 C 37.941406 -80.34375 33.40625 -82.816406 29.9375 -86.109375 C 26.476562 -89.410156 24.664062 -92.875 24.5 -96.5 L 24.5 -170.984375 C 24.5 -173.953125 23.835938 -176.34375 22.515625 -178.15625 C 21.191406 -179.976562 19.460938 -180.890625 17.328125 -180.890625 L 7.421875 -180.890625 Z M 7.421875 -185.59375 "/></g></g></g><g fill="#f9f7f8" fill-opacity="1"><g transform="translate(130.165096, 275.987868)"><g><path d="M 19.453125 -130.984375 L 28.625 -130.984375 L 81.203125 -53.515625 L 133.78125 -130.984375 L 142.953125 -130.984375 L 142.953125 0 L 133.21875 0 L 133.21875 -113.765625 L 81.390625 -38.359375 L 80.640625 -38.359375 L 28.8125 -113.765625 L 28.8125 0 L 19.453125 0 Z M 19.453125 -130.984375 "/></g></g></g><path stroke-linecap="butt" transform="matrix(0.748661, 0, 0, 0.748661, 149.774857, 269.600791)" fill="none" stroke-linejoin="miter" d="M -0.00189641 4.498646 L 123.11901 4.498646 " stroke="#ffffff" stroke-width="9" stroke-opacity="1" stroke-miterlimit="4"/><g fill="#f9f7f8" fill-opacity="1"><g transform="translate(87.082007, 365.572978)"><g><path d="M 37.515625 0 L 31.765625 0 L 31.765625 -12.609375 C 31.765625 -14.378906 31.457031 -15.6875 30.84375 -16.53125 C 30.226562 -17.375 29.378906 -17.796875 28.296875 -17.796875 C 27.179688 -17.796875 26.113281 -17.359375 25.09375 -16.484375 C 24.082031 -15.609375 23.363281 -14.472656 22.9375 -13.078125 L 22.9375 0 L 17.1875 0 L 17.1875 -12.609375 C 17.1875 -14.410156 16.878906 -15.722656 16.265625 -16.546875 C 15.648438 -17.378906 14.800781 -17.796875 13.71875 -17.796875 C 12.601562 -17.796875 11.535156 -17.363281 10.515625 -16.5 C 9.503906 -15.644531 8.785156 -14.519531 8.359375 -13.125 L 8.359375 0 L 2.609375 0 L 2.609375 -22.46875 L 7.796875 -22.46875 L 7.796875 -18.3125 C 8.660156 -19.769531 9.804688 -20.890625 11.234375 -21.671875 C 12.660156 -22.460938 14.300781 -22.859375 16.15625 -22.859375 C 18.019531 -22.859375 19.472656 -22.398438 20.515625 -21.484375 C 21.554688 -20.566406 22.222656 -19.4375 22.515625 -18.09375 C 23.421875 -19.632812 24.582031 -20.8125 26 -21.625 C 27.414062 -22.445312 29.007812 -22.859375 30.78125 -22.859375 C 32.1875 -22.859375 33.320312 -22.609375 34.1875 -22.109375 C 35.0625 -21.609375 35.738281 -20.9375 36.21875 -20.09375 C 36.707031 -19.25 37.046875 -18.296875 37.234375 -17.234375 C 37.421875 -16.179688 37.515625 -15.109375 37.515625 -14.015625 Z M 37.515625 0 "/></g></g></g><g fill="#f9f7f8" fill-opacity="1"><g transform="translate(126.996248, 365.572978)"><g><path d="M 1.078125 -6.640625 C 1.078125 -8.097656 1.484375 -9.378906 2.296875 -10.484375 C 3.109375 -11.585938 4.242188 -12.4375 5.703125 -13.03125 C 7.160156 -13.632812 8.832031 -13.9375 10.71875 -13.9375 C 11.664062 -13.9375 12.625 -13.863281 13.59375 -13.71875 C 14.5625 -13.570312 15.40625 -13.34375 16.125 -13.03125 L 16.125 -14.234375 C 16.125 -15.660156 15.703125 -16.757812 14.859375 -17.53125 C 14.015625 -18.300781 12.765625 -18.6875 11.109375 -18.6875 C 9.878906 -18.6875 8.707031 -18.472656 7.59375 -18.046875 C 6.476562 -17.617188 5.304688 -16.988281 4.078125 -16.15625 L 2.234375 -19.9375 C 3.710938 -20.90625 5.226562 -21.632812 6.78125 -22.125 C 8.34375 -22.613281 9.984375 -22.859375 11.703125 -22.859375 C 14.898438 -22.859375 17.390625 -22.054688 19.171875 -20.453125 C 20.960938 -18.847656 21.859375 -16.5625 21.859375 -13.59375 L 21.859375 -6.4375 C 21.859375 -5.832031 21.96875 -5.398438 22.1875 -5.140625 C 22.40625 -4.890625 22.753906 -4.734375 23.234375 -4.671875 L 23.234375 0 C 22.722656 0.0820312 22.257812 0.148438 21.84375 0.203125 C 21.425781 0.265625 21.078125 0.296875 20.796875 0.296875 C 19.648438 0.296875 18.785156 0.0390625 18.203125 -0.46875 C 17.617188 -0.988281 17.253906 -1.617188 17.109375 -2.359375 L 16.984375 -3.515625 C 16.003906 -2.253906 14.785156 -1.28125 13.328125 -0.59375 C 11.867188 0.0820312 10.382812 0.421875 8.875 0.421875 C 7.382812 0.421875 6.046875 0.113281 4.859375 -0.5 C 3.679688 -1.113281 2.753906 -1.953125 2.078125 -3.015625 C 1.410156 -4.085938 1.078125 -5.296875 1.078125 -6.640625 Z M 15.046875 -5.484375 C 15.359375 -5.828125 15.613281 -6.171875 15.8125 -6.515625 C 16.019531 -6.859375 16.125 -7.171875 16.125 -7.453125 L 16.125 -9.734375 C 15.4375 -10.015625 14.691406 -10.234375 13.890625 -10.390625 C 13.085938 -10.554688 12.332031 -10.640625 11.625 -10.640625 C 10.132812 -10.640625 8.910156 -10.316406 7.953125 -9.671875 C 6.992188 -9.023438 6.515625 -8.175781 6.515625 -7.125 C 6.515625 -6.550781 6.671875 -6.003906 6.984375 -5.484375 C 7.296875 -4.972656 7.753906 -4.554688 8.359375 -4.234375 C 8.960938 -3.921875 9.675781 -3.765625 10.5 -3.765625 C 11.363281 -3.765625 12.207031 -3.929688 13.03125 -4.265625 C 13.863281 -4.597656 14.535156 -5.003906 15.046875 -5.484375 Z M 15.046875 -5.484375 "/></g></g></g><g fill="#f9f7f8" fill-opacity="1"><g transform="translate(151.605029, 365.572978)"><g><path d="M 2.578125 -31.296875 L 8.3125 -31.296875 L 8.3125 -7.203125 C 8.3125 -6.171875 8.484375 -5.476562 8.828125 -5.125 C 9.171875 -4.769531 9.644531 -4.59375 10.25 -4.59375 C 10.707031 -4.59375 11.175781 -4.648438 11.65625 -4.765625 C 12.144531 -4.878906 12.578125 -5.019531 12.953125 -5.1875 L 13.71875 -0.8125 C 12.945312 -0.4375 12.046875 -0.148438 11.015625 0.046875 C 9.984375 0.242188 9.054688 0.34375 8.234375 0.34375 C 6.429688 0.34375 5.035156 -0.132812 4.046875 -1.09375 C 3.066406 -2.050781 2.578125 -3.414062 2.578125 -5.1875 Z M 2.578125 -31.296875 "/></g></g></g><g fill="#f9f7f8" fill-opacity="1"><g transform="translate(165.195592, 365.572978)"><g><path d="M 16.078125 0.421875 C 14.335938 0.421875 12.800781 0.03125 11.46875 -0.75 C 10.132812 -1.53125 9.097656 -2.59375 8.359375 -3.9375 L 8.359375 9.125 L 2.609375 9.125 L 2.609375 -22.46875 L 7.625 -22.46875 L 7.625 -18.609375 C 8.488281 -19.921875 9.578125 -20.957031 10.890625 -21.71875 C 12.203125 -22.476562 13.703125 -22.859375 15.390625 -22.859375 C 16.910156 -22.859375 18.304688 -22.554688 19.578125 -21.953125 C 20.847656 -21.347656 21.953125 -20.507812 22.890625 -19.4375 C 23.835938 -18.375 24.570312 -17.144531 25.09375 -15.75 C 25.625 -14.363281 25.890625 -12.875 25.890625 -11.28125 C 25.890625 -9.101562 25.46875 -7.128906 24.625 -5.359375 C 23.78125 -3.585938 22.625 -2.179688 21.15625 -1.140625 C 19.6875 -0.0976562 17.992188 0.421875 16.078125 0.421875 Z M 14.15625 -4.453125 C 15.039062 -4.453125 15.835938 -4.640625 16.546875 -5.015625 C 17.265625 -5.390625 17.882812 -5.894531 18.40625 -6.53125 C 18.9375 -7.175781 19.335938 -7.90625 19.609375 -8.71875 C 19.878906 -9.539062 20.015625 -10.394531 20.015625 -11.28125 C 20.015625 -12.21875 19.863281 -13.085938 19.5625 -13.890625 C 19.269531 -14.691406 18.835938 -15.398438 18.265625 -16.015625 C 17.691406 -16.628906 17.023438 -17.109375 16.265625 -17.453125 C 15.515625 -17.796875 14.695312 -17.96875 13.8125 -17.96875 C 13.257812 -17.96875 12.703125 -17.875 12.140625 -17.6875 C 11.585938 -17.5 11.054688 -17.234375 10.546875 -16.890625 C 10.035156 -16.546875 9.585938 -16.144531 9.203125 -15.6875 C 8.816406 -15.226562 8.535156 -14.726562 8.359375 -14.1875 L 8.359375 -8.921875 C 8.703125 -8.085938 9.164062 -7.328125 9.75 -6.640625 C 10.34375 -5.953125 11.023438 -5.414062 11.796875 -5.03125 C 12.566406 -4.644531 13.351562 -4.453125 14.15625 -4.453125 Z M 14.15625 -4.453125 "/></g></g></g><g fill="#f9f7f8" fill-opacity="1"><g transform="translate(192.376717, 365.572978)"><g><path d="M 1.078125 -6.640625 C 1.078125 -8.097656 1.484375 -9.378906 2.296875 -10.484375 C 3.109375 -11.585938 4.242188 -12.4375 5.703125 -13.03125 C 7.160156 -13.632812 8.832031 -13.9375 10.71875 -13.9375 C 11.664062 -13.9375 12.625 -13.863281 13.59375 -13.71875 C 14.5625 -13.570312 15.40625 -13.34375 16.125 -13.03125 L 16.125 -14.234375 C 16.125 -15.660156 15.703125 -16.757812 14.859375 -17.53125 C 14.015625 -18.300781 12.765625 -18.6875 11.109375 -18.6875 C 9.878906 -18.6875 8.707031 -18.472656 7.59375 -18.046875 C 6.476562 -17.617188 5.304688 -16.988281 4.078125 -16.15625 L 2.234375 -19.9375 C 3.710938 -20.90625 5.226562 -21.632812 6.78125 -22.125 C 8.34375 -22.613281 9.984375 -22.859375 11.703125 -22.859375 C 14.898438 -22.859375 17.390625 -22.054688 19.171875 -20.453125 C 20.960938 -18.847656 21.859375 -16.5625 21.859375 -13.59375 L 21.859375 -6.4375 C 21.859375 -5.832031 21.96875 -5.398438 22.1875 -5.140625 C 22.40625 -4.890625 22.753906 -4.734375 23.234375 -4.671875 L 23.234375 0 C 22.722656 0.0820312 22.257812 0.148438 21.84375 0.203125 C 21.425781 0.265625 21.078125 0.296875 20.796875 0.296875 C 19.648438 0.296875 18.785156 0.0390625 18.203125 -0.46875 C 17.617188 -0.988281 17.253906 -1.617188 17.109375 -2.359375 L 16.984375 -3.515625 C 16.003906 -2.253906 14.785156 -1.28125 13.328125 -0.59375 C 11.867188 0.0820312 10.382812 0.421875 8.875 0.421875 C 7.382812 0.421875 6.046875 0.113281 4.859375 -0.5 C 3.679688 -1.113281 2.753906 -1.953125 2.078125 -3.015625 C 1.410156 -4.085938 1.078125 -5.296875 1.078125 -6.640625 Z M 15.046875 -5.484375 C 15.359375 -5.828125 15.613281 -6.171875 15.8125 -6.515625 C 16.019531 -6.859375 16.125 -7.171875 16.125 -7.453125 L 16.125 -9.734375 C 15.4375 -10.015625 14.691406 -10.234375 13.890625 -10.390625 C 13.085938 -10.554688 12.332031 -10.640625 11.625 -10.640625 C 10.132812 -10.640625 8.910156 -10.316406 7.953125 -9.671875 C 6.992188 -9.023438 6.515625 -8.175781 6.515625 -7.125 C 6.515625 -6.550781 6.671875 -6.003906 6.984375 -5.484375 C 7.296875 -4.972656 7.753906 -4.554688 8.359375 -4.234375 C 8.960938 -3.921875 9.675781 -3.765625 10.5 -3.765625 C 11.363281 -3.765625 12.207031 -3.929688 13.03125 -4.265625 C 13.863281 -4.597656 14.535156 -5.003906 15.046875 -5.484375 Z M 15.046875 -5.484375 "/></g></g></g><g fill="#f9f7f8" fill-opacity="1"><g transform="translate(216.985498, 365.572978)"><g><path d="M 2.609375 0 L 2.609375 -22.46875 L 8.359375 -22.46875 L 8.359375 0 Z M 2.609375 -25.59375 L 2.609375 -31.296875 L 8.359375 -31.296875 L 8.359375 -25.59375 Z M 2.609375 -25.59375 "/></g></g></g><g fill="#f9f7f8" fill-opacity="1"><g transform="translate(227.917971, 365.572978)"><g><path d="M 10.890625 0.421875 C 8.972656 0.421875 7.140625 0.109375 5.390625 -0.515625 C 3.648438 -1.140625 2.15625 -2.066406 0.90625 -3.296875 L 2.953125 -7.03125 C 4.296875 -5.945312 5.617188 -5.144531 6.921875 -4.625 C 8.222656 -4.113281 9.472656 -3.859375 10.671875 -3.859375 C 11.785156 -3.859375 12.675781 -4.054688 13.34375 -4.453125 C 14.019531 -4.859375 14.359375 -5.460938 14.359375 -6.265625 C 14.359375 -6.804688 14.171875 -7.222656 13.796875 -7.515625 C 13.429688 -7.816406 12.894531 -8.082031 12.1875 -8.3125 C 11.488281 -8.539062 10.640625 -8.800781 9.640625 -9.09375 C 7.984375 -9.632812 6.597656 -10.160156 5.484375 -10.671875 C 4.367188 -11.191406 3.53125 -11.84375 2.96875 -12.625 C 2.414062 -13.414062 2.140625 -14.425781 2.140625 -15.65625 C 2.140625 -17.132812 2.519531 -18.410156 3.28125 -19.484375 C 4.039062 -20.554688 5.097656 -21.390625 6.453125 -21.984375 C 7.804688 -22.585938 9.398438 -22.890625 11.234375 -22.890625 C 12.835938 -22.890625 14.351562 -22.640625 15.78125 -22.140625 C 17.207031 -21.640625 18.503906 -20.832031 19.671875 -19.71875 L 17.359375 -16.078125 C 16.222656 -16.960938 15.140625 -17.613281 14.109375 -18.03125 C 13.078125 -18.445312 12.03125 -18.65625 10.96875 -18.65625 C 10.375 -18.65625 9.8125 -18.582031 9.28125 -18.4375 C 8.75 -18.289062 8.316406 -18.050781 7.984375 -17.71875 C 7.660156 -17.394531 7.5 -16.929688 7.5 -16.328125 C 7.5 -15.785156 7.648438 -15.363281 7.953125 -15.0625 C 8.253906 -14.769531 8.710938 -14.507812 9.328125 -14.28125 C 9.941406 -14.050781 10.691406 -13.789062 11.578125 -13.5 C 13.378906 -12.988281 14.898438 -12.460938 16.140625 -11.921875 C 17.378906 -11.378906 18.3125 -10.710938 18.9375 -9.921875 C 19.570312 -9.140625 19.890625 -8.0625 19.890625 -6.6875 C 19.890625 -4.457031 19.070312 -2.710938 17.4375 -1.453125 C 15.8125 -0.203125 13.628906 0.421875 10.890625 0.421875 Z M 10.890625 0.421875 "/></g></g></g><g fill="#ff6f00" fill-opacity="1"><g transform="translate(249.108554, 365.572978)"><g><path d="M 2.484375 0 L 2.484375 -6.171875 L 7.203125 -6.171875 L 7.203125 0 Z M 2.484375 0 "/></g></g></g><g fill="#ff6f00" fill-opacity="1"><g transform="translate(258.754849, 365.572978)"><g><path d="M 1.25 -11.234375 C 1.25 -13.398438 1.675781 -15.363281 2.53125 -17.125 C 3.382812 -18.882812 4.566406 -20.28125 6.078125 -21.3125 C 7.597656 -22.34375 9.332031 -22.859375 11.28125 -22.859375 C 12.9375 -22.859375 14.425781 -22.445312 15.75 -21.625 C 17.082031 -20.8125 18.117188 -19.773438 18.859375 -18.515625 L 18.859375 -31.296875 L 24.609375 -31.296875 L 24.609375 -6.4375 C 24.609375 -5.832031 24.707031 -5.398438 24.90625 -5.140625 C 25.101562 -4.890625 25.445312 -4.734375 25.9375 -4.671875 L 25.9375 0 C 24.9375 0.195312 24.125 0.296875 23.5 0.296875 C 22.46875 0.296875 21.613281 0.0390625 20.9375 -0.46875 C 20.269531 -0.988281 19.894531 -1.660156 19.8125 -2.484375 L 19.71875 -3.90625 C 18.894531 -2.5 17.773438 -1.425781 16.359375 -0.6875 C 14.941406 0.0507812 13.460938 0.421875 11.921875 0.421875 C 10.378906 0.421875 8.957031 0.125 7.65625 -0.46875 C 6.351562 -1.070312 5.222656 -1.898438 4.265625 -2.953125 C 3.304688 -4.015625 2.5625 -5.253906 2.03125 -6.671875 C 1.507812 -8.085938 1.25 -9.609375 1.25 -11.234375 Z M 18.859375 -8.234375 L 18.859375 -13.59375 C 18.578125 -14.414062 18.117188 -15.15625 17.484375 -15.8125 C 16.859375 -16.476562 16.160156 -17.003906 15.390625 -17.390625 C 14.617188 -17.773438 13.847656 -17.96875 13.078125 -17.96875 C 12.191406 -17.96875 11.390625 -17.78125 10.671875 -17.40625 C 9.960938 -17.03125 9.34375 -16.53125 8.8125 -15.90625 C 8.28125 -15.28125 7.878906 -14.550781 7.609375 -13.71875 C 7.335938 -12.894531 7.203125 -12.023438 7.203125 -11.109375 C 7.203125 -10.191406 7.351562 -9.320312 7.65625 -8.5 C 7.957031 -7.6875 8.390625 -6.976562 8.953125 -6.375 C 9.523438 -5.78125 10.191406 -5.3125 10.953125 -4.96875 C 11.710938 -4.625 12.535156 -4.453125 13.421875 -4.453125 C 13.960938 -4.453125 14.507812 -4.546875 15.0625 -4.734375 C 15.625 -4.921875 16.15625 -5.175781 16.65625 -5.5 C 17.15625 -5.832031 17.597656 -6.234375 17.984375 -6.703125 C 18.367188 -7.179688 18.660156 -7.691406 18.859375 -8.234375 Z M 18.859375 -8.234375 "/></g></g></g><g fill="#ff6f00" fill-opacity="1"><g transform="translate(286.407577, 365.572978)"><g><path d="M 13.03125 0.421875 C 11.226562 0.421875 9.597656 0.113281 8.140625 -0.5 C 6.679688 -1.113281 5.4375 -1.953125 4.40625 -3.015625 C 3.382812 -4.085938 2.59375 -5.316406 2.03125 -6.703125 C 1.476562 -8.097656 1.203125 -9.566406 1.203125 -11.109375 C 1.203125 -13.242188 1.679688 -15.195312 2.640625 -16.96875 C 3.597656 -18.75 4.96875 -20.175781 6.75 -21.25 C 8.539062 -22.320312 10.648438 -22.859375 13.078125 -22.859375 C 15.535156 -22.859375 17.632812 -22.320312 19.375 -21.25 C 21.125 -20.175781 22.460938 -18.757812 23.390625 -17 C 24.316406 -15.238281 24.78125 -13.34375 24.78125 -11.3125 C 24.78125 -10.96875 24.765625 -10.617188 24.734375 -10.265625 C 24.710938 -9.910156 24.6875 -9.617188 24.65625 -9.390625 L 7.28125 -9.390625 C 7.394531 -8.242188 7.726562 -7.242188 8.28125 -6.390625 C 8.84375 -5.535156 9.5625 -4.882812 10.4375 -4.4375 C 11.3125 -3.988281 12.25 -3.765625 13.25 -3.765625 C 14.394531 -3.765625 15.472656 -4.039062 16.484375 -4.59375 C 17.492188 -5.15625 18.1875 -5.894531 18.5625 -6.8125 L 23.5 -5.4375 C 22.957031 -4.300781 22.175781 -3.289062 21.15625 -2.40625 C 20.144531 -1.519531 18.953125 -0.828125 17.578125 -0.328125 C 16.203125 0.171875 14.6875 0.421875 13.03125 0.421875 Z M 7.15625 -13.03125 L 18.90625 -13.03125 C 18.789062 -14.175781 18.46875 -15.171875 17.9375 -16.015625 C 17.414062 -16.859375 16.722656 -17.515625 15.859375 -17.984375 C 15.003906 -18.453125 14.046875 -18.6875 12.984375 -18.6875 C 11.960938 -18.6875 11.03125 -18.453125 10.1875 -17.984375 C 9.34375 -17.515625 8.65625 -16.859375 8.125 -16.015625 C 7.59375 -15.171875 7.269531 -14.175781 7.15625 -13.03125 Z M 7.15625 -13.03125 "/></g></g></g><g fill="#ff6f00" fill-opacity="1"><g transform="translate(312.088172, 365.572978)"><g><path d="M 8.65625 0 L 0.390625 -22.46875 L 6.34375 -22.46875 L 12 -5.234375 L 17.703125 -22.46875 L 23.15625 -22.46875 L 14.921875 0 Z M 8.65625 0 "/></g></g></g><g fill="#f9f7f8" fill-opacity="1"><g transform="translate(92.833255, 392.546464)"><g><path d="M 1.390625 0 L 1.390625 -11.078125 L 5.140625 -11.078125 C 6.316406 -11.078125 7.296875 -10.828125 8.078125 -10.328125 C 8.867188 -9.835938 9.460938 -9.171875 9.859375 -8.328125 C 10.253906 -7.492188 10.453125 -6.566406 10.453125 -5.546875 C 10.453125 -4.429688 10.234375 -3.457031 9.796875 -2.625 C 9.367188 -1.789062 8.753906 -1.144531 7.953125 -0.6875 C 7.160156 -0.226562 6.222656 0 5.140625 0 Z M 9.359375 -5.546875 C 9.359375 -6.429688 9.191406 -7.21875 8.859375 -7.90625 C 8.535156 -8.59375 8.0625 -9.128906 7.4375 -9.515625 C 6.8125 -9.910156 6.046875 -10.109375 5.140625 -10.109375 L 2.484375 -10.109375 L 2.484375 -0.96875 L 5.140625 -0.96875 C 6.054688 -0.96875 6.828125 -1.171875 7.453125 -1.578125 C 8.078125 -1.984375 8.550781 -2.53125 8.875 -3.21875 C 9.195312 -3.90625 9.359375 -4.679688 9.359375 -5.546875 Z M 9.359375 -5.546875 "/></g></g></g><g fill="#f9f7f8" fill-opacity="1"><g transform="translate(103.982581, 392.546464)"><g><path d="M 4.671875 0.15625 C 4.097656 0.15625 3.5625 0.046875 3.0625 -0.171875 C 2.5625 -0.398438 2.128906 -0.707031 1.765625 -1.09375 C 1.398438 -1.488281 1.113281 -1.941406 0.90625 -2.453125 C 0.707031 -2.960938 0.609375 -3.503906 0.609375 -4.078125 C 0.609375 -4.835938 0.78125 -5.535156 1.125 -6.171875 C 1.476562 -6.804688 1.960938 -7.3125 2.578125 -7.6875 C 3.191406 -8.070312 3.882812 -8.265625 4.65625 -8.265625 C 5.457031 -8.265625 6.15625 -8.070312 6.75 -7.6875 C 7.351562 -7.300781 7.828125 -6.789062 8.171875 -6.15625 C 8.515625 -5.53125 8.6875 -4.84375 8.6875 -4.09375 C 8.6875 -4.007812 8.6875 -3.929688 8.6875 -3.859375 C 8.6875 -3.785156 8.679688 -3.726562 8.671875 -3.6875 L 1.71875 -3.6875 C 1.769531 -3.101562 1.929688 -2.582031 2.203125 -2.125 C 2.484375 -1.675781 2.84375 -1.316406 3.28125 -1.046875 C 3.71875 -0.785156 4.195312 -0.65625 4.71875 -0.65625 C 5.25 -0.65625 5.75 -0.789062 6.21875 -1.0625 C 6.695312 -1.332031 7.03125 -1.6875 7.21875 -2.125 L 8.140625 -1.875 C 7.972656 -1.488281 7.71875 -1.140625 7.375 -0.828125 C 7.03125 -0.515625 6.625 -0.269531 6.15625 -0.09375 C 5.695312 0.0703125 5.203125 0.15625 4.671875 0.15625 Z M 1.6875 -4.4375 L 7.6875 -4.4375 C 7.644531 -5.03125 7.484375 -5.550781 7.203125 -6 C 6.929688 -6.445312 6.570312 -6.796875 6.125 -7.046875 C 5.6875 -7.304688 5.203125 -7.4375 4.671875 -7.4375 C 4.148438 -7.4375 3.671875 -7.304688 3.234375 -7.046875 C 2.796875 -6.796875 2.4375 -6.441406 2.15625 -5.984375 C 1.882812 -5.535156 1.726562 -5.019531 1.6875 -4.4375 Z M 1.6875 -4.4375 "/></g></g></g><g fill="#f9f7f8" fill-opacity="1"><g transform="translate(113.135944, 392.546464)"><g><path d="M 3.84375 0.15625 C 3.175781 0.15625 2.554688 0.046875 1.984375 -0.171875 C 1.410156 -0.390625 0.914062 -0.722656 0.5 -1.171875 L 0.9375 -1.921875 C 1.394531 -1.492188 1.851562 -1.179688 2.3125 -0.984375 C 2.78125 -0.796875 3.273438 -0.703125 3.796875 -0.703125 C 4.421875 -0.703125 4.929688 -0.828125 5.328125 -1.078125 C 5.722656 -1.335938 5.921875 -1.707031 5.921875 -2.1875 C 5.921875 -2.507812 5.820312 -2.753906 5.625 -2.921875 C 5.4375 -3.097656 5.160156 -3.238281 4.796875 -3.34375 C 4.441406 -3.457031 4.019531 -3.578125 3.53125 -3.703125 C 2.96875 -3.847656 2.492188 -4.003906 2.109375 -4.171875 C 1.734375 -4.347656 1.445312 -4.566406 1.25 -4.828125 C 1.0625 -5.097656 0.96875 -5.445312 0.96875 -5.875 C 0.96875 -6.40625 1.097656 -6.84375 1.359375 -7.1875 C 1.628906 -7.539062 1.992188 -7.804688 2.453125 -7.984375 C 2.921875 -8.171875 3.4375 -8.265625 4 -8.265625 C 4.625 -8.265625 5.175781 -8.164062 5.65625 -7.96875 C 6.132812 -7.769531 6.523438 -7.492188 6.828125 -7.140625 L 6.3125 -6.421875 C 6.019531 -6.753906 5.671875 -7 5.265625 -7.15625 C 4.867188 -7.320312 4.425781 -7.40625 3.9375 -7.40625 C 3.613281 -7.40625 3.300781 -7.359375 3 -7.265625 C 2.695312 -7.179688 2.445312 -7.035156 2.25 -6.828125 C 2.0625 -6.628906 1.96875 -6.351562 1.96875 -6 C 1.96875 -5.707031 2.039062 -5.476562 2.1875 -5.3125 C 2.332031 -5.15625 2.550781 -5.019531 2.84375 -4.90625 C 3.132812 -4.800781 3.488281 -4.6875 3.90625 -4.5625 C 4.519531 -4.394531 5.054688 -4.226562 5.515625 -4.0625 C 5.972656 -3.894531 6.328125 -3.675781 6.578125 -3.40625 C 6.828125 -3.132812 6.953125 -2.753906 6.953125 -2.265625 C 6.953125 -1.503906 6.664062 -0.910156 6.09375 -0.484375 C 5.519531 -0.0546875 4.769531 0.15625 3.84375 0.15625 Z M 3.84375 0.15625 "/></g></g></g><g fill="#f9f7f8" fill-opacity="1"><g transform="translate(120.667578, 392.546464)"><g><path d="M 0.515625 -2.34375 C 0.515625 -2.851562 0.660156 -3.289062 0.953125 -3.65625 C 1.242188 -4.019531 1.644531 -4.300781 2.15625 -4.5 C 2.675781 -4.707031 3.269531 -4.8125 3.9375 -4.8125 C 4.332031 -4.8125 4.742188 -4.78125 5.171875 -4.71875 C 5.597656 -4.65625 5.976562 -4.5625 6.3125 -4.4375 L 6.3125 -5.125 C 6.3125 -5.8125 6.109375 -6.359375 5.703125 -6.765625 C 5.296875 -7.171875 4.734375 -7.375 4.015625 -7.375 C 3.585938 -7.375 3.160156 -7.289062 2.734375 -7.125 C 2.316406 -6.96875 1.878906 -6.734375 1.421875 -6.421875 L 1.015625 -7.171875 C 1.546875 -7.535156 2.066406 -7.804688 2.578125 -7.984375 C 3.085938 -8.171875 3.601562 -8.265625 4.125 -8.265625 C 5.125 -8.265625 5.914062 -7.976562 6.5 -7.40625 C 7.082031 -6.832031 7.375 -6.039062 7.375 -5.03125 L 7.375 -1.28125 C 7.375 -1.132812 7.40625 -1.023438 7.46875 -0.953125 C 7.53125 -0.890625 7.628906 -0.851562 7.765625 -0.84375 L 7.765625 0 C 7.648438 0.0078125 7.550781 0.0195312 7.46875 0.03125 C 7.382812 0.0390625 7.320312 0.0390625 7.28125 0.03125 C 7.019531 0.0195312 6.820312 -0.0625 6.6875 -0.21875 C 6.550781 -0.375 6.476562 -0.539062 6.46875 -0.71875 L 6.453125 -1.3125 C 6.085938 -0.84375 5.613281 -0.476562 5.03125 -0.21875 C 4.445312 0.03125 3.859375 0.15625 3.265625 0.15625 C 2.742188 0.15625 2.269531 0.046875 1.84375 -0.171875 C 1.425781 -0.398438 1.097656 -0.703125 0.859375 -1.078125 C 0.628906 -1.460938 0.515625 -1.882812 0.515625 -2.34375 Z M 5.953125 -1.71875 C 6.066406 -1.863281 6.15625 -2.003906 6.21875 -2.140625 C 6.28125 -2.273438 6.3125 -2.394531 6.3125 -2.5 L 6.3125 -3.6875 C 5.957031 -3.820312 5.585938 -3.921875 5.203125 -3.984375 C 4.828125 -4.054688 4.445312 -4.09375 4.0625 -4.09375 C 3.3125 -4.09375 2.703125 -3.941406 2.234375 -3.640625 C 1.765625 -3.347656 1.53125 -2.941406 1.53125 -2.421875 C 1.53125 -2.117188 1.609375 -1.832031 1.765625 -1.5625 C 1.921875 -1.300781 2.148438 -1.082031 2.453125 -0.90625 C 2.753906 -0.738281 3.109375 -0.65625 3.515625 -0.65625 C 4.015625 -0.65625 4.484375 -0.753906 4.921875 -0.953125 C 5.367188 -1.148438 5.710938 -1.40625 5.953125 -1.71875 Z M 5.953125 -1.71875 "/></g></g></g><g fill="#f9f7f8" fill-opacity="1"><g transform="translate(129.166004, 392.546464)"><g><path d="M 5.21875 -7.1875 C 4.507812 -7.164062 3.890625 -6.96875 3.359375 -6.59375 C 2.828125 -6.21875 2.453125 -5.703125 2.234375 -5.046875 L 2.234375 0 L 1.171875 0 L 1.171875 -8.125 L 2.171875 -8.125 L 2.171875 -6.171875 C 2.453125 -6.742188 2.820312 -7.207031 3.28125 -7.5625 C 3.738281 -7.914062 4.226562 -8.113281 4.75 -8.15625 C 4.851562 -8.164062 4.941406 -8.171875 5.015625 -8.171875 C 5.097656 -8.171875 5.164062 -8.164062 5.21875 -8.15625 Z M 5.21875 -7.1875 "/></g></g></g><g fill="#f9f7f8" fill-opacity="1"><g transform="translate(134.639316, 392.546464)"><g><path d="M 5.21875 -7.1875 C 4.507812 -7.164062 3.890625 -6.96875 3.359375 -6.59375 C 2.828125 -6.21875 2.453125 -5.703125 2.234375 -5.046875 L 2.234375 0 L 1.171875 0 L 1.171875 -8.125 L 2.171875 -8.125 L 2.171875 -6.171875 C 2.453125 -6.742188 2.820312 -7.207031 3.28125 -7.5625 C 3.738281 -7.914062 4.226562 -8.113281 4.75 -8.15625 C 4.851562 -8.164062 4.941406 -8.171875 5.015625 -8.171875 C 5.097656 -8.171875 5.164062 -8.164062 5.21875 -8.15625 Z M 5.21875 -7.1875 "/></g></g></g><g fill="#f9f7f8" fill-opacity="1"><g transform="translate(140.112628, 392.546464)"><g><path d="M 4.625 0.15625 C 4.050781 0.15625 3.515625 0.046875 3.015625 -0.171875 C 2.523438 -0.398438 2.097656 -0.707031 1.734375 -1.09375 C 1.378906 -1.488281 1.101562 -1.9375 0.90625 -2.4375 C 0.707031 -2.945312 0.609375 -3.476562 0.609375 -4.03125 C 0.609375 -4.613281 0.707031 -5.15625 0.90625 -5.65625 C 1.101562 -6.164062 1.382812 -6.613281 1.75 -7 C 2.113281 -7.394531 2.539062 -7.703125 3.03125 -7.921875 C 3.53125 -8.148438 4.066406 -8.265625 4.640625 -8.265625 C 5.222656 -8.265625 5.757812 -8.148438 6.25 -7.921875 C 6.738281 -7.703125 7.164062 -7.394531 7.53125 -7 C 7.894531 -6.613281 8.175781 -6.164062 8.375 -5.65625 C 8.570312 -5.15625 8.671875 -4.613281 8.671875 -4.03125 C 8.671875 -3.476562 8.570312 -2.945312 8.375 -2.4375 C 8.175781 -1.9375 7.894531 -1.488281 7.53125 -1.09375 C 7.175781 -0.707031 6.75 -0.398438 6.25 -0.171875 C 5.757812 0.046875 5.21875 0.15625 4.625 0.15625 Z M 1.6875 -4.015625 C 1.6875 -3.421875 1.816406 -2.875 2.078125 -2.375 C 2.347656 -1.882812 2.707031 -1.492188 3.15625 -1.203125 C 3.601562 -0.921875 4.09375 -0.78125 4.625 -0.78125 C 5.164062 -0.78125 5.660156 -0.925781 6.109375 -1.21875 C 6.554688 -1.507812 6.914062 -1.90625 7.1875 -2.40625 C 7.457031 -2.914062 7.59375 -3.460938 7.59375 -4.046875 C 7.59375 -4.648438 7.457031 -5.203125 7.1875 -5.703125 C 6.914062 -6.203125 6.554688 -6.597656 6.109375 -6.890625 C 5.660156 -7.179688 5.164062 -7.328125 4.625 -7.328125 C 4.09375 -7.328125 3.601562 -7.175781 3.15625 -6.875 C 2.71875 -6.570312 2.363281 -6.171875 2.09375 -5.671875 C 1.820312 -5.179688 1.6875 -4.628906 1.6875 -4.015625 Z M 1.6875 -4.015625 "/></g></g></g><g fill="#f9f7f8" fill-opacity="1"><g transform="translate(149.390729, 392.546464)"><g><path d="M 1.21875 -11.390625 L 2.28125 -11.390625 L 2.28125 -1.84375 C 2.28125 -1.4375 2.351562 -1.171875 2.5 -1.046875 C 2.644531 -0.921875 2.820312 -0.859375 3.03125 -0.859375 C 3.21875 -0.859375 3.40625 -0.878906 3.59375 -0.921875 C 3.78125 -0.960938 3.9375 -1.003906 4.0625 -1.046875 L 4.25 -0.1875 C 4.050781 -0.101562 3.8125 -0.0351562 3.53125 0.015625 C 3.25 0.0664062 3.003906 0.09375 2.796875 0.09375 C 2.316406 0.09375 1.929688 -0.046875 1.640625 -0.328125 C 1.359375 -0.609375 1.21875 -0.992188 1.21875 -1.484375 Z M 1.21875 -11.390625 "/></g></g></g><g fill="#f9f7f8" fill-opacity="1"><g transform="translate(153.63215, 392.546464)"><g><path d="M 1.21875 -11.390625 L 2.28125 -11.390625 L 2.28125 -1.84375 C 2.28125 -1.4375 2.351562 -1.171875 2.5 -1.046875 C 2.644531 -0.921875 2.820312 -0.859375 3.03125 -0.859375 C 3.21875 -0.859375 3.40625 -0.878906 3.59375 -0.921875 C 3.78125 -0.960938 3.9375 -1.003906 4.0625 -1.046875 L 4.25 -0.1875 C 4.050781 -0.101562 3.8125 -0.0351562 3.53125 0.015625 C 3.25 0.0664062 3.003906 0.09375 2.796875 0.09375 C 2.316406 0.09375 1.929688 -0.046875 1.640625 -0.328125 C 1.359375 -0.609375 1.21875 -0.992188 1.21875 -1.484375 Z M 1.21875 -11.390625 "/></g></g></g><g fill="#f9f7f8" fill-opacity="1"><g transform="translate(157.87357, 392.546464)"><g><path d="M 4.625 0.15625 C 4.050781 0.15625 3.515625 0.046875 3.015625 -0.171875 C 2.523438 -0.398438 2.097656 -0.707031 1.734375 -1.09375 C 1.378906 -1.488281 1.101562 -1.9375 0.90625 -2.4375 C 0.707031 -2.945312 0.609375 -3.476562 0.609375 -4.03125 C 0.609375 -4.613281 0.707031 -5.15625 0.90625 -5.65625 C 1.101562 -6.164062 1.382812 -6.613281 1.75 -7 C 2.113281 -7.394531 2.539062 -7.703125 3.03125 -7.921875 C 3.53125 -8.148438 4.066406 -8.265625 4.640625 -8.265625 C 5.222656 -8.265625 5.757812 -8.148438 6.25 -7.921875 C 6.738281 -7.703125 7.164062 -7.394531 7.53125 -7 C 7.894531 -6.613281 8.175781 -6.164062 8.375 -5.65625 C 8.570312 -5.15625 8.671875 -4.613281 8.671875 -4.03125 C 8.671875 -3.476562 8.570312 -2.945312 8.375 -2.4375 C 8.175781 -1.9375 7.894531 -1.488281 7.53125 -1.09375 C 7.175781 -0.707031 6.75 -0.398438 6.25 -0.171875 C 5.757812 0.046875 5.21875 0.15625 4.625 0.15625 Z M 1.6875 -4.015625 C 1.6875 -3.421875 1.816406 -2.875 2.078125 -2.375 C 2.347656 -1.882812 2.707031 -1.492188 3.15625 -1.203125 C 3.601562 -0.921875 4.09375 -0.78125 4.625 -0.78125 C 5.164062 -0.78125 5.660156 -0.925781 6.109375 -1.21875 C 6.554688 -1.507812 6.914062 -1.90625 7.1875 -2.40625 C 7.457031 -2.914062 7.59375 -3.460938 7.59375 -4.046875 C 7.59375 -4.648438 7.457031 -5.203125 7.1875 -5.703125 C 6.914062 -6.203125 6.554688 -6.597656 6.109375 -6.890625 C 5.660156 -7.179688 5.164062 -7.328125 4.625 -7.328125 C 4.09375 -7.328125 3.601562 -7.175781 3.15625 -6.875 C 2.71875 -6.570312 2.363281 -6.171875 2.09375 -5.671875 C 1.820312 -5.179688 1.6875 -4.628906 1.6875 -4.015625 Z M 1.6875 -4.015625 "/></g></g></g><g fill="#f9f7f8" fill-opacity="1"><g transform="translate(167.151671, 392.546464)"><g/></g></g><g fill="#f9f7f8" fill-opacity="1"><g transform="translate(171.128012, 392.546464)"><g><path d="M 3.84375 0.15625 C 3.175781 0.15625 2.554688 0.046875 1.984375 -0.171875 C 1.410156 -0.390625 0.914062 -0.722656 0.5 -1.171875 L 0.9375 -1.921875 C 1.394531 -1.492188 1.851562 -1.179688 2.3125 -0.984375 C 2.78125 -0.796875 3.273438 -0.703125 3.796875 -0.703125 C 4.421875 -0.703125 4.929688 -0.828125 5.328125 -1.078125 C 5.722656 -1.335938 5.921875 -1.707031 5.921875 -2.1875 C 5.921875 -2.507812 5.820312 -2.753906 5.625 -2.921875 C 5.4375 -3.097656 5.160156 -3.238281 4.796875 -3.34375 C 4.441406 -3.457031 4.019531 -3.578125 3.53125 -3.703125 C 2.96875 -3.847656 2.492188 -4.003906 2.109375 -4.171875 C 1.734375 -4.347656 1.445312 -4.566406 1.25 -4.828125 C 1.0625 -5.097656 0.96875 -5.445312 0.96875 -5.875 C 0.96875 -6.40625 1.097656 -6.84375 1.359375 -7.1875 C 1.628906 -7.539062 1.992188 -7.804688 2.453125 -7.984375 C 2.921875 -8.171875 3.4375 -8.265625 4 -8.265625 C 4.625 -8.265625 5.175781 -8.164062 5.65625 -7.96875 C 6.132812 -7.769531 6.523438 -7.492188 6.828125 -7.140625 L 6.3125 -6.421875 C 6.019531 -6.753906 5.671875 -7 5.265625 -7.15625 C 4.867188 -7.320312 4.425781 -7.40625 3.9375 -7.40625 C 3.613281 -7.40625 3.300781 -7.359375 3 -7.265625 C 2.695312 -7.179688 2.445312 -7.035156 2.25 -6.828125 C 2.0625 -6.628906 1.96875 -6.351562 1.96875 -6 C 1.96875 -5.707031 2.039062 -5.476562 2.1875 -5.3125 C 2.332031 -5.15625 2.550781 -5.019531 2.84375 -4.90625 C 3.132812 -4.800781 3.488281 -4.6875 3.90625 -4.5625 C 4.519531 -4.394531 5.054688 -4.226562 5.515625 -4.0625 C 5.972656 -3.894531 6.328125 -3.675781 6.578125 -3.40625 C 6.828125 -3.132812 6.953125 -2.753906 6.953125 -2.265625 C 6.953125 -1.503906 6.664062 -0.910156 6.09375 -0.484375 C 5.519531 -0.0546875 4.769531 0.15625 3.84375 0.15625 Z M 3.84375 0.15625 "/></g></g></g><g fill="#f9f7f8" fill-opacity="1"><g transform="translate(178.659645, 392.546464)"><g><path d="M 4.625 0.15625 C 4.050781 0.15625 3.515625 0.046875 3.015625 -0.171875 C 2.523438 -0.398438 2.097656 -0.707031 1.734375 -1.09375 C 1.378906 -1.488281 1.101562 -1.9375 0.90625 -2.4375 C 0.707031 -2.945312 0.609375 -3.476562 0.609375 -4.03125 C 0.609375 -4.613281 0.707031 -5.15625 0.90625 -5.65625 C 1.101562 -6.164062 1.382812 -6.613281 1.75 -7 C 2.113281 -7.394531 2.539062 -7.703125 3.03125 -7.921875 C 3.53125 -8.148438 4.066406 -8.265625 4.640625 -8.265625 C 5.222656 -8.265625 5.757812 -8.148438 6.25 -7.921875 C 6.738281 -7.703125 7.164062 -7.394531 7.53125 -7 C 7.894531 -6.613281 8.175781 -6.164062 8.375 -5.65625 C 8.570312 -5.15625 8.671875 -4.613281 8.671875 -4.03125 C 8.671875 -3.476562 8.570312 -2.945312 8.375 -2.4375 C 8.175781 -1.9375 7.894531 -1.488281 7.53125 -1.09375 C 7.175781 -0.707031 6.75 -0.398438 6.25 -0.171875 C 5.757812 0.046875 5.21875 0.15625 4.625 0.15625 Z M 1.6875 -4.015625 C 1.6875 -3.421875 1.816406 -2.875 2.078125 -2.375 C 2.347656 -1.882812 2.707031 -1.492188 3.15625 -1.203125 C 3.601562 -0.921875 4.09375 -0.78125 4.625 -0.78125 C 5.164062 -0.78125 5.660156 -0.925781 6.109375 -1.21875 C 6.554688 -1.507812 6.914062 -1.90625 7.1875 -2.40625 C 7.457031 -2.914062 7.59375 -3.460938 7.59375 -4.046875 C 7.59375 -4.648438 7.457031 -5.203125 7.1875 -5.703125 C 6.914062 -6.203125 6.554688 -6.597656 6.109375 -6.890625 C 5.660156 -7.179688 5.164062 -7.328125 4.625 -7.328125 C 4.09375 -7.328125 3.601562 -7.175781 3.15625 -6.875 C 2.71875 -6.570312 2.363281 -6.171875 2.09375 -5.671875 C 1.820312 -5.179688 1.6875 -4.628906 1.6875 -4.015625 Z M 1.6875 -4.015625 "/></g></g></g><g fill="#f9f7f8" fill-opacity="1"><g transform="translate(187.937747, 392.546464)"><g><path d="M 1.5625 0 L 1.5625 -7.28125 L 0.4375 -7.28125 L 0.4375 -8.125 L 1.5625 -8.125 L 1.5625 -8.34375 C 1.5625 -9.007812 1.65625 -9.582031 1.84375 -10.0625 C 2.039062 -10.539062 2.316406 -10.90625 2.671875 -11.15625 C 3.035156 -11.414062 3.457031 -11.546875 3.9375 -11.546875 C 4.257812 -11.546875 4.570312 -11.5 4.875 -11.40625 C 5.175781 -11.3125 5.4375 -11.1875 5.65625 -11.03125 L 5.328125 -10.265625 C 5.191406 -10.378906 5.015625 -10.46875 4.796875 -10.53125 C 4.578125 -10.59375 4.359375 -10.625 4.140625 -10.625 C 3.660156 -10.625 3.285156 -10.429688 3.015625 -10.046875 C 2.753906 -9.660156 2.625 -9.101562 2.625 -8.375 L 2.625 -8.125 L 4.859375 -8.125 L 4.859375 -7.28125 L 2.625 -7.28125 L 2.625 0 Z M 1.5625 0 "/></g></g></g><g fill="#f9f7f8" fill-opacity="1"><g transform="translate(193.08358, 392.546464)"><g><path d="M 5.0625 -0.390625 C 4.976562 -0.359375 4.847656 -0.300781 4.671875 -0.21875 C 4.492188 -0.132812 4.28125 -0.0625 4.03125 0 C 3.789062 0.0625 3.523438 0.09375 3.234375 0.09375 C 2.929688 0.09375 2.644531 0.0351562 2.375 -0.078125 C 2.113281 -0.191406 1.90625 -0.363281 1.75 -0.59375 C 1.59375 -0.832031 1.515625 -1.125 1.515625 -1.46875 L 1.515625 -7.28125 L 0.390625 -7.28125 L 0.390625 -8.125 L 1.515625 -8.125 L 1.515625 -10.875 L 2.578125 -10.875 L 2.578125 -8.125 L 4.4375 -8.125 L 4.4375 -7.28125 L 2.578125 -7.28125 L 2.578125 -1.765625 C 2.597656 -1.472656 2.703125 -1.253906 2.890625 -1.109375 C 3.085938 -0.960938 3.3125 -0.890625 3.5625 -0.890625 C 3.84375 -0.890625 4.101562 -0.9375 4.34375 -1.03125 C 4.582031 -1.132812 4.726562 -1.207031 4.78125 -1.25 Z M 5.0625 -0.390625 "/></g></g></g><g fill="#f9f7f8" fill-opacity="1"><g transform="translate(198.307397, 392.546464)"><g><path d="M 11.40625 -8.125 L 12.4375 -8.125 L 8.953125 0 L 8.03125 0 L 6.328125 -4.03125 L 4.640625 0 L 3.734375 0 L 0.234375 -8.125 L 1.265625 -8.125 L 4.21875 -1.09375 L 5.71875 -4.75 L 4.34375 -8.109375 L 5.296875 -8.109375 L 6.328125 -5.46875 L 7.375 -8.109375 L 8.3125 -8.109375 L 6.953125 -4.75 L 8.453125 -1.09375 Z M 11.40625 -8.125 "/></g></g></g><g fill="#f9f7f8" fill-opacity="1"><g transform="translate(210.984884, 392.546464)"><g><path d="M 0.515625 -2.34375 C 0.515625 -2.851562 0.660156 -3.289062 0.953125 -3.65625 C 1.242188 -4.019531 1.644531 -4.300781 2.15625 -4.5 C 2.675781 -4.707031 3.269531 -4.8125 3.9375 -4.8125 C 4.332031 -4.8125 4.742188 -4.78125 5.171875 -4.71875 C 5.597656 -4.65625 5.976562 -4.5625 6.3125 -4.4375 L 6.3125 -5.125 C 6.3125 -5.8125 6.109375 -6.359375 5.703125 -6.765625 C 5.296875 -7.171875 4.734375 -7.375 4.015625 -7.375 C 3.585938 -7.375 3.160156 -7.289062 2.734375 -7.125 C 2.316406 -6.96875 1.878906 -6.734375 1.421875 -6.421875 L 1.015625 -7.171875 C 1.546875 -7.535156 2.066406 -7.804688 2.578125 -7.984375 C 3.085938 -8.171875 3.601562 -8.265625 4.125 -8.265625 C 5.125 -8.265625 5.914062 -7.976562 6.5 -7.40625 C 7.082031 -6.832031 7.375 -6.039062 7.375 -5.03125 L 7.375 -1.28125 C 7.375 -1.132812 7.40625 -1.023438 7.46875 -0.953125 C 7.53125 -0.890625 7.628906 -0.851562 7.765625 -0.84375 L 7.765625 0 C 7.648438 0.0078125 7.550781 0.0195312 7.46875 0.03125 C 7.382812 0.0390625 7.320312 0.0390625 7.28125 0.03125 C 7.019531 0.0195312 6.820312 -0.0625 6.6875 -0.21875 C 6.550781 -0.375 6.476562 -0.539062 6.46875 -0.71875 L 6.453125 -1.3125 C 6.085938 -0.84375 5.613281 -0.476562 5.03125 -0.21875 C 4.445312 0.03125 3.859375 0.15625 3.265625 0.15625 C 2.742188 0.15625 2.269531 0.046875 1.84375 -0.171875 C 1.425781 -0.398438 1.097656 -0.703125 0.859375 -1.078125 C 0.628906 -1.460938 0.515625 -1.882812 0.515625 -2.34375 Z M 5.953125 -1.71875 C 6.066406 -1.863281 6.15625 -2.003906 6.21875 -2.140625 C 6.28125 -2.273438 6.3125 -2.394531 6.3125 -2.5 L 6.3125 -3.6875 C 5.957031 -3.820312 5.585938 -3.921875 5.203125 -3.984375 C 4.828125 -4.054688 4.445312 -4.09375 4.0625 -4.09375 C 3.3125 -4.09375 2.703125 -3.941406 2.234375 -3.640625 C 1.765625 -3.347656 1.53125 -2.941406 1.53125 -2.421875 C 1.53125 -2.117188 1.609375 -1.832031 1.765625 -1.5625 C 1.921875 -1.300781 2.148438 -1.082031 2.453125 -0.90625 C 2.753906 -0.738281 3.109375 -0.65625 3.515625 -0.65625 C 4.015625 -0.65625 4.484375 -0.753906 4.921875 -0.953125 C 5.367188 -1.148438 5.710938 -1.40625 5.953125 -1.71875 Z M 5.953125 -1.71875 "/></g></g></g><g fill="#f9f7f8" fill-opacity="1"><g transform="translate(219.48331, 392.546464)"><g><path d="M 5.21875 -7.1875 C 4.507812 -7.164062 3.890625 -6.96875 3.359375 -6.59375 C 2.828125 -6.21875 2.453125 -5.703125 2.234375 -5.046875 L 2.234375 0 L 1.171875 0 L 1.171875 -8.125 L 2.171875 -8.125 L 2.171875 -6.171875 C 2.453125 -6.742188 2.820312 -7.207031 3.28125 -7.5625 C 3.738281 -7.914062 4.226562 -8.113281 4.75 -8.15625 C 4.851562 -8.164062 4.941406 -8.171875 5.015625 -8.171875 C 5.097656 -8.171875 5.164062 -8.164062 5.21875 -8.15625 Z M 5.21875 -7.1875 "/></g></g></g><g fill="#f9f7f8" fill-opacity="1"><g transform="translate(224.956622, 392.546464)"><g><path d="M 4.671875 0.15625 C 4.097656 0.15625 3.5625 0.046875 3.0625 -0.171875 C 2.5625 -0.398438 2.128906 -0.707031 1.765625 -1.09375 C 1.398438 -1.488281 1.113281 -1.941406 0.90625 -2.453125 C 0.707031 -2.960938 0.609375 -3.503906 0.609375 -4.078125 C 0.609375 -4.835938 0.78125 -5.535156 1.125 -6.171875 C 1.476562 -6.804688 1.960938 -7.3125 2.578125 -7.6875 C 3.191406 -8.070312 3.882812 -8.265625 4.65625 -8.265625 C 5.457031 -8.265625 6.15625 -8.070312 6.75 -7.6875 C 7.351562 -7.300781 7.828125 -6.789062 8.171875 -6.15625 C 8.515625 -5.53125 8.6875 -4.84375 8.6875 -4.09375 C 8.6875 -4.007812 8.6875 -3.929688 8.6875 -3.859375 C 8.6875 -3.785156 8.679688 -3.726562 8.671875 -3.6875 L 1.71875 -3.6875 C 1.769531 -3.101562 1.929688 -2.582031 2.203125 -2.125 C 2.484375 -1.675781 2.84375 -1.316406 3.28125 -1.046875 C 3.71875 -0.785156 4.195312 -0.65625 4.71875 -0.65625 C 5.25 -0.65625 5.75 -0.789062 6.21875 -1.0625 C 6.695312 -1.332031 7.03125 -1.6875 7.21875 -2.125 L 8.140625 -1.875 C 7.972656 -1.488281 7.71875 -1.140625 7.375 -0.828125 C 7.03125 -0.515625 6.625 -0.269531 6.15625 -0.09375 C 5.695312 0.0703125 5.203125 0.15625 4.671875 0.15625 Z M 1.6875 -4.4375 L 7.6875 -4.4375 C 7.644531 -5.03125 7.484375 -5.550781 7.203125 -6 C 6.929688 -6.445312 6.570312 -6.796875 6.125 -7.046875 C 5.6875 -7.304688 5.203125 -7.4375 4.671875 -7.4375 C 4.148438 -7.4375 3.671875 -7.304688 3.234375 -7.046875 C 2.796875 -6.796875 2.4375 -6.441406 2.15625 -5.984375 C 1.882812 -5.535156 1.726562 -5.019531 1.6875 -4.4375 Z M 1.6875 -4.4375 "/></g></g></g><g fill="#f9f7f8" fill-opacity="1"><g transform="translate(234.109986, 392.546464)"><g/></g></g><g fill="#f9f7f8" fill-opacity="1"><g transform="translate(238.086326, 392.546464)"><g><path d="M 8.90625 0 L 3.390625 -5.8125 C 2.941406 -6.289062 2.582031 -6.695312 2.3125 -7.03125 C 2.039062 -7.375 1.847656 -7.679688 1.734375 -7.953125 C 1.617188 -8.234375 1.5625 -8.507812 1.5625 -8.78125 C 1.5625 -9.238281 1.679688 -9.648438 1.921875 -10.015625 C 2.171875 -10.378906 2.503906 -10.671875 2.921875 -10.890625 C 3.347656 -11.109375 3.816406 -11.21875 4.328125 -11.21875 C 4.816406 -11.21875 5.253906 -11.125 5.640625 -10.9375 C 6.035156 -10.757812 6.347656 -10.503906 6.578125 -10.171875 C 6.804688 -9.847656 6.921875 -9.46875 6.921875 -9.03125 C 6.921875 -8.5625 6.785156 -8.140625 6.515625 -7.765625 C 6.253906 -7.398438 5.910156 -7.054688 5.484375 -6.734375 C 5.066406 -6.421875 4.601562 -6.101562 4.09375 -5.78125 C 3.675781 -5.488281 3.285156 -5.191406 2.921875 -4.890625 C 2.566406 -4.597656 2.285156 -4.285156 2.078125 -3.953125 C 1.867188 -3.628906 1.765625 -3.253906 1.765625 -2.828125 C 1.765625 -2.367188 1.894531 -1.976562 2.15625 -1.65625 C 2.414062 -1.34375 2.742188 -1.101562 3.140625 -0.9375 C 3.546875 -0.78125 3.957031 -0.703125 4.375 -0.703125 C 4.9375 -0.703125 5.453125 -0.828125 5.921875 -1.078125 C 6.398438 -1.335938 6.816406 -1.691406 7.171875 -2.140625 C 7.523438 -2.597656 7.796875 -3.113281 7.984375 -3.6875 C 8.179688 -4.269531 8.28125 -4.890625 8.28125 -5.546875 L 9.1875 -5.546875 C 9.1875 -4.753906 9.0625 -4.015625 8.8125 -3.328125 C 8.5625 -2.640625 8.210938 -2.035156 7.765625 -1.515625 C 7.328125 -0.992188 6.804688 -0.582031 6.203125 -0.28125 C 5.609375 0.0078125 4.960938 0.15625 4.265625 0.15625 C 3.628906 0.15625 3.039062 0.03125 2.5 -0.21875 C 1.957031 -0.476562 1.523438 -0.832031 1.203125 -1.28125 C 0.890625 -1.726562 0.734375 -2.253906 0.734375 -2.859375 C 0.734375 -3.421875 0.863281 -3.910156 1.125 -4.328125 C 1.394531 -4.742188 1.738281 -5.117188 2.15625 -5.453125 C 2.582031 -5.796875 3.03125 -6.117188 3.5 -6.421875 C 3.96875 -6.734375 4.382812 -7.019531 4.75 -7.28125 C 5.125 -7.550781 5.414062 -7.820312 5.625 -8.09375 C 5.832031 -8.375 5.9375 -8.675781 5.9375 -9 C 5.9375 -9.40625 5.785156 -9.738281 5.484375 -10 C 5.179688 -10.257812 4.796875 -10.390625 4.328125 -10.390625 C 3.992188 -10.390625 3.691406 -10.316406 3.421875 -10.171875 C 3.148438 -10.023438 2.9375 -9.832031 2.78125 -9.59375 C 2.625 -9.351562 2.546875 -9.09375 2.546875 -8.8125 C 2.546875 -8.632812 2.585938 -8.445312 2.671875 -8.25 C 2.753906 -8.0625 2.914062 -7.820312 3.15625 -7.53125 C 3.394531 -7.25 3.734375 -6.875 4.171875 -6.40625 L 10.3125 0 Z M 8.90625 0 "/></g></g></g><g fill="#f9f7f8" fill-opacity="1"><g transform="translate(248.487166, 392.546464)"><g/></g></g><g fill="#f9f7f8" fill-opacity="1"><g transform="translate(252.463506, 392.546464)"><g><path d="M 0.65625 -5.609375 C 0.65625 -6.285156 0.769531 -6.945312 1 -7.59375 C 1.238281 -8.25 1.582031 -8.84375 2.03125 -9.375 C 2.476562 -9.914062 3.023438 -10.34375 3.671875 -10.65625 C 4.328125 -10.976562 5.070312 -11.140625 5.90625 -11.140625 C 6.894531 -11.140625 7.738281 -10.910156 8.4375 -10.453125 C 9.144531 -10.003906 9.664062 -9.425781 10 -8.71875 L 9.140625 -8.1875 C 8.898438 -8.675781 8.597656 -9.0625 8.234375 -9.34375 C 7.867188 -9.632812 7.476562 -9.84375 7.0625 -9.96875 C 6.65625 -10.09375 6.25 -10.15625 5.84375 -10.15625 C 5.175781 -10.15625 4.585938 -10.019531 4.078125 -9.75 C 3.578125 -9.488281 3.148438 -9.132812 2.796875 -8.6875 C 2.453125 -8.25 2.191406 -7.753906 2.015625 -7.203125 C 1.835938 -6.660156 1.75 -6.109375 1.75 -5.546875 C 1.75 -4.929688 1.851562 -4.34375 2.0625 -3.78125 C 2.269531 -3.226562 2.5625 -2.734375 2.9375 -2.296875 C 3.3125 -1.867188 3.75 -1.523438 4.25 -1.265625 C 4.75 -1.015625 5.296875 -0.890625 5.890625 -0.890625 C 6.304688 -0.890625 6.734375 -0.960938 7.171875 -1.109375 C 7.609375 -1.253906 8.015625 -1.476562 8.390625 -1.78125 C 8.773438 -2.082031 9.082031 -2.472656 9.3125 -2.953125 L 10.21875 -2.484375 C 9.988281 -1.929688 9.632812 -1.460938 9.15625 -1.078125 C 8.675781 -0.691406 8.140625 -0.398438 7.546875 -0.203125 C 6.960938 -0.00390625 6.390625 0.09375 5.828125 0.09375 C 5.066406 0.09375 4.367188 -0.0664062 3.734375 -0.390625 C 3.109375 -0.722656 2.5625 -1.160156 2.09375 -1.703125 C 1.632812 -2.253906 1.28125 -2.867188 1.03125 -3.546875 C 0.78125 -4.222656 0.65625 -4.910156 0.65625 -5.609375 Z M 0.65625 -5.609375 "/></g></g></g><g fill="#f9f7f8" fill-opacity="1"><g transform="translate(263.160616, 392.546464)"><g><path d="M 4.625 0.15625 C 4.050781 0.15625 3.515625 0.046875 3.015625 -0.171875 C 2.523438 -0.398438 2.097656 -0.707031 1.734375 -1.09375 C 1.378906 -1.488281 1.101562 -1.9375 0.90625 -2.4375 C 0.707031 -2.945312 0.609375 -3.476562 0.609375 -4.03125 C 0.609375 -4.613281 0.707031 -5.15625 0.90625 -5.65625 C 1.101562 -6.164062 1.382812 -6.613281 1.75 -7 C 2.113281 -7.394531 2.539062 -7.703125 3.03125 -7.921875 C 3.53125 -8.148438 4.066406 -8.265625 4.640625 -8.265625 C 5.222656 -8.265625 5.757812 -8.148438 6.25 -7.921875 C 6.738281 -7.703125 7.164062 -7.394531 7.53125 -7 C 7.894531 -6.613281 8.175781 -6.164062 8.375 -5.65625 C 8.570312 -5.15625 8.671875 -4.613281 8.671875 -4.03125 C 8.671875 -3.476562 8.570312 -2.945312 8.375 -2.4375 C 8.175781 -1.9375 7.894531 -1.488281 7.53125 -1.09375 C 7.175781 -0.707031 6.75 -0.398438 6.25 -0.171875 C 5.757812 0.046875 5.21875 0.15625 4.625 0.15625 Z M 1.6875 -4.015625 C 1.6875 -3.421875 1.816406 -2.875 2.078125 -2.375 C 2.347656 -1.882812 2.707031 -1.492188 3.15625 -1.203125 C 3.601562 -0.921875 4.09375 -0.78125 4.625 -0.78125 C 5.164062 -0.78125 5.660156 -0.925781 6.109375 -1.21875 C 6.554688 -1.507812 6.914062 -1.90625 7.1875 -2.40625 C 7.457031 -2.914062 7.59375 -3.460938 7.59375 -4.046875 C 7.59375 -4.648438 7.457031 -5.203125 7.1875 -5.703125 C 6.914062 -6.203125 6.554688 -6.597656 6.109375 -6.890625 C 5.660156 -7.179688 5.164062 -7.328125 4.625 -7.328125 C 4.09375 -7.328125 3.601562 -7.175781 3.15625 -6.875 C 2.71875 -6.570312 2.363281 -6.171875 2.09375 -5.671875 C 1.820312 -5.179688 1.6875 -4.628906 1.6875 -4.015625 Z M 1.6875 -4.015625 "/></g></g></g><g fill="#f9f7f8" fill-opacity="1"><g transform="translate(272.438717, 392.546464)"><g><path d="M 8 0 L 6.9375 0 L 6.9375 -4.53125 C 6.9375 -5.488281 6.796875 -6.1875 6.515625 -6.625 C 6.234375 -7.070312 5.789062 -7.296875 5.1875 -7.296875 C 4.769531 -7.296875 4.359375 -7.191406 3.953125 -6.984375 C 3.554688 -6.785156 3.203125 -6.507812 2.890625 -6.15625 C 2.585938 -5.8125 2.367188 -5.414062 2.234375 -4.96875 L 2.234375 0 L 1.171875 0 L 1.171875 -8.125 L 2.140625 -8.125 L 2.140625 -6.28125 C 2.359375 -6.675781 2.644531 -7.019531 3 -7.3125 C 3.351562 -7.613281 3.75 -7.847656 4.1875 -8.015625 C 4.632812 -8.179688 5.097656 -8.265625 5.578125 -8.265625 C 6.023438 -8.265625 6.40625 -8.179688 6.71875 -8.015625 C 7.03125 -7.847656 7.28125 -7.609375 7.46875 -7.296875 C 7.65625 -6.992188 7.789062 -6.625 7.875 -6.1875 C 7.957031 -5.757812 8 -5.28125 8 -4.75 Z M 8 0 "/></g></g></g><g fill="#f9f7f8" fill-opacity="1"><g transform="translate(281.529701, 392.546464)"><g><path d="M 3.84375 0.15625 C 3.175781 0.15625 2.554688 0.046875 1.984375 -0.171875 C 1.410156 -0.390625 0.914062 -0.722656 0.5 -1.171875 L 0.9375 -1.921875 C 1.394531 -1.492188 1.851562 -1.179688 2.3125 -0.984375 C 2.78125 -0.796875 3.273438 -0.703125 3.796875 -0.703125 C 4.421875 -0.703125 4.929688 -0.828125 5.328125 -1.078125 C 5.722656 -1.335938 5.921875 -1.707031 5.921875 -2.1875 C 5.921875 -2.507812 5.820312 -2.753906 5.625 -2.921875 C 5.4375 -3.097656 5.160156 -3.238281 4.796875 -3.34375 C 4.441406 -3.457031 4.019531 -3.578125 3.53125 -3.703125 C 2.96875 -3.847656 2.492188 -4.003906 2.109375 -4.171875 C 1.734375 -4.347656 1.445312 -4.566406 1.25 -4.828125 C 1.0625 -5.097656 0.96875 -5.445312 0.96875 -5.875 C 0.96875 -6.40625 1.097656 -6.84375 1.359375 -7.1875 C 1.628906 -7.539062 1.992188 -7.804688 2.453125 -7.984375 C 2.921875 -8.171875 3.4375 -8.265625 4 -8.265625 C 4.625 -8.265625 5.175781 -8.164062 5.65625 -7.96875 C 6.132812 -7.769531 6.523438 -7.492188 6.828125 -7.140625 L 6.3125 -6.421875 C 6.019531 -6.753906 5.671875 -7 5.265625 -7.15625 C 4.867188 -7.320312 4.425781 -7.40625 3.9375 -7.40625 C 3.613281 -7.40625 3.300781 -7.359375 3 -7.265625 C 2.695312 -7.179688 2.445312 -7.035156 2.25 -6.828125 C 2.0625 -6.628906 1.96875 -6.351562 1.96875 -6 C 1.96875 -5.707031 2.039062 -5.476562 2.1875 -5.3125 C 2.332031 -5.15625 2.550781 -5.019531 2.84375 -4.90625 C 3.132812 -4.800781 3.488281 -4.6875 3.90625 -4.5625 C 4.519531 -4.394531 5.054688 -4.226562 5.515625 -4.0625 C 5.972656 -3.894531 6.328125 -3.675781 6.578125 -3.40625 C 6.828125 -3.132812 6.953125 -2.753906 6.953125 -2.265625 C 6.953125 -1.503906 6.664062 -0.910156 6.09375 -0.484375 C 5.519531 -0.0546875 4.769531 0.15625 3.84375 0.15625 Z M 3.84375 0.15625 "/></g></g></g><g fill="#f9f7f8" fill-opacity="1"><g transform="translate(289.061335, 392.546464)"><g><path d="M 1.09375 -3.359375 L 1.09375 -8.125 L 2.15625 -8.125 L 2.15625 -3.546875 C 2.15625 -2.617188 2.3125 -1.925781 2.625 -1.46875 C 2.945312 -1.007812 3.414062 -0.78125 4.03125 -0.78125 C 4.445312 -0.78125 4.847656 -0.867188 5.234375 -1.046875 C 5.628906 -1.234375 5.976562 -1.492188 6.28125 -1.828125 C 6.582031 -2.171875 6.8125 -2.566406 6.96875 -3.015625 L 6.96875 -8.125 L 8.03125 -8.125 L 8.03125 -1.28125 C 8.03125 -1.132812 8.0625 -1.023438 8.125 -0.953125 C 8.1875 -0.890625 8.28125 -0.851562 8.40625 -0.84375 L 8.40625 0 C 8.28125 0.0078125 8.179688 0.015625 8.109375 0.015625 C 8.035156 0.0234375 7.96875 0.03125 7.90625 0.03125 C 7.695312 0.0078125 7.515625 -0.0703125 7.359375 -0.21875 C 7.210938 -0.363281 7.132812 -0.539062 7.125 -0.75 L 7.09375 -1.84375 C 6.738281 -1.21875 6.253906 -0.726562 5.640625 -0.375 C 5.035156 -0.0195312 4.382812 0.15625 3.6875 0.15625 C 2.832031 0.15625 2.1875 -0.140625 1.75 -0.734375 C 1.3125 -1.328125 1.09375 -2.203125 1.09375 -3.359375 Z M 1.09375 -3.359375 "/></g></g></g><g fill="#f9f7f8" fill-opacity="1"><g transform="translate(298.323852, 392.546464)"><g><path d="M 1.21875 -11.390625 L 2.28125 -11.390625 L 2.28125 -1.84375 C 2.28125 -1.4375 2.351562 -1.171875 2.5 -1.046875 C 2.644531 -0.921875 2.820312 -0.859375 3.03125 -0.859375 C 3.21875 -0.859375 3.40625 -0.878906 3.59375 -0.921875 C 3.78125 -0.960938 3.9375 -1.003906 4.0625 -1.046875 L 4.25 -0.1875 C 4.050781 -0.101562 3.8125 -0.0351562 3.53125 0.015625 C 3.25 0.0664062 3.003906 0.09375 2.796875 0.09375 C 2.316406 0.09375 1.929688 -0.046875 1.640625 -0.328125 C 1.359375 -0.609375 1.21875 -0.992188 1.21875 -1.484375 Z M 1.21875 -11.390625 "/></g></g></g><g fill="#f9f7f8" fill-opacity="1"><g transform="translate(302.565272, 392.546464)"><g><path d="M 5.0625 -0.390625 C 4.976562 -0.359375 4.847656 -0.300781 4.671875 -0.21875 C 4.492188 -0.132812 4.28125 -0.0625 4.03125 0 C 3.789062 0.0625 3.523438 0.09375 3.234375 0.09375 C 2.929688 0.09375 2.644531 0.0351562 2.375 -0.078125 C 2.113281 -0.191406 1.90625 -0.363281 1.75 -0.59375 C 1.59375 -0.832031 1.515625 -1.125 1.515625 -1.46875 L 1.515625 -7.28125 L 0.390625 -7.28125 L 0.390625 -8.125 L 1.515625 -8.125 L 1.515625 -10.875 L 2.578125 -10.875 L 2.578125 -8.125 L 4.4375 -8.125 L 4.4375 -7.28125 L 2.578125 -7.28125 L 2.578125 -1.765625 C 2.597656 -1.472656 2.703125 -1.253906 2.890625 -1.109375 C 3.085938 -0.960938 3.3125 -0.890625 3.5625 -0.890625 C 3.84375 -0.890625 4.101562 -0.9375 4.34375 -1.03125 C 4.582031 -1.132812 4.726562 -1.207031 4.78125 -1.25 Z M 5.0625 -0.390625 "/></g></g></g><g fill="#f9f7f8" fill-opacity="1"><g transform="translate(307.789089, 392.546464)"><g><path d="M 1.171875 0 L 1.171875 -8.125 L 2.234375 -8.125 L 2.234375 0 Z M 1.171875 -9.828125 L 1.171875 -11.390625 L 2.234375 -11.390625 L 2.234375 -9.828125 Z M 1.171875 -9.828125 "/></g></g></g><g fill="#f9f7f8" fill-opacity="1"><g transform="translate(311.188455, 392.546464)"><g><path d="M 8 0 L 6.9375 0 L 6.9375 -4.53125 C 6.9375 -5.488281 6.796875 -6.1875 6.515625 -6.625 C 6.234375 -7.070312 5.789062 -7.296875 5.1875 -7.296875 C 4.769531 -7.296875 4.359375 -7.191406 3.953125 -6.984375 C 3.554688 -6.785156 3.203125 -6.507812 2.890625 -6.15625 C 2.585938 -5.8125 2.367188 -5.414062 2.234375 -4.96875 L 2.234375 0 L 1.171875 0 L 1.171875 -8.125 L 2.140625 -8.125 L 2.140625 -6.28125 C 2.359375 -6.675781 2.644531 -7.019531 3 -7.3125 C 3.351562 -7.613281 3.75 -7.847656 4.1875 -8.015625 C 4.632812 -8.179688 5.097656 -8.265625 5.578125 -8.265625 C 6.023438 -8.265625 6.40625 -8.179688 6.71875 -8.015625 C 7.03125 -7.847656 7.28125 -7.609375 7.46875 -7.296875 C 7.65625 -6.992188 7.789062 -6.625 7.875 -6.1875 C 7.957031 -5.757812 8 -5.28125 8 -4.75 Z M 8 0 "/></g></g></g><g fill="#f9f7f8" fill-opacity="1"><g transform="translate(320.27944, 392.546464)"><g><path d="M 4.421875 0.109375 C 3.878906 0.109375 3.375 -0.00390625 2.90625 -0.234375 C 2.4375 -0.460938 2.03125 -0.769531 1.6875 -1.15625 C 1.351562 -1.550781 1.09375 -2 0.90625 -2.5 C 0.71875 -3 0.625 -3.507812 0.625 -4.03125 C 0.625 -4.601562 0.710938 -5.140625 0.890625 -5.640625 C 1.078125 -6.148438 1.335938 -6.601562 1.671875 -7 C 2.015625 -7.394531 2.414062 -7.703125 2.875 -7.921875 C 3.332031 -8.148438 3.835938 -8.265625 4.390625 -8.265625 C 5.085938 -8.265625 5.691406 -8.085938 6.203125 -7.734375 C 6.722656 -7.378906 7.160156 -6.941406 7.515625 -6.421875 L 7.515625 -8.125 L 8.46875 -8.125 L 8.46875 0.03125 C 8.46875 0.78125 8.285156 1.410156 7.921875 1.921875 C 7.566406 2.441406 7.082031 2.832031 6.46875 3.09375 C 5.863281 3.351562 5.203125 3.484375 4.484375 3.484375 C 3.566406 3.484375 2.820312 3.316406 2.25 2.984375 C 1.675781 2.648438 1.207031 2.203125 0.84375 1.640625 L 1.5 1.125 C 1.820312 1.632812 2.25 2.015625 2.78125 2.265625 C 3.320312 2.515625 3.890625 2.640625 4.484375 2.640625 C 5.015625 2.640625 5.5 2.539062 5.9375 2.34375 C 6.382812 2.15625 6.738281 1.867188 7 1.484375 C 7.269531 1.097656 7.40625 0.613281 7.40625 0.03125 L 7.40625 -1.578125 C 7.09375 -1.066406 6.664062 -0.65625 6.125 -0.34375 C 5.582031 -0.0390625 5.015625 0.109375 4.421875 0.109375 Z M 4.71875 -0.78125 C 5.039062 -0.78125 5.347656 -0.835938 5.640625 -0.953125 C 5.941406 -1.066406 6.21875 -1.21875 6.46875 -1.40625 C 6.71875 -1.601562 6.925781 -1.820312 7.09375 -2.0625 C 7.257812 -2.300781 7.363281 -2.546875 7.40625 -2.796875 L 7.40625 -5.296875 C 7.25 -5.691406 7.023438 -6.039062 6.734375 -6.34375 C 6.441406 -6.65625 6.109375 -6.894531 5.734375 -7.0625 C 5.367188 -7.238281 4.988281 -7.328125 4.59375 -7.328125 C 4.132812 -7.328125 3.726562 -7.226562 3.375 -7.03125 C 3.019531 -6.84375 2.71875 -6.585938 2.46875 -6.265625 C 2.226562 -5.953125 2.039062 -5.597656 1.90625 -5.203125 C 1.769531 -4.804688 1.703125 -4.410156 1.703125 -4.015625 C 1.703125 -3.585938 1.78125 -3.175781 1.9375 -2.78125 C 2.09375 -2.394531 2.304688 -2.046875 2.578125 -1.734375 C 2.859375 -1.429688 3.179688 -1.195312 3.546875 -1.03125 C 3.910156 -0.863281 4.300781 -0.78125 4.71875 -0.78125 Z M 4.71875 -0.78125 "/></g></g></g></svg>