<svg xmlns="http://www.w3.org/2000/svg" xmlns:xlink="http://www.w3.org/1999/xlink" width="685" zoomAndPan="magnify" viewBox="0 0 513.75 470.25" height="627" preserveAspectRatio="xMidYMid meet" version="1.0"><defs><g/></defs><g fill="#ff6f00" fill-opacity="1"><g transform="translate(64.867205, 327.722716)"><g><path d="M 64.03125 -207.90625 L 64.03125 -202.640625 L 52.671875 -202.640625 C 50.265625 -202.640625 48.367188 -201.625 46.984375 -199.59375 C 45.597656 -197.5625 44.90625 -194.878906 44.90625 -191.546875 C 44.90625 -174.910156 44.90625 -160.3125 44.90625 -147.75 C 44.90625 -135.1875 44.90625 -125.4375 44.90625 -118.5 C 44.90625 -111.570312 44.8125 -108.109375 44.625 -108.109375 C 44.625 -104.046875 42.726562 -100.164062 38.9375 -96.46875 C 35.15625 -92.769531 30.03125 -90 23.5625 -88.15625 C 30.03125 -86.300781 35.15625 -83.570312 38.9375 -79.96875 C 42.726562 -76.363281 44.625 -72.4375 44.625 -68.1875 L 44.90625 15.25 C 44.90625 18.570312 45.597656 21.25 46.984375 23.28125 C 48.367188 25.3125 50.265625 26.328125 52.671875 26.328125 L 64.03125 26.328125 L 64.03125 31.875 L 52.671875 31.875 C 48.421875 31.875 44.953125 30.347656 42.265625 27.296875 C 39.585938 24.253906 38.25 20.238281 38.25 15.25 L 38.25 -69.296875 C 38.25 -74.109375 36.304688 -78.035156 32.421875 -81.078125 C 28.546875 -84.128906 23.375 -85.65625 16.90625 -85.65625 L 15.25 -85.65625 L 15.25 -90.375 L 16.90625 -90.375 C 23.375 -90.375 28.546875 -91.894531 32.421875 -94.9375 C 36.304688 -97.988281 38.25 -101.914062 38.25 -106.71875 L 38.25 -191.265625 C 38.25 -196.253906 39.585938 -200.273438 42.265625 -203.328125 C 44.953125 -206.378906 48.421875 -207.90625 52.671875 -207.90625 Z M 64.03125 -207.90625 "/></g></g></g><g fill="#ff6f00" fill-opacity="1"><g transform="translate(136.940855, 327.722716)"><g/></g></g><g fill="#ff6f00" fill-opacity="1"><g transform="translate(176.857629, 327.722716)"><g/></g></g><g fill="#ff6f00" fill-opacity="1"><g transform="translate(216.774402, 327.722716)"><g/></g></g><g fill="#ff6f00" fill-opacity="1"><g transform="translate(256.691176, 327.722716)"><g/></g></g><g fill="#ff6f00" fill-opacity="1"><g transform="translate(296.60795, 327.722716)"><g/></g></g><g fill="#ff6f00" fill-opacity="1"><g transform="translate(336.524723, 327.722716)"><g/></g></g><g fill="#ff6f00" fill-opacity="1"><g transform="translate(376.449181, 327.722716)"><g><path d="M 8.3125 -207.90625 L 19.40625 -207.90625 C 23.84375 -207.90625 27.398438 -206.378906 30.078125 -203.328125 C 32.753906 -200.273438 34.09375 -196.253906 34.09375 -191.265625 C 34.09375 -174.453125 34.09375 -159.671875 34.09375 -146.921875 C 34.09375 -134.171875 34.09375 -124.28125 34.09375 -117.25 C 34.09375 -110.226562 34 -106.71875 33.8125 -106.71875 C 34 -101.914062 36.078125 -97.988281 40.046875 -94.9375 C 44.023438 -91.894531 49.15625 -90.375 55.4375 -90.375 L 57.109375 -90.375 L 57.109375 -85.65625 L 55.4375 -85.65625 C 49.15625 -85.65625 44.023438 -84.128906 40.046875 -81.078125 C 36.078125 -78.035156 34 -74.109375 33.8125 -69.296875 L 34.09375 15.25 C 34.09375 20.238281 32.753906 24.253906 30.078125 27.296875 C 27.398438 30.347656 23.84375 31.875 19.40625 31.875 L 8.3125 31.875 L 8.3125 26.328125 L 19.40625 26.328125 C 21.8125 26.328125 23.75 25.3125 25.21875 23.28125 C 26.695312 21.25 27.4375 18.570312 27.4375 15.25 L 27.4375 -68.1875 C 27.625 -72.4375 29.65625 -76.363281 33.53125 -79.96875 C 37.414062 -83.570312 42.5 -86.300781 48.78125 -88.15625 C 42.5 -90 37.414062 -92.769531 33.53125 -96.46875 C 29.65625 -100.164062 27.625 -104.046875 27.4375 -108.109375 L 27.4375 -191.546875 C 27.4375 -194.878906 26.695312 -197.5625 25.21875 -199.59375 C 23.75 -201.625 21.8125 -202.640625 19.40625 -202.640625 L 8.3125 -202.640625 Z M 8.3125 -207.90625 "/></g></g></g><g fill="#ffffff" fill-opacity="1"><g transform="translate(163.980283, 321.674051)"><g><path d="M 48.34375 -7.84375 L 151.296875 -7.84375 L 151.296875 -164.359375 L 92.5 -38.40625 L 33.703125 -164.609375 L 33.703125 0 L 25.875 -0.265625 L 25.875 -183.171875 L 33.703125 -183.171875 L 92.5 -56.96875 L 151.296875 -182.90625 L 159.125 -183.171875 L 159.125 0 L 48.34375 -0.265625 Z M 48.34375 -7.84375 "/></g></g></g></svg>