<svg xmlns="http://www.w3.org/2000/svg" xmlns:xlink="http://www.w3.org/1999/xlink" width="551" zoomAndPan="magnify" viewBox="0 0 413.25 377.999986" height="504" preserveAspectRatio="xMidYMid meet" version="1.0"><defs><g/></defs><g fill="#ff6f00" fill-opacity="1"><g transform="translate(51.852837, 263.466739)"><g><path d="M 51.40625 -166.921875 L 51.40625 -162.6875 L 42.28125 -162.6875 C 40.351562 -162.6875 38.832031 -161.867188 37.71875 -160.234375 C 36.613281 -158.609375 36.0625 -156.460938 36.0625 -153.796875 C 36.0625 -140.441406 36.0625 -128.71875 36.0625 -118.625 C 36.0625 -108.539062 36.0625 -100.710938 36.0625 -95.140625 C 36.0625 -89.578125 35.984375 -86.796875 35.828125 -86.796875 C 35.828125 -83.535156 34.304688 -80.421875 31.265625 -77.453125 C 28.222656 -74.484375 24.109375 -72.257812 18.921875 -70.78125 C 24.109375 -69.289062 28.222656 -67.097656 31.265625 -64.203125 C 34.304688 -61.316406 35.828125 -58.164062 35.828125 -54.75 L 36.0625 12.234375 C 36.0625 14.910156 36.613281 17.0625 37.71875 18.6875 C 38.832031 20.320312 40.351562 21.140625 42.28125 21.140625 L 51.40625 21.140625 L 51.40625 25.59375 L 42.28125 25.59375 C 38.875 25.59375 36.09375 24.367188 33.9375 21.921875 C 31.789062 19.472656 30.71875 16.242188 30.71875 12.234375 L 30.71875 -55.640625 C 30.71875 -59.492188 29.15625 -62.644531 26.03125 -65.09375 C 22.914062 -67.539062 18.765625 -68.765625 13.578125 -68.765625 L 12.234375 -68.765625 L 12.234375 -72.5625 L 13.578125 -72.5625 C 18.765625 -72.5625 22.914062 -73.785156 26.03125 -76.234375 C 29.15625 -78.679688 30.71875 -81.832031 30.71875 -85.6875 L 30.71875 -153.5625 C 30.71875 -157.570312 31.789062 -160.800781 33.9375 -163.25 C 36.09375 -165.695312 38.875 -166.921875 42.28125 -166.921875 Z M 51.40625 -166.921875 "/></g></g></g><g fill="#ff6f00" fill-opacity="1"><g transform="translate(109.719846, 263.466739)"><g/></g></g><g fill="#ff6f00" fill-opacity="1"><g transform="translate(141.768511, 263.466739)"><g/></g></g><g fill="#ff6f00" fill-opacity="1"><g transform="translate(173.817176, 263.466739)"><g/></g></g><g fill="#ff6f00" fill-opacity="1"><g transform="translate(205.865841, 263.466739)"><g/></g></g><g fill="#ff6f00" fill-opacity="1"><g transform="translate(237.914506, 263.466739)"><g/></g></g><g fill="#ff6f00" fill-opacity="1"><g transform="translate(269.963171, 263.466739)"><g/></g></g><g fill="#ff6f00" fill-opacity="1"><g transform="translate(302.018005, 263.466739)"><g><path d="M 6.671875 -166.921875 L 15.578125 -166.921875 C 19.140625 -166.921875 21.992188 -165.695312 24.140625 -163.25 C 26.296875 -160.800781 27.375 -157.570312 27.375 -153.5625 C 27.375 -140.0625 27.375 -128.191406 27.375 -117.953125 C 27.375 -107.722656 27.375 -99.785156 27.375 -94.140625 C 27.375 -88.503906 27.300781 -85.6875 27.15625 -85.6875 C 27.300781 -81.832031 28.96875 -78.679688 32.15625 -76.234375 C 35.351562 -73.785156 39.472656 -72.5625 44.515625 -72.5625 L 45.84375 -72.5625 L 45.84375 -68.765625 L 44.515625 -68.765625 C 39.472656 -68.765625 35.351562 -67.539062 32.15625 -65.09375 C 28.96875 -62.644531 27.300781 -59.492188 27.15625 -55.640625 L 27.375 12.234375 C 27.375 16.242188 26.296875 19.472656 24.140625 21.921875 C 21.992188 24.367188 19.140625 25.59375 15.578125 25.59375 L 6.671875 25.59375 L 6.671875 21.140625 L 15.578125 21.140625 C 17.503906 21.140625 19.0625 20.320312 20.25 18.6875 C 21.4375 17.0625 22.03125 14.910156 22.03125 12.234375 L 22.03125 -54.75 C 22.175781 -58.164062 23.804688 -61.316406 26.921875 -64.203125 C 30.046875 -67.097656 34.128906 -69.289062 39.171875 -70.78125 C 34.128906 -72.257812 30.046875 -74.484375 26.921875 -77.453125 C 23.804688 -80.421875 22.175781 -83.535156 22.03125 -86.796875 L 22.03125 -153.796875 C 22.03125 -156.460938 21.4375 -158.609375 20.25 -160.234375 C 19.0625 -161.867188 17.503906 -162.6875 15.578125 -162.6875 L 6.671875 -162.6875 Z M 6.671875 -166.921875 "/></g></g></g><g fill="#000000" fill-opacity="1"><g transform="translate(131.429459, 258.610342)"><g><path d="M 38.8125 -6.296875 L 121.46875 -6.296875 L 121.46875 -131.953125 L 74.265625 -30.84375 L 27.0625 -132.15625 L 27.0625 0 L 20.765625 -0.203125 L 20.765625 -147.0625 L 27.0625 -147.0625 L 74.265625 -45.734375 L 121.46875 -146.84375 L 127.75 -147.0625 L 127.75 0 L 38.8125 -0.203125 Z M 38.8125 -6.296875 "/></g></g></g></svg>