<svg xmlns="http://www.w3.org/2000/svg" xmlns:xlink="http://www.w3.org/1999/xlink" width="446" zoomAndPan="magnify" viewBox="0 0 334.5 102.749999" height="137" preserveAspectRatio="xMidYMid meet" version="1.0"><defs><g/></defs><g fill="#000000" fill-opacity="1"><g transform="translate(15.132808, 86.665666)"><g><path d="M 5.3125 -13.34375 C 7.5625 -13.34375 9.296875 -12.753906 10.515625 -11.578125 C 11.742188 -10.398438 12.359375 -8.757812 12.359375 -6.65625 C 12.359375 -4.550781 11.742188 -2.914062 10.515625 -1.75 C 9.296875 -0.582031 7.5625 0 5.3125 0 L 1.5625 0 L 1.5625 -13.34375 Z M 5.3125 -0.71875 C 7.320312 -0.71875 8.851562 -1.238281 9.90625 -2.28125 C 10.957031 -3.332031 11.484375 -4.789062 11.484375 -6.65625 C 11.484375 -8.53125 10.957031 -9.992188 9.90625 -11.046875 C 8.851562 -12.097656 7.320312 -12.625 5.3125 -12.625 L 2.421875 -12.625 L 2.421875 -0.71875 Z M 5.3125 -0.71875 "/></g></g></g><g fill="#000000" fill-opacity="1"><g transform="translate(28.516356, 86.665666)"><g><path d="M 10.859375 -5.859375 C 10.859375 -5.398438 10.84375 -5.054688 10.8125 -4.828125 L 1.90625 -4.828125 C 1.925781 -3.898438 2.125 -3.117188 2.5 -2.484375 C 2.882812 -1.859375 3.382812 -1.382812 4 -1.0625 C 4.625 -0.75 5.304688 -0.59375 6.046875 -0.59375 C 7.054688 -0.59375 7.90625 -0.84375 8.59375 -1.34375 C 9.28125 -1.84375 9.710938 -2.523438 9.890625 -3.390625 L 10.78125 -3.390625 C 10.582031 -2.335938 10.0625 -1.484375 9.21875 -0.828125 C 8.382812 -0.171875 7.328125 0.15625 6.046875 0.15625 C 5.085938 0.15625 4.222656 -0.0546875 3.453125 -0.484375 C 2.691406 -0.921875 2.097656 -1.539062 1.671875 -2.34375 C 1.242188 -3.15625 1.03125 -4.097656 1.03125 -5.171875 C 1.03125 -6.242188 1.238281 -7.179688 1.65625 -7.984375 C 2.082031 -8.785156 2.675781 -9.394531 3.4375 -9.8125 C 4.195312 -10.238281 5.066406 -10.453125 6.046875 -10.453125 C 7.035156 -10.453125 7.894531 -10.238281 8.625 -9.8125 C 9.351562 -9.394531 9.90625 -8.832031 10.28125 -8.125 C 10.664062 -7.425781 10.859375 -6.671875 10.859375 -5.859375 Z M 10 -5.53125 C 10.039062 -6.445312 9.878906 -7.21875 9.515625 -7.84375 C 9.148438 -8.476562 8.65625 -8.953125 8.03125 -9.265625 C 7.414062 -9.578125 6.75 -9.734375 6.03125 -9.734375 C 5.300781 -9.734375 4.628906 -9.578125 4.015625 -9.265625 C 3.398438 -8.953125 2.898438 -8.476562 2.515625 -7.84375 C 2.128906 -7.21875 1.925781 -6.445312 1.90625 -5.53125 Z M 10 -5.53125 "/></g></g></g><g fill="#000000" fill-opacity="1"><g transform="translate(40.398051, 86.665666)"><g><path d="M 5 0.15625 C 3.84375 0.15625 2.898438 -0.0976562 2.171875 -0.609375 C 1.441406 -1.117188 1.035156 -1.84375 0.953125 -2.78125 L 1.828125 -2.78125 C 1.890625 -2.101562 2.195312 -1.566406 2.75 -1.171875 C 3.300781 -0.785156 4.050781 -0.59375 5 -0.59375 C 5.789062 -0.59375 6.414062 -0.789062 6.875 -1.1875 C 7.332031 -1.582031 7.5625 -2.070312 7.5625 -2.65625 C 7.5625 -3.0625 7.4375 -3.394531 7.1875 -3.65625 C 6.945312 -3.914062 6.640625 -4.113281 6.265625 -4.25 C 5.898438 -4.394531 5.398438 -4.550781 4.765625 -4.71875 C 4.003906 -4.914062 3.390625 -5.113281 2.921875 -5.3125 C 2.453125 -5.507812 2.050781 -5.800781 1.71875 -6.1875 C 1.394531 -6.582031 1.234375 -7.113281 1.234375 -7.78125 C 1.234375 -8.257812 1.378906 -8.703125 1.671875 -9.109375 C 1.960938 -9.523438 2.367188 -9.851562 2.890625 -10.09375 C 3.410156 -10.332031 4 -10.453125 4.65625 -10.453125 C 5.738281 -10.453125 6.609375 -10.179688 7.265625 -9.640625 C 7.929688 -9.109375 8.289062 -8.367188 8.34375 -7.421875 L 7.484375 -7.421875 C 7.453125 -8.097656 7.1875 -8.648438 6.6875 -9.078125 C 6.195312 -9.515625 5.515625 -9.734375 4.640625 -9.734375 C 3.898438 -9.734375 3.289062 -9.539062 2.8125 -9.15625 C 2.332031 -8.78125 2.09375 -8.320312 2.09375 -7.78125 C 2.09375 -7.300781 2.226562 -6.910156 2.5 -6.609375 C 2.769531 -6.304688 3.101562 -6.078125 3.5 -5.921875 C 3.90625 -5.765625 4.4375 -5.597656 5.09375 -5.421875 C 5.820312 -5.234375 6.398438 -5.046875 6.828125 -4.859375 C 7.265625 -4.671875 7.632812 -4.398438 7.9375 -4.046875 C 8.25 -3.703125 8.40625 -3.238281 8.40625 -2.65625 C 8.40625 -2.125 8.257812 -1.644531 7.96875 -1.21875 C 7.675781 -0.789062 7.269531 -0.453125 6.75 -0.203125 C 6.226562 0.0351562 5.644531 0.15625 5 0.15625 Z M 5 0.15625 "/></g></g></g><g fill="#000000" fill-opacity="1"><g transform="translate(49.846374, 86.665666)"><g><path d="M 1.03125 -5.171875 C 1.03125 -6.234375 1.238281 -7.164062 1.65625 -7.96875 C 2.082031 -8.769531 2.671875 -9.382812 3.421875 -9.8125 C 4.179688 -10.238281 5.046875 -10.453125 6.015625 -10.453125 C 7.097656 -10.453125 8.019531 -10.1875 8.78125 -9.65625 C 9.539062 -9.125 10.070312 -8.445312 10.375 -7.625 L 10.375 -10.328125 L 11.234375 -10.328125 L 11.234375 0 L 10.375 0 L 10.375 -2.71875 C 10.070312 -1.882812 9.535156 -1.195312 8.765625 -0.65625 C 8.003906 -0.113281 7.085938 0.15625 6.015625 0.15625 C 5.046875 0.15625 4.179688 -0.0625 3.421875 -0.5 C 2.671875 -0.9375 2.082031 -1.554688 1.65625 -2.359375 C 1.238281 -3.171875 1.03125 -4.109375 1.03125 -5.171875 Z M 10.375 -5.171875 C 10.375 -6.066406 10.1875 -6.859375 9.8125 -7.546875 C 9.445312 -8.242188 8.941406 -8.78125 8.296875 -9.15625 C 7.648438 -9.53125 6.925781 -9.71875 6.125 -9.71875 C 5.289062 -9.71875 4.554688 -9.535156 3.921875 -9.171875 C 3.285156 -8.816406 2.789062 -8.296875 2.4375 -7.609375 C 2.082031 -6.921875 1.90625 -6.109375 1.90625 -5.171875 C 1.90625 -4.234375 2.082031 -3.421875 2.4375 -2.734375 C 2.789062 -2.054688 3.285156 -1.53125 3.921875 -1.15625 C 4.566406 -0.789062 5.300781 -0.609375 6.125 -0.609375 C 6.925781 -0.609375 7.648438 -0.796875 8.296875 -1.171875 C 8.953125 -1.546875 9.460938 -2.078125 9.828125 -2.765625 C 10.191406 -3.453125 10.375 -4.253906 10.375 -5.171875 Z M 10.375 -5.171875 "/></g></g></g><g fill="#000000" fill-opacity="1"><g transform="translate(62.640593, 86.665666)"><g><path d="M 2.421875 -8.203125 C 2.671875 -8.960938 3.117188 -9.539062 3.765625 -9.9375 C 4.410156 -10.332031 5.234375 -10.53125 6.234375 -10.53125 L 6.234375 -9.640625 L 5.953125 -9.640625 C 4.941406 -9.640625 4.097656 -9.347656 3.421875 -8.765625 C 2.753906 -8.191406 2.421875 -7.253906 2.421875 -5.953125 L 2.421875 0 L 1.5625 0 L 1.5625 -10.328125 L 2.421875 -10.328125 Z M 2.421875 -8.203125 "/></g></g></g><g fill="#000000" fill-opacity="1"><g transform="translate(69.294338, 86.665666)"><g><path d="M 2.421875 -8.203125 C 2.671875 -8.960938 3.117188 -9.539062 3.765625 -9.9375 C 4.410156 -10.332031 5.234375 -10.53125 6.234375 -10.53125 L 6.234375 -9.640625 L 5.953125 -9.640625 C 4.941406 -9.640625 4.097656 -9.347656 3.421875 -8.765625 C 2.753906 -8.191406 2.421875 -7.253906 2.421875 -5.953125 L 2.421875 0 L 1.5625 0 L 1.5625 -10.328125 L 2.421875 -10.328125 Z M 2.421875 -8.203125 "/></g></g></g><g fill="#000000" fill-opacity="1"><g transform="translate(75.948082, 86.665666)"><g><path d="M 6.109375 0.15625 C 5.140625 0.15625 4.269531 -0.0546875 3.5 -0.484375 C 2.726562 -0.921875 2.125 -1.539062 1.6875 -2.34375 C 1.25 -3.15625 1.03125 -4.097656 1.03125 -5.171875 C 1.03125 -6.234375 1.25 -7.164062 1.6875 -7.96875 C 2.132812 -8.78125 2.75 -9.394531 3.53125 -9.8125 C 4.3125 -10.238281 5.179688 -10.453125 6.140625 -10.453125 C 7.109375 -10.453125 7.976562 -10.238281 8.75 -9.8125 C 9.519531 -9.394531 10.125 -8.785156 10.5625 -7.984375 C 11 -7.179688 11.21875 -6.242188 11.21875 -5.171875 C 11.21875 -4.097656 10.992188 -3.15625 10.546875 -2.34375 C 10.109375 -1.539062 9.5 -0.921875 8.71875 -0.484375 C 7.9375 -0.0546875 7.066406 0.15625 6.109375 0.15625 Z M 6.109375 -0.609375 C 6.847656 -0.609375 7.546875 -0.773438 8.203125 -1.109375 C 8.859375 -1.441406 9.378906 -1.953125 9.765625 -2.640625 C 10.160156 -3.328125 10.359375 -4.171875 10.359375 -5.171875 C 10.359375 -6.160156 10.160156 -6.992188 9.765625 -7.671875 C 9.378906 -8.359375 8.863281 -8.867188 8.21875 -9.203125 C 7.570312 -9.546875 6.875 -9.71875 6.125 -9.71875 C 5.375 -9.71875 4.675781 -9.546875 4.03125 -9.203125 C 3.394531 -8.867188 2.878906 -8.359375 2.484375 -7.671875 C 2.097656 -6.992188 1.90625 -6.160156 1.90625 -5.171875 C 1.90625 -4.171875 2.097656 -3.328125 2.484375 -2.640625 C 2.867188 -1.953125 3.378906 -1.441406 4.015625 -1.109375 C 4.660156 -0.773438 5.359375 -0.609375 6.109375 -0.609375 Z M 6.109375 -0.609375 "/></g></g></g><g fill="#000000" fill-opacity="1"><g transform="translate(88.209999, 86.665666)"><g><path d="M 2.421875 -14.078125 L 2.421875 0 L 1.5625 0 L 1.5625 -14.078125 Z M 2.421875 -14.078125 "/></g></g></g><g fill="#000000" fill-opacity="1"><g transform="translate(92.202249, 86.665666)"><g><path d="M 2.421875 -14.078125 L 2.421875 0 L 1.5625 0 L 1.5625 -14.078125 Z M 2.421875 -14.078125 "/></g></g></g><g fill="#000000" fill-opacity="1"><g transform="translate(96.194499, 86.665666)"><g><path d="M 6.109375 0.15625 C 5.140625 0.15625 4.269531 -0.0546875 3.5 -0.484375 C 2.726562 -0.921875 2.125 -1.539062 1.6875 -2.34375 C 1.25 -3.15625 1.03125 -4.097656 1.03125 -5.171875 C 1.03125 -6.234375 1.25 -7.164062 1.6875 -7.96875 C 2.132812 -8.78125 2.75 -9.394531 3.53125 -9.8125 C 4.3125 -10.238281 5.179688 -10.453125 6.140625 -10.453125 C 7.109375 -10.453125 7.976562 -10.238281 8.75 -9.8125 C 9.519531 -9.394531 10.125 -8.785156 10.5625 -7.984375 C 11 -7.179688 11.21875 -6.242188 11.21875 -5.171875 C 11.21875 -4.097656 10.992188 -3.15625 10.546875 -2.34375 C 10.109375 -1.539062 9.5 -0.921875 8.71875 -0.484375 C 7.9375 -0.0546875 7.066406 0.15625 6.109375 0.15625 Z M 6.109375 -0.609375 C 6.847656 -0.609375 7.546875 -0.773438 8.203125 -1.109375 C 8.859375 -1.441406 9.378906 -1.953125 9.765625 -2.640625 C 10.160156 -3.328125 10.359375 -4.171875 10.359375 -5.171875 C 10.359375 -6.160156 10.160156 -6.992188 9.765625 -7.671875 C 9.378906 -8.359375 8.863281 -8.867188 8.21875 -9.203125 C 7.570312 -9.546875 6.875 -9.71875 6.125 -9.71875 C 5.375 -9.71875 4.675781 -9.546875 4.03125 -9.203125 C 3.394531 -8.867188 2.878906 -8.359375 2.484375 -7.671875 C 2.097656 -6.992188 1.90625 -6.160156 1.90625 -5.171875 C 1.90625 -4.171875 2.097656 -3.328125 2.484375 -2.640625 C 2.867188 -1.953125 3.378906 -1.441406 4.015625 -1.109375 C 4.660156 -0.773438 5.359375 -0.609375 6.109375 -0.609375 Z M 6.109375 -0.609375 "/></g></g></g><g fill="#000000" fill-opacity="1"><g transform="translate(108.456416, 86.665666)"><g/></g></g><g fill="#000000" fill-opacity="1"><g transform="translate(113.817433, 86.665666)"><g><path d="M 5 0.15625 C 3.84375 0.15625 2.898438 -0.0976562 2.171875 -0.609375 C 1.441406 -1.117188 1.035156 -1.84375 0.953125 -2.78125 L 1.828125 -2.78125 C 1.890625 -2.101562 2.195312 -1.566406 2.75 -1.171875 C 3.300781 -0.785156 4.050781 -0.59375 5 -0.59375 C 5.789062 -0.59375 6.414062 -0.789062 6.875 -1.1875 C 7.332031 -1.582031 7.5625 -2.070312 7.5625 -2.65625 C 7.5625 -3.0625 7.4375 -3.394531 7.1875 -3.65625 C 6.945312 -3.914062 6.640625 -4.113281 6.265625 -4.25 C 5.898438 -4.394531 5.398438 -4.550781 4.765625 -4.71875 C 4.003906 -4.914062 3.390625 -5.113281 2.921875 -5.3125 C 2.453125 -5.507812 2.050781 -5.800781 1.71875 -6.1875 C 1.394531 -6.582031 1.234375 -7.113281 1.234375 -7.78125 C 1.234375 -8.257812 1.378906 -8.703125 1.671875 -9.109375 C 1.960938 -9.523438 2.367188 -9.851562 2.890625 -10.09375 C 3.410156 -10.332031 4 -10.453125 4.65625 -10.453125 C 5.738281 -10.453125 6.609375 -10.179688 7.265625 -9.640625 C 7.929688 -9.109375 8.289062 -8.367188 8.34375 -7.421875 L 7.484375 -7.421875 C 7.453125 -8.097656 7.1875 -8.648438 6.6875 -9.078125 C 6.195312 -9.515625 5.515625 -9.734375 4.640625 -9.734375 C 3.898438 -9.734375 3.289062 -9.539062 2.8125 -9.15625 C 2.332031 -8.78125 2.09375 -8.320312 2.09375 -7.78125 C 2.09375 -7.300781 2.226562 -6.910156 2.5 -6.609375 C 2.769531 -6.304688 3.101562 -6.078125 3.5 -5.921875 C 3.90625 -5.765625 4.4375 -5.597656 5.09375 -5.421875 C 5.820312 -5.234375 6.398438 -5.046875 6.828125 -4.859375 C 7.265625 -4.671875 7.632812 -4.398438 7.9375 -4.046875 C 8.25 -3.703125 8.40625 -3.238281 8.40625 -2.65625 C 8.40625 -2.125 8.257812 -1.644531 7.96875 -1.21875 C 7.675781 -0.789062 7.269531 -0.453125 6.75 -0.203125 C 6.226562 0.0351562 5.644531 0.15625 5 0.15625 Z M 5 0.15625 "/></g></g></g><g fill="#000000" fill-opacity="1"><g transform="translate(123.265756, 86.665666)"><g><path d="M 6.109375 0.15625 C 5.140625 0.15625 4.269531 -0.0546875 3.5 -0.484375 C 2.726562 -0.921875 2.125 -1.539062 1.6875 -2.34375 C 1.25 -3.15625 1.03125 -4.097656 1.03125 -5.171875 C 1.03125 -6.234375 1.25 -7.164062 1.6875 -7.96875 C 2.132812 -8.78125 2.75 -9.394531 3.53125 -9.8125 C 4.3125 -10.238281 5.179688 -10.453125 6.140625 -10.453125 C 7.109375 -10.453125 7.976562 -10.238281 8.75 -9.8125 C 9.519531 -9.394531 10.125 -8.785156 10.5625 -7.984375 C 11 -7.179688 11.21875 -6.242188 11.21875 -5.171875 C 11.21875 -4.097656 10.992188 -3.15625 10.546875 -2.34375 C 10.109375 -1.539062 9.5 -0.921875 8.71875 -0.484375 C 7.9375 -0.0546875 7.066406 0.15625 6.109375 0.15625 Z M 6.109375 -0.609375 C 6.847656 -0.609375 7.546875 -0.773438 8.203125 -1.109375 C 8.859375 -1.441406 9.378906 -1.953125 9.765625 -2.640625 C 10.160156 -3.328125 10.359375 -4.171875 10.359375 -5.171875 C 10.359375 -6.160156 10.160156 -6.992188 9.765625 -7.671875 C 9.378906 -8.359375 8.863281 -8.867188 8.21875 -9.203125 C 7.570312 -9.546875 6.875 -9.71875 6.125 -9.71875 C 5.375 -9.71875 4.675781 -9.546875 4.03125 -9.203125 C 3.394531 -8.867188 2.878906 -8.359375 2.484375 -7.671875 C 2.097656 -6.992188 1.90625 -6.160156 1.90625 -5.171875 C 1.90625 -4.171875 2.097656 -3.328125 2.484375 -2.640625 C 2.867188 -1.953125 3.378906 -1.441406 4.015625 -1.109375 C 4.660156 -0.773438 5.359375 -0.609375 6.109375 -0.609375 Z M 6.109375 -0.609375 "/></g></g></g><g fill="#000000" fill-opacity="1"><g transform="translate(135.527673, 86.665666)"><g><path d="M 5.5 -9.5625 L 2.8125 -9.5625 L 2.8125 0 L 1.953125 0 L 1.953125 -9.5625 L 0.40625 -9.5625 L 0.40625 -10.328125 L 1.953125 -10.328125 L 1.953125 -11.046875 C 1.953125 -12.128906 2.222656 -12.929688 2.765625 -13.453125 C 3.316406 -13.984375 4.210938 -14.25 5.453125 -14.25 L 5.453125 -13.484375 C 4.460938 -13.484375 3.773438 -13.289062 3.390625 -12.90625 C 3.003906 -12.53125 2.8125 -11.910156 2.8125 -11.046875 L 2.8125 -10.328125 L 5.5 -10.328125 Z M 5.5 -9.5625 "/></g></g></g><g fill="#000000" fill-opacity="1"><g transform="translate(141.649134, 86.665666)"><g><path d="M 2.828125 -9.578125 L 2.828125 -2.75 C 2.828125 -1.988281 2.96875 -1.46875 3.25 -1.1875 C 3.53125 -0.90625 4.023438 -0.765625 4.734375 -0.765625 L 5.890625 -0.765625 L 5.890625 0 L 4.609375 0 C 3.703125 0 3.035156 -0.210938 2.609375 -0.640625 C 2.191406 -1.066406 1.984375 -1.769531 1.984375 -2.75 L 1.984375 -9.578125 L 0.421875 -9.578125 L 0.421875 -10.328125 L 1.984375 -10.328125 L 1.984375 -12.953125 L 2.828125 -12.953125 L 2.828125 -10.328125 L 5.890625 -10.328125 L 5.890625 -9.578125 Z M 2.828125 -9.578125 "/></g></g></g><g fill="#000000" fill-opacity="1"><g transform="translate(148.245852, 86.665666)"><g><path d="M 15.0625 -10.328125 L 11.8125 0 L 10.984375 0 L 7.703125 -9.140625 L 4.390625 0 L 3.578125 0 L 0.328125 -10.328125 L 1.21875 -10.328125 L 4 -0.96875 L 7.296875 -10.328125 L 8.125 -10.328125 L 11.40625 -1.015625 L 14.1875 -10.328125 Z M 15.0625 -10.328125 "/></g></g></g><g fill="#000000" fill-opacity="1"><g transform="translate(163.625525, 86.665666)"><g><path d="M 1.03125 -5.171875 C 1.03125 -6.234375 1.238281 -7.164062 1.65625 -7.96875 C 2.082031 -8.769531 2.671875 -9.382812 3.421875 -9.8125 C 4.179688 -10.238281 5.046875 -10.453125 6.015625 -10.453125 C 7.097656 -10.453125 8.019531 -10.1875 8.78125 -9.65625 C 9.539062 -9.125 10.070312 -8.445312 10.375 -7.625 L 10.375 -10.328125 L 11.234375 -10.328125 L 11.234375 0 L 10.375 0 L 10.375 -2.71875 C 10.070312 -1.882812 9.535156 -1.195312 8.765625 -0.65625 C 8.003906 -0.113281 7.085938 0.15625 6.015625 0.15625 C 5.046875 0.15625 4.179688 -0.0625 3.421875 -0.5 C 2.671875 -0.9375 2.082031 -1.554688 1.65625 -2.359375 C 1.238281 -3.171875 1.03125 -4.109375 1.03125 -5.171875 Z M 10.375 -5.171875 C 10.375 -6.066406 10.1875 -6.859375 9.8125 -7.546875 C 9.445312 -8.242188 8.941406 -8.78125 8.296875 -9.15625 C 7.648438 -9.53125 6.925781 -9.71875 6.125 -9.71875 C 5.289062 -9.71875 4.554688 -9.535156 3.921875 -9.171875 C 3.285156 -8.816406 2.789062 -8.296875 2.4375 -7.609375 C 2.082031 -6.921875 1.90625 -6.109375 1.90625 -5.171875 C 1.90625 -4.234375 2.082031 -3.421875 2.4375 -2.734375 C 2.789062 -2.054688 3.285156 -1.53125 3.921875 -1.15625 C 4.566406 -0.789062 5.300781 -0.609375 6.125 -0.609375 C 6.925781 -0.609375 7.648438 -0.796875 8.296875 -1.171875 C 8.953125 -1.546875 9.460938 -2.078125 9.828125 -2.765625 C 10.191406 -3.453125 10.375 -4.253906 10.375 -5.171875 Z M 10.375 -5.171875 "/></g></g></g><g fill="#000000" fill-opacity="1"><g transform="translate(176.419744, 86.665666)"><g><path d="M 2.421875 -8.203125 C 2.671875 -8.960938 3.117188 -9.539062 3.765625 -9.9375 C 4.410156 -10.332031 5.234375 -10.53125 6.234375 -10.53125 L 6.234375 -9.640625 L 5.953125 -9.640625 C 4.941406 -9.640625 4.097656 -9.347656 3.421875 -8.765625 C 2.753906 -8.191406 2.421875 -7.253906 2.421875 -5.953125 L 2.421875 0 L 1.5625 0 L 1.5625 -10.328125 L 2.421875 -10.328125 Z M 2.421875 -8.203125 "/></g></g></g><g fill="#000000" fill-opacity="1"><g transform="translate(183.073488, 86.665666)"><g><path d="M 10.859375 -5.859375 C 10.859375 -5.398438 10.84375 -5.054688 10.8125 -4.828125 L 1.90625 -4.828125 C 1.925781 -3.898438 2.125 -3.117188 2.5 -2.484375 C 2.882812 -1.859375 3.382812 -1.382812 4 -1.0625 C 4.625 -0.75 5.304688 -0.59375 6.046875 -0.59375 C 7.054688 -0.59375 7.90625 -0.84375 8.59375 -1.34375 C 9.28125 -1.84375 9.710938 -2.523438 9.890625 -3.390625 L 10.78125 -3.390625 C 10.582031 -2.335938 10.0625 -1.484375 9.21875 -0.828125 C 8.382812 -0.171875 7.328125 0.15625 6.046875 0.15625 C 5.085938 0.15625 4.222656 -0.0546875 3.453125 -0.484375 C 2.691406 -0.921875 2.097656 -1.539062 1.671875 -2.34375 C 1.242188 -3.15625 1.03125 -4.097656 1.03125 -5.171875 C 1.03125 -6.242188 1.238281 -7.179688 1.65625 -7.984375 C 2.082031 -8.785156 2.675781 -9.394531 3.4375 -9.8125 C 4.195312 -10.238281 5.066406 -10.453125 6.046875 -10.453125 C 7.035156 -10.453125 7.894531 -10.238281 8.625 -9.8125 C 9.351562 -9.394531 9.90625 -8.832031 10.28125 -8.125 C 10.664062 -7.425781 10.859375 -6.671875 10.859375 -5.859375 Z M 10 -5.53125 C 10.039062 -6.445312 9.878906 -7.21875 9.515625 -7.84375 C 9.148438 -8.476562 8.65625 -8.953125 8.03125 -9.265625 C 7.414062 -9.578125 6.75 -9.734375 6.03125 -9.734375 C 5.300781 -9.734375 4.628906 -9.578125 4.015625 -9.265625 C 3.398438 -8.953125 2.898438 -8.476562 2.515625 -7.84375 C 2.128906 -7.21875 1.925781 -6.445312 1.90625 -5.53125 Z M 10 -5.53125 "/></g></g></g><g fill="#000000" fill-opacity="1"><g transform="translate(194.955184, 86.665666)"><g/></g></g><g fill="#000000" fill-opacity="1"><g transform="translate(200.316201, 86.665666)"><g><path d="M 11.546875 -4.625 C 11.085938 -3.820312 10.648438 -3.144531 10.234375 -2.59375 L 12.734375 0 L 11.65625 0 L 9.734375 -1.953125 C 9.085938 -1.210938 8.398438 -0.664062 7.671875 -0.3125 C 6.941406 0.03125 6.113281 0.203125 5.1875 0.203125 C 4.34375 0.203125 3.582031 0.0351562 2.90625 -0.296875 C 2.238281 -0.628906 1.71875 -1.097656 1.34375 -1.703125 C 0.96875 -2.304688 0.78125 -3 0.78125 -3.78125 C 0.78125 -4.726562 1.046875 -5.546875 1.578125 -6.234375 C 2.117188 -6.929688 2.90625 -7.476562 3.9375 -7.875 C 3.4375 -8.394531 3.078125 -8.878906 2.859375 -9.328125 C 2.640625 -9.773438 2.53125 -10.253906 2.53125 -10.765625 C 2.53125 -11.578125 2.816406 -12.234375 3.390625 -12.734375 C 3.972656 -13.242188 4.734375 -13.5 5.671875 -13.5 C 6.222656 -13.5 6.734375 -13.382812 7.203125 -13.15625 C 7.671875 -12.925781 8.035156 -12.601562 8.296875 -12.1875 C 8.566406 -11.769531 8.703125 -11.28125 8.703125 -10.71875 L 7.859375 -10.71875 C 7.859375 -11.351562 7.640625 -11.851562 7.203125 -12.21875 C 6.773438 -12.59375 6.253906 -12.78125 5.640625 -12.78125 C 4.972656 -12.78125 4.429688 -12.59375 4.015625 -12.21875 C 3.597656 -11.84375 3.390625 -11.359375 3.390625 -10.765625 C 3.390625 -10.316406 3.5 -9.894531 3.71875 -9.5 C 3.945312 -9.101562 4.3125 -8.648438 4.8125 -8.140625 L 9.65625 -3.15625 C 10.007812 -3.664062 10.410156 -4.285156 10.859375 -5.015625 L 11.921875 -6.859375 L 12.828125 -6.859375 Z M 5.1875 -0.546875 C 6 -0.546875 6.71875 -0.703125 7.34375 -1.015625 C 7.976562 -1.335938 8.585938 -1.847656 9.171875 -2.546875 L 4.484375 -7.296875 L 4.4375 -7.28125 C 2.570312 -6.59375 1.640625 -5.429688 1.640625 -3.796875 C 1.640625 -3.179688 1.789062 -2.625 2.09375 -2.125 C 2.394531 -1.632812 2.816406 -1.25 3.359375 -0.96875 C 3.898438 -0.6875 4.507812 -0.546875 5.1875 -0.546875 Z M 5.1875 -0.546875 "/></g></g></g><g fill="#000000" fill-opacity="1"><g transform="translate(213.547668, 86.665666)"><g/></g></g><g fill="#000000" fill-opacity="1"><g transform="translate(218.908685, 86.665666)"><g><path d="M 1.03125 -6.65625 C 1.03125 -7.976562 1.304688 -9.15625 1.859375 -10.1875 C 2.410156 -11.21875 3.171875 -12.023438 4.140625 -12.609375 C 5.109375 -13.191406 6.191406 -13.484375 7.390625 -13.484375 C 8.910156 -13.484375 10.191406 -13.128906 11.234375 -12.421875 C 12.273438 -11.710938 13.035156 -10.71875 13.515625 -9.4375 L 12.53125 -9.4375 C 12.144531 -10.445312 11.507812 -11.242188 10.625 -11.828125 C 9.75 -12.421875 8.671875 -12.71875 7.390625 -12.71875 C 6.367188 -12.71875 5.4375 -12.472656 4.59375 -11.984375 C 3.757812 -11.492188 3.101562 -10.789062 2.625 -9.875 C 2.144531 -8.957031 1.90625 -7.882812 1.90625 -6.65625 C 1.90625 -5.4375 2.144531 -4.375 2.625 -3.46875 C 3.101562 -2.5625 3.757812 -1.859375 4.59375 -1.359375 C 5.4375 -0.867188 6.367188 -0.625 7.390625 -0.625 C 8.671875 -0.625 9.75 -0.914062 10.625 -1.5 C 11.507812 -2.09375 12.144531 -2.898438 12.53125 -3.921875 L 13.515625 -3.921875 C 13.035156 -2.640625 12.273438 -1.640625 11.234375 -0.921875 C 10.191406 -0.210938 8.910156 0.140625 7.390625 0.140625 C 6.191406 0.140625 5.109375 -0.144531 4.140625 -0.71875 C 3.171875 -1.300781 2.410156 -2.109375 1.859375 -3.140625 C 1.304688 -4.179688 1.03125 -5.351562 1.03125 -6.65625 Z M 1.03125 -6.65625 "/></g></g></g><g fill="#000000" fill-opacity="1"><g transform="translate(233.546949, 86.665666)"><g><path d="M 6.109375 0.15625 C 5.140625 0.15625 4.269531 -0.0546875 3.5 -0.484375 C 2.726562 -0.921875 2.125 -1.539062 1.6875 -2.34375 C 1.25 -3.15625 1.03125 -4.097656 1.03125 -5.171875 C 1.03125 -6.234375 1.25 -7.164062 1.6875 -7.96875 C 2.132812 -8.78125 2.75 -9.394531 3.53125 -9.8125 C 4.3125 -10.238281 5.179688 -10.453125 6.140625 -10.453125 C 7.109375 -10.453125 7.976562 -10.238281 8.75 -9.8125 C 9.519531 -9.394531 10.125 -8.785156 10.5625 -7.984375 C 11 -7.179688 11.21875 -6.242188 11.21875 -5.171875 C 11.21875 -4.097656 10.992188 -3.15625 10.546875 -2.34375 C 10.109375 -1.539062 9.5 -0.921875 8.71875 -0.484375 C 7.9375 -0.0546875 7.066406 0.15625 6.109375 0.15625 Z M 6.109375 -0.609375 C 6.847656 -0.609375 7.546875 -0.773438 8.203125 -1.109375 C 8.859375 -1.441406 9.378906 -1.953125 9.765625 -2.640625 C 10.160156 -3.328125 10.359375 -4.171875 10.359375 -5.171875 C 10.359375 -6.160156 10.160156 -6.992188 9.765625 -7.671875 C 9.378906 -8.359375 8.863281 -8.867188 8.21875 -9.203125 C 7.570312 -9.546875 6.875 -9.71875 6.125 -9.71875 C 5.375 -9.71875 4.675781 -9.546875 4.03125 -9.203125 C 3.394531 -8.867188 2.878906 -8.359375 2.484375 -7.671875 C 2.097656 -6.992188 1.90625 -6.160156 1.90625 -5.171875 C 1.90625 -4.171875 2.097656 -3.328125 2.484375 -2.640625 C 2.867188 -1.953125 3.378906 -1.441406 4.015625 -1.109375 C 4.660156 -0.773438 5.359375 -0.609375 6.109375 -0.609375 Z M 6.109375 -0.609375 "/></g></g></g><g fill="#000000" fill-opacity="1"><g transform="translate(245.808865, 86.665666)"><g><path d="M 6.21875 -10.53125 C 7.445312 -10.53125 8.445312 -10.148438 9.21875 -9.390625 C 9.988281 -8.640625 10.375 -7.523438 10.375 -6.046875 L 10.375 0 L 9.546875 0 L 9.546875 -5.984375 C 9.546875 -7.210938 9.234375 -8.15625 8.609375 -8.8125 C 7.992188 -9.46875 7.148438 -9.796875 6.078125 -9.796875 C 4.960938 -9.796875 4.070312 -9.4375 3.40625 -8.71875 C 2.75 -8.007812 2.421875 -6.960938 2.421875 -5.578125 L 2.421875 0 L 1.5625 0 L 1.5625 -10.328125 L 2.421875 -10.328125 L 2.421875 -8.140625 C 2.710938 -8.910156 3.195312 -9.5 3.875 -9.90625 C 4.550781 -10.320312 5.332031 -10.53125 6.21875 -10.53125 Z M 6.21875 -10.53125 "/></g></g></g><g fill="#000000" fill-opacity="1"><g transform="translate(257.65255, 86.665666)"><g><path d="M 5 0.15625 C 3.84375 0.15625 2.898438 -0.0976562 2.171875 -0.609375 C 1.441406 -1.117188 1.035156 -1.84375 0.953125 -2.78125 L 1.828125 -2.78125 C 1.890625 -2.101562 2.195312 -1.566406 2.75 -1.171875 C 3.300781 -0.785156 4.050781 -0.59375 5 -0.59375 C 5.789062 -0.59375 6.414062 -0.789062 6.875 -1.1875 C 7.332031 -1.582031 7.5625 -2.070312 7.5625 -2.65625 C 7.5625 -3.0625 7.4375 -3.394531 7.1875 -3.65625 C 6.945312 -3.914062 6.640625 -4.113281 6.265625 -4.25 C 5.898438 -4.394531 5.398438 -4.550781 4.765625 -4.71875 C 4.003906 -4.914062 3.390625 -5.113281 2.921875 -5.3125 C 2.453125 -5.507812 2.050781 -5.800781 1.71875 -6.1875 C 1.394531 -6.582031 1.234375 -7.113281 1.234375 -7.78125 C 1.234375 -8.257812 1.378906 -8.703125 1.671875 -9.109375 C 1.960938 -9.523438 2.367188 -9.851562 2.890625 -10.09375 C 3.410156 -10.332031 4 -10.453125 4.65625 -10.453125 C 5.738281 -10.453125 6.609375 -10.179688 7.265625 -9.640625 C 7.929688 -9.109375 8.289062 -8.367188 8.34375 -7.421875 L 7.484375 -7.421875 C 7.453125 -8.097656 7.1875 -8.648438 6.6875 -9.078125 C 6.195312 -9.515625 5.515625 -9.734375 4.640625 -9.734375 C 3.898438 -9.734375 3.289062 -9.539062 2.8125 -9.15625 C 2.332031 -8.78125 2.09375 -8.320312 2.09375 -7.78125 C 2.09375 -7.300781 2.226562 -6.910156 2.5 -6.609375 C 2.769531 -6.304688 3.101562 -6.078125 3.5 -5.921875 C 3.90625 -5.765625 4.4375 -5.597656 5.09375 -5.421875 C 5.820312 -5.234375 6.398438 -5.046875 6.828125 -4.859375 C 7.265625 -4.671875 7.632812 -4.398438 7.9375 -4.046875 C 8.25 -3.703125 8.40625 -3.238281 8.40625 -2.65625 C 8.40625 -2.125 8.257812 -1.644531 7.96875 -1.21875 C 7.675781 -0.789062 7.269531 -0.453125 6.75 -0.203125 C 6.226562 0.0351562 5.644531 0.15625 5 0.15625 Z M 5 0.15625 "/></g></g></g><g fill="#000000" fill-opacity="1"><g transform="translate(267.100873, 86.665666)"><g><path d="M 10.28125 -10.328125 L 10.28125 0 L 9.4375 0 L 9.4375 -2.25 C 9.144531 -1.457031 8.65625 -0.851562 7.96875 -0.4375 C 7.289062 -0.03125 6.515625 0.171875 5.640625 0.171875 C 4.410156 0.171875 3.40625 -0.203125 2.625 -0.953125 C 1.851562 -1.710938 1.46875 -2.832031 1.46875 -4.3125 L 1.46875 -10.328125 L 2.296875 -10.328125 L 2.296875 -4.375 C 2.296875 -3.144531 2.609375 -2.203125 3.234375 -1.546875 C 3.859375 -0.898438 4.703125 -0.578125 5.765625 -0.578125 C 6.878906 -0.578125 7.769531 -0.929688 8.4375 -1.640625 C 9.101562 -2.347656 9.4375 -3.398438 9.4375 -4.796875 L 9.4375 -10.328125 Z M 10.28125 -10.328125 "/></g></g></g><g fill="#000000" fill-opacity="1"><g transform="translate(278.944558, 86.665666)"><g><path d="M 2.421875 -14.078125 L 2.421875 0 L 1.5625 0 L 1.5625 -14.078125 Z M 2.421875 -14.078125 "/></g></g></g><g fill="#000000" fill-opacity="1"><g transform="translate(282.936808, 86.665666)"><g><path d="M 2.828125 -9.578125 L 2.828125 -2.75 C 2.828125 -1.988281 2.96875 -1.46875 3.25 -1.1875 C 3.53125 -0.90625 4.023438 -0.765625 4.734375 -0.765625 L 5.890625 -0.765625 L 5.890625 0 L 4.609375 0 C 3.703125 0 3.035156 -0.210938 2.609375 -0.640625 C 2.191406 -1.066406 1.984375 -1.769531 1.984375 -2.75 L 1.984375 -9.578125 L 0.421875 -9.578125 L 0.421875 -10.328125 L 1.984375 -10.328125 L 1.984375 -12.953125 L 2.828125 -12.953125 L 2.828125 -10.328125 L 5.890625 -10.328125 L 5.890625 -9.578125 Z M 2.828125 -9.578125 "/></g></g></g><g fill="#000000" fill-opacity="1"><g transform="translate(289.533526, 86.665666)"><g><path d="M 2 -12.625 C 1.789062 -12.625 1.617188 -12.691406 1.484375 -12.828125 C 1.347656 -12.960938 1.28125 -13.144531 1.28125 -13.375 C 1.28125 -13.582031 1.347656 -13.753906 1.484375 -13.890625 C 1.617188 -14.035156 1.789062 -14.109375 2 -14.109375 C 2.195312 -14.109375 2.363281 -14.035156 2.5 -13.890625 C 2.644531 -13.753906 2.71875 -13.582031 2.71875 -13.375 C 2.71875 -13.144531 2.644531 -12.960938 2.5 -12.828125 C 2.363281 -12.691406 2.195312 -12.625 2 -12.625 Z M 2.421875 -10.328125 L 2.421875 0 L 1.5625 0 L 1.5625 -10.328125 Z M 2.421875 -10.328125 "/></g></g></g><g fill="#000000" fill-opacity="1"><g transform="translate(293.525776, 86.665666)"><g><path d="M 6.21875 -10.53125 C 7.445312 -10.53125 8.445312 -10.148438 9.21875 -9.390625 C 9.988281 -8.640625 10.375 -7.523438 10.375 -6.046875 L 10.375 0 L 9.546875 0 L 9.546875 -5.984375 C 9.546875 -7.210938 9.234375 -8.15625 8.609375 -8.8125 C 7.992188 -9.46875 7.148438 -9.796875 6.078125 -9.796875 C 4.960938 -9.796875 4.070312 -9.4375 3.40625 -8.71875 C 2.75 -8.007812 2.421875 -6.960938 2.421875 -5.578125 L 2.421875 0 L 1.5625 0 L 1.5625 -10.328125 L 2.421875 -10.328125 L 2.421875 -8.140625 C 2.710938 -8.910156 3.195312 -9.5 3.875 -9.90625 C 4.550781 -10.320312 5.332031 -10.53125 6.21875 -10.53125 Z M 6.21875 -10.53125 "/></g></g></g><g fill="#000000" fill-opacity="1"><g transform="translate(305.369461, 86.665666)"><g><path d="M 6.015625 -10.453125 C 7.097656 -10.453125 8.019531 -10.1875 8.78125 -9.65625 C 9.539062 -9.132812 10.070312 -8.460938 10.375 -7.640625 L 10.375 -10.328125 L 11.234375 -10.328125 L 11.234375 0.328125 C 11.234375 1.273438 11.023438 2.101562 10.609375 2.8125 C 10.191406 3.53125 9.628906 4.082031 8.921875 4.46875 C 8.210938 4.863281 7.421875 5.0625 6.546875 5.0625 C 5.253906 5.0625 4.179688 4.75 3.328125 4.125 C 2.472656 3.5 1.914062 2.660156 1.65625 1.609375 L 2.515625 1.609375 C 2.765625 2.441406 3.238281 3.097656 3.9375 3.578125 C 4.632812 4.066406 5.503906 4.3125 6.546875 4.3125 C 7.265625 4.3125 7.914062 4.148438 8.5 3.828125 C 9.082031 3.503906 9.539062 3.039062 9.875 2.4375 C 10.207031 1.84375 10.375 1.140625 10.375 0.328125 L 10.375 -2.703125 C 10.070312 -1.878906 9.535156 -1.195312 8.765625 -0.65625 C 8.003906 -0.113281 7.085938 0.15625 6.015625 0.15625 C 5.046875 0.15625 4.179688 -0.0625 3.421875 -0.5 C 2.671875 -0.9375 2.082031 -1.554688 1.65625 -2.359375 C 1.238281 -3.171875 1.03125 -4.109375 1.03125 -5.171875 C 1.03125 -6.234375 1.238281 -7.164062 1.65625 -7.96875 C 2.082031 -8.769531 2.671875 -9.382812 3.421875 -9.8125 C 4.179688 -10.238281 5.046875 -10.453125 6.015625 -10.453125 Z M 10.375 -5.171875 C 10.375 -6.066406 10.1875 -6.859375 9.8125 -7.546875 C 9.445312 -8.242188 8.941406 -8.78125 8.296875 -9.15625 C 7.648438 -9.53125 6.925781 -9.71875 6.125 -9.71875 C 5.289062 -9.71875 4.554688 -9.535156 3.921875 -9.171875 C 3.285156 -8.816406 2.789062 -8.296875 2.4375 -7.609375 C 2.082031 -6.921875 1.90625 -6.109375 1.90625 -5.171875 C 1.90625 -4.234375 2.082031 -3.421875 2.4375 -2.734375 C 2.789062 -2.054688 3.285156 -1.53125 3.921875 -1.15625 C 4.566406 -0.789062 5.300781 -0.609375 6.125 -0.609375 C 6.925781 -0.609375 7.648438 -0.796875 8.296875 -1.171875 C 8.953125 -1.546875 9.460938 -2.078125 9.828125 -2.765625 C 10.191406 -3.453125 10.375 -4.253906 10.375 -5.171875 Z M 10.375 -5.171875 "/></g></g></g><g fill="#000000" fill-opacity="1"><g transform="translate(11.429925, 62.907041)"><g><path d="M 10.421875 -1.6875 L 32.625 -1.6875 L 32.625 -35.453125 L 19.953125 -8.28125 L 7.265625 -35.5 L 7.265625 0 L 5.578125 -0.0625 L 5.578125 -39.515625 L 7.265625 -39.515625 L 19.953125 -12.28125 L 32.625 -39.453125 L 34.328125 -39.515625 L 34.328125 0 L 10.421875 -0.0625 Z M 10.421875 -1.6875 "/></g></g></g><g fill="#000000" fill-opacity="1"><g transform="translate(51.333751, 62.907041)"><g><path d="M 6.59375 -1.6875 L 27.328125 -1.6875 L 15.390625 -34.546875 L 2.8125 0 L 1.015625 0 L 15.390625 -39.515625 L 29.75 0 L 6.59375 0 Z M 6.59375 -1.6875 "/></g></g></g><g fill="#000000" fill-opacity="1"><g transform="translate(82.107039, 62.907041)"><g><path d="M 29.140625 -1.6875 L 29.140625 0 L 5.578125 0 L 5.578125 -39.453125 L 7.265625 -39.453125 L 7.265625 -1.6875 Z M 29.140625 -1.6875 "/></g></g></g><g fill="#000000" fill-opacity="1"><g transform="translate(112.091273, 62.907041)"><g><path d="M 19.5625 -18.9375 L 18.71875 -20.40625 L 21.875 -22.203125 C 24.457031 -23.628906 25.75 -25.90625 25.75 -29.03125 C 25.75 -34.851562 21.316406 -37.765625 12.453125 -37.765625 L 7.265625 -37.765625 L 7.265625 0 L 5.578125 0 L 5.578125 -39.453125 L 12.453125 -39.453125 C 17.410156 -39.453125 21.148438 -38.539062 23.671875 -36.71875 C 26.191406 -34.894531 27.453125 -32.332031 27.453125 -29.03125 C 27.453125 -25.269531 25.875 -22.503906 22.71875 -20.734375 Z M 19.5625 -18.9375 "/></g></g></g><g fill="#000000" fill-opacity="1"><g transform="translate(141.737331, 62.907041)"><g><path d="M 6.59375 -1.6875 L 27.328125 -1.6875 L 15.390625 -34.546875 L 2.8125 0 L 1.015625 0 L 15.390625 -39.515625 L 29.75 0 L 6.59375 0 Z M 6.59375 -1.6875 "/></g></g></g><g fill="#000000" fill-opacity="1"><g transform="translate(172.51062, 62.907041)"><g><path d="M 10.65625 -48.46875 L 4.0625 -40.640625 L 2.765625 -41.703125 L 9.359375 -49.59375 Z M 7.265625 0 L 5.578125 0 L 5.578125 -39.453125 L 7.265625 -39.453125 Z M 7.265625 0 "/></g></g></g><g fill="#000000" fill-opacity="1"><g transform="translate(185.360998, 62.907041)"><g><path d="M 4.390625 -29.703125 C 4.390625 -33.347656 5.3125 -35.976562 7.15625 -37.59375 C 9 -39.207031 11.988281 -40.015625 16.125 -40.015625 C 19.007812 -40.015625 21.332031 -39.257812 23.09375 -37.75 C 24.863281 -36.25 26.144531 -33.960938 26.9375 -30.890625 L 21.703125 -26.9375 L 18.9375 -26.9375 L 25.03125 -31.5 C 24.238281 -34.019531 23.097656 -35.785156 21.609375 -36.796875 C 20.128906 -37.816406 18.300781 -38.328125 16.125 -38.328125 C 14.613281 -38.328125 13.34375 -38.234375 12.3125 -38.046875 C 11.28125 -37.859375 10.25 -37.488281 9.21875 -36.9375 C 8.1875 -36.394531 7.40625 -35.519531 6.875 -34.3125 C 6.351562 -33.113281 6.09375 -31.578125 6.09375 -29.703125 C 6.09375 -28.046875 6.851562 -26.578125 8.375 -25.296875 C 9.894531 -24.023438 11.742188 -22.9375 13.921875 -22.03125 C 16.097656 -21.132812 18.285156 -20.210938 20.484375 -19.265625 C 22.679688 -18.328125 24.539062 -17.125 26.0625 -15.65625 C 27.582031 -14.195312 28.34375 -12.507812 28.34375 -10.59375 C 28.34375 -6.832031 27.410156 -4.03125 25.546875 -2.1875 C 23.691406 -0.351562 20.507812 0.5625 16 0.5625 C 12.320312 0.5625 9.429688 -0.175781 7.328125 -1.65625 C 5.222656 -3.144531 3.773438 -5.445312 2.984375 -8.5625 L 4.5625 -9.25 C 5.3125 -6.195312 6.597656 -4.078125 8.421875 -2.890625 C 10.242188 -1.710938 12.769531 -1.125 16 -1.125 C 19.613281 -1.125 22.289062 -1.816406 24.03125 -3.203125 C 25.78125 -4.597656 26.65625 -7.0625 26.65625 -10.59375 C 26.65625 -12.25 25.894531 -13.710938 24.375 -14.984375 C 22.851562 -16.265625 20.992188 -17.351562 18.796875 -18.25 C 16.597656 -19.15625 14.410156 -20.078125 12.234375 -21.015625 C 10.054688 -21.960938 8.203125 -23.164062 6.671875 -24.625 C 5.148438 -26.09375 4.390625 -27.785156 4.390625 -29.703125 Z M 4.390625 -29.703125 "/></g></g></g><g fill="#ff6f00" fill-opacity="1"><g transform="translate(216.989589, 62.907041)"><g><path d="M 4.453125 -3.265625 L 8.171875 -3.265625 L 8.171875 0 L 4.453125 0 Z M 4.453125 -3.265625 "/></g></g></g><g fill="#ff6f00" fill-opacity="1"><g transform="translate(229.614535, 62.907041)"><g><path d="M 9.640625 0 L 5.359375 0 L 5.359375 -32.6875 L 9.640625 -32.6875 C 15.203125 -32.6875 19.632812 -31.21875 22.9375 -28.28125 C 26.238281 -25.351562 27.890625 -21.375 27.890625 -16.34375 C 27.890625 -11.3125 26.238281 -7.328125 22.9375 -4.390625 C 19.632812 -1.460938 15.203125 0 9.640625 0 Z M 9.640625 -1.6875 C 14.710938 -1.6875 18.738281 -2.984375 21.71875 -5.578125 C 24.707031 -8.171875 26.203125 -11.757812 26.203125 -16.34375 C 26.203125 -20.925781 24.707031 -24.515625 21.71875 -27.109375 C 18.738281 -29.703125 14.710938 -31 9.640625 -31 L 7.046875 -31 L 7.046875 -1.6875 Z M 9.640625 -1.6875 "/></g></g></g><g fill="#ff6f00" fill-opacity="1"><g transform="translate(260.782358, 62.907041)"><g><path d="M 27.21875 -3.328125 C 25.15625 -0.734375 21.773438 0.5625 17.078125 0.5625 C 12.378906 0.5625 9.015625 -0.769531 6.984375 -3.4375 C 4.953125 -6.101562 3.9375 -10.40625 3.9375 -16.34375 C 3.9375 -22.28125 4.953125 -26.582031 6.984375 -29.25 C 9.015625 -31.914062 12.378906 -33.25 17.078125 -33.25 C 22.523438 -33.25 26.222656 -31.460938 28.171875 -27.890625 L 14.375 -16.34375 L 11.71875 -16.34375 L 25.984375 -28.234375 C 24.328125 -30.453125 21.359375 -31.5625 17.078125 -31.5625 C 15.203125 -31.5625 13.625 -31.363281 12.34375 -30.96875 C 11.0625 -30.570312 9.882812 -29.835938 8.8125 -28.765625 C 7.75 -27.703125 6.953125 -26.144531 6.421875 -24.09375 C 5.898438 -22.039062 5.640625 -19.457031 5.640625 -16.34375 C 5.640625 -13.226562 5.898438 -10.644531 6.421875 -8.59375 C 6.953125 -6.539062 7.75 -4.976562 8.8125 -3.90625 C 9.882812 -2.84375 11.0625 -2.113281 12.34375 -1.71875 C 13.625 -1.320312 15.203125 -1.125 17.078125 -1.125 C 21.359375 -1.125 24.328125 -2.234375 25.984375 -4.453125 Z M 27.21875 -3.328125 "/></g></g></g><g fill="#ff6f00" fill-opacity="1"><g transform="translate(291.668363, 62.907041)"><g><path d="M 29.1875 -32.6875 L 15.109375 0.5625 L 1.015625 -32.6875 L 2.8125 -32.6875 L 15.109375 -3.78125 L 27.390625 -32.6875 Z M 29.1875 -32.6875 "/></g></g></g></svg>