<svg xmlns="http://www.w3.org/2000/svg" xmlns:xlink="http://www.w3.org/1999/xlink" width="500" zoomAndPan="magnify" viewBox="0 0 375 374.999991" height="500" preserveAspectRatio="xMidYMid meet" version="1.0"><defs><g/></defs><g fill="#ff6f00" fill-opacity="1"><g transform="translate(0.0184774, 235.604446)"><g><path d="M 62.578125 -203.1875 L 62.578125 -198.046875 L 51.46875 -198.046875 C 49.125 -198.046875 47.273438 -197.050781 45.921875 -195.0625 C 44.566406 -193.070312 43.890625 -190.453125 43.890625 -187.203125 C 43.890625 -170.953125 43.890625 -156.6875 43.890625 -144.40625 C 43.890625 -132.125 43.890625 -122.59375 43.890625 -115.8125 C 43.890625 -109.039062 43.800781 -105.65625 43.625 -105.65625 C 43.625 -101.6875 41.769531 -97.894531 38.0625 -94.28125 C 34.363281 -90.664062 29.351562 -87.957031 23.03125 -86.15625 C 29.351562 -84.34375 34.363281 -81.675781 38.0625 -78.15625 C 41.769531 -74.632812 43.625 -70.796875 43.625 -66.640625 L 43.890625 14.90625 C 43.890625 18.15625 44.566406 20.769531 45.921875 22.75 C 47.273438 24.738281 49.125 25.734375 51.46875 25.734375 L 62.578125 25.734375 L 62.578125 31.15625 L 51.46875 31.15625 C 47.320312 31.15625 43.9375 29.664062 41.3125 26.6875 C 38.695312 23.707031 37.390625 19.78125 37.390625 14.90625 L 37.390625 -67.734375 C 37.390625 -72.429688 35.492188 -76.269531 31.703125 -79.25 C 27.910156 -82.226562 22.851562 -83.71875 16.53125 -83.71875 L 14.90625 -83.71875 L 14.90625 -88.3125 L 16.53125 -88.3125 C 22.851562 -88.3125 27.910156 -89.800781 31.703125 -92.78125 C 35.492188 -95.769531 37.390625 -99.609375 37.390625 -104.296875 L 37.390625 -186.9375 C 37.390625 -191.8125 38.695312 -195.738281 41.3125 -198.71875 C 43.9375 -201.695312 47.320312 -203.1875 51.46875 -203.1875 Z M 62.578125 -203.1875 "/></g></g></g><g fill="#ff6f00" fill-opacity="1"><g transform="translate(70.455665, 235.604446)"><g/></g></g><g fill="#ff6f00" fill-opacity="1"><g transform="translate(109.466112, 235.604446)"><g/></g></g><g fill="#ff6f00" fill-opacity="1"><g transform="translate(148.476558, 235.604446)"><g/></g></g><g fill="#ff6f00" fill-opacity="1"><g transform="translate(187.487005, 235.604446)"><g/></g></g><g fill="#ff6f00" fill-opacity="1"><g transform="translate(226.497451, 235.604446)"><g/></g></g><g fill="#ff6f00" fill-opacity="1"><g transform="translate(265.507898, 235.604446)"><g/></g></g><g fill="#ff6f00" fill-opacity="1"><g transform="translate(304.525854, 235.604446)"><g><path d="M 8.125 -203.1875 L 18.96875 -203.1875 C 23.300781 -203.1875 26.773438 -201.695312 29.390625 -198.71875 C 32.015625 -195.738281 33.328125 -191.8125 33.328125 -186.9375 C 33.328125 -170.5 33.328125 -156.046875 33.328125 -143.578125 C 33.328125 -131.117188 33.328125 -121.457031 33.328125 -114.59375 C 33.328125 -107.726562 33.234375 -104.296875 33.046875 -104.296875 C 33.234375 -99.609375 35.265625 -95.769531 39.140625 -92.78125 C 43.023438 -89.800781 48.039062 -88.3125 54.1875 -88.3125 L 55.8125 -88.3125 L 55.8125 -83.71875 L 54.1875 -83.71875 C 48.039062 -83.71875 43.023438 -82.226562 39.140625 -79.25 C 35.265625 -76.269531 33.234375 -72.429688 33.046875 -67.734375 L 33.328125 14.90625 C 33.328125 19.78125 32.015625 23.707031 29.390625 26.6875 C 26.773438 29.664062 23.300781 31.15625 18.96875 31.15625 L 8.125 31.15625 L 8.125 25.734375 L 18.96875 25.734375 C 21.3125 25.734375 23.207031 24.738281 24.65625 22.75 C 26.101562 20.769531 26.828125 18.15625 26.828125 14.90625 L 26.828125 -66.640625 C 27.003906 -70.796875 28.988281 -74.632812 32.78125 -78.15625 C 36.570312 -81.675781 41.539062 -84.34375 47.6875 -86.15625 C 41.539062 -87.957031 36.570312 -90.664062 32.78125 -94.28125 C 28.988281 -97.894531 27.003906 -101.6875 26.828125 -105.65625 L 26.828125 -187.203125 C 26.828125 -190.453125 26.101562 -193.070312 24.65625 -195.0625 C 23.207031 -197.050781 21.3125 -198.046875 18.96875 -198.046875 L 8.125 -198.046875 Z M 8.125 -203.1875 "/></g></g></g><g fill="#000000" fill-opacity="1"><g transform="translate(31.89436, 332.879524)"><g><path d="M 10.453125 -1.6875 L 32.71875 -1.6875 L 32.71875 -35.53125 L 20 -8.3125 L 7.28125 -35.59375 L 7.28125 0 L 5.59375 -0.0625 L 5.59375 -39.609375 L 7.28125 -39.609375 L 20 -12.3125 L 32.71875 -39.546875 L 34.40625 -39.609375 L 34.40625 0 L 10.453125 -0.0625 Z M 10.453125 -1.6875 "/></g></g></g><g fill="#000000" fill-opacity="1"><g transform="translate(71.895275, 332.879524)"><g><path d="M 6.609375 -1.6875 L 27.40625 -1.6875 L 15.421875 -34.640625 L 2.828125 0 L 1.015625 0 L 15.421875 -39.609375 L 29.828125 0 L 6.609375 0 Z M 6.609375 -1.6875 "/></g></g></g><g fill="#000000" fill-opacity="1"><g transform="translate(102.743437, 332.879524)"><g><path d="M 29.203125 -1.6875 L 29.203125 0 L 5.59375 0 L 5.59375 -39.546875 L 7.28125 -39.546875 L 7.28125 -1.6875 Z M 29.203125 -1.6875 "/></g></g></g><g fill="#000000" fill-opacity="1"><g transform="translate(132.800625, 332.879524)"><g><path d="M 19.609375 -18.984375 L 18.765625 -20.453125 L 21.921875 -22.265625 C 24.523438 -23.691406 25.828125 -25.96875 25.828125 -29.09375 C 25.828125 -34.9375 21.378906 -37.859375 12.484375 -37.859375 L 7.28125 -37.859375 L 7.28125 0 L 5.59375 0 L 5.59375 -39.546875 L 12.484375 -39.546875 C 17.453125 -39.546875 21.195312 -38.628906 23.71875 -36.796875 C 26.25 -34.972656 27.515625 -32.40625 27.515625 -29.09375 C 27.515625 -25.332031 25.929688 -22.566406 22.765625 -20.796875 Z M 19.609375 -18.984375 "/></g></g></g><g fill="#000000" fill-opacity="1"><g transform="translate(162.518814, 332.879524)"><g><path d="M 6.609375 -1.6875 L 27.40625 -1.6875 L 15.421875 -34.640625 L 2.828125 0 L 1.015625 0 L 15.421875 -39.609375 L 29.828125 0 L 6.609375 0 Z M 6.609375 -1.6875 "/></g></g></g><g fill="#000000" fill-opacity="1"><g transform="translate(193.366976, 332.879524)"><g><path d="M 10.671875 -48.59375 L 4.0625 -40.734375 L 2.765625 -41.8125 L 9.375 -49.71875 Z M 7.28125 0 L 5.59375 0 L 5.59375 -39.546875 L 7.28125 -39.546875 Z M 7.28125 0 "/></g></g></g><g fill="#000000" fill-opacity="1"><g transform="translate(206.24862, 332.879524)"><g><path d="M 4.40625 -29.78125 C 4.40625 -33.425781 5.328125 -36.054688 7.171875 -37.671875 C 9.015625 -39.296875 12.007812 -40.109375 16.15625 -40.109375 C 19.0625 -40.109375 21.398438 -39.351562 23.171875 -37.84375 C 24.941406 -36.34375 26.21875 -34.050781 27 -30.96875 L 21.75 -27 L 18.984375 -27 L 25.09375 -31.578125 C 24.300781 -34.109375 23.160156 -35.878906 21.671875 -36.890625 C 20.179688 -37.910156 18.34375 -38.421875 16.15625 -38.421875 C 14.65625 -38.421875 13.382812 -38.328125 12.34375 -38.140625 C 11.3125 -37.953125 10.273438 -37.582031 9.234375 -37.03125 C 8.203125 -36.488281 7.421875 -35.613281 6.890625 -34.40625 C 6.367188 -33.195312 6.109375 -31.65625 6.109375 -29.78125 C 6.109375 -28.125 6.867188 -26.65625 8.390625 -25.375 C 9.910156 -24.09375 11.765625 -23 13.953125 -22.09375 C 16.140625 -21.1875 18.332031 -20.257812 20.53125 -19.3125 C 22.738281 -18.375 24.601562 -17.171875 26.125 -15.703125 C 27.65625 -14.234375 28.421875 -12.539062 28.421875 -10.625 C 28.421875 -6.851562 27.488281 -4.046875 25.625 -2.203125 C 23.757812 -0.359375 20.566406 0.5625 16.046875 0.5625 C 12.359375 0.5625 9.457031 -0.179688 7.34375 -1.671875 C 5.238281 -3.160156 3.789062 -5.46875 3 -8.59375 L 4.578125 -9.265625 C 5.328125 -6.210938 6.613281 -4.09375 8.4375 -2.90625 C 10.269531 -1.71875 12.804688 -1.125 16.046875 -1.125 C 19.660156 -1.125 22.34375 -1.820312 24.09375 -3.21875 C 25.84375 -4.613281 26.71875 -7.082031 26.71875 -10.625 C 26.71875 -12.28125 25.953125 -13.75 24.421875 -15.03125 C 22.898438 -16.3125 21.035156 -17.398438 18.828125 -18.296875 C 16.628906 -19.203125 14.4375 -20.125 12.25 -21.0625 C 10.070312 -22.007812 8.21875 -23.21875 6.6875 -24.6875 C 5.164062 -26.15625 4.40625 -27.851562 4.40625 -29.78125 Z M 4.40625 -29.78125 "/></g></g></g><g fill="#ff6f00" fill-opacity="1"><g transform="translate(237.954167, 332.879524)"><g><path d="M 4.46875 -3.28125 L 8.1875 -3.28125 L 8.1875 0 L 4.46875 0 Z M 4.46875 -3.28125 "/></g></g></g><g fill="#ff6f00" fill-opacity="1"><g transform="translate(250.60983, 332.879524)"><g><path d="M 9.65625 0 L 5.375 0 L 5.375 -32.765625 L 9.65625 -32.765625 C 15.238281 -32.765625 19.6875 -31.296875 23 -28.359375 C 26.3125 -25.421875 27.96875 -21.425781 27.96875 -16.375 C 27.96875 -11.332031 26.3125 -7.34375 23 -4.40625 C 19.6875 -1.46875 15.238281 0 9.65625 0 Z M 9.65625 -1.6875 C 14.738281 -1.6875 18.773438 -2.984375 21.765625 -5.578125 C 24.765625 -8.179688 26.265625 -11.78125 26.265625 -16.375 C 26.265625 -20.976562 24.765625 -24.578125 21.765625 -27.171875 C 18.773438 -29.773438 14.738281 -31.078125 9.65625 -31.078125 L 7.0625 -31.078125 L 7.0625 -1.6875 Z M 9.65625 -1.6875 "/></g></g></g><g fill="#ff6f00" fill-opacity="1"><g transform="translate(281.853486, 332.879524)"><g><path d="M 27.296875 -3.328125 C 25.222656 -0.734375 21.832031 0.5625 17.125 0.5625 C 12.414062 0.5625 9.039062 -0.769531 7 -3.4375 C 4.96875 -6.113281 3.953125 -10.425781 3.953125 -16.375 C 3.953125 -22.332031 4.96875 -26.644531 7 -29.3125 C 9.039062 -31.988281 12.414062 -33.328125 17.125 -33.328125 C 22.582031 -33.328125 26.289062 -31.539062 28.25 -27.96875 L 14.40625 -16.390625 L 11.75 -16.390625 L 26.046875 -28.3125 C 24.390625 -30.53125 21.414062 -31.640625 17.125 -31.640625 C 15.238281 -31.640625 13.65625 -31.441406 12.375 -31.046875 C 11.09375 -30.648438 9.914062 -29.914062 8.84375 -28.84375 C 7.769531 -27.769531 6.96875 -26.207031 6.4375 -24.15625 C 5.914062 -22.101562 5.65625 -19.515625 5.65625 -16.390625 C 5.65625 -13.265625 5.914062 -10.671875 6.4375 -8.609375 C 6.96875 -6.554688 7.769531 -4.992188 8.84375 -3.921875 C 9.914062 -2.847656 11.09375 -2.113281 12.375 -1.71875 C 13.65625 -1.320312 15.238281 -1.125 17.125 -1.125 C 21.414062 -1.125 24.390625 -2.238281 26.046875 -4.46875 Z M 27.296875 -3.328125 "/></g></g></g><g fill="#ff6f00" fill-opacity="1"><g transform="translate(312.814639, 332.879524)"><g><path d="M 29.265625 -32.765625 L 15.140625 0.5625 L 1.015625 -32.765625 L 2.828125 -32.765625 L 15.140625 -3.78125 L 27.453125 -32.765625 Z M 29.265625 -32.765625 "/></g></g></g><g fill="#000000" fill-opacity="1"><g transform="translate(96.881161, 229.693114)"><g><path d="M 47.234375 -7.65625 L 147.859375 -7.65625 L 147.859375 -160.625 L 90.390625 -37.53125 L 32.9375 -160.875 L 32.9375 0 L 25.28125 -0.25 L 25.28125 -179 L 32.9375 -179 L 90.390625 -55.671875 L 147.859375 -178.75 L 155.515625 -179 L 155.515625 0 L 47.234375 -0.25 Z M 47.234375 -7.65625 "/></g></g></g></svg>