<svg xmlns="http://www.w3.org/2000/svg" xmlns:xlink="http://www.w3.org/1999/xlink" width="367" zoomAndPan="magnify" viewBox="0 0 275.25 84.749999" height="113" preserveAspectRatio="xMidYMid meet" version="1.0"><defs><g/></defs><g fill="#f9f7f8" fill-opacity="1"><g transform="translate(12.351534, 71.291836)"><g><path d="M 4.359375 -10.984375 C 6.210938 -10.984375 7.644531 -10.5 8.65625 -9.53125 C 9.664062 -8.5625 10.171875 -7.207031 10.171875 -5.46875 C 10.171875 -3.738281 9.664062 -2.394531 8.65625 -1.4375 C 7.644531 -0.476562 6.210938 0 4.359375 0 L 1.28125 0 L 1.28125 -10.984375 Z M 4.359375 -0.59375 C 6.015625 -0.59375 7.273438 -1.019531 8.140625 -1.875 C 9.015625 -2.738281 9.453125 -3.9375 9.453125 -5.46875 C 9.453125 -7.019531 9.015625 -8.226562 8.140625 -9.09375 C 7.273438 -9.957031 6.015625 -10.390625 4.359375 -10.390625 L 1.984375 -10.390625 L 1.984375 -0.59375 Z M 4.359375 -0.59375 "/></g></g></g><g fill="#f9f7f8" fill-opacity="1"><g transform="translate(23.360941, 71.291836)"><g><path d="M 8.9375 -4.8125 C 8.9375 -4.4375 8.925781 -4.15625 8.90625 -3.96875 L 1.5625 -3.96875 C 1.582031 -3.207031 1.75 -2.566406 2.0625 -2.046875 C 2.375 -1.523438 2.785156 -1.132812 3.296875 -0.875 C 3.804688 -0.613281 4.363281 -0.484375 4.96875 -0.484375 C 5.800781 -0.484375 6.5 -0.6875 7.0625 -1.09375 C 7.632812 -1.507812 7.992188 -2.070312 8.140625 -2.78125 L 8.875 -2.78125 C 8.707031 -1.914062 8.273438 -1.210938 7.578125 -0.671875 C 6.890625 -0.140625 6.019531 0.125 4.96875 0.125 C 4.175781 0.125 3.46875 -0.0507812 2.84375 -0.40625 C 2.21875 -0.757812 1.726562 -1.265625 1.375 -1.921875 C 1.019531 -2.585938 0.84375 -3.363281 0.84375 -4.25 C 0.84375 -5.132812 1.015625 -5.90625 1.359375 -6.5625 C 1.710938 -7.21875 2.203125 -7.722656 2.828125 -8.078125 C 3.453125 -8.429688 4.164062 -8.609375 4.96875 -8.609375 C 5.78125 -8.609375 6.488281 -8.429688 7.09375 -8.078125 C 7.695312 -7.722656 8.15625 -7.253906 8.46875 -6.671875 C 8.78125 -6.097656 8.9375 -5.476562 8.9375 -4.8125 Z M 8.234375 -4.546875 C 8.265625 -5.296875 8.128906 -5.929688 7.828125 -6.453125 C 7.523438 -6.972656 7.117188 -7.363281 6.609375 -7.625 C 6.097656 -7.882812 5.546875 -8.015625 4.953125 -8.015625 C 4.359375 -8.015625 3.804688 -7.882812 3.296875 -7.625 C 2.796875 -7.363281 2.382812 -6.972656 2.0625 -6.453125 C 1.75 -5.929688 1.582031 -5.296875 1.5625 -4.546875 Z M 8.234375 -4.546875 "/></g></g></g><g fill="#f9f7f8" fill-opacity="1"><g transform="translate(33.134913, 71.291836)"><g><path d="M 4.109375 0.125 C 3.160156 0.125 2.382812 -0.0820312 1.78125 -0.5 C 1.1875 -0.914062 0.851562 -1.507812 0.78125 -2.28125 L 1.5 -2.28125 C 1.550781 -1.726562 1.800781 -1.289062 2.25 -0.96875 C 2.707031 -0.644531 3.328125 -0.484375 4.109375 -0.484375 C 4.753906 -0.484375 5.265625 -0.644531 5.640625 -0.96875 C 6.023438 -1.300781 6.21875 -1.707031 6.21875 -2.1875 C 6.21875 -2.519531 6.113281 -2.789062 5.90625 -3 C 5.707031 -3.21875 5.457031 -3.382812 5.15625 -3.5 C 4.851562 -3.613281 4.441406 -3.738281 3.921875 -3.875 C 3.296875 -4.039062 2.789062 -4.203125 2.40625 -4.359375 C 2.019531 -4.523438 1.691406 -4.769531 1.421875 -5.09375 C 1.148438 -5.414062 1.015625 -5.847656 1.015625 -6.390625 C 1.015625 -6.785156 1.132812 -7.15625 1.375 -7.5 C 1.613281 -7.84375 1.945312 -8.113281 2.375 -8.3125 C 2.800781 -8.507812 3.285156 -8.609375 3.828125 -8.609375 C 4.710938 -8.609375 5.425781 -8.382812 5.96875 -7.9375 C 6.519531 -7.488281 6.816406 -6.875 6.859375 -6.09375 L 6.15625 -6.09375 C 6.125 -6.65625 5.90625 -7.113281 5.5 -7.46875 C 5.09375 -7.832031 4.53125 -8.015625 3.8125 -8.015625 C 3.207031 -8.015625 2.707031 -7.851562 2.3125 -7.53125 C 1.914062 -7.21875 1.71875 -6.835938 1.71875 -6.390625 C 1.71875 -5.992188 1.828125 -5.671875 2.046875 -5.421875 C 2.273438 -5.179688 2.550781 -4.992188 2.875 -4.859375 C 3.207031 -4.734375 3.644531 -4.597656 4.1875 -4.453125 C 4.78125 -4.296875 5.253906 -4.140625 5.609375 -3.984375 C 5.972656 -3.835938 6.28125 -3.617188 6.53125 -3.328125 C 6.78125 -3.046875 6.90625 -2.664062 6.90625 -2.1875 C 6.90625 -1.75 6.785156 -1.351562 6.546875 -1 C 6.304688 -0.644531 5.972656 -0.367188 5.546875 -0.171875 C 5.117188 0.0234375 4.640625 0.125 4.109375 0.125 Z M 4.109375 0.125 "/></g></g></g><g fill="#f9f7f8" fill-opacity="1"><g transform="translate(40.907174, 71.291836)"><g><path d="M 0.84375 -4.25 C 0.84375 -5.125 1.015625 -5.890625 1.359375 -6.546875 C 1.710938 -7.203125 2.195312 -7.707031 2.8125 -8.0625 C 3.4375 -8.425781 4.144531 -8.609375 4.9375 -8.609375 C 5.832031 -8.609375 6.59375 -8.382812 7.21875 -7.9375 C 7.851562 -7.5 8.296875 -6.941406 8.546875 -6.265625 L 8.546875 -8.5 L 9.25 -8.5 L 9.25 0 L 8.546875 0 L 8.546875 -2.234375 C 8.296875 -1.546875 7.851562 -0.976562 7.21875 -0.53125 C 6.582031 -0.09375 5.820312 0.125 4.9375 0.125 C 4.144531 0.125 3.4375 -0.0507812 2.8125 -0.40625 C 2.195312 -0.769531 1.710938 -1.28125 1.359375 -1.9375 C 1.015625 -2.601562 0.84375 -3.375 0.84375 -4.25 Z M 8.546875 -4.25 C 8.546875 -4.988281 8.390625 -5.640625 8.078125 -6.203125 C 7.765625 -6.773438 7.34375 -7.21875 6.8125 -7.53125 C 6.28125 -7.84375 5.6875 -8 5.03125 -8 C 4.34375 -8 3.738281 -7.847656 3.21875 -7.546875 C 2.695312 -7.242188 2.289062 -6.8125 2 -6.25 C 1.707031 -5.6875 1.5625 -5.019531 1.5625 -4.25 C 1.5625 -3.476562 1.707031 -2.8125 2 -2.25 C 2.289062 -1.6875 2.695312 -1.253906 3.21875 -0.953125 C 3.75 -0.648438 4.351562 -0.5 5.03125 -0.5 C 5.6875 -0.5 6.28125 -0.648438 6.8125 -0.953125 C 7.351562 -1.265625 7.773438 -1.703125 8.078125 -2.265625 C 8.390625 -2.835938 8.546875 -3.5 8.546875 -4.25 Z M 8.546875 -4.25 "/></g></g></g><g fill="#f9f7f8" fill-opacity="1"><g transform="translate(51.431795, 71.291836)"><g><path d="M 1.984375 -6.734375 C 2.191406 -7.359375 2.5625 -7.835938 3.09375 -8.171875 C 3.625 -8.503906 4.300781 -8.671875 5.125 -8.671875 L 5.125 -7.9375 L 4.890625 -7.9375 C 4.054688 -7.9375 3.363281 -7.695312 2.8125 -7.21875 C 2.257812 -6.738281 1.984375 -5.960938 1.984375 -4.890625 L 1.984375 0 L 1.28125 0 L 1.28125 -8.5 L 1.984375 -8.5 Z M 1.984375 -6.734375 "/></g></g></g><g fill="#f9f7f8" fill-opacity="1"><g transform="translate(56.905215, 71.291836)"><g><path d="M 1.984375 -6.734375 C 2.191406 -7.359375 2.5625 -7.835938 3.09375 -8.171875 C 3.625 -8.503906 4.300781 -8.671875 5.125 -8.671875 L 5.125 -7.9375 L 4.890625 -7.9375 C 4.054688 -7.9375 3.363281 -7.695312 2.8125 -7.21875 C 2.257812 -6.738281 1.984375 -5.960938 1.984375 -4.890625 L 1.984375 0 L 1.28125 0 L 1.28125 -8.5 L 1.984375 -8.5 Z M 1.984375 -6.734375 "/></g></g></g><g fill="#f9f7f8" fill-opacity="1"><g transform="translate(62.378634, 71.291836)"><g><path d="M 5.015625 0.125 C 4.222656 0.125 3.507812 -0.0507812 2.875 -0.40625 C 2.238281 -0.757812 1.738281 -1.265625 1.375 -1.921875 C 1.019531 -2.585938 0.84375 -3.363281 0.84375 -4.25 C 0.84375 -5.125 1.023438 -5.890625 1.390625 -6.546875 C 1.753906 -7.210938 2.253906 -7.722656 2.890625 -8.078125 C 3.535156 -8.429688 4.253906 -8.609375 5.046875 -8.609375 C 5.835938 -8.609375 6.550781 -8.429688 7.1875 -8.078125 C 7.832031 -7.722656 8.332031 -7.21875 8.6875 -6.5625 C 9.050781 -5.90625 9.234375 -5.132812 9.234375 -4.25 C 9.234375 -3.363281 9.050781 -2.585938 8.6875 -1.921875 C 8.320312 -1.265625 7.816406 -0.757812 7.171875 -0.40625 C 6.523438 -0.0507812 5.804688 0.125 5.015625 0.125 Z M 5.015625 -0.5 C 5.628906 -0.5 6.203125 -0.632812 6.734375 -0.90625 C 7.273438 -1.1875 7.707031 -1.609375 8.03125 -2.171875 C 8.363281 -2.734375 8.53125 -3.425781 8.53125 -4.25 C 8.53125 -5.0625 8.363281 -5.75 8.03125 -6.3125 C 7.707031 -6.875 7.28125 -7.296875 6.75 -7.578125 C 6.21875 -7.859375 5.644531 -8 5.03125 -8 C 4.414062 -8 3.84375 -7.859375 3.3125 -7.578125 C 2.789062 -7.296875 2.367188 -6.875 2.046875 -6.3125 C 1.722656 -5.75 1.5625 -5.0625 1.5625 -4.25 C 1.5625 -3.425781 1.71875 -2.734375 2.03125 -2.171875 C 2.351562 -1.609375 2.773438 -1.1875 3.296875 -0.90625 C 3.828125 -0.632812 4.398438 -0.5 5.015625 -0.5 Z M 5.015625 -0.5 "/></g></g></g><g fill="#f9f7f8" fill-opacity="1"><g transform="translate(72.465379, 71.291836)"><g><path d="M 1.984375 -11.578125 L 1.984375 0 L 1.28125 0 L 1.28125 -11.578125 Z M 1.984375 -11.578125 "/></g></g></g><g fill="#f9f7f8" fill-opacity="1"><g transform="translate(75.749434, 71.291836)"><g><path d="M 1.984375 -11.578125 L 1.984375 0 L 1.28125 0 L 1.28125 -11.578125 Z M 1.984375 -11.578125 "/></g></g></g><g fill="#f9f7f8" fill-opacity="1"><g transform="translate(79.033489, 71.291836)"><g><path d="M 5.015625 0.125 C 4.222656 0.125 3.507812 -0.0507812 2.875 -0.40625 C 2.238281 -0.757812 1.738281 -1.265625 1.375 -1.921875 C 1.019531 -2.585938 0.84375 -3.363281 0.84375 -4.25 C 0.84375 -5.125 1.023438 -5.890625 1.390625 -6.546875 C 1.753906 -7.210938 2.253906 -7.722656 2.890625 -8.078125 C 3.535156 -8.429688 4.253906 -8.609375 5.046875 -8.609375 C 5.835938 -8.609375 6.550781 -8.429688 7.1875 -8.078125 C 7.832031 -7.722656 8.332031 -7.21875 8.6875 -6.5625 C 9.050781 -5.90625 9.234375 -5.132812 9.234375 -4.25 C 9.234375 -3.363281 9.050781 -2.585938 8.6875 -1.921875 C 8.320312 -1.265625 7.816406 -0.757812 7.171875 -0.40625 C 6.523438 -0.0507812 5.804688 0.125 5.015625 0.125 Z M 5.015625 -0.5 C 5.628906 -0.5 6.203125 -0.632812 6.734375 -0.90625 C 7.273438 -1.1875 7.707031 -1.609375 8.03125 -2.171875 C 8.363281 -2.734375 8.53125 -3.425781 8.53125 -4.25 C 8.53125 -5.0625 8.363281 -5.75 8.03125 -6.3125 C 7.707031 -6.875 7.28125 -7.296875 6.75 -7.578125 C 6.21875 -7.859375 5.644531 -8 5.03125 -8 C 4.414062 -8 3.84375 -7.859375 3.3125 -7.578125 C 2.789062 -7.296875 2.367188 -6.875 2.046875 -6.3125 C 1.722656 -5.75 1.5625 -5.0625 1.5625 -4.25 C 1.5625 -3.425781 1.71875 -2.734375 2.03125 -2.171875 C 2.351562 -1.609375 2.773438 -1.1875 3.296875 -0.90625 C 3.828125 -0.632812 4.398438 -0.5 5.015625 -0.5 Z M 5.015625 -0.5 "/></g></g></g><g fill="#f9f7f8" fill-opacity="1"><g transform="translate(89.120234, 71.291836)"><g/></g></g><g fill="#f9f7f8" fill-opacity="1"><g transform="translate(93.530247, 71.291836)"><g><path d="M 4.109375 0.125 C 3.160156 0.125 2.382812 -0.0820312 1.78125 -0.5 C 1.1875 -0.914062 0.851562 -1.507812 0.78125 -2.28125 L 1.5 -2.28125 C 1.550781 -1.726562 1.800781 -1.289062 2.25 -0.96875 C 2.707031 -0.644531 3.328125 -0.484375 4.109375 -0.484375 C 4.753906 -0.484375 5.265625 -0.644531 5.640625 -0.96875 C 6.023438 -1.300781 6.21875 -1.707031 6.21875 -2.1875 C 6.21875 -2.519531 6.113281 -2.789062 5.90625 -3 C 5.707031 -3.21875 5.457031 -3.382812 5.15625 -3.5 C 4.851562 -3.613281 4.441406 -3.738281 3.921875 -3.875 C 3.296875 -4.039062 2.789062 -4.203125 2.40625 -4.359375 C 2.019531 -4.523438 1.691406 -4.769531 1.421875 -5.09375 C 1.148438 -5.414062 1.015625 -5.847656 1.015625 -6.390625 C 1.015625 -6.785156 1.132812 -7.15625 1.375 -7.5 C 1.613281 -7.84375 1.945312 -8.113281 2.375 -8.3125 C 2.800781 -8.507812 3.285156 -8.609375 3.828125 -8.609375 C 4.710938 -8.609375 5.425781 -8.382812 5.96875 -7.9375 C 6.519531 -7.488281 6.816406 -6.875 6.859375 -6.09375 L 6.15625 -6.09375 C 6.125 -6.65625 5.90625 -7.113281 5.5 -7.46875 C 5.09375 -7.832031 4.53125 -8.015625 3.8125 -8.015625 C 3.207031 -8.015625 2.707031 -7.851562 2.3125 -7.53125 C 1.914062 -7.21875 1.71875 -6.835938 1.71875 -6.390625 C 1.71875 -5.992188 1.828125 -5.671875 2.046875 -5.421875 C 2.273438 -5.179688 2.550781 -4.992188 2.875 -4.859375 C 3.207031 -4.734375 3.644531 -4.597656 4.1875 -4.453125 C 4.78125 -4.296875 5.253906 -4.140625 5.609375 -3.984375 C 5.972656 -3.835938 6.28125 -3.617188 6.53125 -3.328125 C 6.78125 -3.046875 6.90625 -2.664062 6.90625 -2.1875 C 6.90625 -1.75 6.785156 -1.351562 6.546875 -1 C 6.304688 -0.644531 5.972656 -0.367188 5.546875 -0.171875 C 5.117188 0.0234375 4.640625 0.125 4.109375 0.125 Z M 4.109375 0.125 "/></g></g></g><g fill="#f9f7f8" fill-opacity="1"><g transform="translate(101.302508, 71.291836)"><g><path d="M 5.015625 0.125 C 4.222656 0.125 3.507812 -0.0507812 2.875 -0.40625 C 2.238281 -0.757812 1.738281 -1.265625 1.375 -1.921875 C 1.019531 -2.585938 0.84375 -3.363281 0.84375 -4.25 C 0.84375 -5.125 1.023438 -5.890625 1.390625 -6.546875 C 1.753906 -7.210938 2.253906 -7.722656 2.890625 -8.078125 C 3.535156 -8.429688 4.253906 -8.609375 5.046875 -8.609375 C 5.835938 -8.609375 6.550781 -8.429688 7.1875 -8.078125 C 7.832031 -7.722656 8.332031 -7.21875 8.6875 -6.5625 C 9.050781 -5.90625 9.234375 -5.132812 9.234375 -4.25 C 9.234375 -3.363281 9.050781 -2.585938 8.6875 -1.921875 C 8.320312 -1.265625 7.816406 -0.757812 7.171875 -0.40625 C 6.523438 -0.0507812 5.804688 0.125 5.015625 0.125 Z M 5.015625 -0.5 C 5.628906 -0.5 6.203125 -0.632812 6.734375 -0.90625 C 7.273438 -1.1875 7.707031 -1.609375 8.03125 -2.171875 C 8.363281 -2.734375 8.53125 -3.425781 8.53125 -4.25 C 8.53125 -5.0625 8.363281 -5.75 8.03125 -6.3125 C 7.707031 -6.875 7.28125 -7.296875 6.75 -7.578125 C 6.21875 -7.859375 5.644531 -8 5.03125 -8 C 4.414062 -8 3.84375 -7.859375 3.3125 -7.578125 C 2.789062 -7.296875 2.367188 -6.875 2.046875 -6.3125 C 1.722656 -5.75 1.5625 -5.0625 1.5625 -4.25 C 1.5625 -3.425781 1.71875 -2.734375 2.03125 -2.171875 C 2.351562 -1.609375 2.773438 -1.1875 3.296875 -0.90625 C 3.828125 -0.632812 4.398438 -0.5 5.015625 -0.5 Z M 5.015625 -0.5 "/></g></g></g><g fill="#f9f7f8" fill-opacity="1"><g transform="translate(111.389253, 71.291836)"><g><path d="M 4.515625 -7.875 L 2.3125 -7.875 L 2.3125 0 L 1.609375 0 L 1.609375 -7.875 L 0.328125 -7.875 L 0.328125 -8.5 L 1.609375 -8.5 L 1.609375 -9.09375 C 1.609375 -9.976562 1.832031 -10.632812 2.28125 -11.0625 C 2.726562 -11.5 3.460938 -11.71875 4.484375 -11.71875 L 4.484375 -11.09375 C 3.671875 -11.09375 3.101562 -10.9375 2.78125 -10.625 C 2.46875 -10.3125 2.3125 -9.800781 2.3125 -9.09375 L 2.3125 -8.5 L 4.515625 -8.5 Z M 4.515625 -7.875 "/></g></g></g><g fill="#f9f7f8" fill-opacity="1"><g transform="translate(116.424812, 71.291836)"><g><path d="M 2.328125 -7.890625 L 2.328125 -2.265625 C 2.328125 -1.640625 2.441406 -1.207031 2.671875 -0.96875 C 2.898438 -0.738281 3.304688 -0.625 3.890625 -0.625 L 4.84375 -0.625 L 4.84375 0 L 3.78125 0 C 3.039062 0 2.492188 -0.171875 2.140625 -0.515625 C 1.796875 -0.867188 1.625 -1.453125 1.625 -2.265625 L 1.625 -7.890625 L 0.34375 -7.890625 L 0.34375 -8.5 L 1.625 -8.5 L 1.625 -10.65625 L 2.328125 -10.65625 L 2.328125 -8.5 L 4.84375 -8.5 L 4.84375 -7.890625 Z M 2.328125 -7.890625 "/></g></g></g><g fill="#f9f7f8" fill-opacity="1"><g transform="translate(121.851322, 71.291836)"><g><path d="M 12.390625 -8.5 L 9.71875 0 L 9.046875 0 L 6.328125 -7.515625 L 3.609375 0 L 2.9375 0 L 0.265625 -8.5 L 1 -8.5 L 3.28125 -0.796875 L 6 -8.5 L 6.671875 -8.5 L 9.390625 -0.828125 L 11.671875 -8.5 Z M 12.390625 -8.5 "/></g></g></g><g fill="#f9f7f8" fill-opacity="1"><g transform="translate(134.502756, 71.291836)"><g><path d="M 0.84375 -4.25 C 0.84375 -5.125 1.015625 -5.890625 1.359375 -6.546875 C 1.710938 -7.203125 2.195312 -7.707031 2.8125 -8.0625 C 3.4375 -8.425781 4.144531 -8.609375 4.9375 -8.609375 C 5.832031 -8.609375 6.59375 -8.382812 7.21875 -7.9375 C 7.851562 -7.5 8.296875 -6.941406 8.546875 -6.265625 L 8.546875 -8.5 L 9.25 -8.5 L 9.25 0 L 8.546875 0 L 8.546875 -2.234375 C 8.296875 -1.546875 7.851562 -0.976562 7.21875 -0.53125 C 6.582031 -0.09375 5.820312 0.125 4.9375 0.125 C 4.144531 0.125 3.4375 -0.0507812 2.8125 -0.40625 C 2.195312 -0.769531 1.710938 -1.28125 1.359375 -1.9375 C 1.015625 -2.601562 0.84375 -3.375 0.84375 -4.25 Z M 8.546875 -4.25 C 8.546875 -4.988281 8.390625 -5.640625 8.078125 -6.203125 C 7.765625 -6.773438 7.34375 -7.21875 6.8125 -7.53125 C 6.28125 -7.84375 5.6875 -8 5.03125 -8 C 4.34375 -8 3.738281 -7.847656 3.21875 -7.546875 C 2.695312 -7.242188 2.289062 -6.8125 2 -6.25 C 1.707031 -5.6875 1.5625 -5.019531 1.5625 -4.25 C 1.5625 -3.476562 1.707031 -2.8125 2 -2.25 C 2.289062 -1.6875 2.695312 -1.253906 3.21875 -0.953125 C 3.75 -0.648438 4.351562 -0.5 5.03125 -0.5 C 5.6875 -0.5 6.28125 -0.648438 6.8125 -0.953125 C 7.351562 -1.265625 7.773438 -1.703125 8.078125 -2.265625 C 8.390625 -2.835938 8.546875 -3.5 8.546875 -4.25 Z M 8.546875 -4.25 "/></g></g></g><g fill="#f9f7f8" fill-opacity="1"><g transform="translate(145.027377, 71.291836)"><g><path d="M 1.984375 -6.734375 C 2.191406 -7.359375 2.5625 -7.835938 3.09375 -8.171875 C 3.625 -8.503906 4.300781 -8.671875 5.125 -8.671875 L 5.125 -7.9375 L 4.890625 -7.9375 C 4.054688 -7.9375 3.363281 -7.695312 2.8125 -7.21875 C 2.257812 -6.738281 1.984375 -5.960938 1.984375 -4.890625 L 1.984375 0 L 1.28125 0 L 1.28125 -8.5 L 1.984375 -8.5 Z M 1.984375 -6.734375 "/></g></g></g><g fill="#f9f7f8" fill-opacity="1"><g transform="translate(150.500796, 71.291836)"><g><path d="M 8.9375 -4.8125 C 8.9375 -4.4375 8.925781 -4.15625 8.90625 -3.96875 L 1.5625 -3.96875 C 1.582031 -3.207031 1.75 -2.566406 2.0625 -2.046875 C 2.375 -1.523438 2.785156 -1.132812 3.296875 -0.875 C 3.804688 -0.613281 4.363281 -0.484375 4.96875 -0.484375 C 5.800781 -0.484375 6.5 -0.6875 7.0625 -1.09375 C 7.632812 -1.507812 7.992188 -2.070312 8.140625 -2.78125 L 8.875 -2.78125 C 8.707031 -1.914062 8.273438 -1.210938 7.578125 -0.671875 C 6.890625 -0.140625 6.019531 0.125 4.96875 0.125 C 4.175781 0.125 3.46875 -0.0507812 2.84375 -0.40625 C 2.21875 -0.757812 1.726562 -1.265625 1.375 -1.921875 C 1.019531 -2.585938 0.84375 -3.363281 0.84375 -4.25 C 0.84375 -5.132812 1.015625 -5.90625 1.359375 -6.5625 C 1.710938 -7.21875 2.203125 -7.722656 2.828125 -8.078125 C 3.453125 -8.429688 4.164062 -8.609375 4.96875 -8.609375 C 5.78125 -8.609375 6.488281 -8.429688 7.09375 -8.078125 C 7.695312 -7.722656 8.15625 -7.253906 8.46875 -6.671875 C 8.78125 -6.097656 8.9375 -5.476562 8.9375 -4.8125 Z M 8.234375 -4.546875 C 8.265625 -5.296875 8.128906 -5.929688 7.828125 -6.453125 C 7.523438 -6.972656 7.117188 -7.363281 6.609375 -7.625 C 6.097656 -7.882812 5.546875 -8.015625 4.953125 -8.015625 C 4.359375 -8.015625 3.804688 -7.882812 3.296875 -7.625 C 2.796875 -7.363281 2.382812 -6.972656 2.0625 -6.453125 C 1.75 -5.929688 1.582031 -5.296875 1.5625 -4.546875 Z M 8.234375 -4.546875 "/></g></g></g><g fill="#f9f7f8" fill-opacity="1"><g transform="translate(160.274768, 71.291836)"><g/></g></g><g fill="#f9f7f8" fill-opacity="1"><g transform="translate(164.684781, 71.291836)"><g><path d="M 9.5 -3.796875 C 9.125 -3.140625 8.765625 -2.582031 8.421875 -2.125 L 10.484375 0 L 9.59375 0 L 8.015625 -1.609375 C 7.472656 -0.992188 6.898438 -0.539062 6.296875 -0.25 C 5.703125 0.03125 5.023438 0.171875 4.265625 0.171875 C 3.566406 0.171875 2.941406 0.0351562 2.390625 -0.234375 C 1.835938 -0.515625 1.40625 -0.898438 1.09375 -1.390625 C 0.789062 -1.890625 0.640625 -2.460938 0.640625 -3.109375 C 0.640625 -3.890625 0.859375 -4.5625 1.296875 -5.125 C 1.742188 -5.695312 2.390625 -6.144531 3.234375 -6.46875 C 2.828125 -6.894531 2.53125 -7.296875 2.34375 -7.671875 C 2.164062 -8.046875 2.078125 -8.441406 2.078125 -8.859375 C 2.078125 -9.523438 2.3125 -10.066406 2.78125 -10.484375 C 3.257812 -10.898438 3.882812 -11.109375 4.65625 -11.109375 C 5.113281 -11.109375 5.535156 -11.015625 5.921875 -10.828125 C 6.304688 -10.640625 6.609375 -10.375 6.828125 -10.03125 C 7.046875 -9.6875 7.15625 -9.285156 7.15625 -8.828125 L 6.453125 -8.828125 C 6.453125 -9.347656 6.273438 -9.757812 5.921875 -10.0625 C 5.566406 -10.363281 5.140625 -10.515625 4.640625 -10.515625 C 4.085938 -10.515625 3.640625 -10.359375 3.296875 -10.046875 C 2.953125 -9.742188 2.78125 -9.347656 2.78125 -8.859375 C 2.78125 -8.492188 2.875 -8.144531 3.0625 -7.8125 C 3.25 -7.476562 3.546875 -7.101562 3.953125 -6.6875 L 7.953125 -2.59375 C 8.242188 -3.007812 8.570312 -3.519531 8.9375 -4.125 L 9.8125 -5.640625 L 10.5625 -5.640625 Z M 4.265625 -0.453125 C 4.929688 -0.453125 5.519531 -0.582031 6.03125 -0.84375 C 6.550781 -1.101562 7.050781 -1.519531 7.53125 -2.09375 L 3.6875 -6 L 3.640625 -5.984375 C 2.109375 -5.421875 1.34375 -4.46875 1.34375 -3.125 C 1.34375 -2.613281 1.46875 -2.15625 1.71875 -1.75 C 1.96875 -1.34375 2.3125 -1.023438 2.75 -0.796875 C 3.195312 -0.566406 3.703125 -0.453125 4.265625 -0.453125 Z M 4.265625 -0.453125 "/></g></g></g><g fill="#f9f7f8" fill-opacity="1"><g transform="translate(175.569085, 71.291836)"><g/></g></g><g fill="#f9f7f8" fill-opacity="1"><g transform="translate(179.979098, 71.291836)"><g><path d="M 0.84375 -5.46875 C 0.84375 -6.550781 1.066406 -7.519531 1.515625 -8.375 C 1.972656 -9.226562 2.597656 -9.894531 3.390625 -10.375 C 4.191406 -10.851562 5.085938 -11.09375 6.078125 -11.09375 C 7.335938 -11.09375 8.394531 -10.800781 9.25 -10.21875 C 10.101562 -9.632812 10.726562 -8.8125 11.125 -7.75 L 10.3125 -7.75 C 10 -8.59375 9.476562 -9.253906 8.75 -9.734375 C 8.019531 -10.222656 7.128906 -10.46875 6.078125 -10.46875 C 5.234375 -10.46875 4.46875 -10.265625 3.78125 -9.859375 C 3.09375 -9.460938 2.550781 -8.882812 2.15625 -8.125 C 1.757812 -7.363281 1.5625 -6.476562 1.5625 -5.46875 C 1.5625 -4.46875 1.757812 -3.59375 2.15625 -2.84375 C 2.550781 -2.101562 3.09375 -1.53125 3.78125 -1.125 C 4.46875 -0.71875 5.234375 -0.515625 6.078125 -0.515625 C 7.128906 -0.515625 8.019531 -0.753906 8.75 -1.234375 C 9.476562 -1.722656 10 -2.382812 10.3125 -3.21875 L 11.125 -3.21875 C 10.726562 -2.164062 10.101562 -1.347656 9.25 -0.765625 C 8.394531 -0.179688 7.335938 0.109375 6.078125 0.109375 C 5.085938 0.109375 4.191406 -0.125 3.390625 -0.59375 C 2.597656 -1.070312 1.972656 -1.734375 1.515625 -2.578125 C 1.066406 -3.429688 0.84375 -4.394531 0.84375 -5.46875 Z M 0.84375 -5.46875 "/></g></g></g><g fill="#f9f7f8" fill-opacity="1"><g transform="translate(192.020643, 71.291836)"><g><path d="M 5.015625 0.125 C 4.222656 0.125 3.507812 -0.0507812 2.875 -0.40625 C 2.238281 -0.757812 1.738281 -1.265625 1.375 -1.921875 C 1.019531 -2.585938 0.84375 -3.363281 0.84375 -4.25 C 0.84375 -5.125 1.023438 -5.890625 1.390625 -6.546875 C 1.753906 -7.210938 2.253906 -7.722656 2.890625 -8.078125 C 3.535156 -8.429688 4.253906 -8.609375 5.046875 -8.609375 C 5.835938 -8.609375 6.550781 -8.429688 7.1875 -8.078125 C 7.832031 -7.722656 8.332031 -7.21875 8.6875 -6.5625 C 9.050781 -5.90625 9.234375 -5.132812 9.234375 -4.25 C 9.234375 -3.363281 9.050781 -2.585938 8.6875 -1.921875 C 8.320312 -1.265625 7.816406 -0.757812 7.171875 -0.40625 C 6.523438 -0.0507812 5.804688 0.125 5.015625 0.125 Z M 5.015625 -0.5 C 5.628906 -0.5 6.203125 -0.632812 6.734375 -0.90625 C 7.273438 -1.1875 7.707031 -1.609375 8.03125 -2.171875 C 8.363281 -2.734375 8.53125 -3.425781 8.53125 -4.25 C 8.53125 -5.0625 8.363281 -5.75 8.03125 -6.3125 C 7.707031 -6.875 7.28125 -7.296875 6.75 -7.578125 C 6.21875 -7.859375 5.644531 -8 5.03125 -8 C 4.414062 -8 3.84375 -7.859375 3.3125 -7.578125 C 2.789062 -7.296875 2.367188 -6.875 2.046875 -6.3125 C 1.722656 -5.75 1.5625 -5.0625 1.5625 -4.25 C 1.5625 -3.425781 1.71875 -2.734375 2.03125 -2.171875 C 2.351562 -1.609375 2.773438 -1.1875 3.296875 -0.90625 C 3.828125 -0.632812 4.398438 -0.5 5.015625 -0.5 Z M 5.015625 -0.5 "/></g></g></g><g fill="#f9f7f8" fill-opacity="1"><g transform="translate(202.107388, 71.291836)"><g><path d="M 5.109375 -8.671875 C 6.117188 -8.671875 6.941406 -8.359375 7.578125 -7.734375 C 8.222656 -7.109375 8.546875 -6.1875 8.546875 -4.96875 L 8.546875 0 L 7.859375 0 L 7.859375 -4.921875 C 7.859375 -5.929688 7.597656 -6.707031 7.078125 -7.25 C 6.566406 -7.789062 5.875 -8.0625 5 -8.0625 C 4.082031 -8.0625 3.347656 -7.765625 2.796875 -7.171875 C 2.253906 -6.585938 1.984375 -5.722656 1.984375 -4.578125 L 1.984375 0 L 1.28125 0 L 1.28125 -8.5 L 1.984375 -8.5 L 1.984375 -6.6875 C 2.222656 -7.320312 2.617188 -7.8125 3.171875 -8.15625 C 3.734375 -8.5 4.378906 -8.671875 5.109375 -8.671875 Z M 5.109375 -8.671875 "/></g></g></g><g fill="#f9f7f8" fill-opacity="1"><g transform="translate(211.850091, 71.291836)"><g><path d="M 4.109375 0.125 C 3.160156 0.125 2.382812 -0.0820312 1.78125 -0.5 C 1.1875 -0.914062 0.851562 -1.507812 0.78125 -2.28125 L 1.5 -2.28125 C 1.550781 -1.726562 1.800781 -1.289062 2.25 -0.96875 C 2.707031 -0.644531 3.328125 -0.484375 4.109375 -0.484375 C 4.753906 -0.484375 5.265625 -0.644531 5.640625 -0.96875 C 6.023438 -1.300781 6.21875 -1.707031 6.21875 -2.1875 C 6.21875 -2.519531 6.113281 -2.789062 5.90625 -3 C 5.707031 -3.21875 5.457031 -3.382812 5.15625 -3.5 C 4.851562 -3.613281 4.441406 -3.738281 3.921875 -3.875 C 3.296875 -4.039062 2.789062 -4.203125 2.40625 -4.359375 C 2.019531 -4.523438 1.691406 -4.769531 1.421875 -5.09375 C 1.148438 -5.414062 1.015625 -5.847656 1.015625 -6.390625 C 1.015625 -6.785156 1.132812 -7.15625 1.375 -7.5 C 1.613281 -7.84375 1.945312 -8.113281 2.375 -8.3125 C 2.800781 -8.507812 3.285156 -8.609375 3.828125 -8.609375 C 4.710938 -8.609375 5.425781 -8.382812 5.96875 -7.9375 C 6.519531 -7.488281 6.816406 -6.875 6.859375 -6.09375 L 6.15625 -6.09375 C 6.125 -6.65625 5.90625 -7.113281 5.5 -7.46875 C 5.09375 -7.832031 4.53125 -8.015625 3.8125 -8.015625 C 3.207031 -8.015625 2.707031 -7.851562 2.3125 -7.53125 C 1.914062 -7.21875 1.71875 -6.835938 1.71875 -6.390625 C 1.71875 -5.992188 1.828125 -5.671875 2.046875 -5.421875 C 2.273438 -5.179688 2.550781 -4.992188 2.875 -4.859375 C 3.207031 -4.734375 3.644531 -4.597656 4.1875 -4.453125 C 4.78125 -4.296875 5.253906 -4.140625 5.609375 -3.984375 C 5.972656 -3.835938 6.28125 -3.617188 6.53125 -3.328125 C 6.78125 -3.046875 6.90625 -2.664062 6.90625 -2.1875 C 6.90625 -1.75 6.785156 -1.351562 6.546875 -1 C 6.304688 -0.644531 5.972656 -0.367188 5.546875 -0.171875 C 5.117188 0.0234375 4.640625 0.125 4.109375 0.125 Z M 4.109375 0.125 "/></g></g></g><g fill="#f9f7f8" fill-opacity="1"><g transform="translate(219.622352, 71.291836)"><g><path d="M 8.46875 -8.5 L 8.46875 0 L 7.75 0 L 7.75 -1.84375 C 7.507812 -1.195312 7.109375 -0.703125 6.546875 -0.359375 C 5.992188 -0.0234375 5.359375 0.140625 4.640625 0.140625 C 3.628906 0.140625 2.800781 -0.164062 2.15625 -0.78125 C 1.519531 -1.40625 1.203125 -2.328125 1.203125 -3.546875 L 1.203125 -8.5 L 1.890625 -8.5 L 1.890625 -3.59375 C 1.890625 -2.582031 2.144531 -1.804688 2.65625 -1.265625 C 3.164062 -0.734375 3.859375 -0.46875 4.734375 -0.46875 C 5.648438 -0.46875 6.378906 -0.757812 6.921875 -1.34375 C 7.472656 -1.925781 7.75 -2.789062 7.75 -3.9375 L 7.75 -8.5 Z M 8.46875 -8.5 "/></g></g></g><g fill="#f9f7f8" fill-opacity="1"><g transform="translate(229.365056, 71.291836)"><g><path d="M 1.984375 -11.578125 L 1.984375 0 L 1.28125 0 L 1.28125 -11.578125 Z M 1.984375 -11.578125 "/></g></g></g><g fill="#f9f7f8" fill-opacity="1"><g transform="translate(232.649111, 71.291836)"><g><path d="M 2.328125 -7.890625 L 2.328125 -2.265625 C 2.328125 -1.640625 2.441406 -1.207031 2.671875 -0.96875 C 2.898438 -0.738281 3.304688 -0.625 3.890625 -0.625 L 4.84375 -0.625 L 4.84375 0 L 3.78125 0 C 3.039062 0 2.492188 -0.171875 2.140625 -0.515625 C 1.796875 -0.867188 1.625 -1.453125 1.625 -2.265625 L 1.625 -7.890625 L 0.34375 -7.890625 L 0.34375 -8.5 L 1.625 -8.5 L 1.625 -10.65625 L 2.328125 -10.65625 L 2.328125 -8.5 L 4.84375 -8.5 L 4.84375 -7.890625 Z M 2.328125 -7.890625 "/></g></g></g><g fill="#f9f7f8" fill-opacity="1"><g transform="translate(238.075621, 71.291836)"><g><path d="M 1.640625 -10.390625 C 1.472656 -10.390625 1.332031 -10.441406 1.21875 -10.546875 C 1.101562 -10.660156 1.046875 -10.8125 1.046875 -11 C 1.046875 -11.175781 1.101562 -11.320312 1.21875 -11.4375 C 1.332031 -11.550781 1.472656 -11.609375 1.640625 -11.609375 C 1.804688 -11.609375 1.945312 -11.550781 2.0625 -11.4375 C 2.175781 -11.320312 2.234375 -11.175781 2.234375 -11 C 2.234375 -10.8125 2.175781 -10.660156 2.0625 -10.546875 C 1.945312 -10.441406 1.804688 -10.390625 1.640625 -10.390625 Z M 1.984375 -8.5 L 1.984375 0 L 1.28125 0 L 1.28125 -8.5 Z M 1.984375 -8.5 "/></g></g></g><g fill="#f9f7f8" fill-opacity="1"><g transform="translate(241.359676, 71.291836)"><g><path d="M 5.109375 -8.671875 C 6.117188 -8.671875 6.941406 -8.359375 7.578125 -7.734375 C 8.222656 -7.109375 8.546875 -6.1875 8.546875 -4.96875 L 8.546875 0 L 7.859375 0 L 7.859375 -4.921875 C 7.859375 -5.929688 7.597656 -6.707031 7.078125 -7.25 C 6.566406 -7.789062 5.875 -8.0625 5 -8.0625 C 4.082031 -8.0625 3.347656 -7.765625 2.796875 -7.171875 C 2.253906 -6.585938 1.984375 -5.722656 1.984375 -4.578125 L 1.984375 0 L 1.28125 0 L 1.28125 -8.5 L 1.984375 -8.5 L 1.984375 -6.6875 C 2.222656 -7.320312 2.617188 -7.8125 3.171875 -8.15625 C 3.734375 -8.5 4.378906 -8.671875 5.109375 -8.671875 Z M 5.109375 -8.671875 "/></g></g></g><g fill="#f9f7f8" fill-opacity="1"><g transform="translate(251.10238, 71.291836)"><g><path d="M 4.9375 -8.609375 C 5.832031 -8.609375 6.59375 -8.390625 7.21875 -7.953125 C 7.851562 -7.515625 8.296875 -6.957031 8.546875 -6.28125 L 8.546875 -8.5 L 9.25 -8.5 L 9.25 0.265625 C 9.25 1.046875 9.078125 1.726562 8.734375 2.3125 C 8.390625 2.90625 7.921875 3.359375 7.328125 3.671875 C 6.742188 3.992188 6.09375 4.15625 5.375 4.15625 C 4.3125 4.15625 3.429688 3.898438 2.734375 3.390625 C 2.035156 2.878906 1.578125 2.191406 1.359375 1.328125 L 2.0625 1.328125 C 2.269531 2.003906 2.660156 2.539062 3.234375 2.9375 C 3.804688 3.34375 4.519531 3.546875 5.375 3.546875 C 5.96875 3.546875 6.503906 3.410156 6.984375 3.140625 C 7.460938 2.878906 7.84375 2.5 8.125 2 C 8.40625 1.507812 8.546875 0.929688 8.546875 0.265625 L 8.546875 -2.21875 C 8.296875 -1.539062 7.851562 -0.976562 7.21875 -0.53125 C 6.582031 -0.09375 5.820312 0.125 4.9375 0.125 C 4.144531 0.125 3.4375 -0.0507812 2.8125 -0.40625 C 2.195312 -0.769531 1.710938 -1.28125 1.359375 -1.9375 C 1.015625 -2.601562 0.84375 -3.375 0.84375 -4.25 C 0.84375 -5.125 1.015625 -5.890625 1.359375 -6.546875 C 1.710938 -7.203125 2.195312 -7.707031 2.8125 -8.0625 C 3.4375 -8.425781 4.144531 -8.609375 4.9375 -8.609375 Z M 8.546875 -4.25 C 8.546875 -4.988281 8.390625 -5.640625 8.078125 -6.203125 C 7.765625 -6.773438 7.34375 -7.21875 6.8125 -7.53125 C 6.28125 -7.84375 5.6875 -8 5.03125 -8 C 4.34375 -8 3.738281 -7.847656 3.21875 -7.546875 C 2.695312 -7.242188 2.289062 -6.8125 2 -6.25 C 1.707031 -5.6875 1.5625 -5.019531 1.5625 -4.25 C 1.5625 -3.476562 1.707031 -2.8125 2 -2.25 C 2.289062 -1.6875 2.695312 -1.253906 3.21875 -0.953125 C 3.75 -0.648438 4.351562 -0.5 5.03125 -0.5 C 5.6875 -0.5 6.28125 -0.648438 6.8125 -0.953125 C 7.351562 -1.265625 7.773438 -1.703125 8.078125 -2.265625 C 8.390625 -2.835938 8.546875 -3.5 8.546875 -4.25 Z M 8.546875 -4.25 "/></g></g></g><g fill="#ffffff" fill-opacity="1"><g transform="translate(9.304449, 51.686529)"><g><path d="M 8.578125 -1.390625 L 26.84375 -1.390625 L 26.84375 -29.15625 L 16.40625 -6.8125 L 5.984375 -29.203125 L 5.984375 0 L 4.59375 -0.046875 L 4.59375 -32.5 L 5.984375 -32.5 L 16.40625 -10.109375 L 26.84375 -32.453125 L 28.234375 -32.5 L 28.234375 0 L 8.578125 -0.046875 Z M 8.578125 -1.390625 "/></g></g></g><g fill="#ffffff" fill-opacity="1"><g transform="translate(42.129144, 51.686529)"><g><path d="M 5.421875 -1.390625 L 22.484375 -1.390625 L 12.65625 -28.421875 L 2.3125 0 L 0.828125 0 L 12.65625 -32.5 L 24.484375 0 L 5.421875 0 Z M 5.421875 -1.390625 "/></g></g></g><g fill="#ffffff" fill-opacity="1"><g transform="translate(67.443093, 51.686529)"><g><path d="M 23.96875 -1.390625 L 23.96875 0 L 4.59375 0 L 4.59375 -32.453125 L 5.984375 -32.453125 L 5.984375 -1.390625 Z M 23.96875 -1.390625 "/></g></g></g><g fill="#ffffff" fill-opacity="1"><g transform="translate(92.107978, 51.686529)"><g><path d="M 16.09375 -15.578125 L 15.390625 -16.78125 L 17.984375 -18.265625 C 20.117188 -19.441406 21.1875 -21.3125 21.1875 -23.875 C 21.1875 -28.664062 17.539062 -31.0625 10.25 -31.0625 L 5.984375 -31.0625 L 5.984375 0 L 4.59375 0 L 4.59375 -32.453125 L 10.25 -32.453125 C 14.320312 -32.453125 17.394531 -31.703125 19.46875 -30.203125 C 21.539062 -28.703125 22.578125 -26.59375 22.578125 -23.875 C 22.578125 -20.78125 21.28125 -18.507812 18.6875 -17.0625 Z M 16.09375 -15.578125 "/></g></g></g><g fill="#ffffff" fill-opacity="1"><g transform="translate(116.494685, 51.686529)"><g><path d="M 5.421875 -1.390625 L 22.484375 -1.390625 L 12.65625 -28.421875 L 2.3125 0 L 0.828125 0 L 12.65625 -32.5 L 24.484375 0 L 5.421875 0 Z M 5.421875 -1.390625 "/></g></g></g><g fill="#ffffff" fill-opacity="1"><g transform="translate(141.808635, 51.686529)"><g><path d="M 8.765625 -39.875 L 3.34375 -33.421875 L 2.265625 -34.3125 L 7.703125 -40.796875 Z M 5.984375 0 L 4.59375 0 L 4.59375 -32.453125 L 5.984375 -32.453125 Z M 5.984375 0 "/></g></g></g><g fill="#ffffff" fill-opacity="1"><g transform="translate(152.379304, 51.686529)"><g><path d="M 3.609375 -24.4375 C 3.609375 -27.425781 4.363281 -29.585938 5.875 -30.921875 C 7.394531 -32.253906 9.859375 -32.921875 13.265625 -32.921875 C 15.640625 -32.921875 17.550781 -32.300781 19 -31.0625 C 20.457031 -29.820312 21.507812 -27.9375 22.15625 -25.40625 L 17.84375 -22.15625 L 15.578125 -22.15625 L 20.578125 -25.921875 C 19.929688 -27.984375 19 -29.429688 17.78125 -30.265625 C 16.5625 -31.109375 15.054688 -31.53125 13.265625 -31.53125 C 12.023438 -31.53125 10.976562 -31.453125 10.125 -31.296875 C 9.28125 -31.140625 8.429688 -30.835938 7.578125 -30.390625 C 6.734375 -29.941406 6.09375 -29.222656 5.65625 -28.234375 C 5.21875 -27.242188 5 -25.976562 5 -24.4375 C 5 -23.070312 5.625 -21.863281 6.875 -20.8125 C 8.132812 -19.757812 9.660156 -18.863281 11.453125 -18.125 C 13.242188 -17.382812 15.039062 -16.628906 16.84375 -15.859375 C 18.65625 -15.085938 20.1875 -14.097656 21.4375 -12.890625 C 22.6875 -11.679688 23.3125 -10.289062 23.3125 -8.71875 C 23.3125 -5.625 22.546875 -3.316406 21.015625 -1.796875 C 19.492188 -0.285156 16.878906 0.46875 13.171875 0.46875 C 10.140625 0.46875 7.757812 -0.140625 6.03125 -1.359375 C 4.300781 -2.585938 3.109375 -4.484375 2.453125 -7.046875 L 3.75 -7.609375 C 4.375 -5.097656 5.429688 -3.351562 6.921875 -2.375 C 8.421875 -1.40625 10.503906 -0.921875 13.171875 -0.921875 C 16.128906 -0.921875 18.328125 -1.492188 19.765625 -2.640625 C 21.203125 -3.785156 21.921875 -5.8125 21.921875 -8.71875 C 21.921875 -10.070312 21.296875 -11.273438 20.046875 -12.328125 C 18.796875 -13.378906 17.265625 -14.273438 15.453125 -15.015625 C 13.648438 -15.765625 11.851562 -16.523438 10.0625 -17.296875 C 8.269531 -18.066406 6.742188 -19.050781 5.484375 -20.25 C 4.234375 -21.457031 3.609375 -22.851562 3.609375 -24.4375 Z M 3.609375 -24.4375 "/></g></g></g><g fill="#ff6f00" fill-opacity="1"><g transform="translate(178.389466, 51.686529)"><g><path d="M 3.65625 -2.6875 L 6.71875 -2.6875 L 6.71875 0 L 3.65625 0 Z M 3.65625 -2.6875 "/></g></g></g><g fill="#ff6f00" fill-opacity="1"><g transform="translate(188.774677, 51.686529)"><g><path d="M 7.921875 0 L 4.40625 0 L 4.40625 -26.890625 L 7.921875 -26.890625 C 12.492188 -26.890625 16.140625 -25.679688 18.859375 -23.265625 C 21.585938 -20.859375 22.953125 -17.582031 22.953125 -13.4375 C 22.953125 -9.300781 21.585938 -6.023438 18.859375 -3.609375 C 16.140625 -1.203125 12.492188 0 7.921875 0 Z M 7.921875 -1.390625 C 12.097656 -1.390625 15.414062 -2.453125 17.875 -4.578125 C 20.332031 -6.710938 21.5625 -9.664062 21.5625 -13.4375 C 21.5625 -17.207031 20.332031 -20.160156 17.875 -22.296875 C 15.414062 -24.429688 12.097656 -25.5 7.921875 -25.5 L 5.796875 -25.5 L 5.796875 -1.390625 Z M 7.921875 -1.390625 "/></g></g></g><g fill="#ff6f00" fill-opacity="1"><g transform="translate(214.413174, 51.686529)"><g><path d="M 22.390625 -2.734375 C 20.691406 -0.597656 17.910156 0.46875 14.046875 0.46875 C 10.179688 0.46875 7.414062 -0.628906 5.75 -2.828125 C 4.082031 -5.023438 3.25 -8.5625 3.25 -13.4375 C 3.25 -18.320312 4.082031 -21.863281 5.75 -24.0625 C 7.414062 -26.257812 10.179688 -27.359375 14.046875 -27.359375 C 18.523438 -27.359375 21.566406 -25.890625 23.171875 -22.953125 L 11.828125 -13.4375 L 9.640625 -13.4375 L 21.375 -23.21875 C 20.007812 -25.050781 17.566406 -25.96875 14.046875 -25.96875 C 12.503906 -25.96875 11.207031 -25.800781 10.15625 -25.46875 C 9.101562 -25.144531 8.132812 -24.539062 7.25 -23.65625 C 6.375 -22.78125 5.71875 -21.5 5.28125 -19.8125 C 4.851562 -18.132812 4.640625 -16.007812 4.640625 -13.4375 C 4.640625 -10.875 4.851562 -8.75 5.28125 -7.0625 C 5.71875 -5.382812 6.375 -4.101562 7.25 -3.21875 C 8.132812 -2.34375 9.101562 -1.738281 10.15625 -1.40625 C 11.207031 -1.082031 12.503906 -0.921875 14.046875 -0.921875 C 17.566406 -0.921875 20.007812 -1.832031 21.375 -3.65625 Z M 22.390625 -2.734375 "/></g></g></g><g fill="#ff6f00" fill-opacity="1"><g transform="translate(239.81986, 51.686529)"><g><path d="M 24.015625 -26.890625 L 12.421875 0.46875 L 0.828125 -26.890625 L 2.3125 -26.890625 L 12.421875 -3.109375 L 22.53125 -26.890625 Z M 24.015625 -26.890625 "/></g></g></g></svg>