<svg xmlns="http://www.w3.org/2000/svg" xmlns:xlink="http://www.w3.org/1999/xlink" width="500" zoomAndPan="magnify" viewBox="0 0 375 374.999991" height="500" preserveAspectRatio="xMidYMid meet" version="1.0"><defs><g/></defs><g fill="#ff6f00" fill-opacity="1"><g transform="translate(0.0184774, 226.329346)"><g><path d="M 62.578125 -203.1875 L 62.578125 -198.046875 L 51.46875 -198.046875 C 49.125 -198.046875 47.273438 -197.050781 45.921875 -195.0625 C 44.566406 -193.070312 43.890625 -190.453125 43.890625 -187.203125 C 43.890625 -170.953125 43.890625 -156.6875 43.890625 -144.40625 C 43.890625 -132.125 43.890625 -122.59375 43.890625 -115.8125 C 43.890625 -109.039062 43.800781 -105.65625 43.625 -105.65625 C 43.625 -101.6875 41.769531 -97.894531 38.0625 -94.28125 C 34.363281 -90.664062 29.351562 -87.957031 23.03125 -86.15625 C 29.351562 -84.34375 34.363281 -81.675781 38.0625 -78.15625 C 41.769531 -74.632812 43.625 -70.796875 43.625 -66.640625 L 43.890625 14.90625 C 43.890625 18.15625 44.566406 20.769531 45.921875 22.75 C 47.273438 24.738281 49.125 25.734375 51.46875 25.734375 L 62.578125 25.734375 L 62.578125 31.15625 L 51.46875 31.15625 C 47.320312 31.15625 43.9375 29.664062 41.3125 26.6875 C 38.695312 23.707031 37.390625 19.78125 37.390625 14.90625 L 37.390625 -67.734375 C 37.390625 -72.429688 35.492188 -76.269531 31.703125 -79.25 C 27.910156 -82.226562 22.851562 -83.71875 16.53125 -83.71875 L 14.90625 -83.71875 L 14.90625 -88.3125 L 16.53125 -88.3125 C 22.851562 -88.3125 27.910156 -89.800781 31.703125 -92.78125 C 35.492188 -95.769531 37.390625 -99.609375 37.390625 -104.296875 L 37.390625 -186.9375 C 37.390625 -191.8125 38.695312 -195.738281 41.3125 -198.71875 C 43.9375 -201.695312 47.320312 -203.1875 51.46875 -203.1875 Z M 62.578125 -203.1875 "/></g></g></g><g fill="#ff6f00" fill-opacity="1"><g transform="translate(70.455665, 226.329346)"><g/></g></g><g fill="#ff6f00" fill-opacity="1"><g transform="translate(109.466112, 226.329346)"><g/></g></g><g fill="#ff6f00" fill-opacity="1"><g transform="translate(148.476558, 226.329346)"><g/></g></g><g fill="#ff6f00" fill-opacity="1"><g transform="translate(187.487005, 226.329346)"><g/></g></g><g fill="#ff6f00" fill-opacity="1"><g transform="translate(226.497451, 226.329346)"><g/></g></g><g fill="#ff6f00" fill-opacity="1"><g transform="translate(265.507898, 226.329346)"><g/></g></g><g fill="#ff6f00" fill-opacity="1"><g transform="translate(304.525854, 226.329346)"><g><path d="M 8.125 -203.1875 L 18.96875 -203.1875 C 23.300781 -203.1875 26.773438 -201.695312 29.390625 -198.71875 C 32.015625 -195.738281 33.328125 -191.8125 33.328125 -186.9375 C 33.328125 -170.5 33.328125 -156.046875 33.328125 -143.578125 C 33.328125 -131.117188 33.328125 -121.457031 33.328125 -114.59375 C 33.328125 -107.726562 33.234375 -104.296875 33.046875 -104.296875 C 33.234375 -99.609375 35.265625 -95.769531 39.140625 -92.78125 C 43.023438 -89.800781 48.039062 -88.3125 54.1875 -88.3125 L 55.8125 -88.3125 L 55.8125 -83.71875 L 54.1875 -83.71875 C 48.039062 -83.71875 43.023438 -82.226562 39.140625 -79.25 C 35.265625 -76.269531 33.234375 -72.429688 33.046875 -67.734375 L 33.328125 14.90625 C 33.328125 19.78125 32.015625 23.707031 29.390625 26.6875 C 26.773438 29.664062 23.300781 31.15625 18.96875 31.15625 L 8.125 31.15625 L 8.125 25.734375 L 18.96875 25.734375 C 21.3125 25.734375 23.207031 24.738281 24.65625 22.75 C 26.101562 20.769531 26.828125 18.15625 26.828125 14.90625 L 26.828125 -66.640625 C 27.003906 -70.796875 28.988281 -74.632812 32.78125 -78.15625 C 36.570312 -81.675781 41.539062 -84.34375 47.6875 -86.15625 C 41.539062 -87.957031 36.570312 -90.664062 32.78125 -94.28125 C 28.988281 -97.894531 27.003906 -101.6875 26.828125 -105.65625 L 26.828125 -187.203125 C 26.828125 -190.453125 26.101562 -193.070312 24.65625 -195.0625 C 23.207031 -197.050781 21.3125 -198.046875 18.96875 -198.046875 L 8.125 -198.046875 Z M 8.125 -203.1875 "/></g></g></g><g fill="#f9f7f8" fill-opacity="1"><g transform="translate(35.606252, 350.420892)"><g><path d="M 5.3125 -13.375 C 7.582031 -13.375 9.328125 -12.785156 10.546875 -11.609375 C 11.773438 -10.429688 12.390625 -8.785156 12.390625 -6.671875 C 12.390625 -4.554688 11.773438 -2.914062 10.546875 -1.75 C 9.328125 -0.582031 7.582031 0 5.3125 0 L 1.5625 0 L 1.5625 -13.375 Z M 5.3125 -0.71875 C 7.332031 -0.71875 8.867188 -1.242188 9.921875 -2.296875 C 10.984375 -3.347656 11.515625 -4.804688 11.515625 -6.671875 C 11.515625 -8.554688 10.984375 -10.023438 9.921875 -11.078125 C 8.867188 -12.128906 7.332031 -12.65625 5.3125 -12.65625 L 2.421875 -12.65625 L 2.421875 -0.71875 Z M 5.3125 -0.71875 "/></g></g></g><g fill="#f9f7f8" fill-opacity="1"><g transform="translate(49.022363, 350.420892)"><g><path d="M 10.890625 -5.875 C 10.890625 -5.414062 10.875 -5.070312 10.84375 -4.84375 L 1.90625 -4.84375 C 1.925781 -3.914062 2.128906 -3.132812 2.515625 -2.5 C 2.898438 -1.863281 3.398438 -1.382812 4.015625 -1.0625 C 4.640625 -0.75 5.320312 -0.59375 6.0625 -0.59375 C 7.082031 -0.59375 7.929688 -0.84375 8.609375 -1.34375 C 9.296875 -1.84375 9.726562 -2.523438 9.90625 -3.390625 L 10.8125 -3.390625 C 10.601562 -2.335938 10.078125 -1.484375 9.234375 -0.828125 C 8.398438 -0.171875 7.34375 0.15625 6.0625 0.15625 C 5.09375 0.15625 4.226562 -0.0546875 3.46875 -0.484375 C 2.707031 -0.921875 2.109375 -1.539062 1.671875 -2.34375 C 1.242188 -3.15625 1.03125 -4.101562 1.03125 -5.1875 C 1.03125 -6.269531 1.242188 -7.207031 1.671875 -8 C 2.097656 -8.800781 2.691406 -9.414062 3.453125 -9.84375 C 4.210938 -10.269531 5.082031 -10.484375 6.0625 -10.484375 C 7.050781 -10.484375 7.910156 -10.269531 8.640625 -9.84375 C 9.367188 -9.414062 9.925781 -8.847656 10.3125 -8.140625 C 10.695312 -7.441406 10.890625 -6.6875 10.890625 -5.875 Z M 10.03125 -5.546875 C 10.0625 -6.460938 9.894531 -7.238281 9.53125 -7.875 C 9.175781 -8.507812 8.6875 -8.984375 8.0625 -9.296875 C 7.4375 -9.609375 6.765625 -9.765625 6.046875 -9.765625 C 5.316406 -9.765625 4.644531 -9.609375 4.03125 -9.296875 C 3.414062 -8.984375 2.910156 -8.507812 2.515625 -7.875 C 2.128906 -7.238281 1.925781 -6.460938 1.90625 -5.546875 Z M 10.03125 -5.546875 "/></g></g></g><g fill="#f9f7f8" fill-opacity="1"><g transform="translate(60.932968, 350.420892)"><g><path d="M 5.015625 0.15625 C 3.859375 0.15625 2.914062 -0.0976562 2.1875 -0.609375 C 1.457031 -1.117188 1.046875 -1.84375 0.953125 -2.78125 L 1.828125 -2.78125 C 1.890625 -2.101562 2.195312 -1.566406 2.75 -1.171875 C 3.300781 -0.785156 4.054688 -0.59375 5.015625 -0.59375 C 5.804688 -0.59375 6.429688 -0.789062 6.890625 -1.1875 C 7.359375 -1.59375 7.59375 -2.085938 7.59375 -2.671875 C 7.59375 -3.078125 7.46875 -3.410156 7.21875 -3.671875 C 6.96875 -3.929688 6.65625 -4.128906 6.28125 -4.265625 C 5.914062 -4.410156 5.414062 -4.566406 4.78125 -4.734375 C 4.019531 -4.929688 3.40625 -5.128906 2.9375 -5.328125 C 2.46875 -5.523438 2.066406 -5.820312 1.734375 -6.21875 C 1.398438 -6.613281 1.234375 -7.140625 1.234375 -7.796875 C 1.234375 -8.273438 1.378906 -8.722656 1.671875 -9.140625 C 1.960938 -9.554688 2.367188 -9.882812 2.890625 -10.125 C 3.410156 -10.363281 4.003906 -10.484375 4.671875 -10.484375 C 5.753906 -10.484375 6.628906 -10.210938 7.296875 -9.671875 C 7.960938 -9.128906 8.320312 -8.382812 8.375 -7.4375 L 7.515625 -7.4375 C 7.472656 -8.125 7.203125 -8.679688 6.703125 -9.109375 C 6.210938 -9.546875 5.53125 -9.765625 4.65625 -9.765625 C 3.914062 -9.765625 3.300781 -9.570312 2.8125 -9.1875 C 2.332031 -8.800781 2.09375 -8.335938 2.09375 -7.796875 C 2.09375 -7.316406 2.226562 -6.925781 2.5 -6.625 C 2.78125 -6.320312 3.117188 -6.09375 3.515625 -5.9375 C 3.921875 -5.78125 4.453125 -5.613281 5.109375 -5.4375 C 5.835938 -5.238281 6.421875 -5.046875 6.859375 -4.859375 C 7.296875 -4.679688 7.664062 -4.414062 7.96875 -4.0625 C 8.269531 -3.71875 8.421875 -3.253906 8.421875 -2.671875 C 8.421875 -2.140625 8.273438 -1.65625 7.984375 -1.21875 C 7.691406 -0.789062 7.285156 -0.453125 6.765625 -0.203125 C 6.242188 0.0351562 5.660156 0.15625 5.015625 0.15625 Z M 5.015625 0.15625 "/></g></g></g><g fill="#f9f7f8" fill-opacity="1"><g transform="translate(70.404279, 350.420892)"><g><path d="M 1.03125 -5.1875 C 1.03125 -6.25 1.242188 -7.179688 1.671875 -7.984375 C 2.097656 -8.785156 2.6875 -9.398438 3.4375 -9.828125 C 4.195312 -10.265625 5.0625 -10.484375 6.03125 -10.484375 C 7.113281 -10.484375 8.035156 -10.21875 8.796875 -9.6875 C 9.566406 -9.15625 10.101562 -8.472656 10.40625 -7.640625 L 10.40625 -10.34375 L 11.265625 -10.34375 L 11.265625 0 L 10.40625 0 L 10.40625 -2.71875 C 10.101562 -1.882812 9.566406 -1.195312 8.796875 -0.65625 C 8.023438 -0.113281 7.101562 0.15625 6.03125 0.15625 C 5.0625 0.15625 4.195312 -0.0625 3.4375 -0.5 C 2.6875 -0.9375 2.097656 -1.554688 1.671875 -2.359375 C 1.242188 -3.171875 1.03125 -4.113281 1.03125 -5.1875 Z M 10.40625 -5.1875 C 10.40625 -6.082031 10.21875 -6.875 9.84375 -7.5625 C 9.46875 -8.257812 8.957031 -8.796875 8.3125 -9.171875 C 7.664062 -9.546875 6.941406 -9.734375 6.140625 -9.734375 C 5.296875 -9.734375 4.554688 -9.550781 3.921875 -9.1875 C 3.285156 -8.832031 2.789062 -8.3125 2.4375 -7.625 C 2.082031 -6.9375 1.90625 -6.125 1.90625 -5.1875 C 1.90625 -4.25 2.082031 -3.4375 2.4375 -2.75 C 2.789062 -2.0625 3.289062 -1.53125 3.9375 -1.15625 C 4.582031 -0.789062 5.316406 -0.609375 6.140625 -0.609375 C 6.941406 -0.609375 7.664062 -0.796875 8.3125 -1.171875 C 8.96875 -1.546875 9.476562 -2.078125 9.84375 -2.765625 C 10.21875 -3.460938 10.40625 -4.269531 10.40625 -5.1875 Z M 10.40625 -5.1875 "/></g></g></g><g fill="#f9f7f8" fill-opacity="1"><g transform="translate(83.229628, 350.420892)"><g><path d="M 2.421875 -8.21875 C 2.671875 -8.976562 3.117188 -9.554688 3.765625 -9.953125 C 4.421875 -10.359375 5.25 -10.5625 6.25 -10.5625 L 6.25 -9.671875 L 5.96875 -9.671875 C 4.945312 -9.671875 4.097656 -9.378906 3.421875 -8.796875 C 2.753906 -8.222656 2.421875 -7.28125 2.421875 -5.96875 L 2.421875 0 L 1.5625 0 L 1.5625 -10.34375 L 2.421875 -10.34375 Z M 2.421875 -8.21875 "/></g></g></g><g fill="#f9f7f8" fill-opacity="1"><g transform="translate(89.899561, 350.420892)"><g><path d="M 2.421875 -8.21875 C 2.671875 -8.976562 3.117188 -9.554688 3.765625 -9.953125 C 4.421875 -10.359375 5.25 -10.5625 6.25 -10.5625 L 6.25 -9.671875 L 5.96875 -9.671875 C 4.945312 -9.671875 4.097656 -9.378906 3.421875 -8.796875 C 2.753906 -8.222656 2.421875 -7.28125 2.421875 -5.96875 L 2.421875 0 L 1.5625 0 L 1.5625 -10.34375 L 2.421875 -10.34375 Z M 2.421875 -8.21875 "/></g></g></g><g fill="#f9f7f8" fill-opacity="1"><g transform="translate(96.569495, 350.420892)"><g><path d="M 6.125 0.15625 C 5.15625 0.15625 4.28125 -0.0546875 3.5 -0.484375 C 2.726562 -0.921875 2.125 -1.539062 1.6875 -2.34375 C 1.25 -3.15625 1.03125 -4.101562 1.03125 -5.1875 C 1.03125 -6.25 1.25 -7.179688 1.6875 -7.984375 C 2.132812 -8.796875 2.75 -9.414062 3.53125 -9.84375 C 4.3125 -10.269531 5.1875 -10.484375 6.15625 -10.484375 C 7.125 -10.484375 7.992188 -10.269531 8.765625 -9.84375 C 9.546875 -9.414062 10.15625 -8.800781 10.59375 -8 C 11.03125 -7.207031 11.25 -6.269531 11.25 -5.1875 C 11.25 -4.101562 11.023438 -3.15625 10.578125 -2.34375 C 10.128906 -1.539062 9.515625 -0.921875 8.734375 -0.484375 C 7.953125 -0.0546875 7.082031 0.15625 6.125 0.15625 Z M 6.125 -0.609375 C 6.875 -0.609375 7.570312 -0.773438 8.21875 -1.109375 C 8.875 -1.453125 9.398438 -1.960938 9.796875 -2.640625 C 10.191406 -3.328125 10.390625 -4.175781 10.390625 -5.1875 C 10.390625 -6.175781 10.191406 -7.015625 9.796875 -7.703125 C 9.398438 -8.390625 8.878906 -8.898438 8.234375 -9.234375 C 7.585938 -9.566406 6.890625 -9.734375 6.140625 -9.734375 C 5.390625 -9.734375 4.691406 -9.566406 4.046875 -9.234375 C 3.410156 -8.898438 2.894531 -8.390625 2.5 -7.703125 C 2.101562 -7.015625 1.90625 -6.175781 1.90625 -5.1875 C 1.90625 -4.175781 2.097656 -3.328125 2.484375 -2.640625 C 2.867188 -1.960938 3.382812 -1.453125 4.03125 -1.109375 C 4.675781 -0.773438 5.375 -0.609375 6.125 -0.609375 Z M 6.125 -0.609375 "/></g></g></g><g fill="#f9f7f8" fill-opacity="1"><g transform="translate(108.861246, 350.420892)"><g><path d="M 2.421875 -14.109375 L 2.421875 0 L 1.5625 0 L 1.5625 -14.109375 Z M 2.421875 -14.109375 "/></g></g></g><g fill="#f9f7f8" fill-opacity="1"><g transform="translate(112.863209, 350.420892)"><g><path d="M 2.421875 -14.109375 L 2.421875 0 L 1.5625 0 L 1.5625 -14.109375 Z M 2.421875 -14.109375 "/></g></g></g><g fill="#f9f7f8" fill-opacity="1"><g transform="translate(116.865173, 350.420892)"><g><path d="M 6.125 0.15625 C 5.15625 0.15625 4.28125 -0.0546875 3.5 -0.484375 C 2.726562 -0.921875 2.125 -1.539062 1.6875 -2.34375 C 1.25 -3.15625 1.03125 -4.101562 1.03125 -5.1875 C 1.03125 -6.25 1.25 -7.179688 1.6875 -7.984375 C 2.132812 -8.796875 2.75 -9.414062 3.53125 -9.84375 C 4.3125 -10.269531 5.1875 -10.484375 6.15625 -10.484375 C 7.125 -10.484375 7.992188 -10.269531 8.765625 -9.84375 C 9.546875 -9.414062 10.15625 -8.800781 10.59375 -8 C 11.03125 -7.207031 11.25 -6.269531 11.25 -5.1875 C 11.25 -4.101562 11.023438 -3.15625 10.578125 -2.34375 C 10.128906 -1.539062 9.515625 -0.921875 8.734375 -0.484375 C 7.953125 -0.0546875 7.082031 0.15625 6.125 0.15625 Z M 6.125 -0.609375 C 6.875 -0.609375 7.570312 -0.773438 8.21875 -1.109375 C 8.875 -1.453125 9.398438 -1.960938 9.796875 -2.640625 C 10.191406 -3.328125 10.390625 -4.175781 10.390625 -5.1875 C 10.390625 -6.175781 10.191406 -7.015625 9.796875 -7.703125 C 9.398438 -8.390625 8.878906 -8.898438 8.234375 -9.234375 C 7.585938 -9.566406 6.890625 -9.734375 6.140625 -9.734375 C 5.390625 -9.734375 4.691406 -9.566406 4.046875 -9.234375 C 3.410156 -8.898438 2.894531 -8.390625 2.5 -7.703125 C 2.101562 -7.015625 1.90625 -6.175781 1.90625 -5.1875 C 1.90625 -4.175781 2.097656 -3.328125 2.484375 -2.640625 C 2.867188 -1.960938 3.382812 -1.453125 4.03125 -1.109375 C 4.675781 -0.773438 5.375 -0.609375 6.125 -0.609375 Z M 6.125 -0.609375 "/></g></g></g><g fill="#f9f7f8" fill-opacity="1"><g transform="translate(129.156924, 350.420892)"><g/></g></g><g fill="#f9f7f8" fill-opacity="1"><g transform="translate(134.530985, 350.420892)"><g><path d="M 5.015625 0.15625 C 3.859375 0.15625 2.914062 -0.0976562 2.1875 -0.609375 C 1.457031 -1.117188 1.046875 -1.84375 0.953125 -2.78125 L 1.828125 -2.78125 C 1.890625 -2.101562 2.195312 -1.566406 2.75 -1.171875 C 3.300781 -0.785156 4.054688 -0.59375 5.015625 -0.59375 C 5.804688 -0.59375 6.429688 -0.789062 6.890625 -1.1875 C 7.359375 -1.59375 7.59375 -2.085938 7.59375 -2.671875 C 7.59375 -3.078125 7.46875 -3.410156 7.21875 -3.671875 C 6.96875 -3.929688 6.65625 -4.128906 6.28125 -4.265625 C 5.914062 -4.410156 5.414062 -4.566406 4.78125 -4.734375 C 4.019531 -4.929688 3.40625 -5.128906 2.9375 -5.328125 C 2.46875 -5.523438 2.066406 -5.820312 1.734375 -6.21875 C 1.398438 -6.613281 1.234375 -7.140625 1.234375 -7.796875 C 1.234375 -8.273438 1.378906 -8.722656 1.671875 -9.140625 C 1.960938 -9.554688 2.367188 -9.882812 2.890625 -10.125 C 3.410156 -10.363281 4.003906 -10.484375 4.671875 -10.484375 C 5.753906 -10.484375 6.628906 -10.210938 7.296875 -9.671875 C 7.960938 -9.128906 8.320312 -8.382812 8.375 -7.4375 L 7.515625 -7.4375 C 7.472656 -8.125 7.203125 -8.679688 6.703125 -9.109375 C 6.210938 -9.546875 5.53125 -9.765625 4.65625 -9.765625 C 3.914062 -9.765625 3.300781 -9.570312 2.8125 -9.1875 C 2.332031 -8.800781 2.09375 -8.335938 2.09375 -7.796875 C 2.09375 -7.316406 2.226562 -6.925781 2.5 -6.625 C 2.78125 -6.320312 3.117188 -6.09375 3.515625 -5.9375 C 3.921875 -5.78125 4.453125 -5.613281 5.109375 -5.4375 C 5.835938 -5.238281 6.421875 -5.046875 6.859375 -4.859375 C 7.296875 -4.679688 7.664062 -4.414062 7.96875 -4.0625 C 8.269531 -3.71875 8.421875 -3.253906 8.421875 -2.671875 C 8.421875 -2.140625 8.273438 -1.65625 7.984375 -1.21875 C 7.691406 -0.789062 7.285156 -0.453125 6.765625 -0.203125 C 6.242188 0.0351562 5.660156 0.15625 5.015625 0.15625 Z M 5.015625 0.15625 "/></g></g></g><g fill="#f9f7f8" fill-opacity="1"><g transform="translate(144.002297, 350.420892)"><g><path d="M 6.125 0.15625 C 5.15625 0.15625 4.28125 -0.0546875 3.5 -0.484375 C 2.726562 -0.921875 2.125 -1.539062 1.6875 -2.34375 C 1.25 -3.15625 1.03125 -4.101562 1.03125 -5.1875 C 1.03125 -6.25 1.25 -7.179688 1.6875 -7.984375 C 2.132812 -8.796875 2.75 -9.414062 3.53125 -9.84375 C 4.3125 -10.269531 5.1875 -10.484375 6.15625 -10.484375 C 7.125 -10.484375 7.992188 -10.269531 8.765625 -9.84375 C 9.546875 -9.414062 10.15625 -8.800781 10.59375 -8 C 11.03125 -7.207031 11.25 -6.269531 11.25 -5.1875 C 11.25 -4.101562 11.023438 -3.15625 10.578125 -2.34375 C 10.128906 -1.539062 9.515625 -0.921875 8.734375 -0.484375 C 7.953125 -0.0546875 7.082031 0.15625 6.125 0.15625 Z M 6.125 -0.609375 C 6.875 -0.609375 7.570312 -0.773438 8.21875 -1.109375 C 8.875 -1.453125 9.398438 -1.960938 9.796875 -2.640625 C 10.191406 -3.328125 10.390625 -4.175781 10.390625 -5.1875 C 10.390625 -6.175781 10.191406 -7.015625 9.796875 -7.703125 C 9.398438 -8.390625 8.878906 -8.898438 8.234375 -9.234375 C 7.585938 -9.566406 6.890625 -9.734375 6.140625 -9.734375 C 5.390625 -9.734375 4.691406 -9.566406 4.046875 -9.234375 C 3.410156 -8.898438 2.894531 -8.390625 2.5 -7.703125 C 2.101562 -7.015625 1.90625 -6.175781 1.90625 -5.1875 C 1.90625 -4.175781 2.097656 -3.328125 2.484375 -2.640625 C 2.867188 -1.960938 3.382812 -1.453125 4.03125 -1.109375 C 4.675781 -0.773438 5.375 -0.609375 6.125 -0.609375 Z M 6.125 -0.609375 "/></g></g></g><g fill="#f9f7f8" fill-opacity="1"><g transform="translate(156.294048, 350.420892)"><g><path d="M 5.515625 -9.59375 L 2.828125 -9.59375 L 2.828125 0 L 1.96875 0 L 1.96875 -9.59375 L 0.40625 -9.59375 L 0.40625 -10.34375 L 1.96875 -10.34375 L 1.96875 -11.078125 C 1.96875 -12.160156 2.238281 -12.960938 2.78125 -13.484375 C 3.332031 -14.015625 4.226562 -14.28125 5.46875 -14.28125 L 5.46875 -13.515625 C 4.476562 -13.515625 3.789062 -13.320312 3.40625 -12.9375 C 3.019531 -12.5625 2.828125 -11.941406 2.828125 -11.078125 L 2.828125 -10.34375 L 5.515625 -10.34375 Z M 5.515625 -9.59375 "/></g></g></g><g fill="#f9f7f8" fill-opacity="1"><g transform="translate(162.430402, 350.420892)"><g><path d="M 2.84375 -9.609375 L 2.84375 -2.765625 C 2.84375 -2.003906 2.976562 -1.476562 3.25 -1.1875 C 3.53125 -0.90625 4.03125 -0.765625 4.75 -0.765625 L 5.90625 -0.765625 L 5.90625 0 L 4.609375 0 C 3.710938 0 3.050781 -0.210938 2.625 -0.640625 C 2.195312 -1.066406 1.984375 -1.773438 1.984375 -2.765625 L 1.984375 -9.609375 L 0.421875 -9.609375 L 0.421875 -10.34375 L 1.984375 -10.34375 L 1.984375 -12.984375 L 2.84375 -12.984375 L 2.84375 -10.34375 L 5.90625 -10.34375 L 5.90625 -9.609375 Z M 2.84375 -9.609375 "/></g></g></g><g fill="#f9f7f8" fill-opacity="1"><g transform="translate(169.043171, 350.420892)"><g><path d="M 15.09375 -10.34375 L 11.84375 0 L 11.015625 0 L 7.71875 -9.171875 L 4.40625 0 L 3.578125 0 L 0.328125 -10.34375 L 1.21875 -10.34375 L 4 -0.96875 L 7.3125 -10.34375 L 8.140625 -10.34375 L 11.4375 -1.015625 L 14.21875 -10.34375 Z M 15.09375 -10.34375 "/></g></g></g><g fill="#f9f7f8" fill-opacity="1"><g transform="translate(184.460263, 350.420892)"><g><path d="M 1.03125 -5.1875 C 1.03125 -6.25 1.242188 -7.179688 1.671875 -7.984375 C 2.097656 -8.785156 2.6875 -9.398438 3.4375 -9.828125 C 4.195312 -10.265625 5.0625 -10.484375 6.03125 -10.484375 C 7.113281 -10.484375 8.035156 -10.21875 8.796875 -9.6875 C 9.566406 -9.15625 10.101562 -8.472656 10.40625 -7.640625 L 10.40625 -10.34375 L 11.265625 -10.34375 L 11.265625 0 L 10.40625 0 L 10.40625 -2.71875 C 10.101562 -1.882812 9.566406 -1.195312 8.796875 -0.65625 C 8.023438 -0.113281 7.101562 0.15625 6.03125 0.15625 C 5.0625 0.15625 4.195312 -0.0625 3.4375 -0.5 C 2.6875 -0.9375 2.097656 -1.554688 1.671875 -2.359375 C 1.242188 -3.171875 1.03125 -4.113281 1.03125 -5.1875 Z M 10.40625 -5.1875 C 10.40625 -6.082031 10.21875 -6.875 9.84375 -7.5625 C 9.46875 -8.257812 8.957031 -8.796875 8.3125 -9.171875 C 7.664062 -9.546875 6.941406 -9.734375 6.140625 -9.734375 C 5.296875 -9.734375 4.554688 -9.550781 3.921875 -9.1875 C 3.285156 -8.832031 2.789062 -8.3125 2.4375 -7.625 C 2.082031 -6.9375 1.90625 -6.125 1.90625 -5.1875 C 1.90625 -4.25 2.082031 -3.4375 2.4375 -2.75 C 2.789062 -2.0625 3.289062 -1.53125 3.9375 -1.15625 C 4.582031 -0.789062 5.316406 -0.609375 6.140625 -0.609375 C 6.941406 -0.609375 7.664062 -0.796875 8.3125 -1.171875 C 8.96875 -1.546875 9.476562 -2.078125 9.84375 -2.765625 C 10.21875 -3.460938 10.40625 -4.269531 10.40625 -5.1875 Z M 10.40625 -5.1875 "/></g></g></g><g fill="#f9f7f8" fill-opacity="1"><g transform="translate(197.285612, 350.420892)"><g><path d="M 2.421875 -8.21875 C 2.671875 -8.976562 3.117188 -9.554688 3.765625 -9.953125 C 4.421875 -10.359375 5.25 -10.5625 6.25 -10.5625 L 6.25 -9.671875 L 5.96875 -9.671875 C 4.945312 -9.671875 4.097656 -9.378906 3.421875 -8.796875 C 2.753906 -8.222656 2.421875 -7.28125 2.421875 -5.96875 L 2.421875 0 L 1.5625 0 L 1.5625 -10.34375 L 2.421875 -10.34375 Z M 2.421875 -8.21875 "/></g></g></g><g fill="#f9f7f8" fill-opacity="1"><g transform="translate(203.955545, 350.420892)"><g><path d="M 10.890625 -5.875 C 10.890625 -5.414062 10.875 -5.070312 10.84375 -4.84375 L 1.90625 -4.84375 C 1.925781 -3.914062 2.128906 -3.132812 2.515625 -2.5 C 2.898438 -1.863281 3.398438 -1.382812 4.015625 -1.0625 C 4.640625 -0.75 5.320312 -0.59375 6.0625 -0.59375 C 7.082031 -0.59375 7.929688 -0.84375 8.609375 -1.34375 C 9.296875 -1.84375 9.726562 -2.523438 9.90625 -3.390625 L 10.8125 -3.390625 C 10.601562 -2.335938 10.078125 -1.484375 9.234375 -0.828125 C 8.398438 -0.171875 7.34375 0.15625 6.0625 0.15625 C 5.09375 0.15625 4.226562 -0.0546875 3.46875 -0.484375 C 2.707031 -0.921875 2.109375 -1.539062 1.671875 -2.34375 C 1.242188 -3.15625 1.03125 -4.101562 1.03125 -5.1875 C 1.03125 -6.269531 1.242188 -7.207031 1.671875 -8 C 2.097656 -8.800781 2.691406 -9.414062 3.453125 -9.84375 C 4.210938 -10.269531 5.082031 -10.484375 6.0625 -10.484375 C 7.050781 -10.484375 7.910156 -10.269531 8.640625 -9.84375 C 9.367188 -9.414062 9.925781 -8.847656 10.3125 -8.140625 C 10.695312 -7.441406 10.890625 -6.6875 10.890625 -5.875 Z M 10.03125 -5.546875 C 10.0625 -6.460938 9.894531 -7.238281 9.53125 -7.875 C 9.175781 -8.507812 8.6875 -8.984375 8.0625 -9.296875 C 7.4375 -9.609375 6.765625 -9.765625 6.046875 -9.765625 C 5.316406 -9.765625 4.644531 -9.609375 4.03125 -9.296875 C 3.414062 -8.984375 2.910156 -8.507812 2.515625 -7.875 C 2.128906 -7.238281 1.925781 -6.460938 1.90625 -5.546875 Z M 10.03125 -5.546875 "/></g></g></g><g fill="#f9f7f8" fill-opacity="1"><g transform="translate(215.86615, 350.420892)"><g/></g></g><g fill="#f9f7f8" fill-opacity="1"><g transform="translate(221.240211, 350.420892)"><g><path d="M 11.578125 -4.625 C 11.117188 -3.832031 10.675781 -3.15625 10.25 -2.59375 L 12.765625 0 L 11.6875 0 L 9.765625 -1.96875 C 9.109375 -1.21875 8.414062 -0.664062 7.6875 -0.3125 C 6.957031 0.03125 6.128906 0.203125 5.203125 0.203125 C 4.347656 0.203125 3.582031 0.0351562 2.90625 -0.296875 C 2.238281 -0.628906 1.71875 -1.097656 1.34375 -1.703125 C 0.96875 -2.304688 0.78125 -3.003906 0.78125 -3.796875 C 0.78125 -4.742188 1.050781 -5.5625 1.59375 -6.25 C 2.132812 -6.945312 2.921875 -7.492188 3.953125 -7.890625 C 3.453125 -8.410156 3.085938 -8.894531 2.859375 -9.34375 C 2.640625 -9.800781 2.53125 -10.285156 2.53125 -10.796875 C 2.53125 -11.609375 2.816406 -12.265625 3.390625 -12.765625 C 3.972656 -13.273438 4.738281 -13.53125 5.6875 -13.53125 C 6.238281 -13.53125 6.75 -13.414062 7.21875 -13.1875 C 7.695312 -12.957031 8.066406 -12.632812 8.328125 -12.21875 C 8.597656 -11.800781 8.734375 -11.3125 8.734375 -10.75 L 7.875 -10.75 C 7.875 -11.382812 7.65625 -11.882812 7.21875 -12.25 C 6.789062 -12.625 6.269531 -12.8125 5.65625 -12.8125 C 4.988281 -12.8125 4.441406 -12.625 4.015625 -12.25 C 3.597656 -11.875 3.390625 -11.390625 3.390625 -10.796875 C 3.390625 -10.347656 3.503906 -9.921875 3.734375 -9.515625 C 3.960938 -9.117188 4.328125 -8.664062 4.828125 -8.15625 L 9.6875 -3.171875 C 10.039062 -3.671875 10.441406 -4.289062 10.890625 -5.03125 L 11.953125 -6.875 L 12.875 -6.875 Z M 5.203125 -0.546875 C 6.015625 -0.546875 6.734375 -0.703125 7.359375 -1.015625 C 7.992188 -1.335938 8.601562 -1.847656 9.1875 -2.546875 L 4.5 -7.3125 L 4.4375 -7.296875 C 2.570312 -6.609375 1.640625 -5.445312 1.640625 -3.8125 C 1.640625 -3.1875 1.789062 -2.625 2.09375 -2.125 C 2.394531 -1.632812 2.816406 -1.25 3.359375 -0.96875 C 3.898438 -0.6875 4.515625 -0.546875 5.203125 -0.546875 Z M 5.203125 -0.546875 "/></g></g></g><g fill="#f9f7f8" fill-opacity="1"><g transform="translate(234.503871, 350.420892)"><g/></g></g><g fill="#f9f7f8" fill-opacity="1"><g transform="translate(239.877932, 350.420892)"><g><path d="M 1.03125 -6.671875 C 1.03125 -7.992188 1.304688 -9.171875 1.859375 -10.203125 C 2.410156 -11.242188 3.171875 -12.054688 4.140625 -12.640625 C 5.117188 -13.222656 6.210938 -13.515625 7.421875 -13.515625 C 8.941406 -13.515625 10.222656 -13.15625 11.265625 -12.4375 C 12.304688 -11.726562 13.066406 -10.734375 13.546875 -9.453125 L 12.5625 -9.453125 C 12.175781 -10.472656 11.539062 -11.273438 10.65625 -11.859375 C 9.78125 -12.453125 8.703125 -12.75 7.421875 -12.75 C 6.390625 -12.75 5.453125 -12.503906 4.609375 -12.015625 C 3.773438 -11.523438 3.113281 -10.816406 2.625 -9.890625 C 2.144531 -8.972656 1.90625 -7.898438 1.90625 -6.671875 C 1.90625 -5.453125 2.144531 -4.382812 2.625 -3.46875 C 3.113281 -2.5625 3.773438 -1.859375 4.609375 -1.359375 C 5.453125 -0.867188 6.390625 -0.625 7.421875 -0.625 C 8.703125 -0.625 9.78125 -0.921875 10.65625 -1.515625 C 11.539062 -2.109375 12.175781 -2.910156 12.5625 -3.921875 L 13.546875 -3.921875 C 13.066406 -2.640625 12.304688 -1.640625 11.265625 -0.921875 C 10.222656 -0.210938 8.941406 0.140625 7.421875 0.140625 C 6.210938 0.140625 5.117188 -0.144531 4.140625 -0.71875 C 3.171875 -1.300781 2.410156 -2.109375 1.859375 -3.140625 C 1.304688 -4.179688 1.03125 -5.359375 1.03125 -6.671875 Z M 1.03125 -6.671875 "/></g></g></g><g fill="#f9f7f8" fill-opacity="1"><g transform="translate(254.551811, 350.420892)"><g><path d="M 6.125 0.15625 C 5.15625 0.15625 4.28125 -0.0546875 3.5 -0.484375 C 2.726562 -0.921875 2.125 -1.539062 1.6875 -2.34375 C 1.25 -3.15625 1.03125 -4.101562 1.03125 -5.1875 C 1.03125 -6.25 1.25 -7.179688 1.6875 -7.984375 C 2.132812 -8.796875 2.75 -9.414062 3.53125 -9.84375 C 4.3125 -10.269531 5.1875 -10.484375 6.15625 -10.484375 C 7.125 -10.484375 7.992188 -10.269531 8.765625 -9.84375 C 9.546875 -9.414062 10.15625 -8.800781 10.59375 -8 C 11.03125 -7.207031 11.25 -6.269531 11.25 -5.1875 C 11.25 -4.101562 11.023438 -3.15625 10.578125 -2.34375 C 10.128906 -1.539062 9.515625 -0.921875 8.734375 -0.484375 C 7.953125 -0.0546875 7.082031 0.15625 6.125 0.15625 Z M 6.125 -0.609375 C 6.875 -0.609375 7.570312 -0.773438 8.21875 -1.109375 C 8.875 -1.453125 9.398438 -1.960938 9.796875 -2.640625 C 10.191406 -3.328125 10.390625 -4.175781 10.390625 -5.1875 C 10.390625 -6.175781 10.191406 -7.015625 9.796875 -7.703125 C 9.398438 -8.390625 8.878906 -8.898438 8.234375 -9.234375 C 7.585938 -9.566406 6.890625 -9.734375 6.140625 -9.734375 C 5.390625 -9.734375 4.691406 -9.566406 4.046875 -9.234375 C 3.410156 -8.898438 2.894531 -8.390625 2.5 -7.703125 C 2.101562 -7.015625 1.90625 -6.175781 1.90625 -5.1875 C 1.90625 -4.175781 2.097656 -3.328125 2.484375 -2.640625 C 2.867188 -1.960938 3.382812 -1.453125 4.03125 -1.109375 C 4.675781 -0.773438 5.375 -0.609375 6.125 -0.609375 Z M 6.125 -0.609375 "/></g></g></g><g fill="#f9f7f8" fill-opacity="1"><g transform="translate(266.843562, 350.420892)"><g><path d="M 6.234375 -10.5625 C 7.460938 -10.5625 8.460938 -10.179688 9.234375 -9.421875 C 10.015625 -8.671875 10.40625 -7.550781 10.40625 -6.0625 L 10.40625 0 L 9.5625 0 L 9.5625 -6 C 9.5625 -7.238281 9.25 -8.179688 8.625 -8.828125 C 8.007812 -9.484375 7.164062 -9.8125 6.09375 -9.8125 C 4.976562 -9.8125 4.085938 -9.457031 3.421875 -8.75 C 2.753906 -8.039062 2.421875 -6.984375 2.421875 -5.578125 L 2.421875 0 L 1.5625 0 L 1.5625 -10.34375 L 2.421875 -10.34375 L 2.421875 -8.15625 C 2.710938 -8.9375 3.195312 -9.53125 3.875 -9.9375 C 4.5625 -10.351562 5.347656 -10.5625 6.234375 -10.5625 Z M 6.234375 -10.5625 "/></g></g></g><g fill="#f9f7f8" fill-opacity="1"><g transform="translate(278.716063, 350.420892)"><g><path d="M 5.015625 0.15625 C 3.859375 0.15625 2.914062 -0.0976562 2.1875 -0.609375 C 1.457031 -1.117188 1.046875 -1.84375 0.953125 -2.78125 L 1.828125 -2.78125 C 1.890625 -2.101562 2.195312 -1.566406 2.75 -1.171875 C 3.300781 -0.785156 4.054688 -0.59375 5.015625 -0.59375 C 5.804688 -0.59375 6.429688 -0.789062 6.890625 -1.1875 C 7.359375 -1.59375 7.59375 -2.085938 7.59375 -2.671875 C 7.59375 -3.078125 7.46875 -3.410156 7.21875 -3.671875 C 6.96875 -3.929688 6.65625 -4.128906 6.28125 -4.265625 C 5.914062 -4.410156 5.414062 -4.566406 4.78125 -4.734375 C 4.019531 -4.929688 3.40625 -5.128906 2.9375 -5.328125 C 2.46875 -5.523438 2.066406 -5.820312 1.734375 -6.21875 C 1.398438 -6.613281 1.234375 -7.140625 1.234375 -7.796875 C 1.234375 -8.273438 1.378906 -8.722656 1.671875 -9.140625 C 1.960938 -9.554688 2.367188 -9.882812 2.890625 -10.125 C 3.410156 -10.363281 4.003906 -10.484375 4.671875 -10.484375 C 5.753906 -10.484375 6.628906 -10.210938 7.296875 -9.671875 C 7.960938 -9.128906 8.320312 -8.382812 8.375 -7.4375 L 7.515625 -7.4375 C 7.472656 -8.125 7.203125 -8.679688 6.703125 -9.109375 C 6.210938 -9.546875 5.53125 -9.765625 4.65625 -9.765625 C 3.914062 -9.765625 3.300781 -9.570312 2.8125 -9.1875 C 2.332031 -8.800781 2.09375 -8.335938 2.09375 -7.796875 C 2.09375 -7.316406 2.226562 -6.925781 2.5 -6.625 C 2.78125 -6.320312 3.117188 -6.09375 3.515625 -5.9375 C 3.921875 -5.78125 4.453125 -5.613281 5.109375 -5.4375 C 5.835938 -5.238281 6.421875 -5.046875 6.859375 -4.859375 C 7.296875 -4.679688 7.664062 -4.414062 7.96875 -4.0625 C 8.269531 -3.71875 8.421875 -3.253906 8.421875 -2.671875 C 8.421875 -2.140625 8.273438 -1.65625 7.984375 -1.21875 C 7.691406 -0.789062 7.285156 -0.453125 6.765625 -0.203125 C 6.242188 0.0351562 5.660156 0.15625 5.015625 0.15625 Z M 5.015625 0.15625 "/></g></g></g><g fill="#f9f7f8" fill-opacity="1"><g transform="translate(288.187375, 350.420892)"><g><path d="M 10.3125 -10.34375 L 10.3125 0 L 9.453125 0 L 9.453125 -2.25 C 9.160156 -1.457031 8.675781 -0.851562 8 -0.4375 C 7.320312 -0.03125 6.539062 0.171875 5.65625 0.171875 C 4.425781 0.171875 3.421875 -0.203125 2.640625 -0.953125 C 1.859375 -1.710938 1.46875 -2.835938 1.46875 -4.328125 L 1.46875 -10.34375 L 2.3125 -10.34375 L 2.3125 -4.390625 C 2.3125 -3.148438 2.617188 -2.203125 3.234375 -1.546875 C 3.859375 -0.898438 4.707031 -0.578125 5.78125 -0.578125 C 6.894531 -0.578125 7.785156 -0.929688 8.453125 -1.640625 C 9.117188 -2.347656 9.453125 -3.398438 9.453125 -4.796875 L 9.453125 -10.34375 Z M 10.3125 -10.34375 "/></g></g></g><g fill="#f9f7f8" fill-opacity="1"><g transform="translate(300.059876, 350.420892)"><g><path d="M 2.421875 -14.109375 L 2.421875 0 L 1.5625 0 L 1.5625 -14.109375 Z M 2.421875 -14.109375 "/></g></g></g><g fill="#f9f7f8" fill-opacity="1"><g transform="translate(304.06184, 350.420892)"><g><path d="M 2.84375 -9.609375 L 2.84375 -2.765625 C 2.84375 -2.003906 2.976562 -1.476562 3.25 -1.1875 C 3.53125 -0.90625 4.03125 -0.765625 4.75 -0.765625 L 5.90625 -0.765625 L 5.90625 0 L 4.609375 0 C 3.710938 0 3.050781 -0.210938 2.625 -0.640625 C 2.195312 -1.066406 1.984375 -1.773438 1.984375 -2.765625 L 1.984375 -9.609375 L 0.421875 -9.609375 L 0.421875 -10.34375 L 1.984375 -10.34375 L 1.984375 -12.984375 L 2.84375 -12.984375 L 2.84375 -10.34375 L 5.90625 -10.34375 L 5.90625 -9.609375 Z M 2.84375 -9.609375 "/></g></g></g><g fill="#f9f7f8" fill-opacity="1"><g transform="translate(310.674608, 350.420892)"><g><path d="M 2 -12.65625 C 1.800781 -12.65625 1.628906 -12.722656 1.484375 -12.859375 C 1.347656 -12.992188 1.28125 -13.175781 1.28125 -13.40625 C 1.28125 -13.613281 1.347656 -13.785156 1.484375 -13.921875 C 1.628906 -14.066406 1.800781 -14.140625 2 -14.140625 C 2.207031 -14.140625 2.378906 -14.066406 2.515625 -13.921875 C 2.648438 -13.785156 2.71875 -13.613281 2.71875 -13.40625 C 2.71875 -13.175781 2.648438 -12.992188 2.515625 -12.859375 C 2.378906 -12.722656 2.207031 -12.65625 2 -12.65625 Z M 2.421875 -10.34375 L 2.421875 0 L 1.5625 0 L 1.5625 -10.34375 Z M 2.421875 -10.34375 "/></g></g></g><g fill="#f9f7f8" fill-opacity="1"><g transform="translate(314.676572, 350.420892)"><g><path d="M 6.234375 -10.5625 C 7.460938 -10.5625 8.460938 -10.179688 9.234375 -9.421875 C 10.015625 -8.671875 10.40625 -7.550781 10.40625 -6.0625 L 10.40625 0 L 9.5625 0 L 9.5625 -6 C 9.5625 -7.238281 9.25 -8.179688 8.625 -8.828125 C 8.007812 -9.484375 7.164062 -9.8125 6.09375 -9.8125 C 4.976562 -9.8125 4.085938 -9.457031 3.421875 -8.75 C 2.753906 -8.039062 2.421875 -6.984375 2.421875 -5.578125 L 2.421875 0 L 1.5625 0 L 1.5625 -10.34375 L 2.421875 -10.34375 L 2.421875 -8.15625 C 2.710938 -8.9375 3.195312 -9.53125 3.875 -9.9375 C 4.5625 -10.351562 5.347656 -10.5625 6.234375 -10.5625 Z M 6.234375 -10.5625 "/></g></g></g><g fill="#f9f7f8" fill-opacity="1"><g transform="translate(326.549073, 350.420892)"><g><path d="M 6.03125 -10.484375 C 7.113281 -10.484375 8.035156 -10.21875 8.796875 -9.6875 C 9.566406 -9.164062 10.101562 -8.488281 10.40625 -7.65625 L 10.40625 -10.34375 L 11.265625 -10.34375 L 11.265625 0.328125 C 11.265625 1.273438 11.054688 2.109375 10.640625 2.828125 C 10.222656 3.546875 9.65625 4.097656 8.9375 4.484375 C 8.226562 4.878906 7.4375 5.078125 6.5625 5.078125 C 5.257812 5.078125 4.179688 4.765625 3.328125 4.140625 C 2.484375 3.515625 1.925781 2.675781 1.65625 1.625 L 2.515625 1.625 C 2.765625 2.445312 3.238281 3.101562 3.9375 3.59375 C 4.644531 4.082031 5.519531 4.328125 6.5625 4.328125 C 7.28125 4.328125 7.929688 4.164062 8.515625 3.84375 C 9.097656 3.519531 9.554688 3.054688 9.890625 2.453125 C 10.234375 1.847656 10.40625 1.140625 10.40625 0.328125 L 10.40625 -2.703125 C 10.101562 -1.878906 9.566406 -1.195312 8.796875 -0.65625 C 8.023438 -0.113281 7.101562 0.15625 6.03125 0.15625 C 5.0625 0.15625 4.195312 -0.0625 3.4375 -0.5 C 2.6875 -0.9375 2.097656 -1.554688 1.671875 -2.359375 C 1.242188 -3.171875 1.03125 -4.113281 1.03125 -5.1875 C 1.03125 -6.25 1.242188 -7.179688 1.671875 -7.984375 C 2.097656 -8.785156 2.6875 -9.398438 3.4375 -9.828125 C 4.195312 -10.265625 5.0625 -10.484375 6.03125 -10.484375 Z M 10.40625 -5.1875 C 10.40625 -6.082031 10.21875 -6.875 9.84375 -7.5625 C 9.46875 -8.257812 8.957031 -8.796875 8.3125 -9.171875 C 7.664062 -9.546875 6.941406 -9.734375 6.140625 -9.734375 C 5.296875 -9.734375 4.554688 -9.550781 3.921875 -9.1875 C 3.285156 -8.832031 2.789062 -8.3125 2.4375 -7.625 C 2.082031 -6.9375 1.90625 -6.125 1.90625 -5.1875 C 1.90625 -4.25 2.082031 -3.4375 2.4375 -2.75 C 2.789062 -2.0625 3.289062 -1.53125 3.9375 -1.15625 C 4.582031 -0.789062 5.316406 -0.609375 6.140625 -0.609375 C 6.941406 -0.609375 7.664062 -0.796875 8.3125 -1.171875 C 8.96875 -1.546875 9.476562 -2.078125 9.84375 -2.765625 C 10.21875 -3.460938 10.40625 -4.269531 10.40625 -5.1875 Z M 10.40625 -5.1875 "/></g></g></g><g fill="#ffffff" fill-opacity="1"><g transform="translate(31.89306, 326.52975)"><g><path d="M 10.453125 -1.6875 L 32.71875 -1.6875 L 32.71875 -35.53125 L 20 -8.3125 L 7.28125 -35.59375 L 7.28125 0 L 5.59375 -0.0625 L 5.59375 -39.609375 L 7.28125 -39.609375 L 20 -12.3125 L 32.71875 -39.546875 L 34.40625 -39.609375 L 34.40625 0 L 10.453125 -0.0625 Z M 10.453125 -1.6875 "/></g></g></g><g fill="#ffffff" fill-opacity="1"><g transform="translate(71.893375, 326.52975)"><g><path d="M 6.609375 -1.6875 L 27.40625 -1.6875 L 15.421875 -34.640625 L 2.828125 0 L 1.015625 0 L 15.421875 -39.609375 L 29.828125 0 L 6.609375 0 Z M 6.609375 -1.6875 "/></g></g></g><g fill="#ffffff" fill-opacity="1"><g transform="translate(102.741063, 326.52975)"><g><path d="M 29.203125 -1.6875 L 29.203125 0 L 5.59375 0 L 5.59375 -39.546875 L 7.28125 -39.546875 L 7.28125 -1.6875 Z M 29.203125 -1.6875 "/></g></g></g><g fill="#ffffff" fill-opacity="1"><g transform="translate(132.797798, 326.52975)"><g><path d="M 19.609375 -18.984375 L 18.765625 -20.453125 L 21.921875 -22.265625 C 24.523438 -23.691406 25.828125 -25.96875 25.828125 -29.09375 C 25.828125 -34.9375 21.378906 -37.859375 12.484375 -37.859375 L 7.28125 -37.859375 L 7.28125 0 L 5.59375 0 L 5.59375 -39.546875 L 12.484375 -39.546875 C 17.453125 -39.546875 21.195312 -38.628906 23.71875 -36.796875 C 26.25 -34.972656 27.515625 -32.40625 27.515625 -29.09375 C 27.515625 -25.332031 25.929688 -22.566406 22.765625 -20.796875 Z M 19.609375 -18.984375 "/></g></g></g><g fill="#ffffff" fill-opacity="1"><g transform="translate(162.515544, 326.52975)"><g><path d="M 6.609375 -1.6875 L 27.40625 -1.6875 L 15.421875 -34.640625 L 2.828125 0 L 1.015625 0 L 15.421875 -39.609375 L 29.828125 0 L 6.609375 0 Z M 6.609375 -1.6875 "/></g></g></g><g fill="#ffffff" fill-opacity="1"><g transform="translate(193.363232, 326.52975)"><g><path d="M 10.671875 -48.59375 L 4.0625 -40.734375 L 2.765625 -41.8125 L 9.375 -49.71875 Z M 7.28125 0 L 5.59375 0 L 5.59375 -39.546875 L 7.28125 -39.546875 Z M 7.28125 0 "/></g></g></g><g fill="#ffffff" fill-opacity="1"><g transform="translate(206.244696, 326.52975)"><g><path d="M 4.40625 -29.78125 C 4.40625 -33.425781 5.328125 -36.054688 7.171875 -37.671875 C 9.015625 -39.296875 12.007812 -40.109375 16.15625 -40.109375 C 19.0625 -40.109375 21.398438 -39.351562 23.171875 -37.84375 C 24.941406 -36.34375 26.21875 -34.050781 27 -30.96875 L 21.75 -27 L 18.984375 -27 L 25.09375 -31.578125 C 24.300781 -34.109375 23.160156 -35.878906 21.671875 -36.890625 C 20.179688 -37.910156 18.34375 -38.421875 16.15625 -38.421875 C 14.65625 -38.421875 13.382812 -38.328125 12.34375 -38.140625 C 11.3125 -37.953125 10.273438 -37.582031 9.234375 -37.03125 C 8.203125 -36.488281 7.421875 -35.613281 6.890625 -34.40625 C 6.367188 -33.195312 6.109375 -31.65625 6.109375 -29.78125 C 6.109375 -28.125 6.867188 -26.65625 8.390625 -25.375 C 9.910156 -24.09375 11.765625 -23 13.953125 -22.09375 C 16.140625 -21.1875 18.332031 -20.257812 20.53125 -19.3125 C 22.738281 -18.375 24.601562 -17.171875 26.125 -15.703125 C 27.65625 -14.234375 28.421875 -12.539062 28.421875 -10.625 C 28.421875 -6.851562 27.488281 -4.046875 25.625 -2.203125 C 23.757812 -0.359375 20.566406 0.5625 16.046875 0.5625 C 12.359375 0.5625 9.457031 -0.179688 7.34375 -1.671875 C 5.238281 -3.160156 3.789062 -5.46875 3 -8.59375 L 4.578125 -9.265625 C 5.328125 -6.210938 6.613281 -4.09375 8.4375 -2.90625 C 10.269531 -1.71875 12.804688 -1.125 16.046875 -1.125 C 19.660156 -1.125 22.34375 -1.820312 24.09375 -3.21875 C 25.84375 -4.613281 26.71875 -7.082031 26.71875 -10.625 C 26.71875 -12.28125 25.953125 -13.75 24.421875 -15.03125 C 22.898438 -16.3125 21.035156 -17.398438 18.828125 -18.296875 C 16.628906 -19.203125 14.4375 -20.125 12.25 -21.0625 C 10.070312 -22.007812 8.21875 -23.21875 6.6875 -24.6875 C 5.164062 -26.15625 4.40625 -27.851562 4.40625 -29.78125 Z M 4.40625 -29.78125 "/></g></g></g><g fill="#ff6f00" fill-opacity="1"><g transform="translate(237.940791, 326.52975)"><g><path d="M 4.46875 -3.28125 L 8.1875 -3.28125 L 8.1875 0 L 4.46875 0 Z M 4.46875 -3.28125 "/></g></g></g><g fill="#ff6f00" fill-opacity="1"><g transform="translate(250.596255, 326.52975)"><g><path d="M 9.65625 0 L 5.375 0 L 5.375 -32.765625 L 9.65625 -32.765625 C 15.238281 -32.765625 19.6875 -31.296875 23 -28.359375 C 26.3125 -25.421875 27.96875 -21.425781 27.96875 -16.375 C 27.96875 -11.332031 26.3125 -7.34375 23 -4.40625 C 19.6875 -1.46875 15.238281 0 9.65625 0 Z M 9.65625 -1.6875 C 14.738281 -1.6875 18.773438 -2.984375 21.765625 -5.578125 C 24.765625 -8.179688 26.265625 -11.78125 26.265625 -16.375 C 26.265625 -20.976562 24.765625 -24.578125 21.765625 -27.171875 C 18.773438 -29.773438 14.738281 -31.078125 9.65625 -31.078125 L 7.0625 -31.078125 L 7.0625 -1.6875 Z M 9.65625 -1.6875 "/></g></g></g><g fill="#ff6f00" fill-opacity="1"><g transform="translate(281.839437, 326.52975)"><g><path d="M 27.296875 -3.328125 C 25.222656 -0.734375 21.832031 0.5625 17.125 0.5625 C 12.414062 0.5625 9.039062 -0.769531 7 -3.4375 C 4.96875 -6.113281 3.953125 -10.425781 3.953125 -16.375 C 3.953125 -22.332031 4.96875 -26.644531 7 -29.3125 C 9.039062 -31.988281 12.414062 -33.328125 17.125 -33.328125 C 22.582031 -33.328125 26.289062 -31.539062 28.25 -27.96875 L 14.40625 -16.390625 L 11.75 -16.390625 L 26.046875 -28.3125 C 24.390625 -30.53125 21.414062 -31.640625 17.125 -31.640625 C 15.238281 -31.640625 13.65625 -31.441406 12.375 -31.046875 C 11.09375 -30.648438 9.914062 -29.914062 8.84375 -28.84375 C 7.769531 -27.769531 6.96875 -26.207031 6.4375 -24.15625 C 5.914062 -22.101562 5.65625 -19.515625 5.65625 -16.390625 C 5.65625 -13.265625 5.914062 -10.671875 6.4375 -8.609375 C 6.96875 -6.554688 7.769531 -4.992188 8.84375 -3.921875 C 9.914062 -2.847656 11.09375 -2.113281 12.375 -1.71875 C 13.65625 -1.320312 15.238281 -1.125 17.125 -1.125 C 21.414062 -1.125 24.390625 -2.238281 26.046875 -4.46875 Z M 27.296875 -3.328125 "/></g></g></g><g fill="#ff6f00" fill-opacity="1"><g transform="translate(312.800134, 326.52975)"><g><path d="M 29.265625 -32.765625 L 15.140625 0.5625 L 1.015625 -32.765625 L 2.828125 -32.765625 L 15.140625 -3.78125 L 27.453125 -32.765625 Z M 29.265625 -32.765625 "/></g></g></g><g fill="#ffffff" fill-opacity="1"><g transform="translate(96.881161, 220.418021)"><g><path d="M 47.234375 -7.65625 L 147.859375 -7.65625 L 147.859375 -160.625 L 90.390625 -37.53125 L 32.9375 -160.875 L 32.9375 0 L 25.28125 -0.25 L 25.28125 -179 L 32.9375 -179 L 90.390625 -55.671875 L 147.859375 -178.75 L 155.515625 -179 L 155.515625 0 L 47.234375 -0.25 Z M 47.234375 -7.65625 "/></g></g></g></svg>