<svg xmlns="http://www.w3.org/2000/svg" xmlns:xlink="http://www.w3.org/1999/xlink" width="500" zoomAndPan="magnify" viewBox="0 0 375 374.999991" height="500" preserveAspectRatio="xMidYMid meet" version="1.0"><defs><g/></defs><g fill="#ff6f00" fill-opacity="1"><g transform="translate(0.0206225, 233.781187)"><g><path d="M 69.84375 -226.78125 L 69.84375 -221.03125 L 57.453125 -221.03125 C 54.828125 -221.03125 52.757812 -219.921875 51.25 -217.703125 C 49.738281 -215.484375 48.984375 -212.5625 48.984375 -208.9375 C 48.984375 -190.789062 48.984375 -174.863281 48.984375 -161.15625 C 48.984375 -147.445312 48.984375 -136.8125 48.984375 -129.25 C 48.984375 -121.695312 48.882812 -117.921875 48.6875 -117.921875 C 48.6875 -113.484375 46.617188 -109.25 42.484375 -105.21875 C 38.347656 -101.1875 32.753906 -98.164062 25.703125 -96.15625 C 32.753906 -94.132812 38.347656 -91.160156 42.484375 -87.234375 C 46.617188 -83.304688 48.6875 -79.019531 48.6875 -74.375 L 48.984375 16.625 C 48.984375 20.257812 49.738281 23.179688 51.25 25.390625 C 52.757812 27.609375 54.828125 28.71875 57.453125 28.71875 L 69.84375 28.71875 L 69.84375 34.765625 L 57.453125 34.765625 C 52.816406 34.765625 49.035156 33.101562 46.109375 29.78125 C 43.191406 26.457031 41.734375 22.070312 41.734375 16.625 L 41.734375 -75.59375 C 41.734375 -80.832031 39.613281 -85.113281 35.375 -88.4375 C 31.144531 -91.769531 25.5 -93.4375 18.4375 -93.4375 L 16.625 -93.4375 L 16.625 -98.578125 L 18.4375 -98.578125 C 25.5 -98.578125 31.144531 -100.238281 35.375 -103.5625 C 39.613281 -106.882812 41.734375 -111.164062 41.734375 -116.40625 L 41.734375 -208.640625 C 41.734375 -214.078125 43.191406 -218.457031 46.109375 -221.78125 C 49.035156 -225.113281 52.816406 -226.78125 57.453125 -226.78125 Z M 69.84375 -226.78125 "/></g></g></g><g fill="#ff6f00" fill-opacity="1"><g transform="translate(78.637015, 233.781187)"><g/></g></g><g fill="#ff6f00" fill-opacity="1"><g transform="translate(122.177376, 233.781187)"><g/></g></g><g fill="#ff6f00" fill-opacity="1"><g transform="translate(165.717737, 233.781187)"><g/></g></g><g fill="#ff6f00" fill-opacity="1"><g transform="translate(209.258098, 233.781187)"><g/></g></g><g fill="#ff6f00" fill-opacity="1"><g transform="translate(252.798459, 233.781187)"><g/></g></g><g fill="#ff6f00" fill-opacity="1"><g transform="translate(296.342369, 233.781187)"><g><path d="M 9.078125 -226.78125 L 21.171875 -226.78125 C 26.003906 -226.78125 29.878906 -225.113281 32.796875 -221.78125 C 35.722656 -218.457031 37.1875 -214.078125 37.1875 -208.640625 C 37.1875 -190.296875 37.1875 -174.164062 37.1875 -160.25 C 37.1875 -146.34375 37.1875 -135.554688 37.1875 -127.890625 C 37.1875 -120.234375 37.085938 -116.40625 36.890625 -116.40625 C 37.085938 -111.164062 39.351562 -106.882812 43.6875 -103.5625 C 48.019531 -100.238281 53.613281 -98.578125 60.46875 -98.578125 L 62.28125 -98.578125 L 62.28125 -93.4375 L 60.46875 -93.4375 C 53.613281 -93.4375 48.019531 -91.769531 43.6875 -88.4375 C 39.351562 -85.113281 37.085938 -80.832031 36.890625 -75.59375 L 37.1875 16.625 C 37.1875 22.070312 35.722656 26.457031 32.796875 29.78125 C 29.878906 33.101562 26.003906 34.765625 21.171875 34.765625 L 9.078125 34.765625 L 9.078125 28.71875 L 21.171875 28.71875 C 23.785156 28.71875 25.898438 27.609375 27.515625 25.390625 C 29.128906 23.179688 29.9375 20.257812 29.9375 16.625 L 29.9375 -74.375 C 30.132812 -79.019531 32.347656 -83.304688 36.578125 -87.234375 C 40.816406 -91.160156 46.363281 -94.132812 53.21875 -96.15625 C 46.363281 -98.164062 40.816406 -101.1875 36.578125 -105.21875 C 32.347656 -109.25 30.132812 -113.484375 29.9375 -117.921875 L 29.9375 -208.9375 C 29.9375 -212.5625 29.128906 -215.484375 27.515625 -217.703125 C 25.898438 -219.921875 23.785156 -221.03125 21.171875 -221.03125 L 9.078125 -221.03125 Z M 9.078125 -226.78125 "/></g></g></g><g fill="#ffffff" fill-opacity="1"><g transform="translate(22.994539, 365.464436)"><g><path d="M 5.765625 -14.484375 C 8.210938 -14.484375 10.097656 -13.84375 11.421875 -12.5625 C 12.753906 -11.289062 13.421875 -9.507812 13.421875 -7.21875 C 13.421875 -4.9375 12.753906 -3.160156 11.421875 -1.890625 C 10.097656 -0.628906 8.210938 0 5.765625 0 L 1.6875 0 L 1.6875 -14.484375 Z M 5.765625 -0.78125 C 7.953125 -0.78125 9.613281 -1.347656 10.75 -2.484375 C 11.894531 -3.617188 12.46875 -5.195312 12.46875 -7.21875 C 12.46875 -9.257812 11.894531 -10.847656 10.75 -11.984375 C 9.613281 -13.128906 7.953125 -13.703125 5.765625 -13.703125 L 2.625 -13.703125 L 2.625 -0.78125 Z M 5.765625 -0.78125 "/></g></g></g><g fill="#ffffff" fill-opacity="1"><g transform="translate(37.524781, 365.464436)"><g><path d="M 11.78125 -6.359375 C 11.78125 -5.859375 11.769531 -5.488281 11.75 -5.25 L 2.0625 -5.25 C 2.09375 -4.238281 2.3125 -3.390625 2.71875 -2.703125 C 3.132812 -2.015625 3.675781 -1.5 4.34375 -1.15625 C 5.019531 -0.8125 5.757812 -0.640625 6.5625 -0.640625 C 7.664062 -0.640625 8.585938 -0.910156 9.328125 -1.453125 C 10.066406 -1.992188 10.535156 -2.734375 10.734375 -3.671875 L 11.703125 -3.671875 C 11.484375 -2.523438 10.914062 -1.597656 10 -0.890625 C 9.09375 -0.179688 7.945312 0.171875 6.5625 0.171875 C 5.519531 0.171875 4.582031 -0.0625 3.75 -0.53125 C 2.925781 -1 2.28125 -1.671875 1.8125 -2.546875 C 1.34375 -3.421875 1.109375 -4.441406 1.109375 -5.609375 C 1.109375 -6.785156 1.335938 -7.804688 1.796875 -8.671875 C 2.265625 -9.535156 2.910156 -10.195312 3.734375 -10.65625 C 4.554688 -11.125 5.5 -11.359375 6.5625 -11.359375 C 7.632812 -11.359375 8.566406 -11.125 9.359375 -10.65625 C 10.148438 -10.195312 10.75 -9.582031 11.15625 -8.8125 C 11.570312 -8.050781 11.78125 -7.234375 11.78125 -6.359375 Z M 10.859375 -6 C 10.898438 -7 10.722656 -7.84375 10.328125 -8.53125 C 9.941406 -9.21875 9.410156 -9.726562 8.734375 -10.0625 C 8.054688 -10.394531 7.328125 -10.5625 6.546875 -10.5625 C 5.753906 -10.5625 5.023438 -10.394531 4.359375 -10.0625 C 3.691406 -9.726562 3.148438 -9.21875 2.734375 -8.53125 C 2.316406 -7.84375 2.09375 -7 2.0625 -6 Z M 10.859375 -6 "/></g></g></g><g fill="#ffffff" fill-opacity="1"><g transform="translate(50.424501, 365.464436)"><g><path d="M 5.421875 0.171875 C 4.171875 0.171875 3.148438 -0.101562 2.359375 -0.65625 C 1.566406 -1.207031 1.125 -1.992188 1.03125 -3.015625 L 1.984375 -3.015625 C 2.046875 -2.285156 2.375 -1.707031 2.96875 -1.28125 C 3.570312 -0.851562 4.390625 -0.640625 5.421875 -0.640625 C 6.273438 -0.640625 6.953125 -0.851562 7.453125 -1.28125 C 7.960938 -1.71875 8.21875 -2.253906 8.21875 -2.890625 C 8.21875 -3.328125 8.082031 -3.6875 7.8125 -3.96875 C 7.539062 -4.25 7.207031 -4.460938 6.8125 -4.609375 C 6.414062 -4.765625 5.875 -4.9375 5.1875 -5.125 C 4.351562 -5.34375 3.679688 -5.554688 3.171875 -5.765625 C 2.671875 -5.984375 2.238281 -6.304688 1.875 -6.734375 C 1.519531 -7.160156 1.34375 -7.726562 1.34375 -8.4375 C 1.34375 -8.957031 1.5 -9.441406 1.8125 -9.890625 C 2.132812 -10.335938 2.578125 -10.691406 3.140625 -10.953125 C 3.703125 -11.222656 4.34375 -11.359375 5.0625 -11.359375 C 6.226562 -11.359375 7.171875 -11.0625 7.890625 -10.46875 C 8.617188 -9.882812 9.007812 -9.078125 9.0625 -8.046875 L 8.125 -8.046875 C 8.09375 -8.796875 7.804688 -9.398438 7.265625 -9.859375 C 6.722656 -10.328125 5.976562 -10.5625 5.03125 -10.5625 C 4.238281 -10.5625 3.578125 -10.351562 3.046875 -9.9375 C 2.523438 -9.53125 2.265625 -9.03125 2.265625 -8.4375 C 2.265625 -7.914062 2.410156 -7.492188 2.703125 -7.171875 C 3.003906 -6.847656 3.367188 -6.597656 3.796875 -6.421875 C 4.234375 -6.253906 4.8125 -6.070312 5.53125 -5.875 C 6.3125 -5.675781 6.9375 -5.472656 7.40625 -5.265625 C 7.882812 -5.066406 8.289062 -4.78125 8.625 -4.40625 C 8.957031 -4.03125 9.125 -3.523438 9.125 -2.890625 C 9.125 -2.304688 8.960938 -1.78125 8.640625 -1.3125 C 8.328125 -0.851562 7.890625 -0.488281 7.328125 -0.21875 C 6.765625 0.0390625 6.128906 0.171875 5.421875 0.171875 Z M 5.421875 0.171875 "/></g></g></g><g fill="#ffffff" fill-opacity="1"><g transform="translate(60.682358, 365.464436)"><g><path d="M 1.109375 -5.609375 C 1.109375 -6.765625 1.335938 -7.773438 1.796875 -8.640625 C 2.265625 -9.515625 2.90625 -10.1875 3.71875 -10.65625 C 4.539062 -11.125 5.472656 -11.359375 6.515625 -11.359375 C 7.703125 -11.359375 8.707031 -11.066406 9.53125 -10.484375 C 10.363281 -9.910156 10.941406 -9.175781 11.265625 -8.28125 L 11.265625 -11.203125 L 12.203125 -11.203125 L 12.203125 0 L 11.265625 0 L 11.265625 -2.953125 C 10.941406 -2.046875 10.363281 -1.296875 9.53125 -0.703125 C 8.695312 -0.117188 7.691406 0.171875 6.515625 0.171875 C 5.472656 0.171875 4.539062 -0.0664062 3.71875 -0.546875 C 2.90625 -1.023438 2.265625 -1.695312 1.796875 -2.5625 C 1.335938 -3.4375 1.109375 -4.453125 1.109375 -5.609375 Z M 11.265625 -5.609375 C 11.265625 -6.585938 11.0625 -7.453125 10.65625 -8.203125 C 10.25 -8.953125 9.695312 -9.53125 9 -9.9375 C 8.300781 -10.34375 7.515625 -10.546875 6.640625 -10.546875 C 5.734375 -10.546875 4.9375 -10.347656 4.25 -9.953125 C 3.5625 -9.566406 3.023438 -9 2.640625 -8.25 C 2.253906 -7.507812 2.0625 -6.628906 2.0625 -5.609375 C 2.0625 -4.597656 2.253906 -3.71875 2.640625 -2.96875 C 3.023438 -2.226562 3.5625 -1.65625 4.25 -1.25 C 4.945312 -0.851562 5.742188 -0.65625 6.640625 -0.65625 C 7.515625 -0.65625 8.304688 -0.859375 9.015625 -1.265625 C 9.722656 -1.671875 10.273438 -2.25 10.671875 -3 C 11.066406 -3.75 11.265625 -4.617188 11.265625 -5.609375 Z M 11.265625 -5.609375 "/></g></g></g><g fill="#ffffff" fill-opacity="1"><g transform="translate(74.572776, 365.464436)"><g><path d="M 2.625 -8.890625 C 2.894531 -9.722656 3.378906 -10.351562 4.078125 -10.78125 C 4.785156 -11.21875 5.679688 -11.4375 6.765625 -11.4375 L 6.765625 -10.46875 L 6.453125 -10.46875 C 5.359375 -10.46875 4.445312 -10.15625 3.71875 -9.53125 C 2.988281 -8.90625 2.625 -7.878906 2.625 -6.453125 L 2.625 0 L 1.6875 0 L 1.6875 -11.203125 L 2.625 -11.203125 Z M 2.625 -8.890625 "/></g></g></g><g fill="#ffffff" fill-opacity="1"><g transform="translate(81.796615, 365.464436)"><g><path d="M 2.625 -8.890625 C 2.894531 -9.722656 3.378906 -10.351562 4.078125 -10.78125 C 4.785156 -11.21875 5.679688 -11.4375 6.765625 -11.4375 L 6.765625 -10.46875 L 6.453125 -10.46875 C 5.359375 -10.46875 4.445312 -10.15625 3.71875 -9.53125 C 2.988281 -8.90625 2.625 -7.878906 2.625 -6.453125 L 2.625 0 L 1.6875 0 L 1.6875 -11.203125 L 2.625 -11.203125 Z M 2.625 -8.890625 "/></g></g></g><g fill="#ffffff" fill-opacity="1"><g transform="translate(89.020453, 365.464436)"><g><path d="M 6.625 0.171875 C 5.582031 0.171875 4.640625 -0.0625 3.796875 -0.53125 C 2.953125 -1 2.289062 -1.671875 1.8125 -2.546875 C 1.34375 -3.421875 1.109375 -4.441406 1.109375 -5.609375 C 1.109375 -6.765625 1.347656 -7.78125 1.828125 -8.65625 C 2.316406 -9.53125 2.984375 -10.195312 3.828125 -10.65625 C 4.671875 -11.125 5.617188 -11.359375 6.671875 -11.359375 C 7.710938 -11.359375 8.648438 -11.125 9.484375 -10.65625 C 10.328125 -10.195312 10.984375 -9.535156 11.453125 -8.671875 C 11.929688 -7.804688 12.171875 -6.785156 12.171875 -5.609375 C 12.171875 -4.441406 11.929688 -3.421875 11.453125 -2.546875 C 10.972656 -1.671875 10.304688 -1 9.453125 -0.53125 C 8.609375 -0.0625 7.664062 0.171875 6.625 0.171875 Z M 6.625 -0.65625 C 7.4375 -0.65625 8.195312 -0.835938 8.90625 -1.203125 C 9.613281 -1.566406 10.179688 -2.117188 10.609375 -2.859375 C 11.035156 -3.609375 11.25 -4.523438 11.25 -5.609375 C 11.25 -6.679688 11.035156 -7.585938 10.609375 -8.328125 C 10.179688 -9.078125 9.613281 -9.632812 8.90625 -10 C 8.207031 -10.363281 7.453125 -10.546875 6.640625 -10.546875 C 5.828125 -10.546875 5.070312 -10.363281 4.375 -10 C 3.6875 -9.632812 3.128906 -9.078125 2.703125 -8.328125 C 2.273438 -7.585938 2.0625 -6.679688 2.0625 -5.609375 C 2.0625 -4.523438 2.269531 -3.609375 2.6875 -2.859375 C 3.113281 -2.117188 3.671875 -1.566406 4.359375 -1.203125 C 5.054688 -0.835938 5.8125 -0.65625 6.625 -0.65625 Z M 6.625 -0.65625 "/></g></g></g><g fill="#ffffff" fill-opacity="1"><g transform="translate(102.332957, 365.464436)"><g><path d="M 2.625 -15.28125 L 2.625 0 L 1.6875 0 L 1.6875 -15.28125 Z M 2.625 -15.28125 "/></g></g></g><g fill="#ffffff" fill-opacity="1"><g transform="translate(106.667266, 365.464436)"><g><path d="M 2.625 -15.28125 L 2.625 0 L 1.6875 0 L 1.6875 -15.28125 Z M 2.625 -15.28125 "/></g></g></g><g fill="#ffffff" fill-opacity="1"><g transform="translate(111.001574, 365.464436)"><g><path d="M 6.625 0.171875 C 5.582031 0.171875 4.640625 -0.0625 3.796875 -0.53125 C 2.953125 -1 2.289062 -1.671875 1.8125 -2.546875 C 1.34375 -3.421875 1.109375 -4.441406 1.109375 -5.609375 C 1.109375 -6.765625 1.347656 -7.78125 1.828125 -8.65625 C 2.316406 -9.53125 2.984375 -10.195312 3.828125 -10.65625 C 4.671875 -11.125 5.617188 -11.359375 6.671875 -11.359375 C 7.710938 -11.359375 8.648438 -11.125 9.484375 -10.65625 C 10.328125 -10.195312 10.984375 -9.535156 11.453125 -8.671875 C 11.929688 -7.804688 12.171875 -6.785156 12.171875 -5.609375 C 12.171875 -4.441406 11.929688 -3.421875 11.453125 -2.546875 C 10.972656 -1.671875 10.304688 -1 9.453125 -0.53125 C 8.609375 -0.0625 7.664062 0.171875 6.625 0.171875 Z M 6.625 -0.65625 C 7.4375 -0.65625 8.195312 -0.835938 8.90625 -1.203125 C 9.613281 -1.566406 10.179688 -2.117188 10.609375 -2.859375 C 11.035156 -3.609375 11.25 -4.523438 11.25 -5.609375 C 11.25 -6.679688 11.035156 -7.585938 10.609375 -8.328125 C 10.179688 -9.078125 9.613281 -9.632812 8.90625 -10 C 8.207031 -10.363281 7.453125 -10.546875 6.640625 -10.546875 C 5.828125 -10.546875 5.070312 -10.363281 4.375 -10 C 3.6875 -9.632812 3.128906 -9.078125 2.703125 -8.328125 C 2.273438 -7.585938 2.0625 -6.679688 2.0625 -5.609375 C 2.0625 -4.523438 2.269531 -3.609375 2.6875 -2.859375 C 3.113281 -2.117188 3.671875 -1.566406 4.359375 -1.203125 C 5.054688 -0.835938 5.8125 -0.65625 6.625 -0.65625 Z M 6.625 -0.65625 "/></g></g></g><g fill="#ffffff" fill-opacity="1"><g transform="translate(124.314078, 365.464436)"><g/></g></g><g fill="#ffffff" fill-opacity="1"><g transform="translate(130.134434, 365.464436)"><g><path d="M 5.421875 0.171875 C 4.171875 0.171875 3.148438 -0.101562 2.359375 -0.65625 C 1.566406 -1.207031 1.125 -1.992188 1.03125 -3.015625 L 1.984375 -3.015625 C 2.046875 -2.285156 2.375 -1.707031 2.96875 -1.28125 C 3.570312 -0.851562 4.390625 -0.640625 5.421875 -0.640625 C 6.273438 -0.640625 6.953125 -0.851562 7.453125 -1.28125 C 7.960938 -1.71875 8.21875 -2.253906 8.21875 -2.890625 C 8.21875 -3.328125 8.082031 -3.6875 7.8125 -3.96875 C 7.539062 -4.25 7.207031 -4.460938 6.8125 -4.609375 C 6.414062 -4.765625 5.875 -4.9375 5.1875 -5.125 C 4.351562 -5.34375 3.679688 -5.554688 3.171875 -5.765625 C 2.671875 -5.984375 2.238281 -6.304688 1.875 -6.734375 C 1.519531 -7.160156 1.34375 -7.726562 1.34375 -8.4375 C 1.34375 -8.957031 1.5 -9.441406 1.8125 -9.890625 C 2.132812 -10.335938 2.578125 -10.691406 3.140625 -10.953125 C 3.703125 -11.222656 4.34375 -11.359375 5.0625 -11.359375 C 6.226562 -11.359375 7.171875 -11.0625 7.890625 -10.46875 C 8.617188 -9.882812 9.007812 -9.078125 9.0625 -8.046875 L 8.125 -8.046875 C 8.09375 -8.796875 7.804688 -9.398438 7.265625 -9.859375 C 6.722656 -10.328125 5.976562 -10.5625 5.03125 -10.5625 C 4.238281 -10.5625 3.578125 -10.351562 3.046875 -9.9375 C 2.523438 -9.53125 2.265625 -9.03125 2.265625 -8.4375 C 2.265625 -7.914062 2.410156 -7.492188 2.703125 -7.171875 C 3.003906 -6.847656 3.367188 -6.597656 3.796875 -6.421875 C 4.234375 -6.253906 4.8125 -6.070312 5.53125 -5.875 C 6.3125 -5.675781 6.9375 -5.472656 7.40625 -5.265625 C 7.882812 -5.066406 8.289062 -4.78125 8.625 -4.40625 C 8.957031 -4.03125 9.125 -3.523438 9.125 -2.890625 C 9.125 -2.304688 8.960938 -1.78125 8.640625 -1.3125 C 8.328125 -0.851562 7.890625 -0.488281 7.328125 -0.21875 C 6.765625 0.0390625 6.128906 0.171875 5.421875 0.171875 Z M 5.421875 0.171875 "/></g></g></g><g fill="#ffffff" fill-opacity="1"><g transform="translate(140.392291, 365.464436)"><g><path d="M 6.625 0.171875 C 5.582031 0.171875 4.640625 -0.0625 3.796875 -0.53125 C 2.953125 -1 2.289062 -1.671875 1.8125 -2.546875 C 1.34375 -3.421875 1.109375 -4.441406 1.109375 -5.609375 C 1.109375 -6.765625 1.347656 -7.78125 1.828125 -8.65625 C 2.316406 -9.53125 2.984375 -10.195312 3.828125 -10.65625 C 4.671875 -11.125 5.617188 -11.359375 6.671875 -11.359375 C 7.710938 -11.359375 8.648438 -11.125 9.484375 -10.65625 C 10.328125 -10.195312 10.984375 -9.535156 11.453125 -8.671875 C 11.929688 -7.804688 12.171875 -6.785156 12.171875 -5.609375 C 12.171875 -4.441406 11.929688 -3.421875 11.453125 -2.546875 C 10.972656 -1.671875 10.304688 -1 9.453125 -0.53125 C 8.609375 -0.0625 7.664062 0.171875 6.625 0.171875 Z M 6.625 -0.65625 C 7.4375 -0.65625 8.195312 -0.835938 8.90625 -1.203125 C 9.613281 -1.566406 10.179688 -2.117188 10.609375 -2.859375 C 11.035156 -3.609375 11.25 -4.523438 11.25 -5.609375 C 11.25 -6.679688 11.035156 -7.585938 10.609375 -8.328125 C 10.179688 -9.078125 9.613281 -9.632812 8.90625 -10 C 8.207031 -10.363281 7.453125 -10.546875 6.640625 -10.546875 C 5.828125 -10.546875 5.070312 -10.363281 4.375 -10 C 3.6875 -9.632812 3.128906 -9.078125 2.703125 -8.328125 C 2.273438 -7.585938 2.0625 -6.679688 2.0625 -5.609375 C 2.0625 -4.523438 2.269531 -3.609375 2.6875 -2.859375 C 3.113281 -2.117188 3.671875 -1.566406 4.359375 -1.203125 C 5.054688 -0.835938 5.8125 -0.65625 6.625 -0.65625 Z M 6.625 -0.65625 "/></g></g></g><g fill="#ffffff" fill-opacity="1"><g transform="translate(153.704795, 365.464436)"><g><path d="M 5.96875 -10.375 L 3.0625 -10.375 L 3.0625 0 L 2.125 0 L 2.125 -10.375 L 0.4375 -10.375 L 0.4375 -11.203125 L 2.125 -11.203125 L 2.125 -12 C 2.125 -13.164062 2.421875 -14.03125 3.015625 -14.59375 C 3.609375 -15.164062 4.578125 -15.453125 5.921875 -15.453125 L 5.921875 -14.640625 C 4.847656 -14.640625 4.101562 -14.429688 3.6875 -14.015625 C 3.269531 -13.597656 3.0625 -12.925781 3.0625 -12 L 3.0625 -11.203125 L 5.96875 -11.203125 Z M 5.96875 -10.375 "/></g></g></g><g fill="#ffffff" fill-opacity="1"><g transform="translate(160.350733, 365.464436)"><g><path d="M 3.078125 -10.40625 L 3.078125 -3 C 3.078125 -2.164062 3.226562 -1.59375 3.53125 -1.28125 C 3.832031 -0.976562 4.367188 -0.828125 5.140625 -0.828125 L 6.40625 -0.828125 L 6.40625 0 L 5 0 C 4.019531 0 3.296875 -0.226562 2.828125 -0.6875 C 2.367188 -1.15625 2.140625 -1.925781 2.140625 -3 L 2.140625 -10.40625 L 0.453125 -10.40625 L 0.453125 -11.203125 L 2.140625 -11.203125 L 2.140625 -14.0625 L 3.078125 -14.0625 L 3.078125 -11.203125 L 6.40625 -11.203125 L 6.40625 -10.40625 Z M 3.078125 -10.40625 "/></g></g></g><g fill="#ffffff" fill-opacity="1"><g transform="translate(167.512661, 365.464436)"><g><path d="M 16.34375 -11.203125 L 12.8125 0 L 11.9375 0 L 8.359375 -9.921875 L 4.765625 0 L 3.875 0 L 0.34375 -11.203125 L 1.328125 -11.203125 L 4.328125 -1.046875 L 7.921875 -11.203125 L 8.8125 -11.203125 L 12.390625 -1.09375 L 15.390625 -11.203125 Z M 16.34375 -11.203125 "/></g></g></g><g fill="#ffffff" fill-opacity="1"><g transform="translate(184.210057, 365.464436)"><g><path d="M 1.109375 -5.609375 C 1.109375 -6.765625 1.335938 -7.773438 1.796875 -8.640625 C 2.265625 -9.515625 2.90625 -10.1875 3.71875 -10.65625 C 4.539062 -11.125 5.472656 -11.359375 6.515625 -11.359375 C 7.703125 -11.359375 8.707031 -11.066406 9.53125 -10.484375 C 10.363281 -9.910156 10.941406 -9.175781 11.265625 -8.28125 L 11.265625 -11.203125 L 12.203125 -11.203125 L 12.203125 0 L 11.265625 0 L 11.265625 -2.953125 C 10.941406 -2.046875 10.363281 -1.296875 9.53125 -0.703125 C 8.695312 -0.117188 7.691406 0.171875 6.515625 0.171875 C 5.472656 0.171875 4.539062 -0.0664062 3.71875 -0.546875 C 2.90625 -1.023438 2.265625 -1.695312 1.796875 -2.5625 C 1.335938 -3.4375 1.109375 -4.453125 1.109375 -5.609375 Z M 11.265625 -5.609375 C 11.265625 -6.585938 11.0625 -7.453125 10.65625 -8.203125 C 10.25 -8.953125 9.695312 -9.53125 9 -9.9375 C 8.300781 -10.34375 7.515625 -10.546875 6.640625 -10.546875 C 5.734375 -10.546875 4.9375 -10.347656 4.25 -9.953125 C 3.5625 -9.566406 3.023438 -9 2.640625 -8.25 C 2.253906 -7.507812 2.0625 -6.628906 2.0625 -5.609375 C 2.0625 -4.597656 2.253906 -3.71875 2.640625 -2.96875 C 3.023438 -2.226562 3.5625 -1.65625 4.25 -1.25 C 4.945312 -0.851562 5.742188 -0.65625 6.640625 -0.65625 C 7.515625 -0.65625 8.304688 -0.859375 9.015625 -1.265625 C 9.722656 -1.671875 10.273438 -2.25 10.671875 -3 C 11.066406 -3.75 11.265625 -4.617188 11.265625 -5.609375 Z M 11.265625 -5.609375 "/></g></g></g><g fill="#ffffff" fill-opacity="1"><g transform="translate(198.100475, 365.464436)"><g><path d="M 2.625 -8.890625 C 2.894531 -9.722656 3.378906 -10.351562 4.078125 -10.78125 C 4.785156 -11.21875 5.679688 -11.4375 6.765625 -11.4375 L 6.765625 -10.46875 L 6.453125 -10.46875 C 5.359375 -10.46875 4.445312 -10.15625 3.71875 -9.53125 C 2.988281 -8.90625 2.625 -7.878906 2.625 -6.453125 L 2.625 0 L 1.6875 0 L 1.6875 -11.203125 L 2.625 -11.203125 Z M 2.625 -8.890625 "/></g></g></g><g fill="#ffffff" fill-opacity="1"><g transform="translate(205.324314, 365.464436)"><g><path d="M 11.78125 -6.359375 C 11.78125 -5.859375 11.769531 -5.488281 11.75 -5.25 L 2.0625 -5.25 C 2.09375 -4.238281 2.3125 -3.390625 2.71875 -2.703125 C 3.132812 -2.015625 3.675781 -1.5 4.34375 -1.15625 C 5.019531 -0.8125 5.757812 -0.640625 6.5625 -0.640625 C 7.664062 -0.640625 8.585938 -0.910156 9.328125 -1.453125 C 10.066406 -1.992188 10.535156 -2.734375 10.734375 -3.671875 L 11.703125 -3.671875 C 11.484375 -2.523438 10.914062 -1.597656 10 -0.890625 C 9.09375 -0.179688 7.945312 0.171875 6.5625 0.171875 C 5.519531 0.171875 4.582031 -0.0625 3.75 -0.53125 C 2.925781 -1 2.28125 -1.671875 1.8125 -2.546875 C 1.34375 -3.421875 1.109375 -4.441406 1.109375 -5.609375 C 1.109375 -6.785156 1.335938 -7.804688 1.796875 -8.671875 C 2.265625 -9.535156 2.910156 -10.195312 3.734375 -10.65625 C 4.554688 -11.125 5.5 -11.359375 6.5625 -11.359375 C 7.632812 -11.359375 8.566406 -11.125 9.359375 -10.65625 C 10.148438 -10.195312 10.75 -9.582031 11.15625 -8.8125 C 11.570312 -8.050781 11.78125 -7.234375 11.78125 -6.359375 Z M 10.859375 -6 C 10.898438 -7 10.722656 -7.84375 10.328125 -8.53125 C 9.941406 -9.21875 9.410156 -9.726562 8.734375 -10.0625 C 8.054688 -10.394531 7.328125 -10.5625 6.546875 -10.5625 C 5.753906 -10.5625 5.023438 -10.394531 4.359375 -10.0625 C 3.691406 -9.726562 3.148438 -9.21875 2.734375 -8.53125 C 2.316406 -7.84375 2.09375 -7 2.0625 -6 Z M 10.859375 -6 "/></g></g></g><g fill="#ffffff" fill-opacity="1"><g transform="translate(218.224033, 365.464436)"><g/></g></g><g fill="#ffffff" fill-opacity="1"><g transform="translate(224.044389, 365.464436)"><g><path d="M 12.53125 -5.015625 C 12.03125 -4.148438 11.554688 -3.414062 11.109375 -2.8125 L 13.828125 0 L 12.65625 0 L 10.5625 -2.125 C 9.863281 -1.3125 9.117188 -0.710938 8.328125 -0.328125 C 7.535156 0.046875 6.640625 0.234375 5.640625 0.234375 C 4.710938 0.234375 3.882812 0.0507812 3.15625 -0.3125 C 2.425781 -0.675781 1.859375 -1.1875 1.453125 -1.84375 C 1.046875 -2.5 0.84375 -3.253906 0.84375 -4.109375 C 0.84375 -5.140625 1.132812 -6.03125 1.71875 -6.78125 C 2.300781 -7.53125 3.148438 -8.117188 4.265625 -8.546875 C 3.734375 -9.109375 3.347656 -9.632812 3.109375 -10.125 C 2.867188 -10.613281 2.75 -11.132812 2.75 -11.6875 C 2.75 -12.5625 3.0625 -13.273438 3.6875 -13.828125 C 4.3125 -14.378906 5.132812 -14.65625 6.15625 -14.65625 C 6.757812 -14.65625 7.316406 -14.53125 7.828125 -14.28125 C 8.335938 -14.03125 8.734375 -13.675781 9.015625 -13.21875 C 9.304688 -12.769531 9.453125 -12.242188 9.453125 -11.640625 L 8.53125 -11.640625 C 8.53125 -12.328125 8.296875 -12.867188 7.828125 -13.265625 C 7.359375 -13.671875 6.789062 -13.875 6.125 -13.875 C 5.394531 -13.875 4.800781 -13.671875 4.34375 -13.265625 C 3.894531 -12.859375 3.671875 -12.332031 3.671875 -11.6875 C 3.671875 -11.195312 3.796875 -10.734375 4.046875 -10.296875 C 4.296875 -9.867188 4.6875 -9.378906 5.21875 -8.828125 L 10.484375 -3.421875 C 10.867188 -3.972656 11.300781 -4.648438 11.78125 -5.453125 L 12.9375 -7.453125 L 13.9375 -7.453125 Z M 5.640625 -0.59375 C 6.515625 -0.59375 7.289062 -0.765625 7.96875 -1.109375 C 8.65625 -1.453125 9.316406 -2.003906 9.953125 -2.765625 L 4.875 -7.921875 L 4.8125 -7.90625 C 2.789062 -7.164062 1.78125 -5.90625 1.78125 -4.125 C 1.78125 -3.445312 1.941406 -2.835938 2.265625 -2.296875 C 2.597656 -1.765625 3.054688 -1.347656 3.640625 -1.046875 C 4.222656 -0.742188 4.890625 -0.59375 5.640625 -0.59375 Z M 5.640625 -0.59375 "/></g></g></g><g fill="#ffffff" fill-opacity="1"><g transform="translate(238.409515, 365.464436)"><g/></g></g><g fill="#ffffff" fill-opacity="1"><g transform="translate(244.229858, 365.464436)"><g><path d="M 1.109375 -7.21875 C 1.109375 -8.65625 1.40625 -9.929688 2 -11.046875 C 2.601562 -12.171875 3.429688 -13.050781 4.484375 -13.6875 C 5.535156 -14.320312 6.71875 -14.640625 8.03125 -14.640625 C 9.675781 -14.640625 11.0625 -14.253906 12.1875 -13.484375 C 13.320312 -12.710938 14.148438 -11.628906 14.671875 -10.234375 L 13.609375 -10.234375 C 13.191406 -11.335938 12.503906 -12.207031 11.546875 -12.84375 C 10.585938 -13.488281 9.414062 -13.8125 8.03125 -13.8125 C 6.914062 -13.8125 5.898438 -13.546875 4.984375 -13.015625 C 4.078125 -12.484375 3.363281 -11.71875 2.84375 -10.71875 C 2.320312 -9.71875 2.0625 -8.550781 2.0625 -7.21875 C 2.0625 -5.90625 2.320312 -4.753906 2.84375 -3.765625 C 3.363281 -2.785156 4.078125 -2.023438 4.984375 -1.484375 C 5.898438 -0.953125 6.914062 -0.6875 8.03125 -0.6875 C 9.414062 -0.6875 10.585938 -1.003906 11.546875 -1.640625 C 12.503906 -2.273438 13.191406 -3.144531 13.609375 -4.25 L 14.671875 -4.25 C 14.148438 -2.863281 13.320312 -1.785156 12.1875 -1.015625 C 11.0625 -0.242188 9.675781 0.140625 8.03125 0.140625 C 6.71875 0.140625 5.535156 -0.171875 4.484375 -0.796875 C 3.429688 -1.421875 2.601562 -2.289062 2 -3.40625 C 1.40625 -4.53125 1.109375 -5.800781 1.109375 -7.21875 Z M 1.109375 -7.21875 "/></g></g></g><g fill="#ffffff" fill-opacity="1"><g transform="translate(260.122314, 365.464436)"><g><path d="M 6.625 0.171875 C 5.582031 0.171875 4.640625 -0.0625 3.796875 -0.53125 C 2.953125 -1 2.289062 -1.671875 1.8125 -2.546875 C 1.34375 -3.421875 1.109375 -4.441406 1.109375 -5.609375 C 1.109375 -6.765625 1.347656 -7.78125 1.828125 -8.65625 C 2.316406 -9.53125 2.984375 -10.195312 3.828125 -10.65625 C 4.671875 -11.125 5.617188 -11.359375 6.671875 -11.359375 C 7.710938 -11.359375 8.648438 -11.125 9.484375 -10.65625 C 10.328125 -10.195312 10.984375 -9.535156 11.453125 -8.671875 C 11.929688 -7.804688 12.171875 -6.785156 12.171875 -5.609375 C 12.171875 -4.441406 11.929688 -3.421875 11.453125 -2.546875 C 10.972656 -1.671875 10.304688 -1 9.453125 -0.53125 C 8.609375 -0.0625 7.664062 0.171875 6.625 0.171875 Z M 6.625 -0.65625 C 7.4375 -0.65625 8.195312 -0.835938 8.90625 -1.203125 C 9.613281 -1.566406 10.179688 -2.117188 10.609375 -2.859375 C 11.035156 -3.609375 11.25 -4.523438 11.25 -5.609375 C 11.25 -6.679688 11.035156 -7.585938 10.609375 -8.328125 C 10.179688 -9.078125 9.613281 -9.632812 8.90625 -10 C 8.207031 -10.363281 7.453125 -10.546875 6.640625 -10.546875 C 5.828125 -10.546875 5.070312 -10.363281 4.375 -10 C 3.6875 -9.632812 3.128906 -9.078125 2.703125 -8.328125 C 2.273438 -7.585938 2.0625 -6.679688 2.0625 -5.609375 C 2.0625 -4.523438 2.269531 -3.609375 2.6875 -2.859375 C 3.113281 -2.117188 3.671875 -1.566406 4.359375 -1.203125 C 5.054688 -0.835938 5.8125 -0.65625 6.625 -0.65625 Z M 6.625 -0.65625 "/></g></g></g><g fill="#ffffff" fill-opacity="1"><g transform="translate(273.434831, 365.464436)"><g><path d="M 6.75 -11.4375 C 8.082031 -11.4375 9.164062 -11.023438 10 -10.203125 C 10.84375 -9.390625 11.265625 -8.175781 11.265625 -6.5625 L 11.265625 0 L 10.359375 0 L 10.359375 -6.5 C 10.359375 -7.832031 10.019531 -8.851562 9.34375 -9.5625 C 8.675781 -10.269531 7.765625 -10.625 6.609375 -10.625 C 5.390625 -10.625 4.421875 -10.238281 3.703125 -9.46875 C 2.984375 -8.695312 2.625 -7.554688 2.625 -6.046875 L 2.625 0 L 1.6875 0 L 1.6875 -11.203125 L 2.625 -11.203125 L 2.625 -8.828125 C 2.9375 -9.671875 3.457031 -10.316406 4.1875 -10.765625 C 4.925781 -11.210938 5.78125 -11.4375 6.75 -11.4375 Z M 6.75 -11.4375 "/></g></g></g><g fill="#ffffff" fill-opacity="1"><g transform="translate(286.293268, 365.464436)"><g><path d="M 5.421875 0.171875 C 4.171875 0.171875 3.148438 -0.101562 2.359375 -0.65625 C 1.566406 -1.207031 1.125 -1.992188 1.03125 -3.015625 L 1.984375 -3.015625 C 2.046875 -2.285156 2.375 -1.707031 2.96875 -1.28125 C 3.570312 -0.851562 4.390625 -0.640625 5.421875 -0.640625 C 6.273438 -0.640625 6.953125 -0.851562 7.453125 -1.28125 C 7.960938 -1.71875 8.21875 -2.253906 8.21875 -2.890625 C 8.21875 -3.328125 8.082031 -3.6875 7.8125 -3.96875 C 7.539062 -4.25 7.207031 -4.460938 6.8125 -4.609375 C 6.414062 -4.765625 5.875 -4.9375 5.1875 -5.125 C 4.351562 -5.34375 3.679688 -5.554688 3.171875 -5.765625 C 2.671875 -5.984375 2.238281 -6.304688 1.875 -6.734375 C 1.519531 -7.160156 1.34375 -7.726562 1.34375 -8.4375 C 1.34375 -8.957031 1.5 -9.441406 1.8125 -9.890625 C 2.132812 -10.335938 2.578125 -10.691406 3.140625 -10.953125 C 3.703125 -11.222656 4.34375 -11.359375 5.0625 -11.359375 C 6.226562 -11.359375 7.171875 -11.0625 7.890625 -10.46875 C 8.617188 -9.882812 9.007812 -9.078125 9.0625 -8.046875 L 8.125 -8.046875 C 8.09375 -8.796875 7.804688 -9.398438 7.265625 -9.859375 C 6.722656 -10.328125 5.976562 -10.5625 5.03125 -10.5625 C 4.238281 -10.5625 3.578125 -10.351562 3.046875 -9.9375 C 2.523438 -9.53125 2.265625 -9.03125 2.265625 -8.4375 C 2.265625 -7.914062 2.410156 -7.492188 2.703125 -7.171875 C 3.003906 -6.847656 3.367188 -6.597656 3.796875 -6.421875 C 4.234375 -6.253906 4.8125 -6.070312 5.53125 -5.875 C 6.3125 -5.675781 6.9375 -5.472656 7.40625 -5.265625 C 7.882812 -5.066406 8.289062 -4.78125 8.625 -4.40625 C 8.957031 -4.03125 9.125 -3.523438 9.125 -2.890625 C 9.125 -2.304688 8.960938 -1.78125 8.640625 -1.3125 C 8.328125 -0.851562 7.890625 -0.488281 7.328125 -0.21875 C 6.765625 0.0390625 6.128906 0.171875 5.421875 0.171875 Z M 5.421875 0.171875 "/></g></g></g><g fill="#ffffff" fill-opacity="1"><g transform="translate(296.551125, 365.464436)"><g><path d="M 11.171875 -11.203125 L 11.171875 0 L 10.234375 0 L 10.234375 -2.4375 C 9.921875 -1.582031 9.394531 -0.929688 8.65625 -0.484375 C 7.914062 -0.0351562 7.070312 0.1875 6.125 0.1875 C 4.789062 0.1875 3.703125 -0.21875 2.859375 -1.03125 C 2.015625 -1.851562 1.59375 -3.070312 1.59375 -4.6875 L 1.59375 -11.203125 L 2.5 -11.203125 L 2.5 -4.75 C 2.5 -3.414062 2.832031 -2.394531 3.5 -1.6875 C 4.175781 -0.976562 5.09375 -0.625 6.25 -0.625 C 7.46875 -0.625 8.4375 -1.007812 9.15625 -1.78125 C 9.875 -2.550781 10.234375 -3.691406 10.234375 -5.203125 L 10.234375 -11.203125 Z M 11.171875 -11.203125 "/></g></g></g><g fill="#ffffff" fill-opacity="1"><g transform="translate(309.409563, 365.464436)"><g><path d="M 2.625 -15.28125 L 2.625 0 L 1.6875 0 L 1.6875 -15.28125 Z M 2.625 -15.28125 "/></g></g></g><g fill="#ffffff" fill-opacity="1"><g transform="translate(313.743871, 365.464436)"><g><path d="M 3.078125 -10.40625 L 3.078125 -3 C 3.078125 -2.164062 3.226562 -1.59375 3.53125 -1.28125 C 3.832031 -0.976562 4.367188 -0.828125 5.140625 -0.828125 L 6.40625 -0.828125 L 6.40625 0 L 5 0 C 4.019531 0 3.296875 -0.226562 2.828125 -0.6875 C 2.367188 -1.15625 2.140625 -1.925781 2.140625 -3 L 2.140625 -10.40625 L 0.453125 -10.40625 L 0.453125 -11.203125 L 2.140625 -11.203125 L 2.140625 -14.0625 L 3.078125 -14.0625 L 3.078125 -11.203125 L 6.40625 -11.203125 L 6.40625 -10.40625 Z M 3.078125 -10.40625 "/></g></g></g><g fill="#ffffff" fill-opacity="1"><g transform="translate(320.905786, 365.464436)"><g><path d="M 2.171875 -13.703125 C 1.953125 -13.703125 1.765625 -13.773438 1.609375 -13.921875 C 1.460938 -14.066406 1.390625 -14.265625 1.390625 -14.515625 C 1.390625 -14.742188 1.460938 -14.929688 1.609375 -15.078125 C 1.765625 -15.234375 1.953125 -15.3125 2.171875 -15.3125 C 2.390625 -15.3125 2.570312 -15.234375 2.71875 -15.078125 C 2.875 -14.929688 2.953125 -14.742188 2.953125 -14.515625 C 2.953125 -14.265625 2.875 -14.066406 2.71875 -13.921875 C 2.570312 -13.773438 2.390625 -13.703125 2.171875 -13.703125 Z M 2.625 -11.203125 L 2.625 0 L 1.6875 0 L 1.6875 -11.203125 Z M 2.625 -11.203125 "/></g></g></g><g fill="#ffffff" fill-opacity="1"><g transform="translate(325.240095, 365.464436)"><g><path d="M 6.75 -11.4375 C 8.082031 -11.4375 9.164062 -11.023438 10 -10.203125 C 10.84375 -9.390625 11.265625 -8.175781 11.265625 -6.5625 L 11.265625 0 L 10.359375 0 L 10.359375 -6.5 C 10.359375 -7.832031 10.019531 -8.851562 9.34375 -9.5625 C 8.675781 -10.269531 7.765625 -10.625 6.609375 -10.625 C 5.390625 -10.625 4.421875 -10.238281 3.703125 -9.46875 C 2.984375 -8.695312 2.625 -7.554688 2.625 -6.046875 L 2.625 0 L 1.6875 0 L 1.6875 -11.203125 L 2.625 -11.203125 L 2.625 -8.828125 C 2.9375 -9.671875 3.457031 -10.316406 4.1875 -10.765625 C 4.925781 -11.210938 5.78125 -11.4375 6.75 -11.4375 Z M 6.75 -11.4375 "/></g></g></g><g fill="#ffffff" fill-opacity="1"><g transform="translate(338.098532, 365.464436)"><g><path d="M 6.515625 -11.359375 C 7.703125 -11.359375 8.707031 -11.070312 9.53125 -10.5 C 10.363281 -9.925781 10.941406 -9.191406 11.265625 -8.296875 L 11.265625 -11.203125 L 12.203125 -11.203125 L 12.203125 0.34375 C 12.203125 1.382812 11.972656 2.289062 11.515625 3.0625 C 11.066406 3.84375 10.457031 4.441406 9.6875 4.859375 C 8.914062 5.273438 8.050781 5.484375 7.09375 5.484375 C 5.695312 5.484375 4.535156 5.144531 3.609375 4.46875 C 2.691406 3.800781 2.085938 2.894531 1.796875 1.75 L 2.71875 1.75 C 3 2.644531 3.515625 3.359375 4.265625 3.890625 C 5.023438 4.421875 5.96875 4.6875 7.09375 4.6875 C 7.882812 4.6875 8.59375 4.507812 9.21875 4.15625 C 9.851562 3.800781 10.351562 3.296875 10.71875 2.640625 C 11.082031 1.992188 11.265625 1.226562 11.265625 0.34375 L 11.265625 -2.9375 C 10.941406 -2.039062 10.363281 -1.296875 9.53125 -0.703125 C 8.695312 -0.117188 7.691406 0.171875 6.515625 0.171875 C 5.472656 0.171875 4.539062 -0.0664062 3.71875 -0.546875 C 2.90625 -1.023438 2.265625 -1.695312 1.796875 -2.5625 C 1.335938 -3.4375 1.109375 -4.453125 1.109375 -5.609375 C 1.109375 -6.765625 1.335938 -7.773438 1.796875 -8.640625 C 2.265625 -9.515625 2.90625 -10.1875 3.71875 -10.65625 C 4.539062 -11.125 5.472656 -11.359375 6.515625 -11.359375 Z M 11.265625 -5.609375 C 11.265625 -6.585938 11.0625 -7.453125 10.65625 -8.203125 C 10.25 -8.953125 9.695312 -9.53125 9 -9.9375 C 8.300781 -10.34375 7.515625 -10.546875 6.640625 -10.546875 C 5.734375 -10.546875 4.9375 -10.347656 4.25 -9.953125 C 3.5625 -9.566406 3.023438 -9 2.640625 -8.25 C 2.253906 -7.507812 2.0625 -6.628906 2.0625 -5.609375 C 2.0625 -4.597656 2.253906 -3.71875 2.640625 -2.96875 C 3.023438 -2.226562 3.5625 -1.65625 4.25 -1.25 C 4.945312 -0.851562 5.742188 -0.65625 6.640625 -0.65625 C 7.515625 -0.65625 8.304688 -0.859375 9.015625 -1.265625 C 9.722656 -1.671875 10.273438 -2.25 10.671875 -3 C 11.066406 -3.75 11.265625 -4.617188 11.265625 -5.609375 Z M 11.265625 -5.609375 "/></g></g></g><g fill="#ffffff" fill-opacity="1"><g transform="translate(21.90494, 332.876551)"><g><path d="M 49.984375 0 L 42.328125 0 L 42.328125 -16.796875 C 42.328125 -19.160156 41.914062 -20.898438 41.09375 -22.015625 C 40.28125 -23.140625 39.148438 -23.703125 37.703125 -23.703125 C 36.210938 -23.703125 34.789062 -23.117188 33.4375 -21.953125 C 32.09375 -20.796875 31.132812 -19.285156 30.5625 -17.421875 L 30.5625 0 L 22.90625 0 L 22.90625 -16.796875 C 22.90625 -19.191406 22.492188 -20.941406 21.671875 -22.046875 C 20.859375 -23.148438 19.726562 -23.703125 18.28125 -23.703125 C 16.789062 -23.703125 15.367188 -23.128906 14.015625 -21.984375 C 12.671875 -20.847656 11.710938 -19.347656 11.140625 -17.484375 L 11.140625 0 L 3.484375 0 L 3.484375 -29.9375 L 10.390625 -29.9375 L 10.390625 -24.390625 C 11.535156 -26.335938 13.0625 -27.832031 14.96875 -28.875 C 16.875 -29.925781 19.0625 -30.453125 21.53125 -30.453125 C 24.007812 -30.453125 25.941406 -29.84375 27.328125 -28.625 C 28.722656 -27.40625 29.609375 -25.898438 29.984375 -24.109375 C 31.203125 -26.160156 32.753906 -27.726562 34.640625 -28.8125 C 36.523438 -29.90625 38.648438 -30.453125 41.015625 -30.453125 C 42.878906 -30.453125 44.390625 -30.117188 45.546875 -29.453125 C 46.710938 -28.785156 47.617188 -27.890625 48.265625 -26.765625 C 48.910156 -25.640625 49.359375 -24.367188 49.609375 -22.953125 C 49.859375 -21.546875 49.984375 -20.125 49.984375 -18.6875 Z M 49.984375 0 "/></g></g></g><g fill="#ffffff" fill-opacity="1"><g transform="translate(75.080961, 332.876551)"><g><path d="M 1.421875 -8.859375 C 1.421875 -10.796875 1.960938 -12.5 3.046875 -13.96875 C 4.140625 -15.4375 5.65625 -16.566406 7.59375 -17.359375 C 9.539062 -18.160156 11.769531 -18.5625 14.28125 -18.5625 C 15.539062 -18.5625 16.816406 -18.46875 18.109375 -18.28125 C 19.398438 -18.09375 20.523438 -17.785156 21.484375 -17.359375 L 21.484375 -18.96875 C 21.484375 -20.875 20.921875 -22.335938 19.796875 -23.359375 C 18.671875 -24.390625 17.003906 -24.90625 14.796875 -24.90625 C 13.160156 -24.90625 11.597656 -24.617188 10.109375 -24.046875 C 8.628906 -23.472656 7.066406 -22.632812 5.421875 -21.53125 L 2.96875 -26.5625 C 4.945312 -27.851562 6.972656 -28.820312 9.046875 -29.46875 C 11.128906 -30.125 13.3125 -30.453125 15.59375 -30.453125 C 19.863281 -30.453125 23.1875 -29.382812 25.5625 -27.25 C 27.945312 -25.113281 29.140625 -22.066406 29.140625 -18.109375 L 29.140625 -8.5625 C 29.140625 -7.769531 29.28125 -7.203125 29.5625 -6.859375 C 29.84375 -6.515625 30.3125 -6.304688 30.96875 -6.234375 L 30.96875 0 C 30.28125 0.113281 29.660156 0.207031 29.109375 0.28125 C 28.554688 0.363281 28.085938 0.40625 27.703125 0.40625 C 26.179688 0.40625 25.03125 0.0625 24.25 -0.625 C 23.46875 -1.3125 22.984375 -2.148438 22.796875 -3.140625 L 22.625 -4.6875 C 21.320312 -3.007812 19.703125 -1.710938 17.765625 -0.796875 C 15.828125 0.117188 13.847656 0.578125 11.828125 0.578125 C 9.847656 0.578125 8.066406 0.164062 6.484375 -0.65625 C 4.898438 -1.476562 3.660156 -2.601562 2.765625 -4.03125 C 1.867188 -5.457031 1.421875 -7.066406 1.421875 -8.859375 Z M 20.046875 -7.3125 C 20.460938 -7.769531 20.804688 -8.226562 21.078125 -8.6875 C 21.347656 -9.144531 21.484375 -9.5625 21.484375 -9.9375 L 21.484375 -12.96875 C 20.566406 -13.34375 19.570312 -13.632812 18.5 -13.84375 C 17.4375 -14.0625 16.429688 -14.171875 15.484375 -14.171875 C 13.503906 -14.171875 11.875 -13.738281 10.59375 -12.875 C 9.320312 -12.019531 8.6875 -10.890625 8.6875 -9.484375 C 8.6875 -8.722656 8.894531 -8 9.3125 -7.3125 C 9.726562 -6.625 10.335938 -6.070312 11.140625 -5.65625 C 11.941406 -5.238281 12.894531 -5.03125 14 -5.03125 C 15.132812 -5.03125 16.253906 -5.25 17.359375 -5.6875 C 18.460938 -6.125 19.359375 -6.664062 20.046875 -7.3125 Z M 20.046875 -7.3125 "/></g></g></g><g fill="#ffffff" fill-opacity="1"><g transform="translate(107.866176, 332.876551)"><g><path d="M 3.421875 -41.703125 L 11.078125 -41.703125 L 11.078125 -9.59375 C 11.078125 -8.226562 11.304688 -7.304688 11.765625 -6.828125 C 12.222656 -6.347656 12.851562 -6.109375 13.65625 -6.109375 C 14.257812 -6.109375 14.882812 -6.179688 15.53125 -6.328125 C 16.1875 -6.484375 16.757812 -6.675781 17.25 -6.90625 L 18.28125 -1.078125 C 17.25 -0.585938 16.046875 -0.210938 14.671875 0.046875 C 13.304688 0.316406 12.070312 0.453125 10.96875 0.453125 C 8.570312 0.453125 6.710938 -0.179688 5.390625 -1.453125 C 4.078125 -2.734375 3.421875 -4.550781 3.421875 -6.90625 Z M 3.421875 -41.703125 "/></g></g></g><g fill="#ffffff" fill-opacity="1"><g transform="translate(125.972297, 332.876551)"><g><path d="M 21.421875 0.578125 C 19.097656 0.578125 17.050781 0.0507812 15.28125 -1 C 13.507812 -2.050781 12.128906 -3.46875 11.140625 -5.25 L 11.140625 12.171875 L 3.484375 12.171875 L 3.484375 -29.9375 L 10.171875 -29.9375 L 10.171875 -24.796875 C 11.304688 -26.546875 12.75 -27.925781 14.5 -28.9375 C 16.257812 -29.945312 18.265625 -30.453125 20.515625 -30.453125 C 22.523438 -30.453125 24.378906 -30.050781 26.078125 -29.25 C 27.773438 -28.445312 29.25 -27.332031 30.5 -25.90625 C 31.757812 -24.476562 32.738281 -22.835938 33.4375 -20.984375 C 34.144531 -19.140625 34.5 -17.15625 34.5 -15.03125 C 34.5 -12.132812 33.9375 -9.503906 32.8125 -7.140625 C 31.695312 -4.773438 30.15625 -2.894531 28.1875 -1.5 C 26.226562 -0.113281 23.972656 0.578125 21.421875 0.578125 Z M 18.84375 -5.9375 C 20.03125 -5.9375 21.097656 -6.179688 22.046875 -6.671875 C 23.003906 -7.171875 23.832031 -7.847656 24.53125 -8.703125 C 25.238281 -9.566406 25.769531 -10.539062 26.125 -11.625 C 26.488281 -12.707031 26.671875 -13.84375 26.671875 -15.03125 C 26.671875 -16.28125 26.472656 -17.4375 26.078125 -18.5 C 25.679688 -19.570312 25.097656 -20.515625 24.328125 -21.328125 C 23.566406 -22.148438 22.679688 -22.789062 21.671875 -23.25 C 20.671875 -23.707031 19.578125 -23.9375 18.390625 -23.9375 C 17.671875 -23.9375 16.9375 -23.8125 16.1875 -23.5625 C 15.445312 -23.3125 14.734375 -22.957031 14.046875 -22.5 C 13.367188 -22.050781 12.769531 -21.519531 12.25 -20.90625 C 11.738281 -20.300781 11.367188 -19.632812 11.140625 -18.90625 L 11.140625 -11.875 C 11.597656 -10.769531 12.21875 -9.757812 13 -8.84375 C 13.78125 -7.9375 14.679688 -7.222656 15.703125 -6.703125 C 16.734375 -6.191406 17.78125 -5.9375 18.84375 -5.9375 Z M 18.84375 -5.9375 "/></g></g></g><g fill="#ffffff" fill-opacity="1"><g transform="translate(162.184537, 332.876551)"><g><path d="M 1.421875 -8.859375 C 1.421875 -10.796875 1.960938 -12.5 3.046875 -13.96875 C 4.140625 -15.4375 5.65625 -16.566406 7.59375 -17.359375 C 9.539062 -18.160156 11.769531 -18.5625 14.28125 -18.5625 C 15.539062 -18.5625 16.816406 -18.46875 18.109375 -18.28125 C 19.398438 -18.09375 20.523438 -17.785156 21.484375 -17.359375 L 21.484375 -18.96875 C 21.484375 -20.875 20.921875 -22.335938 19.796875 -23.359375 C 18.671875 -24.390625 17.003906 -24.90625 14.796875 -24.90625 C 13.160156 -24.90625 11.597656 -24.617188 10.109375 -24.046875 C 8.628906 -23.472656 7.066406 -22.632812 5.421875 -21.53125 L 2.96875 -26.5625 C 4.945312 -27.851562 6.972656 -28.820312 9.046875 -29.46875 C 11.128906 -30.125 13.3125 -30.453125 15.59375 -30.453125 C 19.863281 -30.453125 23.1875 -29.382812 25.5625 -27.25 C 27.945312 -25.113281 29.140625 -22.066406 29.140625 -18.109375 L 29.140625 -8.5625 C 29.140625 -7.769531 29.28125 -7.203125 29.5625 -6.859375 C 29.84375 -6.515625 30.3125 -6.304688 30.96875 -6.234375 L 30.96875 0 C 30.28125 0.113281 29.660156 0.207031 29.109375 0.28125 C 28.554688 0.363281 28.085938 0.40625 27.703125 0.40625 C 26.179688 0.40625 25.03125 0.0625 24.25 -0.625 C 23.46875 -1.3125 22.984375 -2.148438 22.796875 -3.140625 L 22.625 -4.6875 C 21.320312 -3.007812 19.703125 -1.710938 17.765625 -0.796875 C 15.828125 0.117188 13.847656 0.578125 11.828125 0.578125 C 9.847656 0.578125 8.066406 0.164062 6.484375 -0.65625 C 4.898438 -1.476562 3.660156 -2.601562 2.765625 -4.03125 C 1.867188 -5.457031 1.421875 -7.066406 1.421875 -8.859375 Z M 20.046875 -7.3125 C 20.460938 -7.769531 20.804688 -8.226562 21.078125 -8.6875 C 21.347656 -9.144531 21.484375 -9.5625 21.484375 -9.9375 L 21.484375 -12.96875 C 20.566406 -13.34375 19.570312 -13.632812 18.5 -13.84375 C 17.4375 -14.0625 16.429688 -14.171875 15.484375 -14.171875 C 13.503906 -14.171875 11.875 -13.738281 10.59375 -12.875 C 9.320312 -12.019531 8.6875 -10.890625 8.6875 -9.484375 C 8.6875 -8.722656 8.894531 -8 9.3125 -7.3125 C 9.726562 -6.625 10.335938 -6.070312 11.140625 -5.65625 C 11.941406 -5.238281 12.894531 -5.03125 14 -5.03125 C 15.132812 -5.03125 16.253906 -5.25 17.359375 -5.6875 C 18.460938 -6.125 19.359375 -6.664062 20.046875 -7.3125 Z M 20.046875 -7.3125 "/></g></g></g><g fill="#ffffff" fill-opacity="1"><g transform="translate(194.969752, 332.876551)"><g><path d="M 3.484375 0 L 3.484375 -29.9375 L 11.140625 -29.9375 L 11.140625 0 Z M 3.484375 -34.109375 L 3.484375 -41.703125 L 11.140625 -41.703125 L 11.140625 -34.109375 Z M 3.484375 -34.109375 "/></g></g></g><g fill="#ffffff" fill-opacity="1"><g transform="translate(209.534612, 332.876551)"><g><path d="M 14.515625 0.578125 C 11.960938 0.578125 9.523438 0.160156 7.203125 -0.671875 C 4.878906 -1.515625 2.878906 -2.757812 1.203125 -4.40625 L 3.9375 -9.375 C 5.726562 -7.925781 7.488281 -6.859375 9.21875 -6.171875 C 10.957031 -5.484375 12.625 -5.140625 14.21875 -5.140625 C 15.707031 -5.140625 16.898438 -5.40625 17.796875 -5.9375 C 18.691406 -6.46875 19.140625 -7.269531 19.140625 -8.34375 C 19.140625 -9.0625 18.890625 -9.617188 18.390625 -10.015625 C 17.898438 -10.421875 17.1875 -10.773438 16.25 -11.078125 C 15.320312 -11.390625 14.191406 -11.734375 12.859375 -12.109375 C 10.648438 -12.835938 8.800781 -13.539062 7.3125 -14.21875 C 5.820312 -14.90625 4.707031 -15.769531 3.96875 -16.8125 C 3.226562 -17.863281 2.859375 -19.207031 2.859375 -20.84375 C 2.859375 -22.832031 3.363281 -24.539062 4.375 -25.96875 C 5.382812 -27.394531 6.789062 -28.503906 8.59375 -29.296875 C 10.40625 -30.097656 12.53125 -30.5 14.96875 -30.5 C 17.101562 -30.5 19.117188 -30.164062 21.015625 -29.5 C 22.921875 -28.832031 24.65625 -27.757812 26.21875 -26.28125 L 23.140625 -21.421875 C 21.609375 -22.597656 20.15625 -23.460938 18.78125 -24.015625 C 17.414062 -24.566406 16.03125 -24.84375 14.625 -24.84375 C 13.820312 -24.84375 13.066406 -24.75 12.359375 -24.5625 C 11.660156 -24.375 11.09375 -24.0625 10.65625 -23.625 C 10.21875 -23.1875 10 -22.566406 10 -21.765625 C 10 -21.035156 10.195312 -20.472656 10.59375 -20.078125 C 11 -19.679688 11.609375 -19.328125 12.421875 -19.015625 C 13.242188 -18.710938 14.242188 -18.375 15.421875 -18 C 17.816406 -17.3125 19.84375 -16.601562 21.5 -15.875 C 23.164062 -15.15625 24.414062 -14.269531 25.25 -13.21875 C 26.082031 -12.175781 26.5 -10.738281 26.5 -8.90625 C 26.5 -5.9375 25.414062 -3.613281 23.25 -1.9375 C 21.082031 -0.257812 18.171875 0.578125 14.515625 0.578125 Z M 14.515625 0.578125 "/></g></g></g><g fill="#ff6f00" fill-opacity="1"><g transform="translate(237.752582, 332.876551)"><g><path d="M 3.3125 0 L 3.3125 -8.21875 L 9.59375 -8.21875 L 9.59375 0 Z M 3.3125 0 "/></g></g></g><g fill="#ff6f00" fill-opacity="1"><g transform="translate(250.60393, 332.876551)"><g><path d="M 1.65625 -14.96875 C 1.65625 -17.863281 2.222656 -20.476562 3.359375 -22.8125 C 4.503906 -25.15625 6.085938 -27.015625 8.109375 -28.390625 C 10.128906 -29.765625 12.4375 -30.453125 15.03125 -30.453125 C 17.238281 -30.453125 19.226562 -29.90625 21 -28.8125 C 22.769531 -27.726562 24.148438 -26.347656 25.140625 -24.671875 L 25.140625 -41.703125 L 32.796875 -41.703125 L 32.796875 -8.5625 C 32.796875 -7.769531 32.925781 -7.203125 33.1875 -6.859375 C 33.457031 -6.515625 33.914062 -6.304688 34.5625 -6.234375 L 34.5625 0 C 33.226562 0.269531 32.140625 0.40625 31.296875 0.40625 C 29.929688 0.40625 28.800781 0.0625 27.90625 -0.625 C 27.007812 -1.3125 26.503906 -2.207031 26.390625 -3.3125 L 26.28125 -5.203125 C 25.175781 -3.335938 23.679688 -1.90625 21.796875 -0.90625 C 19.910156 0.0820312 17.9375 0.578125 15.875 0.578125 C 13.820312 0.578125 11.925781 0.175781 10.1875 -0.625 C 8.457031 -1.425781 6.953125 -2.53125 5.671875 -3.9375 C 4.398438 -5.351562 3.410156 -7 2.703125 -8.875 C 2.003906 -10.757812 1.65625 -12.789062 1.65625 -14.96875 Z M 25.140625 -10.96875 L 25.140625 -18.109375 C 24.753906 -19.210938 24.140625 -20.203125 23.296875 -21.078125 C 22.460938 -21.953125 21.53125 -22.644531 20.5 -23.15625 C 19.476562 -23.675781 18.453125 -23.9375 17.421875 -23.9375 C 16.242188 -23.9375 15.175781 -23.6875 14.21875 -23.1875 C 13.269531 -22.695312 12.441406 -22.03125 11.734375 -21.1875 C 11.035156 -20.351562 10.503906 -19.382812 10.140625 -18.28125 C 9.773438 -17.175781 9.59375 -16.015625 9.59375 -14.796875 C 9.59375 -13.578125 9.789062 -12.425781 10.1875 -11.34375 C 10.59375 -10.257812 11.175781 -9.316406 11.9375 -8.515625 C 12.695312 -7.710938 13.582031 -7.082031 14.59375 -6.625 C 15.601562 -6.164062 16.695312 -5.9375 17.875 -5.9375 C 18.601562 -5.9375 19.335938 -6.0625 20.078125 -6.3125 C 20.816406 -6.5625 21.519531 -6.90625 22.1875 -7.34375 C 22.851562 -7.78125 23.441406 -8.3125 23.953125 -8.9375 C 24.472656 -9.5625 24.867188 -10.238281 25.140625 -10.96875 Z M 25.140625 -10.96875 "/></g></g></g><g fill="#ff6f00" fill-opacity="1"><g transform="translate(287.444461, 332.876551)"><g><path d="M 17.359375 0.578125 C 14.960938 0.578125 12.789062 0.164062 10.84375 -0.65625 C 8.90625 -1.476562 7.25 -2.601562 5.875 -4.03125 C 4.507812 -5.457031 3.453125 -7.09375 2.703125 -8.9375 C 1.960938 -10.78125 1.59375 -12.734375 1.59375 -14.796875 C 1.59375 -17.648438 2.226562 -20.253906 3.5 -22.609375 C 4.78125 -24.972656 6.609375 -26.867188 8.984375 -28.296875 C 11.367188 -29.734375 14.179688 -30.453125 17.421875 -30.453125 C 20.691406 -30.453125 23.488281 -29.734375 25.8125 -28.296875 C 28.144531 -26.867188 29.925781 -24.984375 31.15625 -22.640625 C 32.394531 -20.304688 33.015625 -17.785156 33.015625 -15.078125 C 33.015625 -14.617188 32.992188 -14.148438 32.953125 -13.671875 C 32.921875 -13.203125 32.882812 -12.816406 32.84375 -12.515625 L 9.71875 -12.515625 C 9.863281 -10.984375 10.304688 -9.644531 11.046875 -8.5 C 11.796875 -7.363281 12.75 -6.5 13.90625 -5.90625 C 15.070312 -5.320312 16.320312 -5.03125 17.65625 -5.03125 C 19.175781 -5.03125 20.613281 -5.398438 21.96875 -6.140625 C 23.320312 -6.878906 24.242188 -7.859375 24.734375 -9.078125 L 31.296875 -7.25 C 30.578125 -5.726562 29.539062 -4.375 28.1875 -3.1875 C 26.832031 -2.007812 25.238281 -1.085938 23.40625 -0.421875 C 21.582031 0.242188 19.566406 0.578125 17.359375 0.578125 Z M 9.546875 -17.359375 L 25.1875 -17.359375 C 25.039062 -18.890625 24.613281 -20.210938 23.90625 -21.328125 C 23.195312 -22.453125 22.269531 -23.328125 21.125 -23.953125 C 19.988281 -24.585938 18.71875 -24.90625 17.3125 -24.90625 C 15.9375 -24.90625 14.6875 -24.585938 13.5625 -23.953125 C 12.4375 -23.328125 11.519531 -22.453125 10.8125 -21.328125 C 10.113281 -20.210938 9.691406 -18.890625 9.546875 -17.359375 Z M 9.546875 -17.359375 "/></g></g></g><g fill="#ff6f00" fill-opacity="1"><g transform="translate(321.657601, 332.876551)"><g><path d="M 11.546875 0 L 0.515625 -29.9375 L 8.453125 -29.9375 L 16 -6.96875 L 23.59375 -29.9375 L 30.84375 -29.9375 L 19.875 0 Z M 11.546875 0 "/></g></g></g><g fill="#ffffff" fill-opacity="1"><g transform="translate(94.648364, 220.907328)"><g><path d="M 48.515625 -7.875 L 151.859375 -7.875 L 151.859375 -164.96875 L 92.84375 -38.5625 L 33.828125 -165.234375 L 33.828125 0 L 25.96875 -0.265625 L 25.96875 -183.859375 L 33.828125 -183.859375 L 92.84375 -57.171875 L 151.859375 -183.59375 L 159.734375 -183.859375 L 159.734375 0 L 48.515625 -0.265625 Z M 48.515625 -7.875 "/></g></g></g></svg>