<svg xmlns="http://www.w3.org/2000/svg" xmlns:xlink="http://www.w3.org/1999/xlink" width="551" zoomAndPan="magnify" viewBox="0 0 413.25 378.749984" height="505" preserveAspectRatio="xMidYMid meet" version="1.0"><defs><g/></defs><g fill="#ff6f00" fill-opacity="1"><g transform="translate(51.852837, 263.342644)"><g><path d="M 51.40625 -166.921875 L 51.40625 -162.6875 L 42.28125 -162.6875 C 40.351562 -162.6875 38.832031 -161.867188 37.71875 -160.234375 C 36.613281 -158.609375 36.0625 -156.460938 36.0625 -153.796875 C 36.0625 -140.441406 36.0625 -128.71875 36.0625 -118.625 C 36.0625 -108.539062 36.0625 -100.710938 36.0625 -95.140625 C 36.0625 -89.578125 35.984375 -86.796875 35.828125 -86.796875 C 35.828125 -83.535156 34.304688 -80.421875 31.265625 -77.453125 C 28.222656 -74.484375 24.109375 -72.257812 18.921875 -70.78125 C 24.109375 -69.289062 28.222656 -67.097656 31.265625 -64.203125 C 34.304688 -61.316406 35.828125 -58.164062 35.828125 -54.75 L 36.0625 12.234375 C 36.0625 14.910156 36.613281 17.0625 37.71875 18.6875 C 38.832031 20.320312 40.351562 21.140625 42.28125 21.140625 L 51.40625 21.140625 L 51.40625 25.59375 L 42.28125 25.59375 C 38.875 25.59375 36.09375 24.367188 33.9375 21.921875 C 31.789062 19.472656 30.71875 16.242188 30.71875 12.234375 L 30.71875 -55.640625 C 30.71875 -59.492188 29.15625 -62.644531 26.03125 -65.09375 C 22.914062 -67.539062 18.765625 -68.765625 13.578125 -68.765625 L 12.234375 -68.765625 L 12.234375 -72.5625 L 13.578125 -72.5625 C 18.765625 -72.5625 22.914062 -73.785156 26.03125 -76.234375 C 29.15625 -78.679688 30.71875 -81.832031 30.71875 -85.6875 L 30.71875 -153.5625 C 30.71875 -157.570312 31.789062 -160.800781 33.9375 -163.25 C 36.09375 -165.695312 38.875 -166.921875 42.28125 -166.921875 Z M 51.40625 -166.921875 "/></g></g></g><g fill="#ff6f00" fill-opacity="1"><g transform="translate(109.719846, 263.342644)"><g/></g></g><g fill="#ff6f00" fill-opacity="1"><g transform="translate(141.768511, 263.342644)"><g/></g></g><g fill="#ff6f00" fill-opacity="1"><g transform="translate(173.817176, 263.342644)"><g/></g></g><g fill="#ff6f00" fill-opacity="1"><g transform="translate(205.865841, 263.342644)"><g/></g></g><g fill="#ff6f00" fill-opacity="1"><g transform="translate(237.914506, 263.342644)"><g/></g></g><g fill="#ff6f00" fill-opacity="1"><g transform="translate(269.963171, 263.342644)"><g/></g></g><g fill="#ff6f00" fill-opacity="1"><g transform="translate(302.018005, 263.342644)"><g><path d="M 6.671875 -166.921875 L 15.578125 -166.921875 C 19.140625 -166.921875 21.992188 -165.695312 24.140625 -163.25 C 26.296875 -160.800781 27.375 -157.570312 27.375 -153.5625 C 27.375 -140.0625 27.375 -128.191406 27.375 -117.953125 C 27.375 -107.722656 27.375 -99.785156 27.375 -94.140625 C 27.375 -88.503906 27.300781 -85.6875 27.15625 -85.6875 C 27.300781 -81.832031 28.96875 -78.679688 32.15625 -76.234375 C 35.351562 -73.785156 39.472656 -72.5625 44.515625 -72.5625 L 45.84375 -72.5625 L 45.84375 -68.765625 L 44.515625 -68.765625 C 39.472656 -68.765625 35.351562 -67.539062 32.15625 -65.09375 C 28.96875 -62.644531 27.300781 -59.492188 27.15625 -55.640625 L 27.375 12.234375 C 27.375 16.242188 26.296875 19.472656 24.140625 21.921875 C 21.992188 24.367188 19.140625 25.59375 15.578125 25.59375 L 6.671875 25.59375 L 6.671875 21.140625 L 15.578125 21.140625 C 17.503906 21.140625 19.0625 20.320312 20.25 18.6875 C 21.4375 17.0625 22.03125 14.910156 22.03125 12.234375 L 22.03125 -54.75 C 22.175781 -58.164062 23.804688 -61.316406 26.921875 -64.203125 C 30.046875 -67.097656 34.128906 -69.289062 39.171875 -70.78125 C 34.128906 -72.257812 30.046875 -74.484375 26.921875 -77.453125 C 23.804688 -80.421875 22.175781 -83.535156 22.03125 -86.796875 L 22.03125 -153.796875 C 22.03125 -156.460938 21.4375 -158.609375 20.25 -160.234375 C 19.0625 -161.867188 17.503906 -162.6875 15.578125 -162.6875 L 6.671875 -162.6875 Z M 6.671875 -166.921875 "/></g></g></g><g fill="#000000" fill-opacity="1"><g transform="translate(81.089645, 365.288861)"><g><path d="M 4.375 -10.984375 C 6.226562 -10.984375 7.65625 -10.5 8.65625 -9.53125 C 9.664062 -8.5625 10.171875 -7.210938 10.171875 -5.484375 C 10.171875 -3.742188 9.664062 -2.394531 8.65625 -1.4375 C 7.65625 -0.476562 6.226562 0 4.375 0 L 1.28125 0 L 1.28125 -10.984375 Z M 4.375 -0.59375 C 6.03125 -0.59375 7.289062 -1.019531 8.15625 -1.875 C 9.019531 -2.738281 9.453125 -3.941406 9.453125 -5.484375 C 9.453125 -7.023438 9.019531 -8.226562 8.15625 -9.09375 C 7.289062 -9.957031 6.03125 -10.390625 4.375 -10.390625 L 1.984375 -10.390625 L 1.984375 -0.59375 Z M 4.375 -0.59375 "/></g></g></g><g fill="#000000" fill-opacity="1"><g transform="translate(92.111524, 365.288861)"><g><path d="M 8.9375 -4.828125 C 8.9375 -4.453125 8.925781 -4.171875 8.90625 -3.984375 L 1.5625 -3.984375 C 1.582031 -3.210938 1.75 -2.566406 2.0625 -2.046875 C 2.375 -1.523438 2.785156 -1.132812 3.296875 -0.875 C 3.816406 -0.613281 4.378906 -0.484375 4.984375 -0.484375 C 5.816406 -0.484375 6.515625 -0.6875 7.078125 -1.09375 C 7.640625 -1.507812 7.992188 -2.070312 8.140625 -2.78125 L 8.875 -2.78125 C 8.707031 -1.914062 8.28125 -1.210938 7.59375 -0.671875 C 6.90625 -0.140625 6.035156 0.125 4.984375 0.125 C 4.179688 0.125 3.46875 -0.0507812 2.84375 -0.40625 C 2.21875 -0.757812 1.726562 -1.265625 1.375 -1.921875 C 1.019531 -2.585938 0.84375 -3.367188 0.84375 -4.265625 C 0.84375 -5.148438 1.015625 -5.921875 1.359375 -6.578125 C 1.710938 -7.234375 2.203125 -7.734375 2.828125 -8.078125 C 3.453125 -8.429688 4.171875 -8.609375 4.984375 -8.609375 C 5.796875 -8.609375 6.5 -8.429688 7.09375 -8.078125 C 7.695312 -7.734375 8.15625 -7.269531 8.46875 -6.6875 C 8.78125 -6.113281 8.9375 -5.492188 8.9375 -4.828125 Z M 8.234375 -4.5625 C 8.265625 -5.3125 8.128906 -5.945312 7.828125 -6.46875 C 7.535156 -6.988281 7.132812 -7.375 6.625 -7.625 C 6.113281 -7.882812 5.5625 -8.015625 4.96875 -8.015625 C 4.375 -8.015625 3.820312 -7.882812 3.3125 -7.625 C 2.800781 -7.375 2.382812 -6.988281 2.0625 -6.46875 C 1.75 -5.945312 1.582031 -5.3125 1.5625 -4.5625 Z M 8.234375 -4.5625 "/></g></g></g><g fill="#000000" fill-opacity="1"><g transform="translate(101.896569, 365.288861)"><g><path d="M 4.125 0.125 C 3.164062 0.125 2.382812 -0.0820312 1.78125 -0.5 C 1.1875 -0.914062 0.851562 -1.507812 0.78125 -2.28125 L 1.5 -2.28125 C 1.550781 -1.726562 1.800781 -1.289062 2.25 -0.96875 C 2.707031 -0.644531 3.332031 -0.484375 4.125 -0.484375 C 4.769531 -0.484375 5.28125 -0.644531 5.65625 -0.96875 C 6.039062 -1.300781 6.234375 -1.707031 6.234375 -2.1875 C 6.234375 -2.519531 6.128906 -2.789062 5.921875 -3 C 5.722656 -3.21875 5.472656 -3.382812 5.171875 -3.5 C 4.867188 -3.613281 4.457031 -3.738281 3.9375 -3.875 C 3.300781 -4.050781 2.789062 -4.21875 2.40625 -4.375 C 2.019531 -4.539062 1.691406 -4.785156 1.421875 -5.109375 C 1.148438 -5.429688 1.015625 -5.863281 1.015625 -6.40625 C 1.015625 -6.800781 1.132812 -7.164062 1.375 -7.5 C 1.613281 -7.84375 1.945312 -8.113281 2.375 -8.3125 C 2.800781 -8.507812 3.285156 -8.609375 3.828125 -8.609375 C 4.722656 -8.609375 5.441406 -8.382812 5.984375 -7.9375 C 6.535156 -7.5 6.832031 -6.890625 6.875 -6.109375 L 6.171875 -6.109375 C 6.140625 -6.671875 5.921875 -7.128906 5.515625 -7.484375 C 5.109375 -7.835938 4.539062 -8.015625 3.8125 -8.015625 C 3.207031 -8.015625 2.707031 -7.859375 2.3125 -7.546875 C 1.914062 -7.234375 1.71875 -6.851562 1.71875 -6.40625 C 1.71875 -6.007812 1.828125 -5.6875 2.046875 -5.4375 C 2.273438 -5.195312 2.550781 -5.007812 2.875 -4.875 C 3.207031 -4.75 3.648438 -4.613281 4.203125 -4.46875 C 4.796875 -4.3125 5.269531 -4.15625 5.625 -4 C 5.988281 -3.84375 6.296875 -3.617188 6.546875 -3.328125 C 6.796875 -3.046875 6.921875 -2.664062 6.921875 -2.1875 C 6.921875 -1.75 6.800781 -1.351562 6.5625 -1 C 6.320312 -0.644531 5.988281 -0.367188 5.5625 -0.171875 C 5.132812 0.0234375 4.65625 0.125 4.125 0.125 Z M 4.125 0.125 "/></g></g></g><g fill="#000000" fill-opacity="1"><g transform="translate(109.677636, 365.288861)"><g><path d="M 0.84375 -4.265625 C 0.84375 -5.140625 1.015625 -5.90625 1.359375 -6.5625 C 1.710938 -7.21875 2.195312 -7.722656 2.8125 -8.078125 C 3.4375 -8.429688 4.148438 -8.609375 4.953125 -8.609375 C 5.847656 -8.609375 6.609375 -8.390625 7.234375 -7.953125 C 7.859375 -7.515625 8.296875 -6.957031 8.546875 -6.28125 L 8.546875 -8.5 L 9.25 -8.5 L 9.25 0 L 8.546875 0 L 8.546875 -2.234375 C 8.296875 -1.546875 7.851562 -0.976562 7.21875 -0.53125 C 6.59375 -0.09375 5.835938 0.125 4.953125 0.125 C 4.148438 0.125 3.4375 -0.0507812 2.8125 -0.40625 C 2.195312 -0.769531 1.710938 -1.28125 1.359375 -1.9375 C 1.015625 -2.601562 0.84375 -3.378906 0.84375 -4.265625 Z M 8.546875 -4.265625 C 8.546875 -5.003906 8.390625 -5.65625 8.078125 -6.21875 C 7.773438 -6.789062 7.359375 -7.226562 6.828125 -7.53125 C 6.296875 -7.84375 5.703125 -8 5.046875 -8 C 4.359375 -8 3.75 -7.847656 3.21875 -7.546875 C 2.695312 -7.253906 2.289062 -6.828125 2 -6.265625 C 1.707031 -5.703125 1.5625 -5.035156 1.5625 -4.265625 C 1.5625 -3.484375 1.707031 -2.8125 2 -2.25 C 2.289062 -1.6875 2.703125 -1.253906 3.234375 -0.953125 C 3.765625 -0.648438 4.367188 -0.5 5.046875 -0.5 C 5.703125 -0.5 6.296875 -0.648438 6.828125 -0.953125 C 7.367188 -1.265625 7.789062 -1.703125 8.09375 -2.265625 C 8.394531 -2.835938 8.546875 -3.503906 8.546875 -4.265625 Z M 8.546875 -4.265625 "/></g></g></g><g fill="#000000" fill-opacity="1"><g transform="translate(120.21418, 365.288861)"><g><path d="M 1.984375 -6.75 C 2.191406 -7.375 2.5625 -7.847656 3.09375 -8.171875 C 3.625 -8.503906 4.304688 -8.671875 5.140625 -8.671875 L 5.140625 -7.9375 L 4.90625 -7.9375 C 4.0625 -7.9375 3.363281 -7.695312 2.8125 -7.21875 C 2.257812 -6.75 1.984375 -5.976562 1.984375 -4.90625 L 1.984375 0 L 1.28125 0 L 1.28125 -8.5 L 1.984375 -8.5 Z M 1.984375 -6.75 "/></g></g></g><g fill="#000000" fill-opacity="1"><g transform="translate(125.693801, 365.288861)"><g><path d="M 1.984375 -6.75 C 2.191406 -7.375 2.5625 -7.847656 3.09375 -8.171875 C 3.625 -8.503906 4.304688 -8.671875 5.140625 -8.671875 L 5.140625 -7.9375 L 4.90625 -7.9375 C 4.0625 -7.9375 3.363281 -7.695312 2.8125 -7.21875 C 2.257812 -6.75 1.984375 -5.976562 1.984375 -4.90625 L 1.984375 0 L 1.28125 0 L 1.28125 -8.5 L 1.984375 -8.5 Z M 1.984375 -6.75 "/></g></g></g><g fill="#000000" fill-opacity="1"><g transform="translate(131.173422, 365.288861)"><g><path d="M 5.03125 0.125 C 4.226562 0.125 3.507812 -0.0507812 2.875 -0.40625 C 2.238281 -0.757812 1.738281 -1.265625 1.375 -1.921875 C 1.019531 -2.585938 0.84375 -3.367188 0.84375 -4.265625 C 0.84375 -5.140625 1.023438 -5.90625 1.390625 -6.5625 C 1.753906 -7.226562 2.253906 -7.734375 2.890625 -8.078125 C 3.535156 -8.429688 4.257812 -8.609375 5.0625 -8.609375 C 5.851562 -8.609375 6.566406 -8.429688 7.203125 -8.078125 C 7.835938 -7.734375 8.332031 -7.234375 8.6875 -6.578125 C 9.050781 -5.921875 9.234375 -5.148438 9.234375 -4.265625 C 9.234375 -3.367188 9.050781 -2.585938 8.6875 -1.921875 C 8.320312 -1.265625 7.816406 -0.757812 7.171875 -0.40625 C 6.535156 -0.0507812 5.820312 0.125 5.03125 0.125 Z M 5.03125 -0.5 C 5.644531 -0.5 6.21875 -0.632812 6.75 -0.90625 C 7.289062 -1.1875 7.722656 -1.609375 8.046875 -2.171875 C 8.367188 -2.734375 8.53125 -3.429688 8.53125 -4.265625 C 8.53125 -5.078125 8.367188 -5.765625 8.046875 -6.328125 C 7.722656 -6.890625 7.296875 -7.304688 6.765625 -7.578125 C 6.234375 -7.859375 5.660156 -8 5.046875 -8 C 4.429688 -8 3.859375 -7.859375 3.328125 -7.578125 C 2.796875 -7.304688 2.367188 -6.890625 2.046875 -6.328125 C 1.722656 -5.765625 1.5625 -5.078125 1.5625 -4.265625 C 1.5625 -3.429688 1.71875 -2.734375 2.03125 -2.171875 C 2.351562 -1.609375 2.78125 -1.1875 3.3125 -0.90625 C 3.84375 -0.632812 4.414062 -0.5 5.03125 -0.5 Z M 5.03125 -0.5 "/></g></g></g><g fill="#000000" fill-opacity="1"><g transform="translate(141.271594, 365.288861)"><g><path d="M 1.984375 -11.578125 L 1.984375 0 L 1.28125 0 L 1.28125 -11.578125 Z M 1.984375 -11.578125 "/></g></g></g><g fill="#000000" fill-opacity="1"><g transform="translate(144.559369, 365.288861)"><g><path d="M 1.984375 -11.578125 L 1.984375 0 L 1.28125 0 L 1.28125 -11.578125 Z M 1.984375 -11.578125 "/></g></g></g><g fill="#000000" fill-opacity="1"><g transform="translate(147.847145, 365.288861)"><g><path d="M 5.03125 0.125 C 4.226562 0.125 3.507812 -0.0507812 2.875 -0.40625 C 2.238281 -0.757812 1.738281 -1.265625 1.375 -1.921875 C 1.019531 -2.585938 0.84375 -3.367188 0.84375 -4.265625 C 0.84375 -5.140625 1.023438 -5.90625 1.390625 -6.5625 C 1.753906 -7.226562 2.253906 -7.734375 2.890625 -8.078125 C 3.535156 -8.429688 4.257812 -8.609375 5.0625 -8.609375 C 5.851562 -8.609375 6.566406 -8.429688 7.203125 -8.078125 C 7.835938 -7.734375 8.332031 -7.234375 8.6875 -6.578125 C 9.050781 -5.921875 9.234375 -5.148438 9.234375 -4.265625 C 9.234375 -3.367188 9.050781 -2.585938 8.6875 -1.921875 C 8.320312 -1.265625 7.816406 -0.757812 7.171875 -0.40625 C 6.535156 -0.0507812 5.820312 0.125 5.03125 0.125 Z M 5.03125 -0.5 C 5.644531 -0.5 6.21875 -0.632812 6.75 -0.90625 C 7.289062 -1.1875 7.722656 -1.609375 8.046875 -2.171875 C 8.367188 -2.734375 8.53125 -3.429688 8.53125 -4.265625 C 8.53125 -5.078125 8.367188 -5.765625 8.046875 -6.328125 C 7.722656 -6.890625 7.296875 -7.304688 6.765625 -7.578125 C 6.234375 -7.859375 5.660156 -8 5.046875 -8 C 4.429688 -8 3.859375 -7.859375 3.328125 -7.578125 C 2.796875 -7.304688 2.367188 -6.890625 2.046875 -6.328125 C 1.722656 -5.765625 1.5625 -5.078125 1.5625 -4.265625 C 1.5625 -3.429688 1.71875 -2.734375 2.03125 -2.171875 C 2.351562 -1.609375 2.78125 -1.1875 3.3125 -0.90625 C 3.84375 -0.632812 4.414062 -0.5 5.03125 -0.5 Z M 5.03125 -0.5 "/></g></g></g><g fill="#000000" fill-opacity="1"><g transform="translate(157.945317, 365.288861)"><g/></g></g><g fill="#000000" fill-opacity="1"><g transform="translate(162.360326, 365.288861)"><g><path d="M 4.125 0.125 C 3.164062 0.125 2.382812 -0.0820312 1.78125 -0.5 C 1.1875 -0.914062 0.851562 -1.507812 0.78125 -2.28125 L 1.5 -2.28125 C 1.550781 -1.726562 1.800781 -1.289062 2.25 -0.96875 C 2.707031 -0.644531 3.332031 -0.484375 4.125 -0.484375 C 4.769531 -0.484375 5.28125 -0.644531 5.65625 -0.96875 C 6.039062 -1.300781 6.234375 -1.707031 6.234375 -2.1875 C 6.234375 -2.519531 6.128906 -2.789062 5.921875 -3 C 5.722656 -3.21875 5.472656 -3.382812 5.171875 -3.5 C 4.867188 -3.613281 4.457031 -3.738281 3.9375 -3.875 C 3.300781 -4.050781 2.789062 -4.21875 2.40625 -4.375 C 2.019531 -4.539062 1.691406 -4.785156 1.421875 -5.109375 C 1.148438 -5.429688 1.015625 -5.863281 1.015625 -6.40625 C 1.015625 -6.800781 1.132812 -7.164062 1.375 -7.5 C 1.613281 -7.84375 1.945312 -8.113281 2.375 -8.3125 C 2.800781 -8.507812 3.285156 -8.609375 3.828125 -8.609375 C 4.722656 -8.609375 5.441406 -8.382812 5.984375 -7.9375 C 6.535156 -7.5 6.832031 -6.890625 6.875 -6.109375 L 6.171875 -6.109375 C 6.140625 -6.671875 5.921875 -7.128906 5.515625 -7.484375 C 5.109375 -7.835938 4.539062 -8.015625 3.8125 -8.015625 C 3.207031 -8.015625 2.707031 -7.859375 2.3125 -7.546875 C 1.914062 -7.234375 1.71875 -6.851562 1.71875 -6.40625 C 1.71875 -6.007812 1.828125 -5.6875 2.046875 -5.4375 C 2.273438 -5.195312 2.550781 -5.007812 2.875 -4.875 C 3.207031 -4.75 3.648438 -4.613281 4.203125 -4.46875 C 4.796875 -4.3125 5.269531 -4.15625 5.625 -4 C 5.988281 -3.84375 6.296875 -3.617188 6.546875 -3.328125 C 6.796875 -3.046875 6.921875 -2.664062 6.921875 -2.1875 C 6.921875 -1.75 6.800781 -1.351562 6.5625 -1 C 6.320312 -0.644531 5.988281 -0.367188 5.5625 -0.171875 C 5.132812 0.0234375 4.65625 0.125 4.125 0.125 Z M 4.125 0.125 "/></g></g></g><g fill="#000000" fill-opacity="1"><g transform="translate(170.141393, 365.288861)"><g><path d="M 5.03125 0.125 C 4.226562 0.125 3.507812 -0.0507812 2.875 -0.40625 C 2.238281 -0.757812 1.738281 -1.265625 1.375 -1.921875 C 1.019531 -2.585938 0.84375 -3.367188 0.84375 -4.265625 C 0.84375 -5.140625 1.023438 -5.90625 1.390625 -6.5625 C 1.753906 -7.226562 2.253906 -7.734375 2.890625 -8.078125 C 3.535156 -8.429688 4.257812 -8.609375 5.0625 -8.609375 C 5.851562 -8.609375 6.566406 -8.429688 7.203125 -8.078125 C 7.835938 -7.734375 8.332031 -7.234375 8.6875 -6.578125 C 9.050781 -5.921875 9.234375 -5.148438 9.234375 -4.265625 C 9.234375 -3.367188 9.050781 -2.585938 8.6875 -1.921875 C 8.320312 -1.265625 7.816406 -0.757812 7.171875 -0.40625 C 6.535156 -0.0507812 5.820312 0.125 5.03125 0.125 Z M 5.03125 -0.5 C 5.644531 -0.5 6.21875 -0.632812 6.75 -0.90625 C 7.289062 -1.1875 7.722656 -1.609375 8.046875 -2.171875 C 8.367188 -2.734375 8.53125 -3.429688 8.53125 -4.265625 C 8.53125 -5.078125 8.367188 -5.765625 8.046875 -6.328125 C 7.722656 -6.890625 7.296875 -7.304688 6.765625 -7.578125 C 6.234375 -7.859375 5.660156 -8 5.046875 -8 C 4.429688 -8 3.859375 -7.859375 3.328125 -7.578125 C 2.796875 -7.304688 2.367188 -6.890625 2.046875 -6.328125 C 1.722656 -5.765625 1.5625 -5.078125 1.5625 -4.265625 C 1.5625 -3.429688 1.71875 -2.734375 2.03125 -2.171875 C 2.351562 -1.609375 2.78125 -1.1875 3.3125 -0.90625 C 3.84375 -0.632812 4.414062 -0.5 5.03125 -0.5 Z M 5.03125 -0.5 "/></g></g></g><g fill="#000000" fill-opacity="1"><g transform="translate(180.239565, 365.288861)"><g><path d="M 4.53125 -7.875 L 2.3125 -7.875 L 2.3125 0 L 1.609375 0 L 1.609375 -7.875 L 0.328125 -7.875 L 0.328125 -8.5 L 1.609375 -8.5 L 1.609375 -9.09375 C 1.609375 -9.976562 1.832031 -10.632812 2.28125 -11.0625 C 2.726562 -11.5 3.46875 -11.71875 4.5 -11.71875 L 4.5 -11.09375 C 3.675781 -11.09375 3.101562 -10.9375 2.78125 -10.625 C 2.46875 -10.3125 2.3125 -9.800781 2.3125 -9.09375 L 2.3125 -8.5 L 4.53125 -8.5 Z M 4.53125 -7.875 "/></g></g></g><g fill="#000000" fill-opacity="1"><g transform="translate(185.280829, 365.288861)"><g><path d="M 2.328125 -7.890625 L 2.328125 -2.265625 C 2.328125 -1.640625 2.441406 -1.207031 2.671875 -0.96875 C 2.898438 -0.738281 3.304688 -0.625 3.890625 -0.625 L 4.859375 -0.625 L 4.859375 0 L 3.78125 0 C 3.039062 0 2.492188 -0.171875 2.140625 -0.515625 C 1.796875 -0.867188 1.625 -1.453125 1.625 -2.265625 L 1.625 -7.890625 L 0.34375 -7.890625 L 0.34375 -8.5 L 1.625 -8.5 L 1.625 -10.65625 L 2.328125 -10.65625 L 2.328125 -8.5 L 4.859375 -8.5 L 4.859375 -7.890625 Z M 2.328125 -7.890625 "/></g></g></g><g fill="#000000" fill-opacity="1"><g transform="translate(190.713487, 365.288861)"><g><path d="M 12.40625 -8.5 L 9.71875 0 L 9.046875 0 L 6.34375 -7.53125 L 3.609375 0 L 2.9375 0 L 0.265625 -8.5 L 1 -8.5 L 3.28125 -0.796875 L 6.015625 -8.5 L 6.6875 -8.5 L 9.390625 -0.828125 L 11.671875 -8.5 Z M 12.40625 -8.5 "/></g></g></g><g fill="#000000" fill-opacity="1"><g transform="translate(203.379254, 365.288861)"><g><path d="M 0.84375 -4.265625 C 0.84375 -5.140625 1.015625 -5.90625 1.359375 -6.5625 C 1.710938 -7.21875 2.195312 -7.722656 2.8125 -8.078125 C 3.4375 -8.429688 4.148438 -8.609375 4.953125 -8.609375 C 5.847656 -8.609375 6.609375 -8.390625 7.234375 -7.953125 C 7.859375 -7.515625 8.296875 -6.957031 8.546875 -6.28125 L 8.546875 -8.5 L 9.25 -8.5 L 9.25 0 L 8.546875 0 L 8.546875 -2.234375 C 8.296875 -1.546875 7.851562 -0.976562 7.21875 -0.53125 C 6.59375 -0.09375 5.835938 0.125 4.953125 0.125 C 4.148438 0.125 3.4375 -0.0507812 2.8125 -0.40625 C 2.195312 -0.769531 1.710938 -1.28125 1.359375 -1.9375 C 1.015625 -2.601562 0.84375 -3.378906 0.84375 -4.265625 Z M 8.546875 -4.265625 C 8.546875 -5.003906 8.390625 -5.65625 8.078125 -6.21875 C 7.773438 -6.789062 7.359375 -7.226562 6.828125 -7.53125 C 6.296875 -7.84375 5.703125 -8 5.046875 -8 C 4.359375 -8 3.75 -7.847656 3.21875 -7.546875 C 2.695312 -7.253906 2.289062 -6.828125 2 -6.265625 C 1.707031 -5.703125 1.5625 -5.035156 1.5625 -4.265625 C 1.5625 -3.484375 1.707031 -2.8125 2 -2.25 C 2.289062 -1.6875 2.703125 -1.253906 3.234375 -0.953125 C 3.765625 -0.648438 4.367188 -0.5 5.046875 -0.5 C 5.703125 -0.5 6.296875 -0.648438 6.828125 -0.953125 C 7.367188 -1.265625 7.789062 -1.703125 8.09375 -2.265625 C 8.394531 -2.835938 8.546875 -3.503906 8.546875 -4.265625 Z M 8.546875 -4.265625 "/></g></g></g><g fill="#000000" fill-opacity="1"><g transform="translate(213.915798, 365.288861)"><g><path d="M 1.984375 -6.75 C 2.191406 -7.375 2.5625 -7.847656 3.09375 -8.171875 C 3.625 -8.503906 4.304688 -8.671875 5.140625 -8.671875 L 5.140625 -7.9375 L 4.90625 -7.9375 C 4.0625 -7.9375 3.363281 -7.695312 2.8125 -7.21875 C 2.257812 -6.75 1.984375 -5.976562 1.984375 -4.90625 L 1.984375 0 L 1.28125 0 L 1.28125 -8.5 L 1.984375 -8.5 Z M 1.984375 -6.75 "/></g></g></g><g fill="#000000" fill-opacity="1"><g transform="translate(219.395419, 365.288861)"><g><path d="M 8.9375 -4.828125 C 8.9375 -4.453125 8.925781 -4.171875 8.90625 -3.984375 L 1.5625 -3.984375 C 1.582031 -3.210938 1.75 -2.566406 2.0625 -2.046875 C 2.375 -1.523438 2.785156 -1.132812 3.296875 -0.875 C 3.816406 -0.613281 4.378906 -0.484375 4.984375 -0.484375 C 5.816406 -0.484375 6.515625 -0.6875 7.078125 -1.09375 C 7.640625 -1.507812 7.992188 -2.070312 8.140625 -2.78125 L 8.875 -2.78125 C 8.707031 -1.914062 8.28125 -1.210938 7.59375 -0.671875 C 6.90625 -0.140625 6.035156 0.125 4.984375 0.125 C 4.179688 0.125 3.46875 -0.0507812 2.84375 -0.40625 C 2.21875 -0.757812 1.726562 -1.265625 1.375 -1.921875 C 1.019531 -2.585938 0.84375 -3.367188 0.84375 -4.265625 C 0.84375 -5.148438 1.015625 -5.921875 1.359375 -6.578125 C 1.710938 -7.234375 2.203125 -7.734375 2.828125 -8.078125 C 3.453125 -8.429688 4.171875 -8.609375 4.984375 -8.609375 C 5.796875 -8.609375 6.5 -8.429688 7.09375 -8.078125 C 7.695312 -7.734375 8.15625 -7.269531 8.46875 -6.6875 C 8.78125 -6.113281 8.9375 -5.492188 8.9375 -4.828125 Z M 8.234375 -4.5625 C 8.265625 -5.3125 8.128906 -5.945312 7.828125 -6.46875 C 7.535156 -6.988281 7.132812 -7.375 6.625 -7.625 C 6.113281 -7.882812 5.5625 -8.015625 4.96875 -8.015625 C 4.375 -8.015625 3.820312 -7.882812 3.3125 -7.625 C 2.800781 -7.375 2.382812 -6.988281 2.0625 -6.46875 C 1.75 -5.945312 1.582031 -5.3125 1.5625 -4.5625 Z M 8.234375 -4.5625 "/></g></g></g><g fill="#000000" fill-opacity="1"><g transform="translate(229.180464, 365.288861)"><g/></g></g><g fill="#000000" fill-opacity="1"><g transform="translate(233.595473, 365.288861)"><g><path d="M 9.5 -3.796875 C 9.125 -3.140625 8.765625 -2.582031 8.421875 -2.125 L 10.484375 0 L 9.59375 0 L 8.015625 -1.609375 C 7.484375 -0.992188 6.914062 -0.539062 6.3125 -0.25 C 5.71875 0.03125 5.039062 0.171875 4.28125 0.171875 C 3.570312 0.171875 2.941406 0.0351562 2.390625 -0.234375 C 1.835938 -0.515625 1.40625 -0.898438 1.09375 -1.390625 C 0.789062 -1.890625 0.640625 -2.460938 0.640625 -3.109375 C 0.640625 -3.898438 0.859375 -4.578125 1.296875 -5.140625 C 1.742188 -5.710938 2.390625 -6.160156 3.234375 -6.484375 C 2.828125 -6.910156 2.53125 -7.304688 2.34375 -7.671875 C 2.164062 -8.046875 2.078125 -8.441406 2.078125 -8.859375 C 2.078125 -9.523438 2.3125 -10.066406 2.78125 -10.484375 C 3.257812 -10.898438 3.890625 -11.109375 4.671875 -11.109375 C 5.128906 -11.109375 5.550781 -11.015625 5.9375 -10.828125 C 6.320312 -10.640625 6.625 -10.375 6.84375 -10.03125 C 7.0625 -9.6875 7.171875 -9.285156 7.171875 -8.828125 L 6.46875 -8.828125 C 6.46875 -9.347656 6.289062 -9.757812 5.9375 -10.0625 C 5.582031 -10.363281 5.15625 -10.515625 4.65625 -10.515625 C 4.09375 -10.515625 3.640625 -10.359375 3.296875 -10.046875 C 2.953125 -9.742188 2.78125 -9.347656 2.78125 -8.859375 C 2.78125 -8.492188 2.875 -8.144531 3.0625 -7.8125 C 3.25 -7.488281 3.550781 -7.117188 3.96875 -6.703125 L 7.953125 -2.59375 C 8.242188 -3.007812 8.570312 -3.523438 8.9375 -4.140625 L 9.8125 -5.65625 L 10.5625 -5.65625 Z M 4.28125 -0.453125 C 4.945312 -0.453125 5.535156 -0.582031 6.046875 -0.84375 C 6.566406 -1.101562 7.066406 -1.519531 7.546875 -2.09375 L 3.6875 -6.015625 L 3.640625 -6 C 2.109375 -5.4375 1.34375 -4.476562 1.34375 -3.125 C 1.34375 -2.613281 1.46875 -2.15625 1.71875 -1.75 C 1.96875 -1.34375 2.3125 -1.023438 2.75 -0.796875 C 3.195312 -0.566406 3.707031 -0.453125 4.28125 -0.453125 Z M 4.28125 -0.453125 "/></g></g></g><g fill="#000000" fill-opacity="1"><g transform="translate(244.492108, 365.288861)"><g/></g></g><g fill="#000000" fill-opacity="1"><g transform="translate(248.907117, 365.288861)"><g><path d="M 0.84375 -5.484375 C 0.84375 -6.566406 1.066406 -7.53125 1.515625 -8.375 C 1.972656 -9.226562 2.601562 -9.894531 3.40625 -10.375 C 4.207031 -10.851562 5.101562 -11.09375 6.09375 -11.09375 C 7.34375 -11.09375 8.394531 -10.800781 9.25 -10.21875 C 10.101562 -9.632812 10.726562 -8.816406 11.125 -7.765625 L 10.3125 -7.765625 C 10 -8.597656 9.476562 -9.253906 8.75 -9.734375 C 8.03125 -10.222656 7.144531 -10.46875 6.09375 -10.46875 C 5.25 -10.46875 4.476562 -10.265625 3.78125 -9.859375 C 3.09375 -9.460938 2.550781 -8.882812 2.15625 -8.125 C 1.757812 -7.375 1.5625 -6.492188 1.5625 -5.484375 C 1.5625 -4.484375 1.757812 -3.609375 2.15625 -2.859375 C 2.550781 -2.109375 3.09375 -1.53125 3.78125 -1.125 C 4.476562 -0.71875 5.25 -0.515625 6.09375 -0.515625 C 7.144531 -0.515625 8.03125 -0.753906 8.75 -1.234375 C 9.476562 -1.722656 10 -2.382812 10.3125 -3.21875 L 11.125 -3.21875 C 10.726562 -2.164062 10.101562 -1.347656 9.25 -0.765625 C 8.394531 -0.179688 7.34375 0.109375 6.09375 0.109375 C 5.101562 0.109375 4.207031 -0.125 3.40625 -0.59375 C 2.601562 -1.070312 1.972656 -1.734375 1.515625 -2.578125 C 1.066406 -3.429688 0.84375 -4.398438 0.84375 -5.484375 Z M 0.84375 -5.484375 "/></g></g></g><g fill="#000000" fill-opacity="1"><g transform="translate(260.962304, 365.288861)"><g><path d="M 5.03125 0.125 C 4.226562 0.125 3.507812 -0.0507812 2.875 -0.40625 C 2.238281 -0.757812 1.738281 -1.265625 1.375 -1.921875 C 1.019531 -2.585938 0.84375 -3.367188 0.84375 -4.265625 C 0.84375 -5.140625 1.023438 -5.90625 1.390625 -6.5625 C 1.753906 -7.226562 2.253906 -7.734375 2.890625 -8.078125 C 3.535156 -8.429688 4.257812 -8.609375 5.0625 -8.609375 C 5.851562 -8.609375 6.566406 -8.429688 7.203125 -8.078125 C 7.835938 -7.734375 8.332031 -7.234375 8.6875 -6.578125 C 9.050781 -5.921875 9.234375 -5.148438 9.234375 -4.265625 C 9.234375 -3.367188 9.050781 -2.585938 8.6875 -1.921875 C 8.320312 -1.265625 7.816406 -0.757812 7.171875 -0.40625 C 6.535156 -0.0507812 5.820312 0.125 5.03125 0.125 Z M 5.03125 -0.5 C 5.644531 -0.5 6.21875 -0.632812 6.75 -0.90625 C 7.289062 -1.1875 7.722656 -1.609375 8.046875 -2.171875 C 8.367188 -2.734375 8.53125 -3.429688 8.53125 -4.265625 C 8.53125 -5.078125 8.367188 -5.765625 8.046875 -6.328125 C 7.722656 -6.890625 7.296875 -7.304688 6.765625 -7.578125 C 6.234375 -7.859375 5.660156 -8 5.046875 -8 C 4.429688 -8 3.859375 -7.859375 3.328125 -7.578125 C 2.796875 -7.304688 2.367188 -6.890625 2.046875 -6.328125 C 1.722656 -5.765625 1.5625 -5.078125 1.5625 -4.265625 C 1.5625 -3.429688 1.71875 -2.734375 2.03125 -2.171875 C 2.351562 -1.609375 2.78125 -1.1875 3.3125 -0.90625 C 3.84375 -0.632812 4.414062 -0.5 5.03125 -0.5 Z M 5.03125 -0.5 "/></g></g></g><g fill="#000000" fill-opacity="1"><g transform="translate(271.060477, 365.288861)"><g><path d="M 5.125 -8.671875 C 6.132812 -8.671875 6.957031 -8.359375 7.59375 -7.734375 C 8.226562 -7.117188 8.546875 -6.203125 8.546875 -4.984375 L 8.546875 0 L 7.859375 0 L 7.859375 -4.9375 C 7.859375 -5.945312 7.601562 -6.71875 7.09375 -7.25 C 6.582031 -7.789062 5.890625 -8.0625 5.015625 -8.0625 C 4.085938 -8.0625 3.347656 -7.769531 2.796875 -7.1875 C 2.253906 -6.601562 1.984375 -5.738281 1.984375 -4.59375 L 1.984375 0 L 1.28125 0 L 1.28125 -8.5 L 1.984375 -8.5 L 1.984375 -6.703125 C 2.222656 -7.335938 2.625 -7.820312 3.1875 -8.15625 C 3.75 -8.5 4.394531 -8.671875 5.125 -8.671875 Z M 5.125 -8.671875 "/></g></g></g><g fill="#000000" fill-opacity="1"><g transform="translate(280.814218, 365.288861)"><g><path d="M 4.125 0.125 C 3.164062 0.125 2.382812 -0.0820312 1.78125 -0.5 C 1.1875 -0.914062 0.851562 -1.507812 0.78125 -2.28125 L 1.5 -2.28125 C 1.550781 -1.726562 1.800781 -1.289062 2.25 -0.96875 C 2.707031 -0.644531 3.332031 -0.484375 4.125 -0.484375 C 4.769531 -0.484375 5.28125 -0.644531 5.65625 -0.96875 C 6.039062 -1.300781 6.234375 -1.707031 6.234375 -2.1875 C 6.234375 -2.519531 6.128906 -2.789062 5.921875 -3 C 5.722656 -3.21875 5.472656 -3.382812 5.171875 -3.5 C 4.867188 -3.613281 4.457031 -3.738281 3.9375 -3.875 C 3.300781 -4.050781 2.789062 -4.21875 2.40625 -4.375 C 2.019531 -4.539062 1.691406 -4.785156 1.421875 -5.109375 C 1.148438 -5.429688 1.015625 -5.863281 1.015625 -6.40625 C 1.015625 -6.800781 1.132812 -7.164062 1.375 -7.5 C 1.613281 -7.84375 1.945312 -8.113281 2.375 -8.3125 C 2.800781 -8.507812 3.285156 -8.609375 3.828125 -8.609375 C 4.722656 -8.609375 5.441406 -8.382812 5.984375 -7.9375 C 6.535156 -7.5 6.832031 -6.890625 6.875 -6.109375 L 6.171875 -6.109375 C 6.140625 -6.671875 5.921875 -7.128906 5.515625 -7.484375 C 5.109375 -7.835938 4.539062 -8.015625 3.8125 -8.015625 C 3.207031 -8.015625 2.707031 -7.859375 2.3125 -7.546875 C 1.914062 -7.234375 1.71875 -6.851562 1.71875 -6.40625 C 1.71875 -6.007812 1.828125 -5.6875 2.046875 -5.4375 C 2.273438 -5.195312 2.550781 -5.007812 2.875 -4.875 C 3.207031 -4.75 3.648438 -4.613281 4.203125 -4.46875 C 4.796875 -4.3125 5.269531 -4.15625 5.625 -4 C 5.988281 -3.84375 6.296875 -3.617188 6.546875 -3.328125 C 6.796875 -3.046875 6.921875 -2.664062 6.921875 -2.1875 C 6.921875 -1.75 6.800781 -1.351562 6.5625 -1 C 6.320312 -0.644531 5.988281 -0.367188 5.5625 -0.171875 C 5.132812 0.0234375 4.65625 0.125 4.125 0.125 Z M 4.125 0.125 "/></g></g></g><g fill="#000000" fill-opacity="1"><g transform="translate(288.595285, 365.288861)"><g><path d="M 8.46875 -8.5 L 8.46875 0 L 7.765625 0 L 7.765625 -1.84375 C 7.523438 -1.195312 7.125 -0.703125 6.5625 -0.359375 C 6.007812 -0.0234375 5.375 0.140625 4.65625 0.140625 C 3.632812 0.140625 2.800781 -0.164062 2.15625 -0.78125 C 1.519531 -1.40625 1.203125 -2.328125 1.203125 -3.546875 L 1.203125 -8.5 L 1.890625 -8.5 L 1.890625 -3.59375 C 1.890625 -2.582031 2.144531 -1.804688 2.65625 -1.265625 C 3.164062 -0.734375 3.863281 -0.46875 4.75 -0.46875 C 5.664062 -0.46875 6.394531 -0.757812 6.9375 -1.34375 C 7.488281 -1.925781 7.765625 -2.796875 7.765625 -3.953125 L 7.765625 -8.5 Z M 8.46875 -8.5 "/></g></g></g><g fill="#000000" fill-opacity="1"><g transform="translate(298.349026, 365.288861)"><g><path d="M 1.984375 -11.578125 L 1.984375 0 L 1.28125 0 L 1.28125 -11.578125 Z M 1.984375 -11.578125 "/></g></g></g><g fill="#000000" fill-opacity="1"><g transform="translate(301.636801, 365.288861)"><g><path d="M 2.328125 -7.890625 L 2.328125 -2.265625 C 2.328125 -1.640625 2.441406 -1.207031 2.671875 -0.96875 C 2.898438 -0.738281 3.304688 -0.625 3.890625 -0.625 L 4.859375 -0.625 L 4.859375 0 L 3.78125 0 C 3.039062 0 2.492188 -0.171875 2.140625 -0.515625 C 1.796875 -0.867188 1.625 -1.453125 1.625 -2.265625 L 1.625 -7.890625 L 0.34375 -7.890625 L 0.34375 -8.5 L 1.625 -8.5 L 1.625 -10.65625 L 2.328125 -10.65625 L 2.328125 -8.5 L 4.859375 -8.5 L 4.859375 -7.890625 Z M 2.328125 -7.890625 "/></g></g></g><g fill="#000000" fill-opacity="1"><g transform="translate(307.069459, 365.288861)"><g><path d="M 1.640625 -10.390625 C 1.472656 -10.390625 1.332031 -10.441406 1.21875 -10.546875 C 1.101562 -10.660156 1.046875 -10.8125 1.046875 -11 C 1.046875 -11.175781 1.101562 -11.320312 1.21875 -11.4375 C 1.332031 -11.550781 1.472656 -11.609375 1.640625 -11.609375 C 1.804688 -11.609375 1.945312 -11.550781 2.0625 -11.4375 C 2.175781 -11.320312 2.234375 -11.175781 2.234375 -11 C 2.234375 -10.8125 2.175781 -10.660156 2.0625 -10.546875 C 1.945312 -10.441406 1.804688 -10.390625 1.640625 -10.390625 Z M 1.984375 -8.5 L 1.984375 0 L 1.28125 0 L 1.28125 -8.5 Z M 1.984375 -8.5 "/></g></g></g><g fill="#000000" fill-opacity="1"><g transform="translate(310.357235, 365.288861)"><g><path d="M 5.125 -8.671875 C 6.132812 -8.671875 6.957031 -8.359375 7.59375 -7.734375 C 8.226562 -7.117188 8.546875 -6.203125 8.546875 -4.984375 L 8.546875 0 L 7.859375 0 L 7.859375 -4.9375 C 7.859375 -5.945312 7.601562 -6.71875 7.09375 -7.25 C 6.582031 -7.789062 5.890625 -8.0625 5.015625 -8.0625 C 4.085938 -8.0625 3.347656 -7.769531 2.796875 -7.1875 C 2.253906 -6.601562 1.984375 -5.738281 1.984375 -4.59375 L 1.984375 0 L 1.28125 0 L 1.28125 -8.5 L 1.984375 -8.5 L 1.984375 -6.703125 C 2.222656 -7.335938 2.625 -7.820312 3.1875 -8.15625 C 3.75 -8.5 4.394531 -8.671875 5.125 -8.671875 Z M 5.125 -8.671875 "/></g></g></g><g fill="#000000" fill-opacity="1"><g transform="translate(320.110976, 365.288861)"><g><path d="M 4.953125 -8.609375 C 5.847656 -8.609375 6.609375 -8.390625 7.234375 -7.953125 C 7.859375 -7.523438 8.296875 -6.972656 8.546875 -6.296875 L 8.546875 -8.5 L 9.25 -8.5 L 9.25 0.265625 C 9.25 1.046875 9.078125 1.726562 8.734375 2.3125 C 8.390625 2.90625 7.925781 3.363281 7.34375 3.6875 C 6.757812 4.007812 6.109375 4.171875 5.390625 4.171875 C 4.316406 4.171875 3.429688 3.910156 2.734375 3.390625 C 2.035156 2.878906 1.578125 2.191406 1.359375 1.328125 L 2.0625 1.328125 C 2.269531 2.003906 2.660156 2.539062 3.234375 2.9375 C 3.816406 3.34375 4.535156 3.546875 5.390625 3.546875 C 5.984375 3.546875 6.519531 3.410156 7 3.140625 C 7.476562 2.878906 7.851562 2.5 8.125 2 C 8.40625 1.507812 8.546875 0.929688 8.546875 0.265625 L 8.546875 -2.21875 C 8.296875 -1.539062 7.851562 -0.976562 7.21875 -0.53125 C 6.59375 -0.09375 5.835938 0.125 4.953125 0.125 C 4.148438 0.125 3.4375 -0.0507812 2.8125 -0.40625 C 2.195312 -0.769531 1.710938 -1.28125 1.359375 -1.9375 C 1.015625 -2.601562 0.84375 -3.378906 0.84375 -4.265625 C 0.84375 -5.140625 1.015625 -5.90625 1.359375 -6.5625 C 1.710938 -7.21875 2.195312 -7.722656 2.8125 -8.078125 C 3.4375 -8.429688 4.148438 -8.609375 4.953125 -8.609375 Z M 8.546875 -4.265625 C 8.546875 -5.003906 8.390625 -5.65625 8.078125 -6.21875 C 7.773438 -6.789062 7.359375 -7.226562 6.828125 -7.53125 C 6.296875 -7.84375 5.703125 -8 5.046875 -8 C 4.359375 -8 3.75 -7.847656 3.21875 -7.546875 C 2.695312 -7.253906 2.289062 -6.828125 2 -6.265625 C 1.707031 -5.703125 1.5625 -5.035156 1.5625 -4.265625 C 1.5625 -3.484375 1.707031 -2.8125 2 -2.25 C 2.289062 -1.6875 2.703125 -1.253906 3.234375 -0.953125 C 3.765625 -0.648438 4.367188 -0.5 5.046875 -0.5 C 5.703125 -0.5 6.296875 -0.648438 6.828125 -0.953125 C 7.367188 -1.265625 7.789062 -1.703125 8.09375 -2.265625 C 8.394531 -2.835938 8.546875 -3.503906 8.546875 -4.265625 Z M 8.546875 -4.265625 "/></g></g></g><g fill="#000000" fill-opacity="1"><g transform="translate(78.040173, 345.7227)"><g><path d="M 8.59375 -1.390625 L 26.875 -1.390625 L 26.875 -29.203125 L 16.4375 -6.828125 L 5.984375 -29.25 L 5.984375 0 L 4.59375 -0.046875 L 4.59375 -32.546875 L 5.984375 -32.546875 L 16.4375 -10.125 L 26.875 -32.5 L 28.265625 -32.546875 L 28.265625 0 L 8.59375 -0.046875 Z M 8.59375 -1.390625 "/></g></g></g><g fill="#000000" fill-opacity="1"><g transform="translate(110.90255, 345.7227)"><g><path d="M 5.4375 -1.390625 L 22.515625 -1.390625 L 12.671875 -28.453125 L 2.328125 0 L 0.828125 0 L 12.671875 -32.546875 L 24.515625 0 L 5.4375 0 Z M 5.4375 -1.390625 "/></g></g></g><g fill="#000000" fill-opacity="1"><g transform="translate(136.24557, 345.7227)"><g><path d="M 24 -1.390625 L 24 0 L 4.59375 0 L 4.59375 -32.5 L 5.984375 -32.5 L 5.984375 -1.390625 Z M 24 -1.390625 "/></g></g></g><g fill="#000000" fill-opacity="1"><g transform="translate(160.938771, 345.7227)"><g><path d="M 16.109375 -15.59375 L 15.40625 -16.796875 L 18.015625 -18.296875 C 20.148438 -19.460938 21.21875 -21.332031 21.21875 -23.90625 C 21.21875 -28.707031 17.566406 -31.109375 10.265625 -31.109375 L 5.984375 -31.109375 L 5.984375 0 L 4.59375 0 L 4.59375 -32.5 L 10.265625 -32.5 C 14.347656 -32.5 17.425781 -31.75 19.5 -30.25 C 21.570312 -28.75 22.609375 -26.632812 22.609375 -23.90625 C 22.609375 -20.8125 21.304688 -18.535156 18.703125 -17.078125 Z M 16.109375 -15.59375 "/></g></g></g><g fill="#000000" fill-opacity="1"><g transform="translate(185.353472, 345.7227)"><g><path d="M 5.4375 -1.390625 L 22.515625 -1.390625 L 12.671875 -28.453125 L 2.328125 0 L 0.828125 0 L 12.671875 -32.546875 L 24.515625 0 L 5.4375 0 Z M 5.4375 -1.390625 "/></g></g></g><g fill="#000000" fill-opacity="1"><g transform="translate(210.696491, 345.7227)"><g><path d="M 8.78125 -39.921875 L 3.34375 -33.46875 L 2.28125 -34.359375 L 7.703125 -40.84375 Z M 5.984375 0 L 4.59375 0 L 4.59375 -32.5 L 5.984375 -32.5 Z M 5.984375 0 "/></g></g></g><g fill="#000000" fill-opacity="1"><g transform="translate(221.279285, 345.7227)"><g><path d="M 3.625 -24.46875 C 3.625 -27.46875 4.378906 -29.628906 5.890625 -30.953125 C 7.410156 -32.285156 9.875 -32.953125 13.28125 -32.953125 C 15.65625 -32.953125 17.570312 -32.332031 19.03125 -31.09375 C 20.488281 -29.863281 21.539062 -27.976562 22.1875 -25.4375 L 17.875 -22.1875 L 15.59375 -22.1875 L 20.609375 -25.953125 C 19.960938 -28.023438 19.023438 -29.476562 17.796875 -30.3125 C 16.578125 -31.144531 15.070312 -31.5625 13.28125 -31.5625 C 12.039062 -31.5625 10.992188 -31.484375 10.140625 -31.328125 C 9.285156 -31.179688 8.429688 -30.878906 7.578125 -30.421875 C 6.734375 -29.972656 6.09375 -29.253906 5.65625 -28.265625 C 5.226562 -27.273438 5.015625 -26.007812 5.015625 -24.46875 C 5.015625 -23.101562 5.640625 -21.894531 6.890625 -20.84375 C 8.148438 -19.789062 9.675781 -18.890625 11.46875 -18.140625 C 13.257812 -17.398438 15.0625 -16.644531 16.875 -15.875 C 18.6875 -15.101562 20.21875 -14.113281 21.46875 -12.90625 C 22.71875 -11.695312 23.34375 -10.304688 23.34375 -8.734375 C 23.34375 -5.628906 22.578125 -3.316406 21.046875 -1.796875 C 19.515625 -0.285156 16.894531 0.46875 13.1875 0.46875 C 10.15625 0.46875 7.769531 -0.140625 6.03125 -1.359375 C 4.300781 -2.585938 3.109375 -4.488281 2.453125 -7.0625 L 3.765625 -7.609375 C 4.378906 -5.109375 5.4375 -3.367188 6.9375 -2.390625 C 8.4375 -1.410156 10.519531 -0.921875 13.1875 -0.921875 C 16.15625 -0.921875 18.359375 -1.492188 19.796875 -2.640625 C 21.234375 -3.785156 21.953125 -5.816406 21.953125 -8.734375 C 21.953125 -10.085938 21.328125 -11.289062 20.078125 -12.34375 C 18.828125 -13.394531 17.296875 -14.289062 15.484375 -15.03125 C 13.671875 -15.78125 11.863281 -16.539062 10.0625 -17.3125 C 8.269531 -18.082031 6.75 -19.070312 5.5 -20.28125 C 4.25 -21.488281 3.625 -22.882812 3.625 -24.46875 Z M 3.625 -24.46875 "/></g></g></g><g fill="#ff6f00" fill-opacity="1"><g transform="translate(247.326681, 345.7227)"><g><path d="M 3.671875 -2.6875 L 6.734375 -2.6875 L 6.734375 0 L 3.671875 0 Z M 3.671875 -2.6875 "/></g></g></g><g fill="#ff6f00" fill-opacity="1"><g transform="translate(257.723822, 345.7227)"><g><path d="M 7.9375 0 L 4.40625 0 L 4.40625 -26.921875 L 7.9375 -26.921875 C 12.519531 -26.921875 16.171875 -25.710938 18.890625 -23.296875 C 21.617188 -20.890625 22.984375 -17.609375 22.984375 -13.453125 C 22.984375 -9.304688 21.617188 -6.023438 18.890625 -3.609375 C 16.171875 -1.203125 12.519531 0 7.9375 0 Z M 7.9375 -1.390625 C 12.113281 -1.390625 15.429688 -2.457031 17.890625 -4.59375 C 20.359375 -6.726562 21.59375 -9.679688 21.59375 -13.453125 C 21.59375 -17.234375 20.359375 -20.191406 17.890625 -22.328125 C 15.429688 -24.460938 12.113281 -25.53125 7.9375 -25.53125 L 5.796875 -25.53125 L 5.796875 -1.390625 Z M 7.9375 -1.390625 "/></g></g></g><g fill="#ff6f00" fill-opacity="1"><g transform="translate(283.391756, 345.7227)"><g><path d="M 22.421875 -2.734375 C 20.722656 -0.597656 17.9375 0.46875 14.0625 0.46875 C 10.195312 0.46875 7.425781 -0.628906 5.75 -2.828125 C 4.082031 -5.023438 3.25 -8.566406 3.25 -13.453125 C 3.25 -18.347656 4.082031 -21.894531 5.75 -24.09375 C 7.425781 -26.289062 10.195312 -27.390625 14.0625 -27.390625 C 18.550781 -27.390625 21.597656 -25.921875 23.203125 -22.984375 L 11.84375 -13.46875 L 9.65625 -13.46875 L 21.40625 -23.25 C 20.039062 -25.082031 17.59375 -26 14.0625 -26 C 12.519531 -26 11.222656 -25.832031 10.171875 -25.5 C 9.117188 -25.175781 8.148438 -24.570312 7.265625 -23.6875 C 6.378906 -22.8125 5.71875 -21.53125 5.28125 -19.84375 C 4.851562 -18.15625 4.640625 -16.023438 4.640625 -13.453125 C 4.640625 -10.890625 4.851562 -8.765625 5.28125 -7.078125 C 5.71875 -5.390625 6.378906 -4.101562 7.265625 -3.21875 C 8.148438 -2.34375 9.117188 -1.738281 10.171875 -1.40625 C 11.222656 -1.082031 12.519531 -0.921875 14.0625 -0.921875 C 17.59375 -0.921875 20.039062 -1.835938 21.40625 -3.671875 Z M 22.421875 -2.734375 "/></g></g></g><g fill="#ff6f00" fill-opacity="1"><g transform="translate(308.827602, 345.7227)"><g><path d="M 24.046875 -26.921875 L 12.4375 0.46875 L 0.828125 -26.921875 L 2.328125 -26.921875 L 12.4375 -3.109375 L 22.5625 -26.921875 Z M 24.046875 -26.921875 "/></g></g></g><g fill="#000000" fill-opacity="1"><g transform="translate(131.429459, 258.486247)"><g><path d="M 38.8125 -6.296875 L 121.46875 -6.296875 L 121.46875 -131.953125 L 74.265625 -30.84375 L 27.0625 -132.15625 L 27.0625 0 L 20.765625 -0.203125 L 20.765625 -147.0625 L 27.0625 -147.0625 L 74.265625 -45.734375 L 121.46875 -146.84375 L 127.75 -147.0625 L 127.75 0 L 38.8125 -0.203125 Z M 38.8125 -6.296875 "/></g></g></g></svg>