<svg xmlns="http://www.w3.org/2000/svg" xmlns:xlink="http://www.w3.org/1999/xlink" width="500" zoomAndPan="magnify" viewBox="0 0 375 299.999988" height="400" preserveAspectRatio="xMidYMid meet" version="1.0"><defs><g/></defs><g fill="#ff6f00" fill-opacity="1"><g transform="translate(2.203385, 243.672479)"><g><path d="M 69.03125 -224.140625 L 69.03125 -218.46875 L 56.78125 -218.46875 C 54.1875 -218.46875 52.144531 -217.367188 50.65625 -215.171875 C 49.164062 -212.984375 48.421875 -210.097656 48.421875 -206.515625 C 48.421875 -188.578125 48.421875 -172.832031 48.421875 -159.28125 C 48.421875 -145.738281 48.421875 -135.234375 48.421875 -127.765625 C 48.421875 -120.296875 48.316406 -116.5625 48.109375 -116.5625 C 48.109375 -112.175781 46.066406 -107.988281 41.984375 -104 C 37.898438 -100.019531 32.375 -97.03125 25.40625 -95.03125 C 32.375 -93.039062 37.898438 -90.101562 41.984375 -86.21875 C 46.066406 -82.332031 48.109375 -78.097656 48.109375 -73.515625 L 48.421875 16.4375 C 48.421875 20.019531 49.164062 22.90625 50.65625 25.09375 C 52.144531 27.289062 54.1875 28.390625 56.78125 28.390625 L 69.03125 28.390625 L 69.03125 34.375 L 56.78125 34.375 C 52.195312 34.375 48.460938 32.726562 45.578125 29.4375 C 42.691406 26.144531 41.25 21.8125 41.25 16.4375 L 41.25 -74.71875 C 41.25 -79.894531 39.15625 -84.125 34.96875 -87.40625 C 30.78125 -90.695312 25.203125 -92.34375 18.234375 -92.34375 L 16.4375 -92.34375 L 16.4375 -97.421875 L 18.234375 -97.421875 C 25.203125 -97.421875 30.78125 -99.066406 34.96875 -102.359375 C 39.15625 -105.648438 41.25 -109.882812 41.25 -115.0625 L 41.25 -206.21875 C 41.25 -211.59375 42.691406 -215.921875 45.578125 -219.203125 C 48.460938 -222.492188 52.195312 -224.140625 56.78125 -224.140625 Z M 69.03125 -224.140625 "/></g></g></g><g fill="#ff6f00" fill-opacity="1"><g transform="translate(79.904471, 243.672479)"><g/></g></g><g fill="#ff6f00" fill-opacity="1"><g transform="translate(122.937904, 243.672479)"><g/></g></g><g fill="#ff6f00" fill-opacity="1"><g transform="translate(165.971338, 243.672479)"><g/></g></g><g fill="#ff6f00" fill-opacity="1"><g transform="translate(209.004771, 243.672479)"><g/></g></g><g fill="#ff6f00" fill-opacity="1"><g transform="translate(252.038205, 243.672479)"><g/></g></g><g fill="#ff6f00" fill-opacity="1"><g transform="translate(295.075147, 243.672479)"><g><path d="M 8.96875 -224.140625 L 20.921875 -224.140625 C 25.703125 -224.140625 29.535156 -222.492188 32.421875 -219.203125 C 35.316406 -215.921875 36.765625 -211.59375 36.765625 -206.21875 C 36.765625 -188.082031 36.765625 -172.140625 36.765625 -158.390625 C 36.765625 -144.648438 36.765625 -133.992188 36.765625 -126.421875 C 36.765625 -118.847656 36.660156 -115.0625 36.453125 -115.0625 C 36.660156 -109.882812 38.90625 -105.648438 43.1875 -102.359375 C 47.46875 -99.066406 52.992188 -97.421875 59.765625 -97.421875 L 61.5625 -97.421875 L 61.5625 -92.34375 L 59.765625 -92.34375 C 52.992188 -92.34375 47.46875 -90.695312 43.1875 -87.40625 C 38.90625 -84.125 36.660156 -79.894531 36.453125 -74.71875 L 36.765625 16.4375 C 36.765625 21.8125 35.316406 26.144531 32.421875 29.4375 C 29.535156 32.726562 25.703125 34.375 20.921875 34.375 L 8.96875 34.375 L 8.96875 28.390625 L 20.921875 28.390625 C 23.515625 28.390625 25.609375 27.289062 27.203125 25.09375 C 28.796875 22.90625 29.59375 20.019531 29.59375 16.4375 L 29.59375 -73.515625 C 29.789062 -78.097656 31.976562 -82.332031 36.15625 -86.21875 C 40.34375 -90.101562 45.820312 -93.039062 52.59375 -95.03125 C 45.820312 -97.03125 40.34375 -100.019531 36.15625 -104 C 31.976562 -107.988281 29.789062 -112.175781 29.59375 -116.5625 L 29.59375 -206.515625 C 29.59375 -210.097656 28.796875 -212.984375 27.203125 -215.171875 C 25.609375 -217.367188 23.515625 -218.46875 20.921875 -218.46875 L 8.96875 -218.46875 Z M 8.96875 -224.140625 "/></g></g></g><g fill="#ffffff" fill-opacity="1"><g transform="translate(95.729407, 230.948496)"><g><path d="M 47.953125 -7.78125 L 150.09375 -7.78125 L 150.09375 -163.0625 L 91.765625 -38.109375 L 33.4375 -163.3125 L 33.4375 0 L 25.671875 -0.265625 L 25.671875 -181.71875 L 33.4375 -181.71875 L 91.765625 -56.515625 L 150.09375 -181.46875 L 157.875 -181.71875 L 157.875 0 L 47.953125 -0.265625 Z M 47.953125 -7.78125 "/></g></g></g></svg>