<svg xmlns="http://www.w3.org/2000/svg" xmlns:xlink="http://www.w3.org/1999/xlink" width="500" zoomAndPan="magnify" viewBox="0 0 375 112.499997" height="150" preserveAspectRatio="xMidYMid meet" version="1.0"><defs><g/></defs><g fill="#ffffff" fill-opacity="1"><g transform="translate(16.680743, 98.266515)"><g><path d="M 5.984375 -15.046875 C 8.523438 -15.046875 10.484375 -14.378906 11.859375 -13.046875 C 13.242188 -11.722656 13.9375 -9.875 13.9375 -7.5 C 13.9375 -5.125 13.242188 -3.28125 11.859375 -1.96875 C 10.484375 -0.65625 8.523438 0 5.984375 0 L 1.765625 0 L 1.765625 -15.046875 Z M 5.984375 -0.8125 C 8.253906 -0.8125 9.984375 -1.398438 11.171875 -2.578125 C 12.359375 -3.765625 12.953125 -5.40625 12.953125 -7.5 C 12.953125 -9.613281 12.359375 -11.265625 11.171875 -12.453125 C 9.984375 -13.640625 8.253906 -14.234375 5.984375 -14.234375 L 2.71875 -14.234375 L 2.71875 -0.8125 Z M 5.984375 -0.8125 "/></g></g></g><g fill="#ffffff" fill-opacity="1"><g transform="translate(31.768661, 98.266515)"><g><path d="M 12.234375 -6.609375 C 12.234375 -6.085938 12.222656 -5.695312 12.203125 -5.4375 L 2.140625 -5.4375 C 2.171875 -4.394531 2.398438 -3.515625 2.828125 -2.796875 C 3.253906 -2.085938 3.816406 -1.554688 4.515625 -1.203125 C 5.222656 -0.847656 5.988281 -0.671875 6.8125 -0.671875 C 7.957031 -0.671875 8.914062 -0.953125 9.6875 -1.515625 C 10.457031 -2.078125 10.941406 -2.84375 11.140625 -3.8125 L 12.15625 -3.8125 C 11.925781 -2.625 11.335938 -1.660156 10.390625 -0.921875 C 9.453125 -0.191406 8.257812 0.171875 6.8125 0.171875 C 5.726562 0.171875 4.753906 -0.0664062 3.890625 -0.546875 C 3.035156 -1.035156 2.363281 -1.734375 1.875 -2.640625 C 1.394531 -3.554688 1.15625 -4.617188 1.15625 -5.828125 C 1.15625 -7.046875 1.394531 -8.101562 1.875 -9 C 2.351562 -9.90625 3.019531 -10.597656 3.875 -11.078125 C 4.738281 -11.554688 5.71875 -11.796875 6.8125 -11.796875 C 7.925781 -11.796875 8.894531 -11.554688 9.71875 -11.078125 C 10.539062 -10.597656 11.164062 -9.957031 11.59375 -9.15625 C 12.019531 -8.363281 12.234375 -7.515625 12.234375 -6.609375 Z M 11.28125 -6.234375 C 11.320312 -7.265625 11.140625 -8.132812 10.734375 -8.84375 C 10.328125 -9.5625 9.769531 -10.09375 9.0625 -10.4375 C 8.363281 -10.789062 7.609375 -10.96875 6.796875 -10.96875 C 5.984375 -10.96875 5.226562 -10.789062 4.53125 -10.4375 C 3.84375 -10.09375 3.28125 -9.5625 2.84375 -8.84375 C 2.40625 -8.132812 2.171875 -7.265625 2.140625 -6.234375 Z M 11.28125 -6.234375 "/></g></g></g><g fill="#ffffff" fill-opacity="1"><g transform="translate(45.163477, 98.266515)"><g><path d="M 5.640625 0.171875 C 4.335938 0.171875 3.273438 -0.113281 2.453125 -0.6875 C 1.628906 -1.257812 1.171875 -2.070312 1.078125 -3.125 L 2.0625 -3.125 C 2.132812 -2.375 2.476562 -1.773438 3.09375 -1.328125 C 3.71875 -0.890625 4.566406 -0.671875 5.640625 -0.671875 C 6.523438 -0.671875 7.226562 -0.894531 7.75 -1.34375 C 8.269531 -1.789062 8.53125 -2.34375 8.53125 -3 C 8.53125 -3.457031 8.390625 -3.832031 8.109375 -4.125 C 7.835938 -4.414062 7.492188 -4.640625 7.078125 -4.796875 C 6.660156 -4.953125 6.09375 -5.125 5.375 -5.3125 C 4.519531 -5.539062 3.828125 -5.765625 3.296875 -5.984375 C 2.773438 -6.210938 2.328125 -6.546875 1.953125 -6.984375 C 1.578125 -7.429688 1.390625 -8.023438 1.390625 -8.765625 C 1.390625 -9.304688 1.550781 -9.804688 1.875 -10.265625 C 2.207031 -10.734375 2.664062 -11.101562 3.25 -11.375 C 3.84375 -11.65625 4.507812 -11.796875 5.25 -11.796875 C 6.46875 -11.796875 7.453125 -11.488281 8.203125 -10.875 C 8.953125 -10.269531 9.351562 -9.429688 9.40625 -8.359375 L 8.453125 -8.359375 C 8.398438 -9.128906 8.09375 -9.753906 7.53125 -10.234375 C 6.976562 -10.722656 6.210938 -10.96875 5.234375 -10.96875 C 4.398438 -10.96875 3.710938 -10.753906 3.171875 -10.328125 C 2.628906 -9.898438 2.359375 -9.378906 2.359375 -8.765625 C 2.359375 -8.222656 2.507812 -7.785156 2.8125 -7.453125 C 3.125 -7.117188 3.503906 -6.859375 3.953125 -6.671875 C 4.398438 -6.492188 5 -6.304688 5.75 -6.109375 C 6.5625 -5.890625 7.210938 -5.675781 7.703125 -5.46875 C 8.203125 -5.269531 8.617188 -4.972656 8.953125 -4.578125 C 9.296875 -4.179688 9.46875 -3.65625 9.46875 -3 C 9.46875 -2.394531 9.300781 -1.847656 8.96875 -1.359375 C 8.644531 -0.878906 8.191406 -0.503906 7.609375 -0.234375 C 7.023438 0.0351562 6.367188 0.171875 5.640625 0.171875 Z M 5.640625 0.171875 "/></g></g></g><g fill="#ffffff" fill-opacity="1"><g transform="translate(55.815034, 98.266515)"><g><path d="M 1.15625 -5.828125 C 1.15625 -7.023438 1.394531 -8.070312 1.875 -8.96875 C 2.351562 -9.875 3.015625 -10.570312 3.859375 -11.0625 C 4.710938 -11.550781 5.6875 -11.796875 6.78125 -11.796875 C 8.007812 -11.796875 9.050781 -11.492188 9.90625 -10.890625 C 10.757812 -10.285156 11.359375 -9.519531 11.703125 -8.59375 L 11.703125 -11.640625 L 12.671875 -11.640625 L 12.671875 0 L 11.703125 0 L 11.703125 -3.0625 C 11.359375 -2.125 10.753906 -1.347656 9.890625 -0.734375 C 9.023438 -0.128906 7.988281 0.171875 6.78125 0.171875 C 5.6875 0.171875 4.710938 -0.0703125 3.859375 -0.5625 C 3.015625 -1.0625 2.351562 -1.765625 1.875 -2.671875 C 1.394531 -3.578125 1.15625 -4.628906 1.15625 -5.828125 Z M 11.703125 -5.828125 C 11.703125 -6.847656 11.488281 -7.742188 11.0625 -8.515625 C 10.644531 -9.296875 10.070312 -9.894531 9.34375 -10.3125 C 8.613281 -10.738281 7.800781 -10.953125 6.90625 -10.953125 C 5.957031 -10.953125 5.125 -10.75 4.40625 -10.34375 C 3.695312 -9.9375 3.140625 -9.347656 2.734375 -8.578125 C 2.335938 -7.804688 2.140625 -6.890625 2.140625 -5.828125 C 2.140625 -4.773438 2.335938 -3.859375 2.734375 -3.078125 C 3.140625 -2.304688 3.703125 -1.710938 4.421875 -1.296875 C 5.148438 -0.890625 5.976562 -0.6875 6.90625 -0.6875 C 7.800781 -0.6875 8.617188 -0.894531 9.359375 -1.3125 C 10.097656 -1.738281 10.671875 -2.335938 11.078125 -3.109375 C 11.492188 -3.890625 11.703125 -4.796875 11.703125 -5.828125 Z M 11.703125 -5.828125 "/></g></g></g><g fill="#ffffff" fill-opacity="1"><g transform="translate(70.238572, 98.266515)"><g><path d="M 2.71875 -9.234375 C 3.007812 -10.097656 3.519531 -10.753906 4.25 -11.203125 C 4.976562 -11.648438 5.90625 -11.875 7.03125 -11.875 L 7.03125 -10.875 L 6.703125 -10.875 C 5.566406 -10.875 4.617188 -10.546875 3.859375 -9.890625 C 3.097656 -9.242188 2.71875 -8.179688 2.71875 -6.703125 L 2.71875 0 L 1.765625 0 L 1.765625 -11.640625 L 2.71875 -11.640625 Z M 2.71875 -9.234375 "/></g></g></g><g fill="#ffffff" fill-opacity="1"><g transform="translate(77.739664, 98.266515)"><g><path d="M 2.71875 -9.234375 C 3.007812 -10.097656 3.519531 -10.753906 4.25 -11.203125 C 4.976562 -11.648438 5.90625 -11.875 7.03125 -11.875 L 7.03125 -10.875 L 6.703125 -10.875 C 5.566406 -10.875 4.617188 -10.546875 3.859375 -9.890625 C 3.097656 -9.242188 2.71875 -8.179688 2.71875 -6.703125 L 2.71875 0 L 1.765625 0 L 1.765625 -11.640625 L 2.71875 -11.640625 Z M 2.71875 -9.234375 "/></g></g></g><g fill="#ffffff" fill-opacity="1"><g transform="translate(85.240757, 98.266515)"><g><path d="M 6.875 0.171875 C 5.789062 0.171875 4.8125 -0.0664062 3.9375 -0.546875 C 3.070312 -1.035156 2.390625 -1.734375 1.890625 -2.640625 C 1.398438 -3.554688 1.15625 -4.617188 1.15625 -5.828125 C 1.15625 -7.023438 1.40625 -8.078125 1.90625 -8.984375 C 2.40625 -9.898438 3.09375 -10.597656 3.96875 -11.078125 C 4.851562 -11.554688 5.835938 -11.796875 6.921875 -11.796875 C 8.003906 -11.796875 8.984375 -11.554688 9.859375 -11.078125 C 10.734375 -10.597656 11.414062 -9.90625 11.90625 -9 C 12.394531 -8.101562 12.640625 -7.046875 12.640625 -5.828125 C 12.640625 -4.617188 12.390625 -3.554688 11.890625 -2.640625 C 11.390625 -1.734375 10.703125 -1.035156 9.828125 -0.546875 C 8.953125 -0.0664062 7.96875 0.171875 6.875 0.171875 Z M 6.875 -0.6875 C 7.71875 -0.6875 8.507812 -0.875 9.25 -1.25 C 9.988281 -1.632812 10.578125 -2.210938 11.015625 -2.984375 C 11.460938 -3.753906 11.6875 -4.703125 11.6875 -5.828125 C 11.6875 -6.941406 11.460938 -7.882812 11.015625 -8.65625 C 10.578125 -9.425781 9.992188 -10 9.265625 -10.375 C 8.535156 -10.757812 7.75 -10.953125 6.90625 -10.953125 C 6.0625 -10.953125 5.273438 -10.757812 4.546875 -10.375 C 3.828125 -10 3.242188 -9.425781 2.796875 -8.65625 C 2.359375 -7.882812 2.140625 -6.941406 2.140625 -5.828125 C 2.140625 -4.703125 2.359375 -3.753906 2.796875 -2.984375 C 3.234375 -2.210938 3.8125 -1.632812 4.53125 -1.25 C 5.25 -0.875 6.03125 -0.6875 6.875 -0.6875 Z M 6.875 -0.6875 "/></g></g></g><g fill="#ffffff" fill-opacity="1"><g transform="translate(99.0642, 98.266515)"><g><path d="M 2.71875 -15.859375 L 2.71875 0 L 1.765625 0 L 1.765625 -15.859375 Z M 2.71875 -15.859375 "/></g></g></g><g fill="#ffffff" fill-opacity="1"><g transform="translate(103.56486, 98.266515)"><g><path d="M 2.71875 -15.859375 L 2.71875 0 L 1.765625 0 L 1.765625 -15.859375 Z M 2.71875 -15.859375 "/></g></g></g><g fill="#ffffff" fill-opacity="1"><g transform="translate(108.065521, 98.266515)"><g><path d="M 6.875 0.171875 C 5.789062 0.171875 4.8125 -0.0664062 3.9375 -0.546875 C 3.070312 -1.035156 2.390625 -1.734375 1.890625 -2.640625 C 1.398438 -3.554688 1.15625 -4.617188 1.15625 -5.828125 C 1.15625 -7.023438 1.40625 -8.078125 1.90625 -8.984375 C 2.40625 -9.898438 3.09375 -10.597656 3.96875 -11.078125 C 4.851562 -11.554688 5.835938 -11.796875 6.921875 -11.796875 C 8.003906 -11.796875 8.984375 -11.554688 9.859375 -11.078125 C 10.734375 -10.597656 11.414062 -9.90625 11.90625 -9 C 12.394531 -8.101562 12.640625 -7.046875 12.640625 -5.828125 C 12.640625 -4.617188 12.390625 -3.554688 11.890625 -2.640625 C 11.390625 -1.734375 10.703125 -1.035156 9.828125 -0.546875 C 8.953125 -0.0664062 7.96875 0.171875 6.875 0.171875 Z M 6.875 -0.6875 C 7.71875 -0.6875 8.507812 -0.875 9.25 -1.25 C 9.988281 -1.632812 10.578125 -2.210938 11.015625 -2.984375 C 11.460938 -3.753906 11.6875 -4.703125 11.6875 -5.828125 C 11.6875 -6.941406 11.460938 -7.882812 11.015625 -8.65625 C 10.578125 -9.425781 9.992188 -10 9.265625 -10.375 C 8.535156 -10.757812 7.75 -10.953125 6.90625 -10.953125 C 6.0625 -10.953125 5.273438 -10.757812 4.546875 -10.375 C 3.828125 -10 3.242188 -9.425781 2.796875 -8.65625 C 2.359375 -7.882812 2.140625 -6.941406 2.140625 -5.828125 C 2.140625 -4.703125 2.359375 -3.753906 2.796875 -2.984375 C 3.234375 -2.210938 3.8125 -1.632812 4.53125 -1.25 C 5.25 -0.875 6.03125 -0.6875 6.875 -0.6875 Z M 6.875 -0.6875 "/></g></g></g><g fill="#ffffff" fill-opacity="1"><g transform="translate(121.888964, 98.266515)"><g/></g></g><g fill="#ffffff" fill-opacity="1"><g transform="translate(127.932708, 98.266515)"><g><path d="M 5.640625 0.171875 C 4.335938 0.171875 3.273438 -0.113281 2.453125 -0.6875 C 1.628906 -1.257812 1.171875 -2.070312 1.078125 -3.125 L 2.0625 -3.125 C 2.132812 -2.375 2.476562 -1.773438 3.09375 -1.328125 C 3.71875 -0.890625 4.566406 -0.671875 5.640625 -0.671875 C 6.523438 -0.671875 7.226562 -0.894531 7.75 -1.34375 C 8.269531 -1.789062 8.53125 -2.34375 8.53125 -3 C 8.53125 -3.457031 8.390625 -3.832031 8.109375 -4.125 C 7.835938 -4.414062 7.492188 -4.640625 7.078125 -4.796875 C 6.660156 -4.953125 6.09375 -5.125 5.375 -5.3125 C 4.519531 -5.539062 3.828125 -5.765625 3.296875 -5.984375 C 2.773438 -6.210938 2.328125 -6.546875 1.953125 -6.984375 C 1.578125 -7.429688 1.390625 -8.023438 1.390625 -8.765625 C 1.390625 -9.304688 1.550781 -9.804688 1.875 -10.265625 C 2.207031 -10.734375 2.664062 -11.101562 3.25 -11.375 C 3.84375 -11.65625 4.507812 -11.796875 5.25 -11.796875 C 6.46875 -11.796875 7.453125 -11.488281 8.203125 -10.875 C 8.953125 -10.269531 9.351562 -9.429688 9.40625 -8.359375 L 8.453125 -8.359375 C 8.398438 -9.128906 8.09375 -9.753906 7.53125 -10.234375 C 6.976562 -10.722656 6.210938 -10.96875 5.234375 -10.96875 C 4.398438 -10.96875 3.710938 -10.753906 3.171875 -10.328125 C 2.628906 -9.898438 2.359375 -9.378906 2.359375 -8.765625 C 2.359375 -8.222656 2.507812 -7.785156 2.8125 -7.453125 C 3.125 -7.117188 3.503906 -6.859375 3.953125 -6.671875 C 4.398438 -6.492188 5 -6.304688 5.75 -6.109375 C 6.5625 -5.890625 7.210938 -5.675781 7.703125 -5.46875 C 8.203125 -5.269531 8.617188 -4.972656 8.953125 -4.578125 C 9.296875 -4.179688 9.46875 -3.65625 9.46875 -3 C 9.46875 -2.394531 9.300781 -1.847656 8.96875 -1.359375 C 8.644531 -0.878906 8.191406 -0.503906 7.609375 -0.234375 C 7.023438 0.0351562 6.367188 0.171875 5.640625 0.171875 Z M 5.640625 0.171875 "/></g></g></g><g fill="#ffffff" fill-opacity="1"><g transform="translate(138.584265, 98.266515)"><g><path d="M 6.875 0.171875 C 5.789062 0.171875 4.8125 -0.0664062 3.9375 -0.546875 C 3.070312 -1.035156 2.390625 -1.734375 1.890625 -2.640625 C 1.398438 -3.554688 1.15625 -4.617188 1.15625 -5.828125 C 1.15625 -7.023438 1.40625 -8.078125 1.90625 -8.984375 C 2.40625 -9.898438 3.09375 -10.597656 3.96875 -11.078125 C 4.851562 -11.554688 5.835938 -11.796875 6.921875 -11.796875 C 8.003906 -11.796875 8.984375 -11.554688 9.859375 -11.078125 C 10.734375 -10.597656 11.414062 -9.90625 11.90625 -9 C 12.394531 -8.101562 12.640625 -7.046875 12.640625 -5.828125 C 12.640625 -4.617188 12.390625 -3.554688 11.890625 -2.640625 C 11.390625 -1.734375 10.703125 -1.035156 9.828125 -0.546875 C 8.953125 -0.0664062 7.96875 0.171875 6.875 0.171875 Z M 6.875 -0.6875 C 7.71875 -0.6875 8.507812 -0.875 9.25 -1.25 C 9.988281 -1.632812 10.578125 -2.210938 11.015625 -2.984375 C 11.460938 -3.753906 11.6875 -4.703125 11.6875 -5.828125 C 11.6875 -6.941406 11.460938 -7.882812 11.015625 -8.65625 C 10.578125 -9.425781 9.992188 -10 9.265625 -10.375 C 8.535156 -10.757812 7.75 -10.953125 6.90625 -10.953125 C 6.0625 -10.953125 5.273438 -10.757812 4.546875 -10.375 C 3.828125 -10 3.242188 -9.425781 2.796875 -8.65625 C 2.359375 -7.882812 2.140625 -6.941406 2.140625 -5.828125 C 2.140625 -4.703125 2.359375 -3.753906 2.796875 -2.984375 C 3.234375 -2.210938 3.8125 -1.632812 4.53125 -1.25 C 5.25 -0.875 6.03125 -0.6875 6.875 -0.6875 Z M 6.875 -0.6875 "/></g></g></g><g fill="#ffffff" fill-opacity="1"><g transform="translate(152.407708, 98.266515)"><g><path d="M 6.203125 -10.78125 L 3.171875 -10.78125 L 3.171875 0 L 2.203125 0 L 2.203125 -10.78125 L 0.453125 -10.78125 L 0.453125 -11.640625 L 2.203125 -11.640625 L 2.203125 -12.453125 C 2.203125 -13.671875 2.507812 -14.578125 3.125 -15.171875 C 3.738281 -15.765625 4.75 -16.0625 6.15625 -16.0625 L 6.15625 -15.203125 C 5.039062 -15.203125 4.265625 -14.984375 3.828125 -14.546875 C 3.390625 -14.117188 3.171875 -13.421875 3.171875 -12.453125 L 3.171875 -11.640625 L 6.203125 -11.640625 Z M 6.203125 -10.78125 "/></g></g></g><g fill="#ffffff" fill-opacity="1"><g transform="translate(159.30872, 98.266515)"><g><path d="M 3.1875 -10.796875 L 3.1875 -3.109375 C 3.1875 -2.253906 3.34375 -1.664062 3.65625 -1.34375 C 3.976562 -1.019531 4.539062 -0.859375 5.34375 -0.859375 L 6.640625 -0.859375 L 6.640625 0 L 5.1875 0 C 4.175781 0 3.429688 -0.238281 2.953125 -0.71875 C 2.472656 -1.195312 2.234375 -1.992188 2.234375 -3.109375 L 2.234375 -10.796875 L 0.46875 -10.796875 L 0.46875 -11.640625 L 2.234375 -11.640625 L 2.234375 -14.59375 L 3.1875 -14.59375 L 3.1875 -11.640625 L 6.640625 -11.640625 L 6.640625 -10.796875 Z M 3.1875 -10.796875 "/></g></g></g><g fill="#ffffff" fill-opacity="1"><g transform="translate(166.745525, 98.266515)"><g><path d="M 16.984375 -11.640625 L 13.3125 0 L 12.390625 0 L 8.6875 -10.3125 L 4.953125 0 L 4.03125 0 L 0.359375 -11.640625 L 1.375 -11.640625 L 4.5 -1.09375 L 8.234375 -11.640625 L 9.15625 -11.640625 L 12.859375 -1.140625 L 16 -11.640625 Z M 16.984375 -11.640625 "/></g></g></g><g fill="#ffffff" fill-opacity="1"><g transform="translate(184.083774, 98.266515)"><g><path d="M 1.15625 -5.828125 C 1.15625 -7.023438 1.394531 -8.070312 1.875 -8.96875 C 2.351562 -9.875 3.015625 -10.570312 3.859375 -11.0625 C 4.710938 -11.550781 5.6875 -11.796875 6.78125 -11.796875 C 8.007812 -11.796875 9.050781 -11.492188 9.90625 -10.890625 C 10.757812 -10.285156 11.359375 -9.519531 11.703125 -8.59375 L 11.703125 -11.640625 L 12.671875 -11.640625 L 12.671875 0 L 11.703125 0 L 11.703125 -3.0625 C 11.359375 -2.125 10.753906 -1.347656 9.890625 -0.734375 C 9.023438 -0.128906 7.988281 0.171875 6.78125 0.171875 C 5.6875 0.171875 4.710938 -0.0703125 3.859375 -0.5625 C 3.015625 -1.0625 2.351562 -1.765625 1.875 -2.671875 C 1.394531 -3.578125 1.15625 -4.628906 1.15625 -5.828125 Z M 11.703125 -5.828125 C 11.703125 -6.847656 11.488281 -7.742188 11.0625 -8.515625 C 10.644531 -9.296875 10.070312 -9.894531 9.34375 -10.3125 C 8.613281 -10.738281 7.800781 -10.953125 6.90625 -10.953125 C 5.957031 -10.953125 5.125 -10.75 4.40625 -10.34375 C 3.695312 -9.9375 3.140625 -9.347656 2.734375 -8.578125 C 2.335938 -7.804688 2.140625 -6.890625 2.140625 -5.828125 C 2.140625 -4.773438 2.335938 -3.859375 2.734375 -3.078125 C 3.140625 -2.304688 3.703125 -1.710938 4.421875 -1.296875 C 5.148438 -0.890625 5.976562 -0.6875 6.90625 -0.6875 C 7.800781 -0.6875 8.617188 -0.894531 9.359375 -1.3125 C 10.097656 -1.738281 10.671875 -2.335938 11.078125 -3.109375 C 11.492188 -3.890625 11.703125 -4.796875 11.703125 -5.828125 Z M 11.703125 -5.828125 "/></g></g></g><g fill="#ffffff" fill-opacity="1"><g transform="translate(198.507311, 98.266515)"><g><path d="M 2.71875 -9.234375 C 3.007812 -10.097656 3.519531 -10.753906 4.25 -11.203125 C 4.976562 -11.648438 5.90625 -11.875 7.03125 -11.875 L 7.03125 -10.875 L 6.703125 -10.875 C 5.566406 -10.875 4.617188 -10.546875 3.859375 -9.890625 C 3.097656 -9.242188 2.71875 -8.179688 2.71875 -6.703125 L 2.71875 0 L 1.765625 0 L 1.765625 -11.640625 L 2.71875 -11.640625 Z M 2.71875 -9.234375 "/></g></g></g><g fill="#ffffff" fill-opacity="1"><g transform="translate(206.008404, 98.266515)"><g><path d="M 12.234375 -6.609375 C 12.234375 -6.085938 12.222656 -5.695312 12.203125 -5.4375 L 2.140625 -5.4375 C 2.171875 -4.394531 2.398438 -3.515625 2.828125 -2.796875 C 3.253906 -2.085938 3.816406 -1.554688 4.515625 -1.203125 C 5.222656 -0.847656 5.988281 -0.671875 6.8125 -0.671875 C 7.957031 -0.671875 8.914062 -0.953125 9.6875 -1.515625 C 10.457031 -2.078125 10.941406 -2.84375 11.140625 -3.8125 L 12.15625 -3.8125 C 11.925781 -2.625 11.335938 -1.660156 10.390625 -0.921875 C 9.453125 -0.191406 8.257812 0.171875 6.8125 0.171875 C 5.726562 0.171875 4.753906 -0.0664062 3.890625 -0.546875 C 3.035156 -1.035156 2.363281 -1.734375 1.875 -2.640625 C 1.394531 -3.554688 1.15625 -4.617188 1.15625 -5.828125 C 1.15625 -7.046875 1.394531 -8.101562 1.875 -9 C 2.351562 -9.90625 3.019531 -10.597656 3.875 -11.078125 C 4.738281 -11.554688 5.71875 -11.796875 6.8125 -11.796875 C 7.925781 -11.796875 8.894531 -11.554688 9.71875 -11.078125 C 10.539062 -10.597656 11.164062 -9.957031 11.59375 -9.15625 C 12.019531 -8.363281 12.234375 -7.515625 12.234375 -6.609375 Z M 11.28125 -6.234375 C 11.320312 -7.265625 11.140625 -8.132812 10.734375 -8.84375 C 10.328125 -9.5625 9.769531 -10.09375 9.0625 -10.4375 C 8.363281 -10.789062 7.609375 -10.96875 6.796875 -10.96875 C 5.984375 -10.96875 5.226562 -10.789062 4.53125 -10.4375 C 3.84375 -10.09375 3.28125 -9.5625 2.84375 -8.84375 C 2.40625 -8.132812 2.171875 -7.265625 2.140625 -6.234375 Z M 11.28125 -6.234375 "/></g></g></g><g fill="#ffffff" fill-opacity="1"><g transform="translate(219.403219, 98.266515)"><g/></g></g><g fill="#ffffff" fill-opacity="1"><g transform="translate(225.446963, 98.266515)"><g><path d="M 13.015625 -5.203125 C 12.492188 -4.304688 12 -3.546875 11.53125 -2.921875 L 14.359375 0 L 13.140625 0 L 10.96875 -2.203125 C 10.238281 -1.359375 9.460938 -0.738281 8.640625 -0.34375 C 7.828125 0.0390625 6.898438 0.234375 5.859375 0.234375 C 4.898438 0.234375 4.039062 0.046875 3.28125 -0.328125 C 2.519531 -0.710938 1.925781 -1.242188 1.5 -1.921875 C 1.082031 -2.597656 0.875 -3.378906 0.875 -4.265625 C 0.875 -5.335938 1.175781 -6.257812 1.78125 -7.03125 C 2.394531 -7.8125 3.28125 -8.425781 4.4375 -8.875 C 3.875 -9.457031 3.46875 -10.003906 3.21875 -10.515625 C 2.96875 -11.023438 2.84375 -11.566406 2.84375 -12.140625 C 2.84375 -13.046875 3.164062 -13.785156 3.8125 -14.359375 C 4.46875 -14.929688 5.328125 -15.21875 6.390625 -15.21875 C 7.015625 -15.21875 7.59375 -15.085938 8.125 -14.828125 C 8.65625 -14.578125 9.066406 -14.210938 9.359375 -13.734375 C 9.660156 -13.265625 9.8125 -12.71875 9.8125 -12.09375 L 8.859375 -12.09375 C 8.859375 -12.800781 8.613281 -13.363281 8.125 -13.78125 C 7.632812 -14.195312 7.046875 -14.40625 6.359375 -14.40625 C 5.609375 -14.40625 4.992188 -14.191406 4.515625 -13.765625 C 4.046875 -13.347656 3.8125 -12.804688 3.8125 -12.140625 C 3.8125 -11.640625 3.941406 -11.160156 4.203125 -10.703125 C 4.460938 -10.253906 4.867188 -9.742188 5.421875 -9.171875 L 10.890625 -3.5625 C 11.285156 -4.132812 11.734375 -4.832031 12.234375 -5.65625 L 13.4375 -7.734375 L 14.46875 -7.734375 Z M 5.859375 -0.625 C 6.765625 -0.625 7.570312 -0.800781 8.28125 -1.15625 C 8.988281 -1.507812 9.671875 -2.082031 10.328125 -2.875 L 5.0625 -8.234375 L 5 -8.203125 C 2.894531 -7.429688 1.84375 -6.125 1.84375 -4.28125 C 1.84375 -3.582031 2.015625 -2.953125 2.359375 -2.390625 C 2.703125 -1.835938 3.175781 -1.40625 3.78125 -1.09375 C 4.382812 -0.78125 5.078125 -0.625 5.859375 -0.625 Z M 5.859375 -0.625 "/></g></g></g><g fill="#ffffff" fill-opacity="1"><g transform="translate(240.363428, 98.266515)"><g/></g></g><g fill="#ffffff" fill-opacity="1"><g transform="translate(246.407158, 98.266515)"><g><path d="M 1.15625 -7.5 C 1.15625 -8.988281 1.460938 -10.316406 2.078125 -11.484375 C 2.703125 -12.648438 3.5625 -13.5625 4.65625 -14.21875 C 5.75 -14.875 6.976562 -15.203125 8.34375 -15.203125 C 10.050781 -15.203125 11.488281 -14.800781 12.65625 -14 C 13.832031 -13.195312 14.691406 -12.078125 15.234375 -10.640625 L 14.125 -10.640625 C 13.695312 -11.773438 12.984375 -12.675781 11.984375 -13.34375 C 10.992188 -14.007812 9.78125 -14.34375 8.34375 -14.34375 C 7.1875 -14.34375 6.132812 -14.066406 5.1875 -13.515625 C 4.238281 -12.960938 3.492188 -12.164062 2.953125 -11.125 C 2.410156 -10.09375 2.140625 -8.882812 2.140625 -7.5 C 2.140625 -6.125 2.410156 -4.925781 2.953125 -3.90625 C 3.492188 -2.882812 4.238281 -2.09375 5.1875 -1.53125 C 6.132812 -0.976562 7.1875 -0.703125 8.34375 -0.703125 C 9.78125 -0.703125 10.992188 -1.035156 11.984375 -1.703125 C 12.984375 -2.367188 13.695312 -3.273438 14.125 -4.421875 L 15.234375 -4.421875 C 14.691406 -2.972656 13.832031 -1.847656 12.65625 -1.046875 C 11.488281 -0.242188 10.050781 0.15625 8.34375 0.15625 C 6.976562 0.15625 5.75 -0.164062 4.65625 -0.8125 C 3.5625 -1.46875 2.703125 -2.378906 2.078125 -3.546875 C 1.460938 -4.710938 1.15625 -6.03125 1.15625 -7.5 Z M 1.15625 -7.5 "/></g></g></g><g fill="#ffffff" fill-opacity="1"><g transform="translate(262.909572, 98.266515)"><g><path d="M 6.875 0.171875 C 5.789062 0.171875 4.8125 -0.0664062 3.9375 -0.546875 C 3.070312 -1.035156 2.390625 -1.734375 1.890625 -2.640625 C 1.398438 -3.554688 1.15625 -4.617188 1.15625 -5.828125 C 1.15625 -7.023438 1.40625 -8.078125 1.90625 -8.984375 C 2.40625 -9.898438 3.09375 -10.597656 3.96875 -11.078125 C 4.851562 -11.554688 5.835938 -11.796875 6.921875 -11.796875 C 8.003906 -11.796875 8.984375 -11.554688 9.859375 -11.078125 C 10.734375 -10.597656 11.414062 -9.90625 11.90625 -9 C 12.394531 -8.101562 12.640625 -7.046875 12.640625 -5.828125 C 12.640625 -4.617188 12.390625 -3.554688 11.890625 -2.640625 C 11.390625 -1.734375 10.703125 -1.035156 9.828125 -0.546875 C 8.953125 -0.0664062 7.96875 0.171875 6.875 0.171875 Z M 6.875 -0.6875 C 7.71875 -0.6875 8.507812 -0.875 9.25 -1.25 C 9.988281 -1.632812 10.578125 -2.210938 11.015625 -2.984375 C 11.460938 -3.753906 11.6875 -4.703125 11.6875 -5.828125 C 11.6875 -6.941406 11.460938 -7.882812 11.015625 -8.65625 C 10.578125 -9.425781 9.992188 -10 9.265625 -10.375 C 8.535156 -10.757812 7.75 -10.953125 6.90625 -10.953125 C 6.0625 -10.953125 5.273438 -10.757812 4.546875 -10.375 C 3.828125 -10 3.242188 -9.425781 2.796875 -8.65625 C 2.359375 -7.882812 2.140625 -6.941406 2.140625 -5.828125 C 2.140625 -4.703125 2.359375 -3.753906 2.796875 -2.984375 C 3.234375 -2.210938 3.8125 -1.632812 4.53125 -1.25 C 5.25 -0.875 6.03125 -0.6875 6.875 -0.6875 Z M 6.875 -0.6875 "/></g></g></g><g fill="#ffffff" fill-opacity="1"><g transform="translate(276.733028, 98.266515)"><g><path d="M 7.015625 -11.875 C 8.398438 -11.875 9.523438 -11.445312 10.390625 -10.59375 C 11.265625 -9.75 11.703125 -8.488281 11.703125 -6.8125 L 11.703125 0 L 10.765625 0 L 10.765625 -6.75 C 10.765625 -8.132812 10.410156 -9.195312 9.703125 -9.9375 C 9.003906 -10.675781 8.054688 -11.046875 6.859375 -11.046875 C 5.597656 -11.046875 4.59375 -10.644531 3.84375 -9.84375 C 3.09375 -9.039062 2.71875 -7.851562 2.71875 -6.28125 L 2.71875 0 L 1.765625 0 L 1.765625 -11.640625 L 2.71875 -11.640625 L 2.71875 -9.171875 C 3.050781 -10.046875 3.597656 -10.710938 4.359375 -11.171875 C 5.128906 -11.640625 6.015625 -11.875 7.015625 -11.875 Z M 7.015625 -11.875 "/></g></g></g><g fill="#ffffff" fill-opacity="1"><g transform="translate(290.084977, 98.266515)"><g><path d="M 5.640625 0.171875 C 4.335938 0.171875 3.273438 -0.113281 2.453125 -0.6875 C 1.628906 -1.257812 1.171875 -2.070312 1.078125 -3.125 L 2.0625 -3.125 C 2.132812 -2.375 2.476562 -1.773438 3.09375 -1.328125 C 3.71875 -0.890625 4.566406 -0.671875 5.640625 -0.671875 C 6.523438 -0.671875 7.226562 -0.894531 7.75 -1.34375 C 8.269531 -1.789062 8.53125 -2.34375 8.53125 -3 C 8.53125 -3.457031 8.390625 -3.832031 8.109375 -4.125 C 7.835938 -4.414062 7.492188 -4.640625 7.078125 -4.796875 C 6.660156 -4.953125 6.09375 -5.125 5.375 -5.3125 C 4.519531 -5.539062 3.828125 -5.765625 3.296875 -5.984375 C 2.773438 -6.210938 2.328125 -6.546875 1.953125 -6.984375 C 1.578125 -7.429688 1.390625 -8.023438 1.390625 -8.765625 C 1.390625 -9.304688 1.550781 -9.804688 1.875 -10.265625 C 2.207031 -10.734375 2.664062 -11.101562 3.25 -11.375 C 3.84375 -11.65625 4.507812 -11.796875 5.25 -11.796875 C 6.46875 -11.796875 7.453125 -11.488281 8.203125 -10.875 C 8.953125 -10.269531 9.351562 -9.429688 9.40625 -8.359375 L 8.453125 -8.359375 C 8.398438 -9.128906 8.09375 -9.753906 7.53125 -10.234375 C 6.976562 -10.722656 6.210938 -10.96875 5.234375 -10.96875 C 4.398438 -10.96875 3.710938 -10.753906 3.171875 -10.328125 C 2.628906 -9.898438 2.359375 -9.378906 2.359375 -8.765625 C 2.359375 -8.222656 2.507812 -7.785156 2.8125 -7.453125 C 3.125 -7.117188 3.503906 -6.859375 3.953125 -6.671875 C 4.398438 -6.492188 5 -6.304688 5.75 -6.109375 C 6.5625 -5.890625 7.210938 -5.675781 7.703125 -5.46875 C 8.203125 -5.269531 8.617188 -4.972656 8.953125 -4.578125 C 9.296875 -4.179688 9.46875 -3.65625 9.46875 -3 C 9.46875 -2.394531 9.300781 -1.847656 8.96875 -1.359375 C 8.644531 -0.878906 8.191406 -0.503906 7.609375 -0.234375 C 7.023438 0.0351562 6.367188 0.171875 5.640625 0.171875 Z M 5.640625 0.171875 "/></g></g></g><g fill="#ffffff" fill-opacity="1"><g transform="translate(300.736535, 98.266515)"><g><path d="M 11.59375 -11.640625 L 11.59375 0 L 10.640625 0 L 10.640625 -2.53125 C 10.304688 -1.644531 9.753906 -0.96875 8.984375 -0.5 C 8.222656 -0.0390625 7.347656 0.1875 6.359375 0.1875 C 4.972656 0.1875 3.84375 -0.234375 2.96875 -1.078125 C 2.09375 -1.929688 1.65625 -3.191406 1.65625 -4.859375 L 1.65625 -11.640625 L 2.59375 -11.640625 L 2.59375 -4.9375 C 2.59375 -3.539062 2.941406 -2.472656 3.640625 -1.734375 C 4.335938 -1.003906 5.289062 -0.640625 6.5 -0.640625 C 7.75 -0.640625 8.75 -1.039062 9.5 -1.84375 C 10.257812 -2.644531 10.640625 -3.832031 10.640625 -5.40625 L 10.640625 -11.640625 Z M 11.59375 -11.640625 "/></g></g></g><g fill="#ffffff" fill-opacity="1"><g transform="translate(314.088484, 98.266515)"><g><path d="M 2.71875 -15.859375 L 2.71875 0 L 1.765625 0 L 1.765625 -15.859375 Z M 2.71875 -15.859375 "/></g></g></g><g fill="#ffffff" fill-opacity="1"><g transform="translate(318.589145, 98.266515)"><g><path d="M 3.1875 -10.796875 L 3.1875 -3.109375 C 3.1875 -2.253906 3.34375 -1.664062 3.65625 -1.34375 C 3.976562 -1.019531 4.539062 -0.859375 5.34375 -0.859375 L 6.640625 -0.859375 L 6.640625 0 L 5.1875 0 C 4.175781 0 3.429688 -0.238281 2.953125 -0.71875 C 2.472656 -1.195312 2.234375 -1.992188 2.234375 -3.109375 L 2.234375 -10.796875 L 0.46875 -10.796875 L 0.46875 -11.640625 L 2.234375 -11.640625 L 2.234375 -14.59375 L 3.1875 -14.59375 L 3.1875 -11.640625 L 6.640625 -11.640625 L 6.640625 -10.796875 Z M 3.1875 -10.796875 "/></g></g></g><g fill="#ffffff" fill-opacity="1"><g transform="translate(326.025937, 98.266515)"><g><path d="M 2.25 -14.234375 C 2.019531 -14.234375 1.828125 -14.304688 1.671875 -14.453125 C 1.515625 -14.609375 1.4375 -14.816406 1.4375 -15.078125 C 1.4375 -15.316406 1.515625 -15.515625 1.671875 -15.671875 C 1.828125 -15.828125 2.019531 -15.90625 2.25 -15.90625 C 2.476562 -15.90625 2.671875 -15.828125 2.828125 -15.671875 C 2.984375 -15.515625 3.0625 -15.316406 3.0625 -15.078125 C 3.0625 -14.816406 2.984375 -14.609375 2.828125 -14.453125 C 2.671875 -14.304688 2.476562 -14.234375 2.25 -14.234375 Z M 2.71875 -11.640625 L 2.71875 0 L 1.765625 0 L 1.765625 -11.640625 Z M 2.71875 -11.640625 "/></g></g></g><g fill="#ffffff" fill-opacity="1"><g transform="translate(330.526598, 98.266515)"><g><path d="M 7.015625 -11.875 C 8.398438 -11.875 9.523438 -11.445312 10.390625 -10.59375 C 11.265625 -9.75 11.703125 -8.488281 11.703125 -6.8125 L 11.703125 0 L 10.765625 0 L 10.765625 -6.75 C 10.765625 -8.132812 10.410156 -9.195312 9.703125 -9.9375 C 9.003906 -10.675781 8.054688 -11.046875 6.859375 -11.046875 C 5.597656 -11.046875 4.59375 -10.644531 3.84375 -9.84375 C 3.09375 -9.039062 2.71875 -7.851562 2.71875 -6.28125 L 2.71875 0 L 1.765625 0 L 1.765625 -11.640625 L 2.71875 -11.640625 L 2.71875 -9.171875 C 3.050781 -10.046875 3.597656 -10.710938 4.359375 -11.171875 C 5.128906 -11.640625 6.015625 -11.875 7.015625 -11.875 Z M 7.015625 -11.875 "/></g></g></g><g fill="#ffffff" fill-opacity="1"><g transform="translate(343.878547, 98.266515)"><g><path d="M 6.78125 -11.796875 C 8.007812 -11.796875 9.050781 -11.5 9.90625 -10.90625 C 10.757812 -10.3125 11.359375 -9.550781 11.703125 -8.625 L 11.703125 -11.640625 L 12.671875 -11.640625 L 12.671875 0.359375 C 12.671875 1.429688 12.429688 2.367188 11.953125 3.171875 C 11.484375 3.984375 10.847656 4.609375 10.046875 5.046875 C 9.253906 5.484375 8.363281 5.703125 7.375 5.703125 C 5.914062 5.703125 4.707031 5.347656 3.75 4.640625 C 2.789062 3.941406 2.160156 3.003906 1.859375 1.828125 L 2.828125 1.828125 C 3.117188 2.753906 3.65625 3.488281 4.4375 4.03125 C 5.21875 4.582031 6.195312 4.859375 7.375 4.859375 C 8.1875 4.859375 8.921875 4.675781 9.578125 4.3125 C 10.234375 3.945312 10.75 3.425781 11.125 2.75 C 11.507812 2.070312 11.703125 1.273438 11.703125 0.359375 L 11.703125 -3.046875 C 11.359375 -2.117188 10.753906 -1.347656 9.890625 -0.734375 C 9.023438 -0.128906 7.988281 0.171875 6.78125 0.171875 C 5.6875 0.171875 4.710938 -0.0703125 3.859375 -0.5625 C 3.015625 -1.0625 2.351562 -1.765625 1.875 -2.671875 C 1.394531 -3.578125 1.15625 -4.628906 1.15625 -5.828125 C 1.15625 -7.023438 1.394531 -8.070312 1.875 -8.96875 C 2.351562 -9.875 3.015625 -10.570312 3.859375 -11.0625 C 4.710938 -11.550781 5.6875 -11.796875 6.78125 -11.796875 Z M 11.703125 -5.828125 C 11.703125 -6.847656 11.488281 -7.742188 11.0625 -8.515625 C 10.644531 -9.296875 10.070312 -9.894531 9.34375 -10.3125 C 8.613281 -10.738281 7.800781 -10.953125 6.90625 -10.953125 C 5.957031 -10.953125 5.125 -10.75 4.40625 -10.34375 C 3.695312 -9.9375 3.140625 -9.347656 2.734375 -8.578125 C 2.335938 -7.804688 2.140625 -6.890625 2.140625 -5.828125 C 2.140625 -4.773438 2.335938 -3.859375 2.734375 -3.078125 C 3.140625 -2.304688 3.703125 -1.710938 4.421875 -1.296875 C 5.148438 -0.890625 5.976562 -0.6875 6.90625 -0.6875 C 7.800781 -0.6875 8.617188 -0.894531 9.359375 -1.3125 C 10.097656 -1.738281 10.671875 -2.335938 11.078125 -3.109375 C 11.492188 -3.890625 11.703125 -4.796875 11.703125 -5.828125 Z M 11.703125 -5.828125 "/></g></g></g><g fill="#ffffff" fill-opacity="1"><g transform="translate(15.53882, 64.099595)"><g><path d="M 51.90625 0 L 43.953125 0 L 43.953125 -17.4375 C 43.953125 -19.882812 43.523438 -21.691406 42.671875 -22.859375 C 41.828125 -24.023438 40.648438 -24.609375 39.140625 -24.609375 C 37.597656 -24.609375 36.125 -24.003906 34.71875 -22.796875 C 33.320312 -21.597656 32.328125 -20.03125 31.734375 -18.09375 L 31.734375 0 L 23.78125 0 L 23.78125 -17.4375 C 23.78125 -19.925781 23.351562 -21.742188 22.5 -22.890625 C 21.65625 -24.035156 20.484375 -24.609375 18.984375 -24.609375 C 17.441406 -24.609375 15.96875 -24.015625 14.5625 -22.828125 C 13.15625 -21.648438 12.15625 -20.09375 11.5625 -18.15625 L 11.5625 0 L 3.625 0 L 3.625 -31.078125 L 10.796875 -31.078125 L 10.796875 -25.328125 C 11.984375 -27.335938 13.5625 -28.882812 15.53125 -29.96875 C 17.507812 -31.0625 19.785156 -31.609375 22.359375 -31.609375 C 24.929688 -31.609375 26.9375 -30.972656 28.375 -29.703125 C 29.820312 -28.441406 30.742188 -26.882812 31.140625 -25.03125 C 32.398438 -27.164062 34.007812 -28.796875 35.96875 -29.921875 C 37.925781 -31.046875 40.132812 -31.609375 42.59375 -31.609375 C 44.53125 -31.609375 46.097656 -31.257812 47.296875 -30.5625 C 48.503906 -29.875 49.441406 -28.945312 50.109375 -27.78125 C 50.785156 -26.613281 51.253906 -25.300781 51.515625 -23.84375 C 51.773438 -22.382812 51.90625 -20.898438 51.90625 -19.390625 Z M 51.90625 0 "/></g></g></g><g fill="#ffffff" fill-opacity="1"><g transform="translate(70.760622, 64.099595)"><g><path d="M 1.484375 -9.1875 C 1.484375 -11.207031 2.046875 -12.976562 3.171875 -14.5 C 4.296875 -16.019531 5.863281 -17.195312 7.875 -18.03125 C 9.894531 -18.863281 12.210938 -19.28125 14.828125 -19.28125 C 16.128906 -19.28125 17.453125 -19.179688 18.796875 -18.984375 C 20.140625 -18.785156 21.304688 -18.46875 22.296875 -18.03125 L 22.296875 -19.6875 C 22.296875 -21.664062 21.710938 -23.1875 20.546875 -24.25 C 19.378906 -25.320312 17.648438 -25.859375 15.359375 -25.859375 C 13.660156 -25.859375 12.039062 -25.5625 10.5 -24.96875 C 8.957031 -24.375 7.335938 -23.503906 5.640625 -22.359375 L 3.078125 -27.578125 C 5.140625 -28.921875 7.25 -29.925781 9.40625 -30.59375 C 11.5625 -31.269531 13.820312 -31.609375 16.1875 -31.609375 C 20.613281 -31.609375 24.0625 -30.5 26.53125 -28.28125 C 29.007812 -26.070312 30.25 -22.910156 30.25 -18.796875 L 30.25 -8.890625 C 30.25 -8.066406 30.394531 -7.472656 30.6875 -7.109375 C 30.988281 -6.753906 31.472656 -6.539062 32.140625 -6.46875 L 32.140625 0 C 31.429688 0.113281 30.789062 0.210938 30.21875 0.296875 C 29.644531 0.378906 29.160156 0.421875 28.765625 0.421875 C 27.179688 0.421875 25.984375 0.0664062 25.171875 -0.640625 C 24.367188 -1.359375 23.867188 -2.234375 23.671875 -3.265625 L 23.484375 -4.859375 C 22.140625 -3.117188 20.457031 -1.773438 18.4375 -0.828125 C 16.425781 0.117188 14.375 0.59375 12.28125 0.59375 C 10.21875 0.59375 8.363281 0.171875 6.71875 -0.671875 C 5.082031 -1.523438 3.800781 -2.691406 2.875 -4.171875 C 1.945312 -5.660156 1.484375 -7.332031 1.484375 -9.1875 Z M 20.8125 -7.59375 C 21.25 -8.0625 21.601562 -8.535156 21.875 -9.015625 C 22.15625 -9.492188 22.296875 -9.929688 22.296875 -10.328125 L 22.296875 -13.46875 C 21.347656 -13.863281 20.320312 -14.164062 19.21875 -14.375 C 18.113281 -14.59375 17.066406 -14.703125 16.078125 -14.703125 C 14.015625 -14.703125 12.320312 -14.257812 11 -13.375 C 9.675781 -12.488281 9.015625 -11.3125 9.015625 -9.84375 C 9.015625 -9.050781 9.234375 -8.300781 9.671875 -7.59375 C 10.109375 -6.882812 10.738281 -6.3125 11.5625 -5.875 C 12.394531 -5.4375 13.382812 -5.21875 14.53125 -5.21875 C 15.71875 -5.21875 16.882812 -5.441406 18.03125 -5.890625 C 19.175781 -6.347656 20.101562 -6.914062 20.8125 -7.59375 Z M 20.8125 -7.59375 "/></g></g></g><g fill="#ffffff" fill-opacity="1"><g transform="translate(104.807143, 64.099595)"><g><path d="M 3.5625 -43.296875 L 11.5 -43.296875 L 11.5 -9.96875 C 11.5 -8.539062 11.738281 -7.578125 12.21875 -7.078125 C 12.695312 -6.585938 13.347656 -6.34375 14.171875 -6.34375 C 14.804688 -6.34375 15.457031 -6.421875 16.125 -6.578125 C 16.800781 -6.742188 17.394531 -6.941406 17.90625 -7.171875 L 18.984375 -1.125 C 17.910156 -0.613281 16.660156 -0.222656 15.234375 0.046875 C 13.816406 0.328125 12.535156 0.46875 11.390625 0.46875 C 8.898438 0.46875 6.972656 -0.191406 5.609375 -1.515625 C 4.242188 -2.835938 3.5625 -4.722656 3.5625 -7.171875 Z M 3.5625 -43.296875 "/></g></g></g><g fill="#ffffff" fill-opacity="1"><g transform="translate(123.609838, 64.099595)"><g><path d="M 22.25 0.59375 C 19.832031 0.59375 17.703125 0.0507812 15.859375 -1.03125 C 14.023438 -2.125 12.59375 -3.597656 11.5625 -5.453125 L 11.5625 12.640625 L 3.625 12.640625 L 3.625 -31.078125 L 10.5625 -31.078125 L 10.5625 -25.734375 C 11.75 -27.554688 13.25 -28.988281 15.0625 -30.03125 C 16.882812 -31.082031 18.960938 -31.609375 21.296875 -31.609375 C 23.390625 -31.609375 25.316406 -31.191406 27.078125 -30.359375 C 28.835938 -29.535156 30.367188 -28.378906 31.671875 -26.890625 C 32.972656 -25.410156 33.988281 -23.710938 34.71875 -21.796875 C 35.457031 -19.878906 35.828125 -17.8125 35.828125 -15.59375 C 35.828125 -12.59375 35.242188 -9.863281 34.078125 -7.40625 C 32.910156 -4.957031 31.304688 -3.007812 29.265625 -1.5625 C 27.234375 -0.125 24.894531 0.59375 22.25 0.59375 Z M 19.578125 -6.171875 C 20.796875 -6.171875 21.898438 -6.425781 22.890625 -6.9375 C 23.878906 -7.445312 24.738281 -8.144531 25.46875 -9.03125 C 26.207031 -9.925781 26.765625 -10.9375 27.140625 -12.0625 C 27.515625 -13.195312 27.703125 -14.375 27.703125 -15.59375 C 27.703125 -16.90625 27.492188 -18.113281 27.078125 -19.21875 C 26.660156 -20.320312 26.054688 -21.296875 25.265625 -22.140625 C 24.472656 -22.992188 23.550781 -23.660156 22.5 -24.140625 C 21.457031 -24.617188 20.320312 -24.859375 19.09375 -24.859375 C 18.34375 -24.859375 17.582031 -24.726562 16.8125 -24.46875 C 16.039062 -24.207031 15.296875 -23.835938 14.578125 -23.359375 C 13.867188 -22.890625 13.25 -22.335938 12.71875 -21.703125 C 12.1875 -21.078125 11.800781 -20.382812 11.5625 -19.625 L 11.5625 -12.34375 C 12.039062 -11.1875 12.679688 -10.132812 13.484375 -9.1875 C 14.296875 -8.238281 15.234375 -7.5 16.296875 -6.96875 C 17.367188 -6.4375 18.460938 -6.171875 19.578125 -6.171875 Z M 19.578125 -6.171875 "/></g></g></g><g fill="#ffffff" fill-opacity="1"><g transform="translate(161.21523, 64.099595)"><g><path d="M 1.484375 -9.1875 C 1.484375 -11.207031 2.046875 -12.976562 3.171875 -14.5 C 4.296875 -16.019531 5.863281 -17.195312 7.875 -18.03125 C 9.894531 -18.863281 12.210938 -19.28125 14.828125 -19.28125 C 16.128906 -19.28125 17.453125 -19.179688 18.796875 -18.984375 C 20.140625 -18.785156 21.304688 -18.46875 22.296875 -18.03125 L 22.296875 -19.6875 C 22.296875 -21.664062 21.710938 -23.1875 20.546875 -24.25 C 19.378906 -25.320312 17.648438 -25.859375 15.359375 -25.859375 C 13.660156 -25.859375 12.039062 -25.5625 10.5 -24.96875 C 8.957031 -24.375 7.335938 -23.503906 5.640625 -22.359375 L 3.078125 -27.578125 C 5.140625 -28.921875 7.25 -29.925781 9.40625 -30.59375 C 11.5625 -31.269531 13.820312 -31.609375 16.1875 -31.609375 C 20.613281 -31.609375 24.0625 -30.5 26.53125 -28.28125 C 29.007812 -26.070312 30.25 -22.910156 30.25 -18.796875 L 30.25 -8.890625 C 30.25 -8.066406 30.394531 -7.472656 30.6875 -7.109375 C 30.988281 -6.753906 31.472656 -6.539062 32.140625 -6.46875 L 32.140625 0 C 31.429688 0.113281 30.789062 0.210938 30.21875 0.296875 C 29.644531 0.378906 29.160156 0.421875 28.765625 0.421875 C 27.179688 0.421875 25.984375 0.0664062 25.171875 -0.640625 C 24.367188 -1.359375 23.867188 -2.234375 23.671875 -3.265625 L 23.484375 -4.859375 C 22.140625 -3.117188 20.457031 -1.773438 18.4375 -0.828125 C 16.425781 0.117188 14.375 0.59375 12.28125 0.59375 C 10.21875 0.59375 8.363281 0.171875 6.71875 -0.671875 C 5.082031 -1.523438 3.800781 -2.691406 2.875 -4.171875 C 1.945312 -5.660156 1.484375 -7.332031 1.484375 -9.1875 Z M 20.8125 -7.59375 C 21.25 -8.0625 21.601562 -8.535156 21.875 -9.015625 C 22.15625 -9.492188 22.296875 -9.929688 22.296875 -10.328125 L 22.296875 -13.46875 C 21.347656 -13.863281 20.320312 -14.164062 19.21875 -14.375 C 18.113281 -14.59375 17.066406 -14.703125 16.078125 -14.703125 C 14.015625 -14.703125 12.320312 -14.257812 11 -13.375 C 9.675781 -12.488281 9.015625 -11.3125 9.015625 -9.84375 C 9.015625 -9.050781 9.234375 -8.300781 9.671875 -7.59375 C 10.109375 -6.882812 10.738281 -6.3125 11.5625 -5.875 C 12.394531 -5.4375 13.382812 -5.21875 14.53125 -5.21875 C 15.71875 -5.21875 16.882812 -5.441406 18.03125 -5.890625 C 19.175781 -6.347656 20.101562 -6.914062 20.8125 -7.59375 Z M 20.8125 -7.59375 "/></g></g></g><g fill="#ffffff" fill-opacity="1"><g transform="translate(195.261752, 64.099595)"><g><path d="M 3.625 0 L 3.625 -31.078125 L 11.5625 -31.078125 L 11.5625 0 Z M 3.625 -35.40625 L 3.625 -43.296875 L 11.5625 -43.296875 L 11.5625 -35.40625 Z M 3.625 -35.40625 "/></g></g></g><g fill="#ffffff" fill-opacity="1"><g transform="translate(210.386948, 64.099595)"><g><path d="M 15.0625 0.59375 C 12.414062 0.59375 9.882812 0.160156 7.46875 -0.703125 C 5.0625 -1.578125 2.988281 -2.863281 1.25 -4.5625 L 4.09375 -9.734375 C 5.945312 -8.222656 7.773438 -7.113281 9.578125 -6.40625 C 11.378906 -5.695312 13.109375 -5.34375 14.765625 -5.34375 C 16.304688 -5.34375 17.539062 -5.617188 18.46875 -6.171875 C 19.40625 -6.722656 19.875 -7.550781 19.875 -8.65625 C 19.875 -9.40625 19.613281 -9.988281 19.09375 -10.40625 C 18.582031 -10.820312 17.84375 -11.1875 16.875 -11.5 C 15.90625 -11.820312 14.726562 -12.179688 13.34375 -12.578125 C 11.050781 -13.328125 9.132812 -14.054688 7.59375 -14.765625 C 6.050781 -15.484375 4.894531 -16.382812 4.125 -17.46875 C 3.351562 -18.550781 2.96875 -19.945312 2.96875 -21.65625 C 2.96875 -23.707031 3.488281 -25.472656 4.53125 -26.953125 C 5.582031 -28.441406 7.046875 -29.597656 8.921875 -30.421875 C 10.804688 -31.253906 13.015625 -31.671875 15.546875 -31.671875 C 17.753906 -31.671875 19.847656 -31.320312 21.828125 -30.625 C 23.804688 -29.9375 25.601562 -28.820312 27.21875 -27.28125 L 24.015625 -22.25 C 22.441406 -23.46875 20.941406 -24.363281 19.515625 -24.9375 C 18.085938 -25.507812 16.644531 -25.796875 15.1875 -25.796875 C 14.351562 -25.796875 13.570312 -25.695312 12.84375 -25.5 C 12.113281 -25.300781 11.519531 -24.972656 11.0625 -24.515625 C 10.601562 -24.066406 10.375 -23.425781 10.375 -22.59375 C 10.375 -21.84375 10.582031 -21.257812 11 -20.84375 C 11.414062 -20.425781 12.046875 -20.0625 12.890625 -19.75 C 13.742188 -19.4375 14.785156 -19.082031 16.015625 -18.6875 C 18.503906 -17.96875 20.609375 -17.234375 22.328125 -16.484375 C 24.046875 -15.734375 25.335938 -14.8125 26.203125 -13.71875 C 27.078125 -12.632812 27.515625 -11.144531 27.515625 -9.25 C 27.515625 -6.164062 26.390625 -3.753906 24.140625 -2.015625 C 21.890625 -0.273438 18.863281 0.59375 15.0625 0.59375 Z M 15.0625 0.59375 "/></g></g></g><g fill="#ff6f00" fill-opacity="1"><g transform="translate(239.694899, 64.099595)"><g><path d="M 3.4375 0 L 3.4375 -8.546875 L 9.96875 -8.546875 L 9.96875 0 Z M 3.4375 0 "/></g></g></g><g fill="#ff6f00" fill-opacity="1"><g transform="translate(253.040666, 64.099595)"><g><path d="M 1.71875 -15.546875 C 1.71875 -18.546875 2.3125 -21.257812 3.5 -23.6875 C 4.6875 -26.125 6.328125 -28.050781 8.421875 -29.46875 C 10.515625 -30.894531 12.90625 -31.609375 15.59375 -31.609375 C 17.894531 -31.609375 19.960938 -31.046875 21.796875 -29.921875 C 23.640625 -28.796875 25.070312 -27.363281 26.09375 -25.625 L 26.09375 -43.296875 L 34.046875 -43.296875 L 34.046875 -8.890625 C 34.046875 -8.066406 34.179688 -7.472656 34.453125 -7.109375 C 34.734375 -6.753906 35.210938 -6.539062 35.890625 -6.46875 L 35.890625 0 C 34.503906 0.28125 33.375 0.421875 32.5 0.421875 C 31.082031 0.421875 29.90625 0.0664062 28.96875 -0.640625 C 28.039062 -1.359375 27.519531 -2.289062 27.40625 -3.4375 L 27.28125 -5.390625 C 26.132812 -3.453125 24.582031 -1.96875 22.625 -0.9375 C 20.664062 0.0820312 18.617188 0.59375 16.484375 0.59375 C 14.347656 0.59375 12.378906 0.179688 10.578125 -0.640625 C 8.785156 -1.472656 7.226562 -2.617188 5.90625 -4.078125 C 4.582031 -5.546875 3.550781 -7.257812 2.8125 -9.21875 C 2.082031 -11.175781 1.71875 -13.285156 1.71875 -15.546875 Z M 26.09375 -11.390625 L 26.09375 -18.796875 C 25.695312 -19.941406 25.0625 -20.96875 24.1875 -21.875 C 23.320312 -22.789062 22.351562 -23.515625 21.28125 -24.046875 C 20.21875 -24.585938 19.15625 -24.859375 18.09375 -24.859375 C 16.863281 -24.859375 15.753906 -24.597656 14.765625 -24.078125 C 13.773438 -23.566406 12.914062 -22.875 12.1875 -22 C 11.457031 -21.132812 10.90625 -20.128906 10.53125 -18.984375 C 10.15625 -17.835938 9.96875 -16.628906 9.96875 -15.359375 C 9.96875 -14.097656 10.171875 -12.898438 10.578125 -11.765625 C 10.992188 -10.640625 11.597656 -9.660156 12.390625 -8.828125 C 13.179688 -8.003906 14.097656 -7.351562 15.140625 -6.875 C 16.191406 -6.40625 17.332031 -6.171875 18.5625 -6.171875 C 19.3125 -6.171875 20.070312 -6.296875 20.84375 -6.546875 C 21.613281 -6.804688 22.34375 -7.160156 23.03125 -7.609375 C 23.726562 -8.066406 24.34375 -8.625 24.875 -9.28125 C 25.414062 -9.9375 25.820312 -10.640625 26.09375 -11.390625 Z M 26.09375 -11.390625 "/></g></g></g><g fill="#ff6f00" fill-opacity="1"><g transform="translate(291.298516, 64.099595)"><g><path d="M 18.03125 0.59375 C 15.539062 0.59375 13.285156 0.171875 11.265625 -0.671875 C 9.253906 -1.523438 7.535156 -2.691406 6.109375 -4.171875 C 4.679688 -5.660156 3.582031 -7.363281 2.8125 -9.28125 C 2.039062 -11.195312 1.65625 -13.222656 1.65625 -15.359375 C 1.65625 -18.328125 2.316406 -21.035156 3.640625 -23.484375 C 4.972656 -25.941406 6.875 -27.910156 9.34375 -29.390625 C 11.8125 -30.867188 14.726562 -31.609375 18.09375 -31.609375 C 21.488281 -31.609375 24.390625 -30.867188 26.796875 -29.390625 C 29.210938 -27.910156 31.0625 -25.953125 32.34375 -23.515625 C 33.632812 -21.085938 34.28125 -18.46875 34.28125 -15.65625 C 34.28125 -15.1875 34.257812 -14.703125 34.21875 -14.203125 C 34.175781 -13.710938 34.140625 -13.304688 34.109375 -12.984375 L 10.078125 -12.984375 C 10.242188 -11.398438 10.710938 -10.015625 11.484375 -8.828125 C 12.253906 -7.648438 13.238281 -6.753906 14.4375 -6.140625 C 15.644531 -5.523438 16.941406 -5.21875 18.328125 -5.21875 C 19.910156 -5.21875 21.398438 -5.601562 22.796875 -6.375 C 24.203125 -7.144531 25.164062 -8.164062 25.6875 -9.4375 L 32.5 -7.53125 C 31.75 -5.945312 30.671875 -4.539062 29.265625 -3.3125 C 27.867188 -2.09375 26.21875 -1.132812 24.3125 -0.4375 C 22.414062 0.25 20.320312 0.59375 18.03125 0.59375 Z M 9.90625 -18.03125 L 26.15625 -18.03125 C 26 -19.613281 25.550781 -20.988281 24.8125 -22.15625 C 24.082031 -23.320312 23.125 -24.226562 21.9375 -24.875 C 20.757812 -25.53125 19.4375 -25.859375 17.96875 -25.859375 C 16.550781 -25.859375 15.257812 -25.53125 14.09375 -24.875 C 12.925781 -24.226562 11.972656 -23.320312 11.234375 -22.15625 C 10.503906 -20.988281 10.0625 -19.613281 9.90625 -18.03125 Z M 9.90625 -18.03125 "/></g></g></g><g fill="#ff6f00" fill-opacity="1"><g transform="translate(326.827896, 64.099595)"><g><path d="M 11.984375 0 L 0.53125 -31.078125 L 8.78125 -31.078125 L 16.609375 -7.234375 L 24.5 -31.078125 L 32.03125 -31.078125 L 20.640625 0 Z M 11.984375 0 "/></g></g></g></svg>