<svg xmlns="http://www.w3.org/2000/svg" xmlns:xlink="http://www.w3.org/1999/xlink" width="500" zoomAndPan="magnify" viewBox="0 0 375 374.999991" height="500" preserveAspectRatio="xMidYMid meet" version="1.0"><defs><g/></defs><g fill="#ff6f00" fill-opacity="1"><g transform="translate(0.0206225, 245.827278)"><g><path d="M 69.84375 -226.78125 L 69.84375 -221.03125 L 57.453125 -221.03125 C 54.828125 -221.03125 52.757812 -219.921875 51.25 -217.703125 C 49.738281 -215.484375 48.984375 -212.5625 48.984375 -208.9375 C 48.984375 -190.789062 48.984375 -174.863281 48.984375 -161.15625 C 48.984375 -147.445312 48.984375 -136.8125 48.984375 -129.25 C 48.984375 -121.695312 48.882812 -117.921875 48.6875 -117.921875 C 48.6875 -113.484375 46.617188 -109.25 42.484375 -105.21875 C 38.347656 -101.1875 32.753906 -98.164062 25.703125 -96.15625 C 32.753906 -94.132812 38.347656 -91.160156 42.484375 -87.234375 C 46.617188 -83.304688 48.6875 -79.019531 48.6875 -74.375 L 48.984375 16.625 C 48.984375 20.257812 49.738281 23.179688 51.25 25.390625 C 52.757812 27.609375 54.828125 28.71875 57.453125 28.71875 L 69.84375 28.71875 L 69.84375 34.765625 L 57.453125 34.765625 C 52.816406 34.765625 49.035156 33.101562 46.109375 29.78125 C 43.191406 26.457031 41.734375 22.070312 41.734375 16.625 L 41.734375 -75.59375 C 41.734375 -80.832031 39.613281 -85.113281 35.375 -88.4375 C 31.144531 -91.769531 25.5 -93.4375 18.4375 -93.4375 L 16.625 -93.4375 L 16.625 -98.578125 L 18.4375 -98.578125 C 25.5 -98.578125 31.144531 -100.238281 35.375 -103.5625 C 39.613281 -106.882812 41.734375 -111.164062 41.734375 -116.40625 L 41.734375 -208.640625 C 41.734375 -214.078125 43.191406 -218.457031 46.109375 -221.78125 C 49.035156 -225.113281 52.816406 -226.78125 57.453125 -226.78125 Z M 69.84375 -226.78125 "/></g></g></g><g fill="#ff6f00" fill-opacity="1"><g transform="translate(78.637015, 245.827278)"><g/></g></g><g fill="#ff6f00" fill-opacity="1"><g transform="translate(122.177376, 245.827278)"><g/></g></g><g fill="#ff6f00" fill-opacity="1"><g transform="translate(165.717737, 245.827278)"><g/></g></g><g fill="#ff6f00" fill-opacity="1"><g transform="translate(209.258098, 245.827278)"><g/></g></g><g fill="#ff6f00" fill-opacity="1"><g transform="translate(252.798459, 245.827278)"><g/></g></g><g fill="#ff6f00" fill-opacity="1"><g transform="translate(296.342369, 245.827278)"><g><path d="M 9.078125 -226.78125 L 21.171875 -226.78125 C 26.003906 -226.78125 29.878906 -225.113281 32.796875 -221.78125 C 35.722656 -218.457031 37.1875 -214.078125 37.1875 -208.640625 C 37.1875 -190.296875 37.1875 -174.164062 37.1875 -160.25 C 37.1875 -146.34375 37.1875 -135.554688 37.1875 -127.890625 C 37.1875 -120.234375 37.085938 -116.40625 36.890625 -116.40625 C 37.085938 -111.164062 39.351562 -106.882812 43.6875 -103.5625 C 48.019531 -100.238281 53.613281 -98.578125 60.46875 -98.578125 L 62.28125 -98.578125 L 62.28125 -93.4375 L 60.46875 -93.4375 C 53.613281 -93.4375 48.019531 -91.769531 43.6875 -88.4375 C 39.351562 -85.113281 37.085938 -80.832031 36.890625 -75.59375 L 37.1875 16.625 C 37.1875 22.070312 35.722656 26.457031 32.796875 29.78125 C 29.878906 33.101562 26.003906 34.765625 21.171875 34.765625 L 9.078125 34.765625 L 9.078125 28.71875 L 21.171875 28.71875 C 23.785156 28.71875 25.898438 27.609375 27.515625 25.390625 C 29.128906 23.179688 29.9375 20.257812 29.9375 16.625 L 29.9375 -74.375 C 30.132812 -79.019531 32.347656 -83.304688 36.578125 -87.234375 C 40.816406 -91.160156 46.363281 -94.132812 53.21875 -96.15625 C 46.363281 -98.164062 40.816406 -101.1875 36.578125 -105.21875 C 32.347656 -109.25 30.132812 -113.484375 29.9375 -117.921875 L 29.9375 -208.9375 C 29.9375 -212.5625 29.128906 -215.484375 27.515625 -217.703125 C 25.898438 -219.921875 23.785156 -221.03125 21.171875 -221.03125 L 9.078125 -221.03125 Z M 9.078125 -226.78125 "/></g></g></g><g fill="#ffffff" fill-opacity="1"><g transform="translate(21.90494, 344.922633)"><g><path d="M 49.984375 0 L 42.328125 0 L 42.328125 -16.796875 C 42.328125 -19.160156 41.914062 -20.898438 41.09375 -22.015625 C 40.28125 -23.140625 39.148438 -23.703125 37.703125 -23.703125 C 36.210938 -23.703125 34.789062 -23.117188 33.4375 -21.953125 C 32.09375 -20.796875 31.132812 -19.285156 30.5625 -17.421875 L 30.5625 0 L 22.90625 0 L 22.90625 -16.796875 C 22.90625 -19.191406 22.492188 -20.941406 21.671875 -22.046875 C 20.859375 -23.148438 19.726562 -23.703125 18.28125 -23.703125 C 16.789062 -23.703125 15.367188 -23.128906 14.015625 -21.984375 C 12.671875 -20.847656 11.710938 -19.347656 11.140625 -17.484375 L 11.140625 0 L 3.484375 0 L 3.484375 -29.9375 L 10.390625 -29.9375 L 10.390625 -24.390625 C 11.535156 -26.335938 13.0625 -27.832031 14.96875 -28.875 C 16.875 -29.925781 19.0625 -30.453125 21.53125 -30.453125 C 24.007812 -30.453125 25.941406 -29.84375 27.328125 -28.625 C 28.722656 -27.40625 29.609375 -25.898438 29.984375 -24.109375 C 31.203125 -26.160156 32.753906 -27.726562 34.640625 -28.8125 C 36.523438 -29.90625 38.648438 -30.453125 41.015625 -30.453125 C 42.878906 -30.453125 44.390625 -30.117188 45.546875 -29.453125 C 46.710938 -28.785156 47.617188 -27.890625 48.265625 -26.765625 C 48.910156 -25.640625 49.359375 -24.367188 49.609375 -22.953125 C 49.859375 -21.546875 49.984375 -20.125 49.984375 -18.6875 Z M 49.984375 0 "/></g></g></g><g fill="#ffffff" fill-opacity="1"><g transform="translate(75.080961, 344.922633)"><g><path d="M 1.421875 -8.859375 C 1.421875 -10.796875 1.960938 -12.5 3.046875 -13.96875 C 4.140625 -15.4375 5.65625 -16.566406 7.59375 -17.359375 C 9.539062 -18.160156 11.769531 -18.5625 14.28125 -18.5625 C 15.539062 -18.5625 16.816406 -18.46875 18.109375 -18.28125 C 19.398438 -18.09375 20.523438 -17.785156 21.484375 -17.359375 L 21.484375 -18.96875 C 21.484375 -20.875 20.921875 -22.335938 19.796875 -23.359375 C 18.671875 -24.390625 17.003906 -24.90625 14.796875 -24.90625 C 13.160156 -24.90625 11.597656 -24.617188 10.109375 -24.046875 C 8.628906 -23.472656 7.066406 -22.632812 5.421875 -21.53125 L 2.96875 -26.5625 C 4.945312 -27.851562 6.972656 -28.820312 9.046875 -29.46875 C 11.128906 -30.125 13.3125 -30.453125 15.59375 -30.453125 C 19.863281 -30.453125 23.1875 -29.382812 25.5625 -27.25 C 27.945312 -25.113281 29.140625 -22.066406 29.140625 -18.109375 L 29.140625 -8.5625 C 29.140625 -7.769531 29.28125 -7.203125 29.5625 -6.859375 C 29.84375 -6.515625 30.3125 -6.304688 30.96875 -6.234375 L 30.96875 0 C 30.28125 0.113281 29.660156 0.207031 29.109375 0.28125 C 28.554688 0.363281 28.085938 0.40625 27.703125 0.40625 C 26.179688 0.40625 25.03125 0.0625 24.25 -0.625 C 23.46875 -1.3125 22.984375 -2.148438 22.796875 -3.140625 L 22.625 -4.6875 C 21.320312 -3.007812 19.703125 -1.710938 17.765625 -0.796875 C 15.828125 0.117188 13.847656 0.578125 11.828125 0.578125 C 9.847656 0.578125 8.066406 0.164062 6.484375 -0.65625 C 4.898438 -1.476562 3.660156 -2.601562 2.765625 -4.03125 C 1.867188 -5.457031 1.421875 -7.066406 1.421875 -8.859375 Z M 20.046875 -7.3125 C 20.460938 -7.769531 20.804688 -8.226562 21.078125 -8.6875 C 21.347656 -9.144531 21.484375 -9.5625 21.484375 -9.9375 L 21.484375 -12.96875 C 20.566406 -13.34375 19.570312 -13.632812 18.5 -13.84375 C 17.4375 -14.0625 16.429688 -14.171875 15.484375 -14.171875 C 13.503906 -14.171875 11.875 -13.738281 10.59375 -12.875 C 9.320312 -12.019531 8.6875 -10.890625 8.6875 -9.484375 C 8.6875 -8.722656 8.894531 -8 9.3125 -7.3125 C 9.726562 -6.625 10.335938 -6.070312 11.140625 -5.65625 C 11.941406 -5.238281 12.894531 -5.03125 14 -5.03125 C 15.132812 -5.03125 16.253906 -5.25 17.359375 -5.6875 C 18.460938 -6.125 19.359375 -6.664062 20.046875 -7.3125 Z M 20.046875 -7.3125 "/></g></g></g><g fill="#ffffff" fill-opacity="1"><g transform="translate(107.866176, 344.922633)"><g><path d="M 3.421875 -41.703125 L 11.078125 -41.703125 L 11.078125 -9.59375 C 11.078125 -8.226562 11.304688 -7.304688 11.765625 -6.828125 C 12.222656 -6.347656 12.851562 -6.109375 13.65625 -6.109375 C 14.257812 -6.109375 14.882812 -6.179688 15.53125 -6.328125 C 16.1875 -6.484375 16.757812 -6.675781 17.25 -6.90625 L 18.28125 -1.078125 C 17.25 -0.585938 16.046875 -0.210938 14.671875 0.046875 C 13.304688 0.316406 12.070312 0.453125 10.96875 0.453125 C 8.570312 0.453125 6.710938 -0.179688 5.390625 -1.453125 C 4.078125 -2.734375 3.421875 -4.550781 3.421875 -6.90625 Z M 3.421875 -41.703125 "/></g></g></g><g fill="#ffffff" fill-opacity="1"><g transform="translate(125.972297, 344.922633)"><g><path d="M 21.421875 0.578125 C 19.097656 0.578125 17.050781 0.0507812 15.28125 -1 C 13.507812 -2.050781 12.128906 -3.46875 11.140625 -5.25 L 11.140625 12.171875 L 3.484375 12.171875 L 3.484375 -29.9375 L 10.171875 -29.9375 L 10.171875 -24.796875 C 11.304688 -26.546875 12.75 -27.925781 14.5 -28.9375 C 16.257812 -29.945312 18.265625 -30.453125 20.515625 -30.453125 C 22.523438 -30.453125 24.378906 -30.050781 26.078125 -29.25 C 27.773438 -28.445312 29.25 -27.332031 30.5 -25.90625 C 31.757812 -24.476562 32.738281 -22.835938 33.4375 -20.984375 C 34.144531 -19.140625 34.5 -17.15625 34.5 -15.03125 C 34.5 -12.132812 33.9375 -9.503906 32.8125 -7.140625 C 31.695312 -4.773438 30.15625 -2.894531 28.1875 -1.5 C 26.226562 -0.113281 23.972656 0.578125 21.421875 0.578125 Z M 18.84375 -5.9375 C 20.03125 -5.9375 21.097656 -6.179688 22.046875 -6.671875 C 23.003906 -7.171875 23.832031 -7.847656 24.53125 -8.703125 C 25.238281 -9.566406 25.769531 -10.539062 26.125 -11.625 C 26.488281 -12.707031 26.671875 -13.84375 26.671875 -15.03125 C 26.671875 -16.28125 26.472656 -17.4375 26.078125 -18.5 C 25.679688 -19.570312 25.097656 -20.515625 24.328125 -21.328125 C 23.566406 -22.148438 22.679688 -22.789062 21.671875 -23.25 C 20.671875 -23.707031 19.578125 -23.9375 18.390625 -23.9375 C 17.671875 -23.9375 16.9375 -23.8125 16.1875 -23.5625 C 15.445312 -23.3125 14.734375 -22.957031 14.046875 -22.5 C 13.367188 -22.050781 12.769531 -21.519531 12.25 -20.90625 C 11.738281 -20.300781 11.367188 -19.632812 11.140625 -18.90625 L 11.140625 -11.875 C 11.597656 -10.769531 12.21875 -9.757812 13 -8.84375 C 13.78125 -7.9375 14.679688 -7.222656 15.703125 -6.703125 C 16.734375 -6.191406 17.78125 -5.9375 18.84375 -5.9375 Z M 18.84375 -5.9375 "/></g></g></g><g fill="#ffffff" fill-opacity="1"><g transform="translate(162.184537, 344.922633)"><g><path d="M 1.421875 -8.859375 C 1.421875 -10.796875 1.960938 -12.5 3.046875 -13.96875 C 4.140625 -15.4375 5.65625 -16.566406 7.59375 -17.359375 C 9.539062 -18.160156 11.769531 -18.5625 14.28125 -18.5625 C 15.539062 -18.5625 16.816406 -18.46875 18.109375 -18.28125 C 19.398438 -18.09375 20.523438 -17.785156 21.484375 -17.359375 L 21.484375 -18.96875 C 21.484375 -20.875 20.921875 -22.335938 19.796875 -23.359375 C 18.671875 -24.390625 17.003906 -24.90625 14.796875 -24.90625 C 13.160156 -24.90625 11.597656 -24.617188 10.109375 -24.046875 C 8.628906 -23.472656 7.066406 -22.632812 5.421875 -21.53125 L 2.96875 -26.5625 C 4.945312 -27.851562 6.972656 -28.820312 9.046875 -29.46875 C 11.128906 -30.125 13.3125 -30.453125 15.59375 -30.453125 C 19.863281 -30.453125 23.1875 -29.382812 25.5625 -27.25 C 27.945312 -25.113281 29.140625 -22.066406 29.140625 -18.109375 L 29.140625 -8.5625 C 29.140625 -7.769531 29.28125 -7.203125 29.5625 -6.859375 C 29.84375 -6.515625 30.3125 -6.304688 30.96875 -6.234375 L 30.96875 0 C 30.28125 0.113281 29.660156 0.207031 29.109375 0.28125 C 28.554688 0.363281 28.085938 0.40625 27.703125 0.40625 C 26.179688 0.40625 25.03125 0.0625 24.25 -0.625 C 23.46875 -1.3125 22.984375 -2.148438 22.796875 -3.140625 L 22.625 -4.6875 C 21.320312 -3.007812 19.703125 -1.710938 17.765625 -0.796875 C 15.828125 0.117188 13.847656 0.578125 11.828125 0.578125 C 9.847656 0.578125 8.066406 0.164062 6.484375 -0.65625 C 4.898438 -1.476562 3.660156 -2.601562 2.765625 -4.03125 C 1.867188 -5.457031 1.421875 -7.066406 1.421875 -8.859375 Z M 20.046875 -7.3125 C 20.460938 -7.769531 20.804688 -8.226562 21.078125 -8.6875 C 21.347656 -9.144531 21.484375 -9.5625 21.484375 -9.9375 L 21.484375 -12.96875 C 20.566406 -13.34375 19.570312 -13.632812 18.5 -13.84375 C 17.4375 -14.0625 16.429688 -14.171875 15.484375 -14.171875 C 13.503906 -14.171875 11.875 -13.738281 10.59375 -12.875 C 9.320312 -12.019531 8.6875 -10.890625 8.6875 -9.484375 C 8.6875 -8.722656 8.894531 -8 9.3125 -7.3125 C 9.726562 -6.625 10.335938 -6.070312 11.140625 -5.65625 C 11.941406 -5.238281 12.894531 -5.03125 14 -5.03125 C 15.132812 -5.03125 16.253906 -5.25 17.359375 -5.6875 C 18.460938 -6.125 19.359375 -6.664062 20.046875 -7.3125 Z M 20.046875 -7.3125 "/></g></g></g><g fill="#ffffff" fill-opacity="1"><g transform="translate(194.969752, 344.922633)"><g><path d="M 3.484375 0 L 3.484375 -29.9375 L 11.140625 -29.9375 L 11.140625 0 Z M 3.484375 -34.109375 L 3.484375 -41.703125 L 11.140625 -41.703125 L 11.140625 -34.109375 Z M 3.484375 -34.109375 "/></g></g></g><g fill="#ffffff" fill-opacity="1"><g transform="translate(209.534612, 344.922633)"><g><path d="M 14.515625 0.578125 C 11.960938 0.578125 9.523438 0.160156 7.203125 -0.671875 C 4.878906 -1.515625 2.878906 -2.757812 1.203125 -4.40625 L 3.9375 -9.375 C 5.726562 -7.925781 7.488281 -6.859375 9.21875 -6.171875 C 10.957031 -5.484375 12.625 -5.140625 14.21875 -5.140625 C 15.707031 -5.140625 16.898438 -5.40625 17.796875 -5.9375 C 18.691406 -6.46875 19.140625 -7.269531 19.140625 -8.34375 C 19.140625 -9.0625 18.890625 -9.617188 18.390625 -10.015625 C 17.898438 -10.421875 17.1875 -10.773438 16.25 -11.078125 C 15.320312 -11.390625 14.191406 -11.734375 12.859375 -12.109375 C 10.648438 -12.835938 8.800781 -13.539062 7.3125 -14.21875 C 5.820312 -14.90625 4.707031 -15.769531 3.96875 -16.8125 C 3.226562 -17.863281 2.859375 -19.207031 2.859375 -20.84375 C 2.859375 -22.832031 3.363281 -24.539062 4.375 -25.96875 C 5.382812 -27.394531 6.789062 -28.503906 8.59375 -29.296875 C 10.40625 -30.097656 12.53125 -30.5 14.96875 -30.5 C 17.101562 -30.5 19.117188 -30.164062 21.015625 -29.5 C 22.921875 -28.832031 24.65625 -27.757812 26.21875 -26.28125 L 23.140625 -21.421875 C 21.609375 -22.597656 20.15625 -23.460938 18.78125 -24.015625 C 17.414062 -24.566406 16.03125 -24.84375 14.625 -24.84375 C 13.820312 -24.84375 13.066406 -24.75 12.359375 -24.5625 C 11.660156 -24.375 11.09375 -24.0625 10.65625 -23.625 C 10.21875 -23.1875 10 -22.566406 10 -21.765625 C 10 -21.035156 10.195312 -20.472656 10.59375 -20.078125 C 11 -19.679688 11.609375 -19.328125 12.421875 -19.015625 C 13.242188 -18.710938 14.242188 -18.375 15.421875 -18 C 17.816406 -17.3125 19.84375 -16.601562 21.5 -15.875 C 23.164062 -15.15625 24.414062 -14.269531 25.25 -13.21875 C 26.082031 -12.175781 26.5 -10.738281 26.5 -8.90625 C 26.5 -5.9375 25.414062 -3.613281 23.25 -1.9375 C 21.082031 -0.257812 18.171875 0.578125 14.515625 0.578125 Z M 14.515625 0.578125 "/></g></g></g><g fill="#ff6f00" fill-opacity="1"><g transform="translate(237.752582, 344.922633)"><g><path d="M 3.3125 0 L 3.3125 -8.21875 L 9.59375 -8.21875 L 9.59375 0 Z M 3.3125 0 "/></g></g></g><g fill="#ff6f00" fill-opacity="1"><g transform="translate(250.60393, 344.922633)"><g><path d="M 1.65625 -14.96875 C 1.65625 -17.863281 2.222656 -20.476562 3.359375 -22.8125 C 4.503906 -25.15625 6.085938 -27.015625 8.109375 -28.390625 C 10.128906 -29.765625 12.4375 -30.453125 15.03125 -30.453125 C 17.238281 -30.453125 19.226562 -29.90625 21 -28.8125 C 22.769531 -27.726562 24.148438 -26.347656 25.140625 -24.671875 L 25.140625 -41.703125 L 32.796875 -41.703125 L 32.796875 -8.5625 C 32.796875 -7.769531 32.925781 -7.203125 33.1875 -6.859375 C 33.457031 -6.515625 33.914062 -6.304688 34.5625 -6.234375 L 34.5625 0 C 33.226562 0.269531 32.140625 0.40625 31.296875 0.40625 C 29.929688 0.40625 28.800781 0.0625 27.90625 -0.625 C 27.007812 -1.3125 26.503906 -2.207031 26.390625 -3.3125 L 26.28125 -5.203125 C 25.175781 -3.335938 23.679688 -1.90625 21.796875 -0.90625 C 19.910156 0.0820312 17.9375 0.578125 15.875 0.578125 C 13.820312 0.578125 11.925781 0.175781 10.1875 -0.625 C 8.457031 -1.425781 6.953125 -2.53125 5.671875 -3.9375 C 4.398438 -5.351562 3.410156 -7 2.703125 -8.875 C 2.003906 -10.757812 1.65625 -12.789062 1.65625 -14.96875 Z M 25.140625 -10.96875 L 25.140625 -18.109375 C 24.753906 -19.210938 24.140625 -20.203125 23.296875 -21.078125 C 22.460938 -21.953125 21.53125 -22.644531 20.5 -23.15625 C 19.476562 -23.675781 18.453125 -23.9375 17.421875 -23.9375 C 16.242188 -23.9375 15.175781 -23.6875 14.21875 -23.1875 C 13.269531 -22.695312 12.441406 -22.03125 11.734375 -21.1875 C 11.035156 -20.351562 10.503906 -19.382812 10.140625 -18.28125 C 9.773438 -17.175781 9.59375 -16.015625 9.59375 -14.796875 C 9.59375 -13.578125 9.789062 -12.425781 10.1875 -11.34375 C 10.59375 -10.257812 11.175781 -9.316406 11.9375 -8.515625 C 12.695312 -7.710938 13.582031 -7.082031 14.59375 -6.625 C 15.601562 -6.164062 16.695312 -5.9375 17.875 -5.9375 C 18.601562 -5.9375 19.335938 -6.0625 20.078125 -6.3125 C 20.816406 -6.5625 21.519531 -6.90625 22.1875 -7.34375 C 22.851562 -7.78125 23.441406 -8.3125 23.953125 -8.9375 C 24.472656 -9.5625 24.867188 -10.238281 25.140625 -10.96875 Z M 25.140625 -10.96875 "/></g></g></g><g fill="#ff6f00" fill-opacity="1"><g transform="translate(287.444461, 344.922633)"><g><path d="M 17.359375 0.578125 C 14.960938 0.578125 12.789062 0.164062 10.84375 -0.65625 C 8.90625 -1.476562 7.25 -2.601562 5.875 -4.03125 C 4.507812 -5.457031 3.453125 -7.09375 2.703125 -8.9375 C 1.960938 -10.78125 1.59375 -12.734375 1.59375 -14.796875 C 1.59375 -17.648438 2.226562 -20.253906 3.5 -22.609375 C 4.78125 -24.972656 6.609375 -26.867188 8.984375 -28.296875 C 11.367188 -29.734375 14.179688 -30.453125 17.421875 -30.453125 C 20.691406 -30.453125 23.488281 -29.734375 25.8125 -28.296875 C 28.144531 -26.867188 29.925781 -24.984375 31.15625 -22.640625 C 32.394531 -20.304688 33.015625 -17.785156 33.015625 -15.078125 C 33.015625 -14.617188 32.992188 -14.148438 32.953125 -13.671875 C 32.921875 -13.203125 32.882812 -12.816406 32.84375 -12.515625 L 9.71875 -12.515625 C 9.863281 -10.984375 10.304688 -9.644531 11.046875 -8.5 C 11.796875 -7.363281 12.75 -6.5 13.90625 -5.90625 C 15.070312 -5.320312 16.320312 -5.03125 17.65625 -5.03125 C 19.175781 -5.03125 20.613281 -5.398438 21.96875 -6.140625 C 23.320312 -6.878906 24.242188 -7.859375 24.734375 -9.078125 L 31.296875 -7.25 C 30.578125 -5.726562 29.539062 -4.375 28.1875 -3.1875 C 26.832031 -2.007812 25.238281 -1.085938 23.40625 -0.421875 C 21.582031 0.242188 19.566406 0.578125 17.359375 0.578125 Z M 9.546875 -17.359375 L 25.1875 -17.359375 C 25.039062 -18.890625 24.613281 -20.210938 23.90625 -21.328125 C 23.195312 -22.453125 22.269531 -23.328125 21.125 -23.953125 C 19.988281 -24.585938 18.71875 -24.90625 17.3125 -24.90625 C 15.9375 -24.90625 14.6875 -24.585938 13.5625 -23.953125 C 12.4375 -23.328125 11.519531 -22.453125 10.8125 -21.328125 C 10.113281 -20.210938 9.691406 -18.890625 9.546875 -17.359375 Z M 9.546875 -17.359375 "/></g></g></g><g fill="#ff6f00" fill-opacity="1"><g transform="translate(321.657601, 344.922633)"><g><path d="M 11.546875 0 L 0.515625 -29.9375 L 8.453125 -29.9375 L 16 -6.96875 L 23.59375 -29.9375 L 30.84375 -29.9375 L 19.875 0 Z M 11.546875 0 "/></g></g></g><g fill="#ffffff" fill-opacity="1"><g transform="translate(94.648364, 232.953411)"><g><path d="M 48.515625 -7.875 L 151.859375 -7.875 L 151.859375 -164.96875 L 92.84375 -38.5625 L 33.828125 -165.234375 L 33.828125 0 L 25.96875 -0.265625 L 25.96875 -183.859375 L 33.828125 -183.859375 L 92.84375 -57.171875 L 151.859375 -183.59375 L 159.734375 -183.859375 L 159.734375 0 L 48.515625 -0.265625 Z M 48.515625 -7.875 "/></g></g></g></svg>