<svg xmlns="http://www.w3.org/2000/svg" xmlns:xlink="http://www.w3.org/1999/xlink" width="446" zoomAndPan="magnify" viewBox="0 0 334.5 107.249998" height="143" preserveAspectRatio="xMidYMid meet" version="1.0"><defs><g/></defs><g fill="#f9f7f8" fill-opacity="1"><g transform="translate(15.889013, 63.362804)"><g><path d="M 45.53125 0 L 38.5625 0 L 38.5625 -15.296875 C 38.5625 -17.441406 38.1875 -19.023438 37.4375 -20.046875 C 36.6875 -21.078125 35.65625 -21.59375 34.34375 -21.59375 C 32.988281 -21.59375 31.695312 -21.0625 30.46875 -20 C 29.238281 -18.945312 28.363281 -17.570312 27.84375 -15.875 L 27.84375 0 L 20.859375 0 L 20.859375 -15.296875 C 20.859375 -17.484375 20.484375 -19.078125 19.734375 -20.078125 C 18.992188 -21.085938 17.96875 -21.59375 16.65625 -21.59375 C 15.300781 -21.59375 14.003906 -21.070312 12.765625 -20.03125 C 11.535156 -18.988281 10.660156 -17.617188 10.140625 -15.921875 L 10.140625 0 L 3.171875 0 L 3.171875 -27.265625 L 9.46875 -27.265625 L 9.46875 -22.21875 C 10.507812 -23.988281 11.894531 -25.347656 13.625 -26.296875 C 15.363281 -27.253906 17.359375 -27.734375 19.609375 -27.734375 C 21.867188 -27.734375 23.628906 -27.175781 24.890625 -26.0625 C 26.160156 -24.957031 26.96875 -23.585938 27.3125 -21.953125 C 28.425781 -23.828125 29.835938 -25.257812 31.546875 -26.25 C 33.265625 -27.238281 35.203125 -27.734375 37.359375 -27.734375 C 39.054688 -27.734375 40.429688 -27.425781 41.484375 -26.8125 C 42.546875 -26.207031 43.367188 -25.394531 43.953125 -24.375 C 44.546875 -23.351562 44.957031 -22.195312 45.1875 -20.90625 C 45.414062 -19.625 45.53125 -18.328125 45.53125 -17.015625 Z M 45.53125 0 "/></g></g></g><g fill="#f9f7f8" fill-opacity="1"><g transform="translate(64.328324, 63.362804)"><g><path d="M 1.296875 -8.0625 C 1.296875 -9.832031 1.789062 -11.382812 2.78125 -12.71875 C 3.769531 -14.050781 5.148438 -15.082031 6.921875 -15.8125 C 8.691406 -16.539062 10.722656 -16.90625 13.015625 -16.90625 C 14.148438 -16.90625 15.304688 -16.816406 16.484375 -16.640625 C 17.671875 -16.472656 18.695312 -16.195312 19.5625 -15.8125 L 19.5625 -17.28125 C 19.5625 -19.007812 19.050781 -20.34375 18.03125 -21.28125 C 17.007812 -22.21875 15.488281 -22.6875 13.46875 -22.6875 C 11.976562 -22.6875 10.554688 -22.425781 9.203125 -21.90625 C 7.859375 -21.382812 6.4375 -20.617188 4.9375 -19.609375 L 2.703125 -24.1875 C 4.503906 -25.375 6.347656 -26.257812 8.234375 -26.84375 C 10.128906 -27.4375 12.117188 -27.734375 14.203125 -27.734375 C 18.085938 -27.734375 21.113281 -26.757812 23.28125 -24.8125 C 25.445312 -22.875 26.53125 -20.101562 26.53125 -16.5 L 26.53125 -7.8125 C 26.53125 -7.082031 26.660156 -6.5625 26.921875 -6.25 C 27.179688 -5.9375 27.609375 -5.742188 28.203125 -5.671875 L 28.203125 0 C 27.578125 0.101562 27.007812 0.1875 26.5 0.25 C 26 0.320312 25.578125 0.359375 25.234375 0.359375 C 23.847656 0.359375 22.796875 0.046875 22.078125 -0.578125 C 21.367188 -1.203125 20.929688 -1.960938 20.765625 -2.859375 L 20.609375 -4.265625 C 19.421875 -2.742188 17.941406 -1.566406 16.171875 -0.734375 C 14.410156 0.0976562 12.609375 0.515625 10.765625 0.515625 C 8.960938 0.515625 7.34375 0.144531 5.90625 -0.59375 C 4.46875 -1.34375 3.335938 -2.367188 2.515625 -3.671875 C 1.703125 -4.972656 1.296875 -6.4375 1.296875 -8.0625 Z M 18.265625 -6.65625 C 18.640625 -7.070312 18.945312 -7.488281 19.1875 -7.90625 C 19.4375 -8.320312 19.5625 -8.703125 19.5625 -9.046875 L 19.5625 -11.8125 C 18.726562 -12.15625 17.828125 -12.421875 16.859375 -12.609375 C 15.890625 -12.804688 14.96875 -12.90625 14.09375 -12.90625 C 12.289062 -12.90625 10.804688 -12.515625 9.640625 -11.734375 C 8.484375 -10.953125 7.90625 -9.921875 7.90625 -8.640625 C 7.90625 -7.941406 8.09375 -7.28125 8.46875 -6.65625 C 8.851562 -6.03125 9.410156 -5.523438 10.140625 -5.140625 C 10.867188 -4.765625 11.738281 -4.578125 12.75 -4.578125 C 13.789062 -4.578125 14.8125 -4.773438 15.8125 -5.171875 C 16.820312 -5.578125 17.640625 -6.070312 18.265625 -6.65625 Z M 18.265625 -6.65625 "/></g></g></g><g fill="#f9f7f8" fill-opacity="1"><g transform="translate(94.193165, 63.362804)"><g><path d="M 3.125 -37.984375 L 10.09375 -37.984375 L 10.09375 -8.734375 C 10.09375 -7.492188 10.300781 -6.65625 10.71875 -6.21875 C 11.132812 -5.78125 11.707031 -5.5625 12.4375 -5.5625 C 12.988281 -5.5625 13.554688 -5.628906 14.140625 -5.765625 C 14.734375 -5.910156 15.257812 -6.085938 15.71875 -6.296875 L 16.65625 -0.984375 C 15.71875 -0.535156 14.625 -0.191406 13.375 0.046875 C 12.125 0.296875 10.992188 0.421875 9.984375 0.421875 C 7.804688 0.421875 6.117188 -0.15625 4.921875 -1.3125 C 3.722656 -2.476562 3.125 -4.140625 3.125 -6.296875 Z M 3.125 -37.984375 "/></g></g></g><g fill="#f9f7f8" fill-opacity="1"><g transform="translate(110.686464, 63.362804)"><g><path d="M 19.515625 0.515625 C 17.398438 0.515625 15.535156 0.0390625 13.921875 -0.90625 C 12.304688 -1.863281 11.046875 -3.15625 10.140625 -4.78125 L 10.140625 11.078125 L 3.171875 11.078125 L 3.171875 -27.265625 L 9.265625 -27.265625 L 9.265625 -22.578125 C 10.304688 -24.171875 11.625 -25.425781 13.21875 -26.34375 C 14.8125 -27.269531 16.628906 -27.734375 18.671875 -27.734375 C 20.515625 -27.734375 22.207031 -27.367188 23.75 -26.640625 C 25.289062 -25.910156 26.632812 -24.894531 27.78125 -23.59375 C 28.925781 -22.289062 29.816406 -20.796875 30.453125 -19.109375 C 31.097656 -17.429688 31.421875 -15.625 31.421875 -13.6875 C 31.421875 -11.050781 30.910156 -8.65625 29.890625 -6.5 C 28.867188 -4.351562 27.460938 -2.644531 25.671875 -1.375 C 23.890625 -0.113281 21.835938 0.515625 19.515625 0.515625 Z M 17.171875 -5.40625 C 18.242188 -5.40625 19.210938 -5.628906 20.078125 -6.078125 C 20.953125 -6.535156 21.707031 -7.15625 22.34375 -7.9375 C 22.988281 -8.71875 23.472656 -9.601562 23.796875 -10.59375 C 24.128906 -11.582031 24.296875 -12.613281 24.296875 -13.6875 C 24.296875 -14.832031 24.113281 -15.890625 23.75 -16.859375 C 23.382812 -17.828125 22.851562 -18.679688 22.15625 -19.421875 C 21.46875 -20.171875 20.660156 -20.753906 19.734375 -21.171875 C 18.816406 -21.585938 17.820312 -21.796875 16.75 -21.796875 C 16.09375 -21.796875 15.425781 -21.679688 14.75 -21.453125 C 14.070312 -21.234375 13.421875 -20.914062 12.796875 -20.5 C 12.171875 -20.082031 11.625 -19.597656 11.15625 -19.046875 C 10.6875 -18.492188 10.347656 -17.882812 10.140625 -17.21875 L 10.140625 -10.828125 C 10.554688 -9.816406 11.117188 -8.894531 11.828125 -8.0625 C 12.546875 -7.226562 13.375 -6.578125 14.3125 -6.109375 C 15.25 -5.640625 16.203125 -5.40625 17.171875 -5.40625 Z M 17.171875 -5.40625 "/></g></g></g><g fill="#f9f7f8" fill-opacity="1"><g transform="translate(143.673062, 63.362804)"><g><path d="M 1.296875 -8.0625 C 1.296875 -9.832031 1.789062 -11.382812 2.78125 -12.71875 C 3.769531 -14.050781 5.148438 -15.082031 6.921875 -15.8125 C 8.691406 -16.539062 10.722656 -16.90625 13.015625 -16.90625 C 14.148438 -16.90625 15.304688 -16.816406 16.484375 -16.640625 C 17.671875 -16.472656 18.695312 -16.195312 19.5625 -15.8125 L 19.5625 -17.28125 C 19.5625 -19.007812 19.050781 -20.34375 18.03125 -21.28125 C 17.007812 -22.21875 15.488281 -22.6875 13.46875 -22.6875 C 11.976562 -22.6875 10.554688 -22.425781 9.203125 -21.90625 C 7.859375 -21.382812 6.4375 -20.617188 4.9375 -19.609375 L 2.703125 -24.1875 C 4.503906 -25.375 6.347656 -26.257812 8.234375 -26.84375 C 10.128906 -27.4375 12.117188 -27.734375 14.203125 -27.734375 C 18.085938 -27.734375 21.113281 -26.757812 23.28125 -24.8125 C 25.445312 -22.875 26.53125 -20.101562 26.53125 -16.5 L 26.53125 -7.8125 C 26.53125 -7.082031 26.660156 -6.5625 26.921875 -6.25 C 27.179688 -5.9375 27.609375 -5.742188 28.203125 -5.671875 L 28.203125 0 C 27.578125 0.101562 27.007812 0.1875 26.5 0.25 C 26 0.320312 25.578125 0.359375 25.234375 0.359375 C 23.847656 0.359375 22.796875 0.046875 22.078125 -0.578125 C 21.367188 -1.203125 20.929688 -1.960938 20.765625 -2.859375 L 20.609375 -4.265625 C 19.421875 -2.742188 17.941406 -1.566406 16.171875 -0.734375 C 14.410156 0.0976562 12.609375 0.515625 10.765625 0.515625 C 8.960938 0.515625 7.34375 0.144531 5.90625 -0.59375 C 4.46875 -1.34375 3.335938 -2.367188 2.515625 -3.671875 C 1.703125 -4.972656 1.296875 -6.4375 1.296875 -8.0625 Z M 18.265625 -6.65625 C 18.640625 -7.070312 18.945312 -7.488281 19.1875 -7.90625 C 19.4375 -8.320312 19.5625 -8.703125 19.5625 -9.046875 L 19.5625 -11.8125 C 18.726562 -12.15625 17.828125 -12.421875 16.859375 -12.609375 C 15.890625 -12.804688 14.96875 -12.90625 14.09375 -12.90625 C 12.289062 -12.90625 10.804688 -12.515625 9.640625 -11.734375 C 8.484375 -10.953125 7.90625 -9.921875 7.90625 -8.640625 C 7.90625 -7.941406 8.09375 -7.28125 8.46875 -6.65625 C 8.851562 -6.03125 9.410156 -5.523438 10.140625 -5.140625 C 10.867188 -4.765625 11.738281 -4.578125 12.75 -4.578125 C 13.789062 -4.578125 14.8125 -4.773438 15.8125 -5.171875 C 16.820312 -5.578125 17.640625 -6.070312 18.265625 -6.65625 Z M 18.265625 -6.65625 "/></g></g></g><g fill="#f9f7f8" fill-opacity="1"><g transform="translate(173.537902, 63.362804)"><g><path d="M 3.171875 0 L 3.171875 -27.265625 L 10.140625 -27.265625 L 10.140625 0 Z M 3.171875 -31.0625 L 3.171875 -37.984375 L 10.140625 -37.984375 L 10.140625 -31.0625 Z M 3.171875 -31.0625 "/></g></g></g><g fill="#f9f7f8" fill-opacity="1"><g transform="translate(186.805384, 63.362804)"><g><path d="M 13.21875 0.515625 C 10.894531 0.515625 8.671875 0.132812 6.546875 -0.625 C 4.429688 -1.382812 2.613281 -2.507812 1.09375 -4 L 3.59375 -8.53125 C 5.21875 -7.21875 6.816406 -6.25 8.390625 -5.625 C 9.972656 -5 11.492188 -4.6875 12.953125 -4.6875 C 14.304688 -4.6875 15.390625 -4.925781 16.203125 -5.40625 C 17.023438 -5.894531 17.4375 -6.625 17.4375 -7.59375 C 17.4375 -8.25 17.207031 -8.757812 16.75 -9.125 C 16.300781 -9.488281 15.648438 -9.8125 14.796875 -10.09375 C 13.953125 -10.375 12.921875 -10.6875 11.703125 -11.03125 C 9.691406 -11.6875 8.007812 -12.328125 6.65625 -12.953125 C 5.300781 -13.578125 4.285156 -14.363281 3.609375 -15.3125 C 2.941406 -16.269531 2.609375 -17.492188 2.609375 -18.984375 C 2.609375 -20.796875 3.066406 -22.347656 3.984375 -23.640625 C 4.898438 -24.941406 6.179688 -25.957031 7.828125 -26.6875 C 9.472656 -27.414062 11.40625 -27.78125 13.625 -27.78125 C 15.570312 -27.78125 17.410156 -27.476562 19.140625 -26.875 C 20.878906 -26.269531 22.457031 -25.289062 23.875 -23.9375 L 21.078125 -19.515625 C 19.679688 -20.585938 18.359375 -21.375 17.109375 -21.875 C 15.867188 -22.382812 14.601562 -22.640625 13.3125 -22.640625 C 12.59375 -22.640625 11.910156 -22.550781 11.265625 -22.375 C 10.617188 -22.195312 10.097656 -21.910156 9.703125 -21.515625 C 9.304688 -21.117188 9.109375 -20.554688 9.109375 -19.828125 C 9.109375 -19.160156 9.289062 -18.644531 9.65625 -18.28125 C 10.019531 -17.925781 10.570312 -17.609375 11.3125 -17.328125 C 12.0625 -17.046875 12.972656 -16.734375 14.046875 -16.390625 C 16.234375 -15.765625 18.082031 -15.117188 19.59375 -14.453125 C 21.101562 -13.796875 22.238281 -12.988281 23 -12.03125 C 23.757812 -11.082031 24.140625 -9.773438 24.140625 -8.109375 C 24.140625 -5.410156 23.148438 -3.296875 21.171875 -1.765625 C 19.203125 -0.242188 16.550781 0.515625 13.21875 0.515625 Z M 13.21875 0.515625 "/></g></g></g><g fill="#ff6f00" fill-opacity="1"><g transform="translate(212.521952, 63.362804)"><g><path d="M 3.015625 0 L 3.015625 -7.5 L 8.734375 -7.5 L 8.734375 0 Z M 3.015625 0 "/></g></g></g><g fill="#ff6f00" fill-opacity="1"><g transform="translate(224.228547, 63.362804)"><g><path d="M 1.515625 -13.625 C 1.515625 -16.269531 2.03125 -18.65625 3.0625 -20.78125 C 4.101562 -22.914062 5.539062 -24.609375 7.375 -25.859375 C 9.21875 -27.109375 11.320312 -27.734375 13.6875 -27.734375 C 15.695312 -27.734375 17.507812 -27.238281 19.125 -26.25 C 20.738281 -25.257812 21.992188 -24.003906 22.890625 -22.484375 L 22.890625 -37.984375 L 29.859375 -37.984375 L 29.859375 -7.8125 C 29.859375 -7.082031 29.976562 -6.5625 30.21875 -6.25 C 30.46875 -5.9375 30.890625 -5.742188 31.484375 -5.671875 L 31.484375 0 C 30.265625 0.238281 29.273438 0.359375 28.515625 0.359375 C 27.265625 0.359375 26.226562 0.046875 25.40625 -0.578125 C 24.59375 -1.203125 24.132812 -2.015625 24.03125 -3.015625 L 23.9375 -4.734375 C 22.925781 -3.035156 21.5625 -1.734375 19.84375 -0.828125 C 18.132812 0.0664062 16.34375 0.515625 14.46875 0.515625 C 12.59375 0.515625 10.863281 0.148438 9.28125 -0.578125 C 7.707031 -1.304688 6.335938 -2.3125 5.171875 -3.59375 C 4.015625 -4.875 3.113281 -6.375 2.46875 -8.09375 C 1.832031 -9.8125 1.515625 -11.65625 1.515625 -13.625 Z M 22.890625 -9.984375 L 22.890625 -16.5 C 22.546875 -17.5 21.988281 -18.394531 21.21875 -19.1875 C 20.457031 -19.988281 19.609375 -20.625 18.671875 -21.09375 C 17.742188 -21.5625 16.8125 -21.796875 15.875 -21.796875 C 14.789062 -21.796875 13.816406 -21.570312 12.953125 -21.125 C 12.085938 -20.675781 11.332031 -20.066406 10.6875 -19.296875 C 10.050781 -18.535156 9.566406 -17.648438 9.234375 -16.640625 C 8.898438 -15.640625 8.734375 -14.582031 8.734375 -13.46875 C 8.734375 -12.363281 8.914062 -11.316406 9.28125 -10.328125 C 9.644531 -9.335938 10.175781 -8.476562 10.875 -7.75 C 11.570312 -7.019531 12.378906 -6.445312 13.296875 -6.03125 C 14.210938 -5.613281 15.207031 -5.40625 16.28125 -5.40625 C 16.945312 -5.40625 17.613281 -5.519531 18.28125 -5.75 C 18.957031 -5.976562 19.597656 -6.289062 20.203125 -6.6875 C 20.816406 -7.082031 21.359375 -7.566406 21.828125 -8.140625 C 22.296875 -8.710938 22.648438 -9.328125 22.890625 -9.984375 Z M 22.890625 -9.984375 "/></g></g></g><g fill="#ff6f00" fill-opacity="1"><g transform="translate(257.787476, 63.362804)"><g><path d="M 15.8125 0.515625 C 13.632812 0.515625 11.660156 0.144531 9.890625 -0.59375 C 8.117188 -1.34375 6.609375 -2.367188 5.359375 -3.671875 C 4.109375 -4.972656 3.144531 -6.460938 2.46875 -8.140625 C 1.789062 -9.828125 1.453125 -11.601562 1.453125 -13.46875 C 1.453125 -16.070312 2.03125 -18.445312 3.1875 -20.59375 C 4.351562 -22.75 6.019531 -24.476562 8.1875 -25.78125 C 10.363281 -27.082031 12.925781 -27.734375 15.875 -27.734375 C 18.851562 -27.734375 21.398438 -27.082031 23.515625 -25.78125 C 25.628906 -24.476562 27.25 -22.757812 28.375 -20.625 C 29.507812 -18.5 30.078125 -16.203125 30.078125 -13.734375 C 30.078125 -13.316406 30.054688 -12.890625 30.015625 -12.453125 C 29.984375 -12.023438 29.953125 -11.671875 29.921875 -11.390625 L 8.84375 -11.390625 C 8.976562 -10.003906 9.382812 -8.789062 10.0625 -7.75 C 10.738281 -6.707031 11.601562 -5.914062 12.65625 -5.375 C 13.71875 -4.84375 14.859375 -4.578125 16.078125 -4.578125 C 17.460938 -4.578125 18.769531 -4.914062 20 -5.59375 C 21.238281 -6.269531 22.082031 -7.160156 22.53125 -8.265625 L 28.515625 -6.609375 C 27.859375 -5.222656 26.910156 -3.988281 25.671875 -2.90625 C 24.441406 -1.832031 22.992188 -0.992188 21.328125 -0.390625 C 19.660156 0.210938 17.820312 0.515625 15.8125 0.515625 Z M 8.6875 -15.8125 L 22.953125 -15.8125 C 22.804688 -17.207031 22.410156 -18.414062 21.765625 -19.4375 C 21.128906 -20.457031 20.289062 -21.253906 19.25 -21.828125 C 18.207031 -22.398438 17.046875 -22.6875 15.765625 -22.6875 C 14.515625 -22.6875 13.378906 -22.398438 12.359375 -21.828125 C 11.335938 -21.253906 10.503906 -20.457031 9.859375 -19.4375 C 9.210938 -18.414062 8.820312 -17.207031 8.6875 -15.8125 Z M 8.6875 -15.8125 "/></g></g></g><g fill="#ff6f00" fill-opacity="1"><g transform="translate(288.953052, 63.362804)"><g><path d="M 10.515625 0 L 0.46875 -27.265625 L 7.703125 -27.265625 L 14.5625 -6.34375 L 21.484375 -27.265625 L 28.09375 -27.265625 L 18.109375 0 Z M 10.515625 0 "/></g></g></g><g fill="#f9f7f8" fill-opacity="1"><g transform="translate(22.868644, 96.097443)"><g><path d="M 1.6875 0 L 1.6875 -13.4375 L 6.25 -13.4375 C 7.664062 -13.4375 8.847656 -13.132812 9.796875 -12.53125 C 10.753906 -11.9375 11.472656 -11.128906 11.953125 -10.109375 C 12.429688 -9.097656 12.671875 -7.972656 12.671875 -6.734375 C 12.671875 -5.367188 12.410156 -4.179688 11.890625 -3.171875 C 11.367188 -2.171875 10.625 -1.390625 9.65625 -0.828125 C 8.695312 -0.273438 7.5625 0 6.25 0 Z M 11.359375 -6.734375 C 11.359375 -7.804688 11.15625 -8.757812 10.75 -9.59375 C 10.351562 -10.425781 9.773438 -11.078125 9.015625 -11.546875 C 8.265625 -12.023438 7.34375 -12.265625 6.25 -12.265625 L 3.015625 -12.265625 L 3.015625 -1.171875 L 6.25 -1.171875 C 7.351562 -1.171875 8.285156 -1.414062 9.046875 -1.90625 C 9.804688 -2.40625 10.378906 -3.070312 10.765625 -3.90625 C 11.160156 -4.75 11.359375 -5.691406 11.359375 -6.734375 Z M 11.359375 -6.734375 "/></g></g></g><g fill="#f9f7f8" fill-opacity="1"><g transform="translate(36.399296, 96.097443)"><g><path d="M 5.671875 0.1875 C 4.960938 0.1875 4.304688 0.0507812 3.703125 -0.21875 C 3.097656 -0.488281 2.570312 -0.859375 2.125 -1.328125 C 1.6875 -1.804688 1.34375 -2.351562 1.09375 -2.96875 C 0.851562 -3.582031 0.734375 -4.242188 0.734375 -4.953125 C 0.734375 -5.878906 0.941406 -6.722656 1.359375 -7.484375 C 1.785156 -8.253906 2.367188 -8.867188 3.109375 -9.328125 C 3.859375 -9.796875 4.707031 -10.03125 5.65625 -10.03125 C 6.625 -10.03125 7.472656 -9.796875 8.203125 -9.328125 C 8.929688 -8.859375 9.503906 -8.242188 9.921875 -7.484375 C 10.335938 -6.722656 10.546875 -5.882812 10.546875 -4.96875 C 10.546875 -4.875 10.546875 -4.78125 10.546875 -4.6875 C 10.546875 -4.59375 10.535156 -4.519531 10.515625 -4.46875 L 2.078125 -4.46875 C 2.140625 -3.757812 2.335938 -3.128906 2.671875 -2.578125 C 3.003906 -2.035156 3.4375 -1.601562 3.96875 -1.28125 C 4.507812 -0.957031 5.097656 -0.796875 5.734375 -0.796875 C 6.378906 -0.796875 6.988281 -0.957031 7.5625 -1.28125 C 8.132812 -1.613281 8.535156 -2.046875 8.765625 -2.578125 L 9.875 -2.265625 C 9.675781 -1.804688 9.367188 -1.382812 8.953125 -1 C 8.535156 -0.625 8.046875 -0.332031 7.484375 -0.125 C 6.921875 0.0820312 6.316406 0.1875 5.671875 0.1875 Z M 2.046875 -5.390625 L 9.328125 -5.390625 C 9.273438 -6.109375 9.082031 -6.738281 8.75 -7.28125 C 8.414062 -7.820312 7.976562 -8.25 7.4375 -8.5625 C 6.90625 -8.875 6.316406 -9.03125 5.671875 -9.03125 C 5.035156 -9.03125 4.453125 -8.875 3.921875 -8.5625 C 3.390625 -8.25 2.957031 -7.816406 2.625 -7.265625 C 2.289062 -6.722656 2.097656 -6.097656 2.046875 -5.390625 Z M 2.046875 -5.390625 "/></g></g></g><g fill="#f9f7f8" fill-opacity="1"><g transform="translate(47.507678, 96.097443)"><g><path d="M 4.65625 0.1875 C 3.84375 0.1875 3.085938 0.0546875 2.390625 -0.203125 C 1.703125 -0.472656 1.109375 -0.878906 0.609375 -1.421875 L 1.140625 -2.328125 C 1.691406 -1.804688 2.25 -1.425781 2.8125 -1.1875 C 3.375 -0.957031 3.96875 -0.84375 4.59375 -0.84375 C 5.363281 -0.84375 5.988281 -1 6.46875 -1.3125 C 6.945312 -1.625 7.1875 -2.070312 7.1875 -2.65625 C 7.1875 -3.039062 7.066406 -3.335938 6.828125 -3.546875 C 6.597656 -3.753906 6.265625 -3.921875 5.828125 -4.046875 C 5.398438 -4.179688 4.882812 -4.328125 4.28125 -4.484375 C 3.59375 -4.671875 3.019531 -4.867188 2.5625 -5.078125 C 2.101562 -5.285156 1.753906 -5.550781 1.515625 -5.875 C 1.285156 -6.195312 1.171875 -6.617188 1.171875 -7.140625 C 1.171875 -7.773438 1.332031 -8.300781 1.65625 -8.71875 C 1.976562 -9.144531 2.421875 -9.46875 2.984375 -9.6875 C 3.546875 -9.914062 4.171875 -10.03125 4.859375 -10.03125 C 5.617188 -10.03125 6.285156 -9.910156 6.859375 -9.671875 C 7.441406 -9.429688 7.914062 -9.097656 8.28125 -8.671875 L 7.65625 -7.796875 C 7.3125 -8.203125 6.894531 -8.5 6.40625 -8.6875 C 5.914062 -8.882812 5.375 -8.984375 4.78125 -8.984375 C 4.382812 -8.984375 4 -8.929688 3.625 -8.828125 C 3.257812 -8.722656 2.960938 -8.546875 2.734375 -8.296875 C 2.503906 -8.046875 2.390625 -7.707031 2.390625 -7.28125 C 2.390625 -6.925781 2.472656 -6.648438 2.640625 -6.453125 C 2.816406 -6.265625 3.082031 -6.101562 3.4375 -5.96875 C 3.789062 -5.832031 4.226562 -5.691406 4.75 -5.546875 C 5.488281 -5.335938 6.132812 -5.128906 6.6875 -4.921875 C 7.25 -4.710938 7.679688 -4.445312 7.984375 -4.125 C 8.285156 -3.800781 8.4375 -3.34375 8.4375 -2.75 C 8.4375 -1.820312 8.085938 -1.097656 7.390625 -0.578125 C 6.703125 -0.0664062 5.789062 0.1875 4.65625 0.1875 Z M 4.65625 0.1875 "/></g></g></g><g fill="#f9f7f8" fill-opacity="1"><g transform="translate(56.647954, 96.097443)"><g><path d="M 0.625 -2.84375 C 0.625 -3.457031 0.800781 -3.988281 1.15625 -4.4375 C 1.507812 -4.882812 2 -5.226562 2.625 -5.46875 C 3.25 -5.71875 3.96875 -5.84375 4.78125 -5.84375 C 5.257812 -5.84375 5.757812 -5.804688 6.28125 -5.734375 C 6.800781 -5.660156 7.257812 -5.546875 7.65625 -5.390625 L 7.65625 -6.21875 C 7.65625 -7.050781 7.410156 -7.710938 6.921875 -8.203125 C 6.429688 -8.703125 5.75 -8.953125 4.875 -8.953125 C 4.351562 -8.953125 3.832031 -8.851562 3.3125 -8.65625 C 2.800781 -8.457031 2.269531 -8.171875 1.71875 -7.796875 L 1.234375 -8.703125 C 1.867188 -9.140625 2.492188 -9.46875 3.109375 -9.6875 C 3.734375 -9.914062 4.367188 -10.03125 5.015625 -10.03125 C 6.222656 -10.03125 7.179688 -9.679688 7.890625 -8.984375 C 8.597656 -8.296875 8.953125 -7.335938 8.953125 -6.109375 L 8.953125 -1.546875 C 8.953125 -1.367188 8.988281 -1.238281 9.0625 -1.15625 C 9.132812 -1.082031 9.253906 -1.035156 9.421875 -1.015625 L 9.421875 0 C 9.285156 0.0078125 9.164062 0.0195312 9.0625 0.03125 C 8.957031 0.0507812 8.882812 0.0507812 8.84375 0.03125 C 8.519531 0.0195312 8.273438 -0.078125 8.109375 -0.265625 C 7.953125 -0.453125 7.867188 -0.65625 7.859375 -0.875 L 7.828125 -1.59375 C 7.390625 -1.019531 6.816406 -0.578125 6.109375 -0.265625 C 5.398438 0.0351562 4.679688 0.1875 3.953125 0.1875 C 3.328125 0.1875 2.753906 0.0507812 2.234375 -0.21875 C 1.722656 -0.488281 1.328125 -0.851562 1.046875 -1.3125 C 0.765625 -1.769531 0.625 -2.28125 0.625 -2.84375 Z M 7.234375 -2.078125 C 7.367188 -2.253906 7.472656 -2.425781 7.546875 -2.59375 C 7.617188 -2.757812 7.65625 -2.90625 7.65625 -3.03125 L 7.65625 -4.46875 C 7.226562 -4.632812 6.785156 -4.757812 6.328125 -4.84375 C 5.867188 -4.925781 5.40625 -4.96875 4.9375 -4.96875 C 4.019531 -4.96875 3.273438 -4.785156 2.703125 -4.421875 C 2.140625 -4.054688 1.859375 -3.5625 1.859375 -2.9375 C 1.859375 -2.570312 1.953125 -2.226562 2.140625 -1.90625 C 2.328125 -1.582031 2.601562 -1.316406 2.96875 -1.109375 C 3.332031 -0.898438 3.757812 -0.796875 4.25 -0.796875 C 4.875 -0.796875 5.453125 -0.914062 5.984375 -1.15625 C 6.523438 -1.394531 6.941406 -1.703125 7.234375 -2.078125 Z M 7.234375 -2.078125 "/></g></g></g><g fill="#f9f7f8" fill-opacity="1"><g transform="translate(66.961514, 96.097443)"><g><path d="M 6.34375 -8.71875 C 5.476562 -8.695312 4.722656 -8.457031 4.078125 -8 C 3.429688 -7.550781 2.972656 -6.925781 2.703125 -6.125 L 2.703125 0 L 1.421875 0 L 1.421875 -9.859375 L 2.625 -9.859375 L 2.625 -7.5 C 2.96875 -8.1875 3.421875 -8.742188 3.984375 -9.171875 C 4.546875 -9.609375 5.140625 -9.847656 5.765625 -9.890625 C 5.890625 -9.910156 6 -9.921875 6.09375 -9.921875 C 6.195312 -9.921875 6.28125 -9.910156 6.34375 -9.890625 Z M 6.34375 -8.71875 "/></g></g></g><g fill="#f9f7f8" fill-opacity="1"><g transform="translate(73.603842, 96.097443)"><g><path d="M 6.34375 -8.71875 C 5.476562 -8.695312 4.722656 -8.457031 4.078125 -8 C 3.429688 -7.550781 2.972656 -6.925781 2.703125 -6.125 L 2.703125 0 L 1.421875 0 L 1.421875 -9.859375 L 2.625 -9.859375 L 2.625 -7.5 C 2.96875 -8.1875 3.421875 -8.742188 3.984375 -9.171875 C 4.546875 -9.609375 5.140625 -9.847656 5.765625 -9.890625 C 5.890625 -9.910156 6 -9.921875 6.09375 -9.921875 C 6.195312 -9.921875 6.28125 -9.910156 6.34375 -9.890625 Z M 6.34375 -8.71875 "/></g></g></g><g fill="#f9f7f8" fill-opacity="1"><g transform="translate(80.246171, 96.097443)"><g><path d="M 5.625 0.1875 C 4.914062 0.1875 4.257812 0.0507812 3.65625 -0.21875 C 3.0625 -0.488281 2.546875 -0.859375 2.109375 -1.328125 C 1.671875 -1.804688 1.332031 -2.347656 1.09375 -2.953125 C 0.851562 -3.566406 0.734375 -4.21875 0.734375 -4.90625 C 0.734375 -5.601562 0.851562 -6.257812 1.09375 -6.875 C 1.332031 -7.488281 1.671875 -8.03125 2.109375 -8.5 C 2.554688 -8.976562 3.078125 -9.351562 3.671875 -9.625 C 4.273438 -9.894531 4.929688 -10.03125 5.640625 -10.03125 C 6.347656 -10.03125 7 -9.894531 7.59375 -9.625 C 8.1875 -9.351562 8.703125 -8.976562 9.140625 -8.5 C 9.578125 -8.03125 9.914062 -7.488281 10.15625 -6.875 C 10.394531 -6.257812 10.515625 -5.601562 10.515625 -4.90625 C 10.515625 -4.21875 10.394531 -3.566406 10.15625 -2.953125 C 9.914062 -2.347656 9.578125 -1.804688 9.140625 -1.328125 C 8.710938 -0.859375 8.195312 -0.488281 7.59375 -0.21875 C 7 0.0507812 6.34375 0.1875 5.625 0.1875 Z M 2.046875 -4.875 C 2.046875 -4.144531 2.207031 -3.476562 2.53125 -2.875 C 2.851562 -2.28125 3.285156 -1.8125 3.828125 -1.46875 C 4.367188 -1.125 4.96875 -0.953125 5.625 -0.953125 C 6.28125 -0.953125 6.878906 -1.125 7.421875 -1.46875 C 7.960938 -1.820312 8.394531 -2.304688 8.71875 -2.921875 C 9.050781 -3.535156 9.21875 -4.203125 9.21875 -4.921875 C 9.21875 -5.648438 9.050781 -6.316406 8.71875 -6.921875 C 8.394531 -7.523438 7.960938 -8.003906 7.421875 -8.359375 C 6.878906 -8.710938 6.28125 -8.890625 5.625 -8.890625 C 4.96875 -8.890625 4.367188 -8.707031 3.828125 -8.34375 C 3.296875 -7.976562 2.863281 -7.492188 2.53125 -6.890625 C 2.207031 -6.296875 2.046875 -5.625 2.046875 -4.875 Z M 2.046875 -4.875 "/></g></g></g><g fill="#f9f7f8" fill-opacity="1"><g transform="translate(91.505933, 96.097443)"><g><path d="M 1.46875 -13.8125 L 2.765625 -13.8125 L 2.765625 -2.234375 C 2.765625 -1.742188 2.851562 -1.421875 3.03125 -1.265625 C 3.207031 -1.117188 3.421875 -1.046875 3.671875 -1.046875 C 3.898438 -1.046875 4.125 -1.066406 4.34375 -1.109375 C 4.570312 -1.160156 4.769531 -1.210938 4.9375 -1.265625 L 5.171875 -0.234375 C 4.929688 -0.128906 4.632812 -0.046875 4.28125 0.015625 C 3.9375 0.078125 3.640625 0.109375 3.390625 0.109375 C 2.804688 0.109375 2.335938 -0.0546875 1.984375 -0.390625 C 1.640625 -0.734375 1.46875 -1.203125 1.46875 -1.796875 Z M 1.46875 -13.8125 "/></g></g></g><g fill="#f9f7f8" fill-opacity="1"><g transform="translate(96.653256, 96.097443)"><g><path d="M 1.46875 -13.8125 L 2.765625 -13.8125 L 2.765625 -2.234375 C 2.765625 -1.742188 2.851562 -1.421875 3.03125 -1.265625 C 3.207031 -1.117188 3.421875 -1.046875 3.671875 -1.046875 C 3.898438 -1.046875 4.125 -1.066406 4.34375 -1.109375 C 4.570312 -1.160156 4.769531 -1.210938 4.9375 -1.265625 L 5.171875 -0.234375 C 4.929688 -0.128906 4.632812 -0.046875 4.28125 0.015625 C 3.9375 0.078125 3.640625 0.109375 3.390625 0.109375 C 2.804688 0.109375 2.335938 -0.0546875 1.984375 -0.390625 C 1.640625 -0.734375 1.46875 -1.203125 1.46875 -1.796875 Z M 1.46875 -13.8125 "/></g></g></g><g fill="#f9f7f8" fill-opacity="1"><g transform="translate(101.800579, 96.097443)"><g><path d="M 5.625 0.1875 C 4.914062 0.1875 4.257812 0.0507812 3.65625 -0.21875 C 3.0625 -0.488281 2.546875 -0.859375 2.109375 -1.328125 C 1.671875 -1.804688 1.332031 -2.347656 1.09375 -2.953125 C 0.851562 -3.566406 0.734375 -4.21875 0.734375 -4.90625 C 0.734375 -5.601562 0.851562 -6.257812 1.09375 -6.875 C 1.332031 -7.488281 1.671875 -8.03125 2.109375 -8.5 C 2.554688 -8.976562 3.078125 -9.351562 3.671875 -9.625 C 4.273438 -9.894531 4.929688 -10.03125 5.640625 -10.03125 C 6.347656 -10.03125 7 -9.894531 7.59375 -9.625 C 8.1875 -9.351562 8.703125 -8.976562 9.140625 -8.5 C 9.578125 -8.03125 9.914062 -7.488281 10.15625 -6.875 C 10.394531 -6.257812 10.515625 -5.601562 10.515625 -4.90625 C 10.515625 -4.21875 10.394531 -3.566406 10.15625 -2.953125 C 9.914062 -2.347656 9.578125 -1.804688 9.140625 -1.328125 C 8.710938 -0.859375 8.195312 -0.488281 7.59375 -0.21875 C 7 0.0507812 6.34375 0.1875 5.625 0.1875 Z M 2.046875 -4.875 C 2.046875 -4.144531 2.207031 -3.476562 2.53125 -2.875 C 2.851562 -2.28125 3.285156 -1.8125 3.828125 -1.46875 C 4.367188 -1.125 4.96875 -0.953125 5.625 -0.953125 C 6.28125 -0.953125 6.878906 -1.125 7.421875 -1.46875 C 7.960938 -1.820312 8.394531 -2.304688 8.71875 -2.921875 C 9.050781 -3.535156 9.21875 -4.203125 9.21875 -4.921875 C 9.21875 -5.648438 9.050781 -6.316406 8.71875 -6.921875 C 8.394531 -7.523438 7.960938 -8.003906 7.421875 -8.359375 C 6.878906 -8.710938 6.28125 -8.890625 5.625 -8.890625 C 4.96875 -8.890625 4.367188 -8.707031 3.828125 -8.34375 C 3.296875 -7.976562 2.863281 -7.492188 2.53125 -6.890625 C 2.207031 -6.296875 2.046875 -5.625 2.046875 -4.875 Z M 2.046875 -4.875 "/></g></g></g><g fill="#f9f7f8" fill-opacity="1"><g transform="translate(113.060341, 96.097443)"><g/></g></g><g fill="#f9f7f8" fill-opacity="1"><g transform="translate(117.885967, 96.097443)"><g><path d="M 4.65625 0.1875 C 3.84375 0.1875 3.085938 0.0546875 2.390625 -0.203125 C 1.703125 -0.472656 1.109375 -0.878906 0.609375 -1.421875 L 1.140625 -2.328125 C 1.691406 -1.804688 2.25 -1.425781 2.8125 -1.1875 C 3.375 -0.957031 3.96875 -0.84375 4.59375 -0.84375 C 5.363281 -0.84375 5.988281 -1 6.46875 -1.3125 C 6.945312 -1.625 7.1875 -2.070312 7.1875 -2.65625 C 7.1875 -3.039062 7.066406 -3.335938 6.828125 -3.546875 C 6.597656 -3.753906 6.265625 -3.921875 5.828125 -4.046875 C 5.398438 -4.179688 4.882812 -4.328125 4.28125 -4.484375 C 3.59375 -4.671875 3.019531 -4.867188 2.5625 -5.078125 C 2.101562 -5.285156 1.753906 -5.550781 1.515625 -5.875 C 1.285156 -6.195312 1.171875 -6.617188 1.171875 -7.140625 C 1.171875 -7.773438 1.332031 -8.300781 1.65625 -8.71875 C 1.976562 -9.144531 2.421875 -9.46875 2.984375 -9.6875 C 3.546875 -9.914062 4.171875 -10.03125 4.859375 -10.03125 C 5.617188 -10.03125 6.285156 -9.910156 6.859375 -9.671875 C 7.441406 -9.429688 7.914062 -9.097656 8.28125 -8.671875 L 7.65625 -7.796875 C 7.3125 -8.203125 6.894531 -8.5 6.40625 -8.6875 C 5.914062 -8.882812 5.375 -8.984375 4.78125 -8.984375 C 4.382812 -8.984375 4 -8.929688 3.625 -8.828125 C 3.257812 -8.722656 2.960938 -8.546875 2.734375 -8.296875 C 2.503906 -8.046875 2.390625 -7.707031 2.390625 -7.28125 C 2.390625 -6.925781 2.472656 -6.648438 2.640625 -6.453125 C 2.816406 -6.265625 3.082031 -6.101562 3.4375 -5.96875 C 3.789062 -5.832031 4.226562 -5.691406 4.75 -5.546875 C 5.488281 -5.335938 6.132812 -5.128906 6.6875 -4.921875 C 7.25 -4.710938 7.679688 -4.445312 7.984375 -4.125 C 8.285156 -3.800781 8.4375 -3.34375 8.4375 -2.75 C 8.4375 -1.820312 8.085938 -1.097656 7.390625 -0.578125 C 6.703125 -0.0664062 5.789062 0.1875 4.65625 0.1875 Z M 4.65625 0.1875 "/></g></g></g><g fill="#f9f7f8" fill-opacity="1"><g transform="translate(127.026243, 96.097443)"><g><path d="M 5.625 0.1875 C 4.914062 0.1875 4.257812 0.0507812 3.65625 -0.21875 C 3.0625 -0.488281 2.546875 -0.859375 2.109375 -1.328125 C 1.671875 -1.804688 1.332031 -2.347656 1.09375 -2.953125 C 0.851562 -3.566406 0.734375 -4.21875 0.734375 -4.90625 C 0.734375 -5.601562 0.851562 -6.257812 1.09375 -6.875 C 1.332031 -7.488281 1.671875 -8.03125 2.109375 -8.5 C 2.554688 -8.976562 3.078125 -9.351562 3.671875 -9.625 C 4.273438 -9.894531 4.929688 -10.03125 5.640625 -10.03125 C 6.347656 -10.03125 7 -9.894531 7.59375 -9.625 C 8.1875 -9.351562 8.703125 -8.976562 9.140625 -8.5 C 9.578125 -8.03125 9.914062 -7.488281 10.15625 -6.875 C 10.394531 -6.257812 10.515625 -5.601562 10.515625 -4.90625 C 10.515625 -4.21875 10.394531 -3.566406 10.15625 -2.953125 C 9.914062 -2.347656 9.578125 -1.804688 9.140625 -1.328125 C 8.710938 -0.859375 8.195312 -0.488281 7.59375 -0.21875 C 7 0.0507812 6.34375 0.1875 5.625 0.1875 Z M 2.046875 -4.875 C 2.046875 -4.144531 2.207031 -3.476562 2.53125 -2.875 C 2.851562 -2.28125 3.285156 -1.8125 3.828125 -1.46875 C 4.367188 -1.125 4.96875 -0.953125 5.625 -0.953125 C 6.28125 -0.953125 6.878906 -1.125 7.421875 -1.46875 C 7.960938 -1.820312 8.394531 -2.304688 8.71875 -2.921875 C 9.050781 -3.535156 9.21875 -4.203125 9.21875 -4.921875 C 9.21875 -5.648438 9.050781 -6.316406 8.71875 -6.921875 C 8.394531 -7.523438 7.960938 -8.003906 7.421875 -8.359375 C 6.878906 -8.710938 6.28125 -8.890625 5.625 -8.890625 C 4.96875 -8.890625 4.367188 -8.707031 3.828125 -8.34375 C 3.296875 -7.976562 2.863281 -7.492188 2.53125 -6.890625 C 2.207031 -6.296875 2.046875 -5.625 2.046875 -4.875 Z M 2.046875 -4.875 "/></g></g></g><g fill="#f9f7f8" fill-opacity="1"><g transform="translate(138.286005, 96.097443)"><g><path d="M 1.890625 0 L 1.890625 -8.84375 L 0.53125 -8.84375 L 0.53125 -9.859375 L 1.890625 -9.859375 L 1.890625 -10.125 C 1.890625 -10.925781 2.003906 -11.617188 2.234375 -12.203125 C 2.472656 -12.785156 2.804688 -13.226562 3.234375 -13.53125 C 3.671875 -13.84375 4.1875 -14 4.78125 -14 C 5.175781 -14 5.554688 -13.941406 5.921875 -13.828125 C 6.285156 -13.710938 6.601562 -13.5625 6.875 -13.375 L 6.46875 -12.453125 C 6.300781 -12.585938 6.085938 -12.691406 5.828125 -12.765625 C 5.566406 -12.847656 5.300781 -12.890625 5.03125 -12.890625 C 4.4375 -12.890625 3.976562 -12.65625 3.65625 -12.1875 C 3.332031 -11.71875 3.171875 -11.039062 3.171875 -10.15625 L 3.171875 -9.859375 L 5.90625 -9.859375 L 5.90625 -8.84375 L 3.171875 -8.84375 L 3.171875 0 Z M 1.890625 0 "/></g></g></g><g fill="#f9f7f8" fill-opacity="1"><g transform="translate(144.53091, 96.097443)"><g><path d="M 6.15625 -0.46875 C 6.050781 -0.4375 5.890625 -0.367188 5.671875 -0.265625 C 5.460938 -0.160156 5.207031 -0.0703125 4.90625 0 C 4.601562 0.0703125 4.273438 0.109375 3.921875 0.109375 C 3.554688 0.109375 3.210938 0.0390625 2.890625 -0.09375 C 2.566406 -0.226562 2.304688 -0.4375 2.109375 -0.71875 C 1.921875 -1.007812 1.828125 -1.363281 1.828125 -1.78125 L 1.828125 -8.84375 L 0.46875 -8.84375 L 0.46875 -9.859375 L 1.828125 -9.859375 L 1.828125 -13.1875 L 3.125 -13.1875 L 3.125 -9.859375 L 5.390625 -9.859375 L 5.390625 -8.84375 L 3.125 -8.84375 L 3.125 -2.140625 C 3.144531 -1.785156 3.269531 -1.519531 3.5 -1.34375 C 3.738281 -1.164062 4.007812 -1.078125 4.3125 -1.078125 C 4.664062 -1.078125 4.988281 -1.132812 5.28125 -1.25 C 5.570312 -1.375 5.75 -1.460938 5.8125 -1.515625 Z M 6.15625 -0.46875 "/></g></g></g><g fill="#f9f7f8" fill-opacity="1"><g transform="translate(150.870455, 96.097443)"><g><path d="M 13.828125 -9.859375 L 15.09375 -9.859375 L 10.859375 0 L 9.75 0 L 7.6875 -4.90625 L 5.640625 0 L 4.515625 0 L 0.28125 -9.859375 L 1.53125 -9.859375 L 5.125 -1.328125 L 6.9375 -5.765625 L 5.28125 -9.84375 L 6.4375 -9.84375 L 7.6875 -6.640625 L 8.953125 -9.84375 L 10.078125 -9.84375 L 8.4375 -5.765625 L 10.25 -1.328125 Z M 13.828125 -9.859375 "/></g></g></g><g fill="#f9f7f8" fill-opacity="1"><g transform="translate(166.25566, 96.097443)"><g><path d="M 0.625 -2.84375 C 0.625 -3.457031 0.800781 -3.988281 1.15625 -4.4375 C 1.507812 -4.882812 2 -5.226562 2.625 -5.46875 C 3.25 -5.71875 3.96875 -5.84375 4.78125 -5.84375 C 5.257812 -5.84375 5.757812 -5.804688 6.28125 -5.734375 C 6.800781 -5.660156 7.257812 -5.546875 7.65625 -5.390625 L 7.65625 -6.21875 C 7.65625 -7.050781 7.410156 -7.710938 6.921875 -8.203125 C 6.429688 -8.703125 5.75 -8.953125 4.875 -8.953125 C 4.351562 -8.953125 3.832031 -8.851562 3.3125 -8.65625 C 2.800781 -8.457031 2.269531 -8.171875 1.71875 -7.796875 L 1.234375 -8.703125 C 1.867188 -9.140625 2.492188 -9.46875 3.109375 -9.6875 C 3.734375 -9.914062 4.367188 -10.03125 5.015625 -10.03125 C 6.222656 -10.03125 7.179688 -9.679688 7.890625 -8.984375 C 8.597656 -8.296875 8.953125 -7.335938 8.953125 -6.109375 L 8.953125 -1.546875 C 8.953125 -1.367188 8.988281 -1.238281 9.0625 -1.15625 C 9.132812 -1.082031 9.253906 -1.035156 9.421875 -1.015625 L 9.421875 0 C 9.285156 0.0078125 9.164062 0.0195312 9.0625 0.03125 C 8.957031 0.0507812 8.882812 0.0507812 8.84375 0.03125 C 8.519531 0.0195312 8.273438 -0.078125 8.109375 -0.265625 C 7.953125 -0.453125 7.867188 -0.65625 7.859375 -0.875 L 7.828125 -1.59375 C 7.390625 -1.019531 6.816406 -0.578125 6.109375 -0.265625 C 5.398438 0.0351562 4.679688 0.1875 3.953125 0.1875 C 3.328125 0.1875 2.753906 0.0507812 2.234375 -0.21875 C 1.722656 -0.488281 1.328125 -0.851562 1.046875 -1.3125 C 0.765625 -1.769531 0.625 -2.28125 0.625 -2.84375 Z M 7.234375 -2.078125 C 7.367188 -2.253906 7.472656 -2.425781 7.546875 -2.59375 C 7.617188 -2.757812 7.65625 -2.90625 7.65625 -3.03125 L 7.65625 -4.46875 C 7.226562 -4.632812 6.785156 -4.757812 6.328125 -4.84375 C 5.867188 -4.925781 5.40625 -4.96875 4.9375 -4.96875 C 4.019531 -4.96875 3.273438 -4.785156 2.703125 -4.421875 C 2.140625 -4.054688 1.859375 -3.5625 1.859375 -2.9375 C 1.859375 -2.570312 1.953125 -2.226562 2.140625 -1.90625 C 2.328125 -1.582031 2.601562 -1.316406 2.96875 -1.109375 C 3.332031 -0.898438 3.757812 -0.796875 4.25 -0.796875 C 4.875 -0.796875 5.453125 -0.914062 5.984375 -1.15625 C 6.523438 -1.394531 6.941406 -1.703125 7.234375 -2.078125 Z M 7.234375 -2.078125 "/></g></g></g><g fill="#f9f7f8" fill-opacity="1"><g transform="translate(176.56922, 96.097443)"><g><path d="M 6.34375 -8.71875 C 5.476562 -8.695312 4.722656 -8.457031 4.078125 -8 C 3.429688 -7.550781 2.972656 -6.925781 2.703125 -6.125 L 2.703125 0 L 1.421875 0 L 1.421875 -9.859375 L 2.625 -9.859375 L 2.625 -7.5 C 2.96875 -8.1875 3.421875 -8.742188 3.984375 -9.171875 C 4.546875 -9.609375 5.140625 -9.847656 5.765625 -9.890625 C 5.890625 -9.910156 6 -9.921875 6.09375 -9.921875 C 6.195312 -9.921875 6.28125 -9.910156 6.34375 -9.890625 Z M 6.34375 -8.71875 "/></g></g></g><g fill="#f9f7f8" fill-opacity="1"><g transform="translate(183.211548, 96.097443)"><g><path d="M 5.671875 0.1875 C 4.960938 0.1875 4.304688 0.0507812 3.703125 -0.21875 C 3.097656 -0.488281 2.570312 -0.859375 2.125 -1.328125 C 1.6875 -1.804688 1.34375 -2.351562 1.09375 -2.96875 C 0.851562 -3.582031 0.734375 -4.242188 0.734375 -4.953125 C 0.734375 -5.878906 0.941406 -6.722656 1.359375 -7.484375 C 1.785156 -8.253906 2.367188 -8.867188 3.109375 -9.328125 C 3.859375 -9.796875 4.707031 -10.03125 5.65625 -10.03125 C 6.625 -10.03125 7.472656 -9.796875 8.203125 -9.328125 C 8.929688 -8.859375 9.503906 -8.242188 9.921875 -7.484375 C 10.335938 -6.722656 10.546875 -5.882812 10.546875 -4.96875 C 10.546875 -4.875 10.546875 -4.78125 10.546875 -4.6875 C 10.546875 -4.59375 10.535156 -4.519531 10.515625 -4.46875 L 2.078125 -4.46875 C 2.140625 -3.757812 2.335938 -3.128906 2.671875 -2.578125 C 3.003906 -2.035156 3.4375 -1.601562 3.96875 -1.28125 C 4.507812 -0.957031 5.097656 -0.796875 5.734375 -0.796875 C 6.378906 -0.796875 6.988281 -0.957031 7.5625 -1.28125 C 8.132812 -1.613281 8.535156 -2.046875 8.765625 -2.578125 L 9.875 -2.265625 C 9.675781 -1.804688 9.367188 -1.382812 8.953125 -1 C 8.535156 -0.625 8.046875 -0.332031 7.484375 -0.125 C 6.921875 0.0820312 6.316406 0.1875 5.671875 0.1875 Z M 2.046875 -5.390625 L 9.328125 -5.390625 C 9.273438 -6.109375 9.082031 -6.738281 8.75 -7.28125 C 8.414062 -7.820312 7.976562 -8.25 7.4375 -8.5625 C 6.90625 -8.875 6.316406 -9.03125 5.671875 -9.03125 C 5.035156 -9.03125 4.453125 -8.875 3.921875 -8.5625 C 3.390625 -8.25 2.957031 -7.816406 2.625 -7.265625 C 2.289062 -6.722656 2.097656 -6.097656 2.046875 -5.390625 Z M 2.046875 -5.390625 "/></g></g></g><g fill="#f9f7f8" fill-opacity="1"><g transform="translate(194.319931, 96.097443)"><g/></g></g><g fill="#f9f7f8" fill-opacity="1"><g transform="translate(199.145557, 96.097443)"><g><path d="M 10.796875 0 L 4.109375 -7.0625 C 3.566406 -7.632812 3.128906 -8.125 2.796875 -8.53125 C 2.472656 -8.945312 2.238281 -9.320312 2.09375 -9.65625 C 1.957031 -9.988281 1.890625 -10.320312 1.890625 -10.65625 C 1.890625 -11.207031 2.035156 -11.703125 2.328125 -12.140625 C 2.628906 -12.585938 3.035156 -12.941406 3.546875 -13.203125 C 4.054688 -13.472656 4.628906 -13.609375 5.265625 -13.609375 C 5.859375 -13.609375 6.390625 -13.492188 6.859375 -13.265625 C 7.328125 -13.046875 7.703125 -12.738281 7.984375 -12.34375 C 8.265625 -11.945312 8.40625 -11.484375 8.40625 -10.953125 C 8.40625 -10.390625 8.242188 -9.882812 7.921875 -9.4375 C 7.597656 -8.988281 7.179688 -8.570312 6.671875 -8.1875 C 6.160156 -7.800781 5.59375 -7.410156 4.96875 -7.015625 C 4.457031 -6.660156 3.984375 -6.300781 3.546875 -5.9375 C 3.109375 -5.582031 2.765625 -5.203125 2.515625 -4.796875 C 2.265625 -4.398438 2.140625 -3.941406 2.140625 -3.421875 C 2.140625 -2.867188 2.296875 -2.398438 2.609375 -2.015625 C 2.921875 -1.628906 3.320312 -1.335938 3.8125 -1.140625 C 4.300781 -0.941406 4.800781 -0.84375 5.3125 -0.84375 C 6 -0.84375 6.628906 -1 7.203125 -1.3125 C 7.773438 -1.625 8.273438 -2.050781 8.703125 -2.59375 C 9.128906 -3.144531 9.457031 -3.773438 9.6875 -4.484375 C 9.925781 -5.191406 10.046875 -5.941406 10.046875 -6.734375 L 11.140625 -6.734375 C 11.140625 -5.773438 10.988281 -4.875 10.6875 -4.03125 C 10.382812 -3.195312 9.960938 -2.460938 9.421875 -1.828125 C 8.890625 -1.203125 8.257812 -0.707031 7.53125 -0.34375 C 6.8125 0.0078125 6.03125 0.1875 5.1875 0.1875 C 4.40625 0.1875 3.6875 0.0351562 3.03125 -0.265625 C 2.375 -0.578125 1.851562 -1.003906 1.46875 -1.546875 C 1.082031 -2.085938 0.890625 -2.726562 0.890625 -3.46875 C 0.890625 -4.144531 1.050781 -4.738281 1.375 -5.25 C 1.695312 -5.757812 2.113281 -6.21875 2.625 -6.625 C 3.132812 -7.039062 3.671875 -7.429688 4.234375 -7.796875 C 4.816406 -8.171875 5.332031 -8.519531 5.78125 -8.84375 C 6.226562 -9.164062 6.578125 -9.492188 6.828125 -9.828125 C 7.078125 -10.160156 7.203125 -10.523438 7.203125 -10.921875 C 7.203125 -11.410156 7.019531 -11.8125 6.65625 -12.125 C 6.289062 -12.445312 5.828125 -12.609375 5.265625 -12.609375 C 4.847656 -12.609375 4.472656 -12.519531 4.140625 -12.34375 C 3.816406 -12.164062 3.554688 -11.929688 3.359375 -11.640625 C 3.171875 -11.347656 3.078125 -11.03125 3.078125 -10.6875 C 3.078125 -10.476562 3.128906 -10.253906 3.234375 -10.015625 C 3.335938 -9.785156 3.53125 -9.492188 3.8125 -9.140625 C 4.101562 -8.796875 4.523438 -8.34375 5.078125 -7.78125 L 12.5 0 Z M 10.796875 0 "/></g></g></g><g fill="#f9f7f8" fill-opacity="1"><g transform="translate(211.767857, 96.097443)"><g/></g></g><g fill="#f9f7f8" fill-opacity="1"><g transform="translate(216.593483, 96.097443)"><g><path d="M 0.796875 -6.8125 C 0.796875 -7.632812 0.9375 -8.4375 1.21875 -9.21875 C 1.5 -10.007812 1.910156 -10.726562 2.453125 -11.375 C 3.003906 -12.03125 3.675781 -12.550781 4.46875 -12.9375 C 5.257812 -13.320312 6.160156 -13.515625 7.171875 -13.515625 C 8.367188 -13.515625 9.390625 -13.238281 10.234375 -12.6875 C 11.085938 -12.132812 11.71875 -11.429688 12.125 -10.578125 L 11.09375 -9.9375 C 10.800781 -10.53125 10.429688 -11 9.984375 -11.34375 C 9.546875 -11.6875 9.078125 -11.929688 8.578125 -12.078125 C 8.078125 -12.234375 7.582031 -12.3125 7.09375 -12.3125 C 6.289062 -12.3125 5.578125 -12.148438 4.953125 -11.828125 C 4.335938 -11.515625 3.816406 -11.085938 3.390625 -10.546875 C 2.972656 -10.015625 2.65625 -9.414062 2.4375 -8.75 C 2.226562 -8.09375 2.125 -7.421875 2.125 -6.734375 C 2.125 -5.992188 2.25 -5.28125 2.5 -4.59375 C 2.75 -3.914062 3.097656 -3.3125 3.546875 -2.78125 C 4.003906 -2.257812 4.539062 -1.84375 5.15625 -1.53125 C 5.769531 -1.226562 6.4375 -1.078125 7.15625 -1.078125 C 7.65625 -1.078125 8.171875 -1.164062 8.703125 -1.34375 C 9.234375 -1.519531 9.726562 -1.789062 10.1875 -2.15625 C 10.644531 -2.519531 11.015625 -2.992188 11.296875 -3.578125 L 12.390625 -3.015625 C 12.117188 -2.335938 11.691406 -1.765625 11.109375 -1.296875 C 10.523438 -0.835938 9.875 -0.488281 9.15625 -0.25 C 8.445312 -0.0078125 7.753906 0.109375 7.078125 0.109375 C 6.160156 0.109375 5.316406 -0.0859375 4.546875 -0.484375 C 3.773438 -0.878906 3.109375 -1.40625 2.546875 -2.0625 C 1.984375 -2.726562 1.550781 -3.472656 1.25 -4.296875 C 0.945312 -5.128906 0.796875 -5.96875 0.796875 -6.8125 Z M 0.796875 -6.8125 "/></g></g></g><g fill="#f9f7f8" fill-opacity="1"><g transform="translate(229.575332, 96.097443)"><g><path d="M 5.625 0.1875 C 4.914062 0.1875 4.257812 0.0507812 3.65625 -0.21875 C 3.0625 -0.488281 2.546875 -0.859375 2.109375 -1.328125 C 1.671875 -1.804688 1.332031 -2.347656 1.09375 -2.953125 C 0.851562 -3.566406 0.734375 -4.21875 0.734375 -4.90625 C 0.734375 -5.601562 0.851562 -6.257812 1.09375 -6.875 C 1.332031 -7.488281 1.671875 -8.03125 2.109375 -8.5 C 2.554688 -8.976562 3.078125 -9.351562 3.671875 -9.625 C 4.273438 -9.894531 4.929688 -10.03125 5.640625 -10.03125 C 6.347656 -10.03125 7 -9.894531 7.59375 -9.625 C 8.1875 -9.351562 8.703125 -8.976562 9.140625 -8.5 C 9.578125 -8.03125 9.914062 -7.488281 10.15625 -6.875 C 10.394531 -6.257812 10.515625 -5.601562 10.515625 -4.90625 C 10.515625 -4.21875 10.394531 -3.566406 10.15625 -2.953125 C 9.914062 -2.347656 9.578125 -1.804688 9.140625 -1.328125 C 8.710938 -0.859375 8.195312 -0.488281 7.59375 -0.21875 C 7 0.0507812 6.34375 0.1875 5.625 0.1875 Z M 2.046875 -4.875 C 2.046875 -4.144531 2.207031 -3.476562 2.53125 -2.875 C 2.851562 -2.28125 3.285156 -1.8125 3.828125 -1.46875 C 4.367188 -1.125 4.96875 -0.953125 5.625 -0.953125 C 6.28125 -0.953125 6.878906 -1.125 7.421875 -1.46875 C 7.960938 -1.820312 8.394531 -2.304688 8.71875 -2.921875 C 9.050781 -3.535156 9.21875 -4.203125 9.21875 -4.921875 C 9.21875 -5.648438 9.050781 -6.316406 8.71875 -6.921875 C 8.394531 -7.523438 7.960938 -8.003906 7.421875 -8.359375 C 6.878906 -8.710938 6.28125 -8.890625 5.625 -8.890625 C 4.96875 -8.890625 4.367188 -8.707031 3.828125 -8.34375 C 3.296875 -7.976562 2.863281 -7.492188 2.53125 -6.890625 C 2.207031 -6.296875 2.046875 -5.625 2.046875 -4.875 Z M 2.046875 -4.875 "/></g></g></g><g fill="#f9f7f8" fill-opacity="1"><g transform="translate(240.835094, 96.097443)"><g><path d="M 9.703125 0 L 8.421875 0 L 8.421875 -5.5 C 8.421875 -6.664062 8.25 -7.515625 7.90625 -8.046875 C 7.570312 -8.585938 7.035156 -8.859375 6.296875 -8.859375 C 5.796875 -8.859375 5.296875 -8.734375 4.796875 -8.484375 C 4.304688 -8.242188 3.875 -7.910156 3.5 -7.484375 C 3.132812 -7.054688 2.867188 -6.570312 2.703125 -6.03125 L 2.703125 0 L 1.421875 0 L 1.421875 -9.859375 L 2.59375 -9.859375 L 2.59375 -7.625 C 2.851562 -8.101562 3.195312 -8.519531 3.625 -8.875 C 4.0625 -9.238281 4.550781 -9.519531 5.09375 -9.71875 C 5.632812 -9.925781 6.195312 -10.03125 6.78125 -10.03125 C 7.320312 -10.03125 7.78125 -9.925781 8.15625 -9.71875 C 8.53125 -9.519531 8.832031 -9.234375 9.0625 -8.859375 C 9.289062 -8.492188 9.453125 -8.046875 9.546875 -7.515625 C 9.648438 -6.992188 9.703125 -6.410156 9.703125 -5.765625 Z M 9.703125 0 "/></g></g></g><g fill="#f9f7f8" fill-opacity="1"><g transform="translate(251.867775, 96.097443)"><g><path d="M 4.65625 0.1875 C 3.84375 0.1875 3.085938 0.0546875 2.390625 -0.203125 C 1.703125 -0.472656 1.109375 -0.878906 0.609375 -1.421875 L 1.140625 -2.328125 C 1.691406 -1.804688 2.25 -1.425781 2.8125 -1.1875 C 3.375 -0.957031 3.96875 -0.84375 4.59375 -0.84375 C 5.363281 -0.84375 5.988281 -1 6.46875 -1.3125 C 6.945312 -1.625 7.1875 -2.070312 7.1875 -2.65625 C 7.1875 -3.039062 7.066406 -3.335938 6.828125 -3.546875 C 6.597656 -3.753906 6.265625 -3.921875 5.828125 -4.046875 C 5.398438 -4.179688 4.882812 -4.328125 4.28125 -4.484375 C 3.59375 -4.671875 3.019531 -4.867188 2.5625 -5.078125 C 2.101562 -5.285156 1.753906 -5.550781 1.515625 -5.875 C 1.285156 -6.195312 1.171875 -6.617188 1.171875 -7.140625 C 1.171875 -7.773438 1.332031 -8.300781 1.65625 -8.71875 C 1.976562 -9.144531 2.421875 -9.46875 2.984375 -9.6875 C 3.546875 -9.914062 4.171875 -10.03125 4.859375 -10.03125 C 5.617188 -10.03125 6.285156 -9.910156 6.859375 -9.671875 C 7.441406 -9.429688 7.914062 -9.097656 8.28125 -8.671875 L 7.65625 -7.796875 C 7.3125 -8.203125 6.894531 -8.5 6.40625 -8.6875 C 5.914062 -8.882812 5.375 -8.984375 4.78125 -8.984375 C 4.382812 -8.984375 4 -8.929688 3.625 -8.828125 C 3.257812 -8.722656 2.960938 -8.546875 2.734375 -8.296875 C 2.503906 -8.046875 2.390625 -7.707031 2.390625 -7.28125 C 2.390625 -6.925781 2.472656 -6.648438 2.640625 -6.453125 C 2.816406 -6.265625 3.082031 -6.101562 3.4375 -5.96875 C 3.789062 -5.832031 4.226562 -5.691406 4.75 -5.546875 C 5.488281 -5.335938 6.132812 -5.128906 6.6875 -4.921875 C 7.25 -4.710938 7.679688 -4.445312 7.984375 -4.125 C 8.285156 -3.800781 8.4375 -3.34375 8.4375 -2.75 C 8.4375 -1.820312 8.085938 -1.097656 7.390625 -0.578125 C 6.703125 -0.0664062 5.789062 0.1875 4.65625 0.1875 Z M 4.65625 0.1875 "/></g></g></g><g fill="#f9f7f8" fill-opacity="1"><g transform="translate(261.008051, 96.097443)"><g><path d="M 1.328125 -4.0625 L 1.328125 -9.859375 L 2.609375 -9.859375 L 2.609375 -4.296875 C 2.609375 -3.171875 2.800781 -2.332031 3.1875 -1.78125 C 3.570312 -1.226562 4.144531 -0.953125 4.90625 -0.953125 C 5.40625 -0.953125 5.890625 -1.0625 6.359375 -1.28125 C 6.835938 -1.5 7.257812 -1.8125 7.625 -2.21875 C 7.988281 -2.632812 8.265625 -3.113281 8.453125 -3.65625 L 8.453125 -9.859375 L 9.75 -9.859375 L 9.75 -1.546875 C 9.75 -1.367188 9.785156 -1.238281 9.859375 -1.15625 C 9.929688 -1.082031 10.046875 -1.035156 10.203125 -1.015625 L 10.203125 0 C 10.046875 0.0078125 9.921875 0.015625 9.828125 0.015625 C 9.742188 0.0234375 9.664062 0.03125 9.59375 0.03125 C 9.34375 0.0078125 9.125 -0.0859375 8.9375 -0.265625 C 8.757812 -0.441406 8.660156 -0.65625 8.640625 -0.90625 L 8.609375 -2.234375 C 8.179688 -1.472656 7.597656 -0.878906 6.859375 -0.453125 C 6.117188 -0.0234375 5.320312 0.1875 4.46875 0.1875 C 3.425781 0.1875 2.640625 -0.171875 2.109375 -0.890625 C 1.585938 -1.609375 1.328125 -2.664062 1.328125 -4.0625 Z M 1.328125 -4.0625 "/></g></g></g><g fill="#f9f7f8" fill-opacity="1"><g transform="translate(272.248899, 96.097443)"><g><path d="M 1.46875 -13.8125 L 2.765625 -13.8125 L 2.765625 -2.234375 C 2.765625 -1.742188 2.851562 -1.421875 3.03125 -1.265625 C 3.207031 -1.117188 3.421875 -1.046875 3.671875 -1.046875 C 3.898438 -1.046875 4.125 -1.066406 4.34375 -1.109375 C 4.570312 -1.160156 4.769531 -1.210938 4.9375 -1.265625 L 5.171875 -0.234375 C 4.929688 -0.128906 4.632812 -0.046875 4.28125 0.015625 C 3.9375 0.078125 3.640625 0.109375 3.390625 0.109375 C 2.804688 0.109375 2.335938 -0.0546875 1.984375 -0.390625 C 1.640625 -0.734375 1.46875 -1.203125 1.46875 -1.796875 Z M 1.46875 -13.8125 "/></g></g></g><g fill="#f9f7f8" fill-opacity="1"><g transform="translate(277.396222, 96.097443)"><g><path d="M 6.15625 -0.46875 C 6.050781 -0.4375 5.890625 -0.367188 5.671875 -0.265625 C 5.460938 -0.160156 5.207031 -0.0703125 4.90625 0 C 4.601562 0.0703125 4.273438 0.109375 3.921875 0.109375 C 3.554688 0.109375 3.210938 0.0390625 2.890625 -0.09375 C 2.566406 -0.226562 2.304688 -0.4375 2.109375 -0.71875 C 1.921875 -1.007812 1.828125 -1.363281 1.828125 -1.78125 L 1.828125 -8.84375 L 0.46875 -8.84375 L 0.46875 -9.859375 L 1.828125 -9.859375 L 1.828125 -13.1875 L 3.125 -13.1875 L 3.125 -9.859375 L 5.390625 -9.859375 L 5.390625 -8.84375 L 3.125 -8.84375 L 3.125 -2.140625 C 3.144531 -1.785156 3.269531 -1.519531 3.5 -1.34375 C 3.738281 -1.164062 4.007812 -1.078125 4.3125 -1.078125 C 4.664062 -1.078125 4.988281 -1.132812 5.28125 -1.25 C 5.570312 -1.375 5.75 -1.460938 5.8125 -1.515625 Z M 6.15625 -0.46875 "/></g></g></g><g fill="#f9f7f8" fill-opacity="1"><g transform="translate(283.735767, 96.097443)"><g><path d="M 1.421875 0 L 1.421875 -9.859375 L 2.703125 -9.859375 L 2.703125 0 Z M 1.421875 -11.921875 L 1.421875 -13.8125 L 2.703125 -13.8125 L 2.703125 -11.921875 Z M 1.421875 -11.921875 "/></g></g></g><g fill="#f9f7f8" fill-opacity="1"><g transform="translate(287.861186, 96.097443)"><g><path d="M 9.703125 0 L 8.421875 0 L 8.421875 -5.5 C 8.421875 -6.664062 8.25 -7.515625 7.90625 -8.046875 C 7.570312 -8.585938 7.035156 -8.859375 6.296875 -8.859375 C 5.796875 -8.859375 5.296875 -8.734375 4.796875 -8.484375 C 4.304688 -8.242188 3.875 -7.910156 3.5 -7.484375 C 3.132812 -7.054688 2.867188 -6.570312 2.703125 -6.03125 L 2.703125 0 L 1.421875 0 L 1.421875 -9.859375 L 2.59375 -9.859375 L 2.59375 -7.625 C 2.851562 -8.101562 3.195312 -8.519531 3.625 -8.875 C 4.0625 -9.238281 4.550781 -9.519531 5.09375 -9.71875 C 5.632812 -9.925781 6.195312 -10.03125 6.78125 -10.03125 C 7.320312 -10.03125 7.78125 -9.925781 8.15625 -9.71875 C 8.53125 -9.519531 8.832031 -9.234375 9.0625 -8.859375 C 9.289062 -8.492188 9.453125 -8.046875 9.546875 -7.515625 C 9.648438 -6.992188 9.703125 -6.410156 9.703125 -5.765625 Z M 9.703125 0 "/></g></g></g><g fill="#f9f7f8" fill-opacity="1"><g transform="translate(298.893866, 96.097443)"><g><path d="M 5.375 0.125 C 4.707031 0.125 4.085938 -0.0078125 3.515625 -0.28125 C 2.953125 -0.5625 2.460938 -0.9375 2.046875 -1.40625 C 1.640625 -1.882812 1.320312 -2.425781 1.09375 -3.03125 C 0.863281 -3.632812 0.75 -4.257812 0.75 -4.90625 C 0.75 -5.59375 0.859375 -6.242188 1.078125 -6.859375 C 1.304688 -7.472656 1.625 -8.019531 2.03125 -8.5 C 2.445312 -8.976562 2.929688 -9.351562 3.484375 -9.625 C 4.035156 -9.894531 4.65625 -10.03125 5.34375 -10.03125 C 6.1875 -10.03125 6.921875 -9.8125 7.546875 -9.375 C 8.171875 -8.945312 8.695312 -8.421875 9.125 -7.796875 L 9.125 -9.859375 L 10.28125 -9.859375 L 10.28125 0.03125 C 10.28125 0.945312 10.0625 1.71875 9.625 2.34375 C 9.1875 2.96875 8.597656 3.4375 7.859375 3.75 C 7.117188 4.0625 6.316406 4.21875 5.453125 4.21875 C 4.328125 4.21875 3.414062 4.015625 2.71875 3.609375 C 2.03125 3.210938 1.460938 2.671875 1.015625 1.984375 L 1.8125 1.359375 C 2.207031 1.984375 2.726562 2.445312 3.375 2.75 C 4.03125 3.050781 4.722656 3.203125 5.453125 3.203125 C 6.097656 3.203125 6.6875 3.082031 7.21875 2.84375 C 7.75 2.613281 8.175781 2.265625 8.5 1.796875 C 8.820312 1.328125 8.984375 0.738281 8.984375 0.03125 L 8.984375 -1.90625 C 8.609375 -1.289062 8.09375 -0.796875 7.4375 -0.421875 C 6.78125 -0.0546875 6.09375 0.125 5.375 0.125 Z M 5.734375 -0.953125 C 6.117188 -0.953125 6.492188 -1.019531 6.859375 -1.15625 C 7.222656 -1.289062 7.554688 -1.472656 7.859375 -1.703125 C 8.160156 -1.941406 8.410156 -2.207031 8.609375 -2.5 C 8.804688 -2.789062 8.929688 -3.085938 8.984375 -3.390625 L 8.984375 -6.4375 C 8.796875 -6.914062 8.523438 -7.335938 8.171875 -7.703125 C 7.816406 -8.078125 7.414062 -8.367188 6.96875 -8.578125 C 6.519531 -8.785156 6.054688 -8.890625 5.578125 -8.890625 C 5.023438 -8.890625 4.53125 -8.769531 4.09375 -8.53125 C 3.65625 -8.300781 3.285156 -7.992188 2.984375 -7.609375 C 2.691406 -7.222656 2.460938 -6.789062 2.296875 -6.3125 C 2.140625 -5.832031 2.0625 -5.351562 2.0625 -4.875 C 2.0625 -4.351562 2.15625 -3.851562 2.34375 -3.375 C 2.53125 -2.90625 2.789062 -2.484375 3.125 -2.109375 C 3.46875 -1.734375 3.859375 -1.445312 4.296875 -1.25 C 4.742188 -1.050781 5.222656 -0.953125 5.734375 -0.953125 Z M 5.734375 -0.953125 "/></g></g></g></svg>