<svg xmlns="http://www.w3.org/2000/svg" xmlns:xlink="http://www.w3.org/1999/xlink" width="500" zoomAndPan="magnify" viewBox="0 0 375 374.999991" height="500" preserveAspectRatio="xMidYMid meet" version="1.0"><defs><g/></defs><g fill="#ff6f00" fill-opacity="1"><g transform="translate(0.0000045, 237.978047)"><g><path d="M 69.859375 -226.796875 L 69.859375 -221.046875 L 57.453125 -221.046875 C 54.835938 -221.046875 52.769531 -219.9375 51.25 -217.71875 C 49.738281 -215.507812 48.984375 -212.585938 48.984375 -208.953125 C 48.984375 -190.804688 48.984375 -174.878906 48.984375 -161.171875 C 48.984375 -147.460938 48.984375 -136.828125 48.984375 -129.265625 C 48.984375 -121.710938 48.882812 -117.9375 48.6875 -117.9375 C 48.6875 -113.5 46.617188 -109.265625 42.484375 -105.234375 C 38.347656 -101.203125 32.753906 -98.175781 25.703125 -96.15625 C 32.753906 -94.144531 38.347656 -91.171875 42.484375 -87.234375 C 46.617188 -83.304688 48.6875 -79.023438 48.6875 -74.390625 L 48.984375 16.625 C 48.984375 20.257812 49.738281 23.1875 51.25 25.40625 C 52.769531 27.625 54.835938 28.734375 57.453125 28.734375 L 69.859375 28.734375 L 69.859375 34.78125 L 57.453125 34.78125 C 52.816406 34.78125 49.035156 33.113281 46.109375 29.78125 C 43.191406 26.457031 41.734375 22.070312 41.734375 16.625 L 41.734375 -75.59375 C 41.734375 -80.84375 39.613281 -85.128906 35.375 -88.453125 C 31.144531 -91.773438 25.503906 -93.4375 18.453125 -93.4375 L 16.625 -93.4375 L 16.625 -98.578125 L 18.453125 -98.578125 C 25.503906 -98.578125 31.144531 -100.238281 35.375 -103.5625 C 39.613281 -106.894531 41.734375 -111.179688 41.734375 -116.421875 L 41.734375 -208.65625 C 41.734375 -214.09375 43.191406 -218.472656 46.109375 -221.796875 C 49.035156 -225.128906 52.816406 -226.796875 57.453125 -226.796875 Z M 69.859375 -226.796875 "/></g></g></g><g fill="#ff6f00" fill-opacity="1"><g transform="translate(78.634431, 237.978047)"><g/></g></g><g fill="#ff6f00" fill-opacity="1"><g transform="translate(122.179345, 237.978047)"><g/></g></g><g fill="#ff6f00" fill-opacity="1"><g transform="translate(165.724258, 237.978047)"><g/></g></g><g fill="#ff6f00" fill-opacity="1"><g transform="translate(209.269172, 237.978047)"><g/></g></g><g fill="#ff6f00" fill-opacity="1"><g transform="translate(252.814085, 237.978047)"><g/></g></g><g fill="#ff6f00" fill-opacity="1"><g transform="translate(296.365537, 237.978047)"><g><path d="M 9.078125 -226.796875 L 21.171875 -226.796875 C 26.003906 -226.796875 29.878906 -225.128906 32.796875 -221.796875 C 35.722656 -218.472656 37.1875 -214.09375 37.1875 -208.65625 C 37.1875 -190.3125 37.1875 -174.179688 37.1875 -160.265625 C 37.1875 -146.359375 37.1875 -135.570312 37.1875 -127.90625 C 37.1875 -120.25 37.085938 -116.421875 36.890625 -116.421875 C 37.085938 -111.179688 39.351562 -106.894531 43.6875 -103.5625 C 48.03125 -100.238281 53.628906 -98.578125 60.484375 -98.578125 L 62.296875 -98.578125 L 62.296875 -93.4375 L 60.484375 -93.4375 C 53.628906 -93.4375 48.03125 -91.773438 43.6875 -88.453125 C 39.351562 -85.128906 37.085938 -80.84375 36.890625 -75.59375 L 37.1875 16.625 C 37.1875 22.070312 35.722656 26.457031 32.796875 29.78125 C 29.878906 33.113281 26.003906 34.78125 21.171875 34.78125 L 9.078125 34.78125 L 9.078125 28.734375 L 21.171875 28.734375 C 23.785156 28.734375 25.898438 27.625 27.515625 25.40625 C 29.128906 23.1875 29.9375 20.257812 29.9375 16.625 L 29.9375 -74.390625 C 30.132812 -79.023438 32.347656 -83.304688 36.578125 -87.234375 C 40.816406 -91.171875 46.363281 -94.144531 53.21875 -96.15625 C 46.363281 -98.175781 40.816406 -101.203125 36.578125 -105.234375 C 32.347656 -109.265625 30.132812 -113.5 29.9375 -117.9375 L 29.9375 -208.953125 C 29.9375 -212.585938 29.128906 -215.507812 27.515625 -217.71875 C 25.898438 -219.9375 23.785156 -221.046875 21.171875 -221.046875 L 9.078125 -221.046875 Z M 9.078125 -226.796875 "/></g></g></g><g fill="#000000" fill-opacity="1"><g transform="translate(88.252967, 217.79212)"><g><path d="M 23.78125 -160.0625 L 34.984375 -160.0625 L 99.25 -65.40625 L 163.5 -160.0625 L 174.703125 -160.0625 L 174.703125 0 L 162.8125 0 L 162.8125 -139.03125 L 99.46875 -46.875 L 98.5625 -46.875 L 35.21875 -139.03125 L 35.21875 0 L 23.78125 0 Z M 23.78125 -160.0625 "/></g></g></g><path stroke-linecap="butt" transform="matrix(0.75, 0, 0, 0.75, 112.217503, 209.978789)" fill="none" stroke-linejoin="miter" d="M 0.00166303 5.502239 L 150.189173 5.502239 " stroke="#000000" stroke-width="11" stroke-opacity="1" stroke-miterlimit="4"/><g fill="#000000" fill-opacity="1"><g transform="translate(35.601565, 327.291425)"><g><path d="M 45.859375 0 L 38.828125 0 L 38.828125 -15.40625 C 38.828125 -17.570312 38.453125 -19.171875 37.703125 -20.203125 C 36.953125 -21.234375 35.914062 -21.75 34.59375 -21.75 C 33.226562 -21.75 31.925781 -21.210938 30.6875 -20.140625 C 29.445312 -19.078125 28.5625 -17.691406 28.03125 -15.984375 L 28.03125 0 L 21.015625 0 L 21.015625 -15.40625 C 21.015625 -17.601562 20.640625 -19.207031 19.890625 -20.21875 C 19.140625 -21.238281 18.097656 -21.75 16.765625 -21.75 C 15.398438 -21.75 14.097656 -21.222656 12.859375 -20.171875 C 11.617188 -19.128906 10.738281 -17.75 10.21875 -16.03125 L 10.21875 0 L 3.203125 0 L 3.203125 -27.453125 L 9.53125 -27.453125 L 9.53125 -22.375 C 10.582031 -24.15625 11.976562 -25.523438 13.71875 -26.484375 C 15.46875 -27.453125 17.476562 -27.9375 19.75 -27.9375 C 22.019531 -27.9375 23.789062 -27.375 25.0625 -26.25 C 26.34375 -25.132812 27.160156 -23.753906 27.515625 -22.109375 C 28.628906 -24.003906 30.050781 -25.445312 31.78125 -26.4375 C 33.507812 -27.4375 35.457031 -27.9375 37.625 -27.9375 C 39.34375 -27.9375 40.734375 -27.628906 41.796875 -27.015625 C 42.859375 -26.398438 43.6875 -25.578125 44.28125 -24.546875 C 44.875 -23.515625 45.285156 -22.351562 45.515625 -21.0625 C 45.742188 -19.769531 45.859375 -18.460938 45.859375 -17.140625 Z M 45.859375 0 "/></g></g></g><g fill="#000000" fill-opacity="1"><g transform="translate(84.38079, 327.291425)"><g><path d="M 1.3125 -8.125 C 1.3125 -9.90625 1.804688 -11.46875 2.796875 -12.8125 C 3.796875 -14.15625 5.1875 -15.191406 6.96875 -15.921875 C 8.75 -16.660156 10.796875 -17.03125 13.109375 -17.03125 C 14.253906 -17.03125 15.421875 -16.941406 16.609375 -16.765625 C 17.796875 -16.597656 18.828125 -16.320312 19.703125 -15.9375 L 19.703125 -17.40625 C 19.703125 -19.144531 19.1875 -20.484375 18.15625 -21.421875 C 17.125 -22.367188 15.597656 -22.84375 13.578125 -22.84375 C 12.066406 -22.84375 10.628906 -22.582031 9.265625 -22.0625 C 7.910156 -21.539062 6.484375 -20.769531 4.984375 -19.75 L 2.71875 -24.375 C 4.539062 -25.5625 6.398438 -26.453125 8.296875 -27.046875 C 10.203125 -27.640625 12.207031 -27.9375 14.3125 -27.9375 C 18.21875 -27.9375 21.265625 -26.957031 23.453125 -25 C 25.640625 -23.039062 26.734375 -20.242188 26.734375 -16.609375 L 26.734375 -7.859375 C 26.734375 -7.128906 26.863281 -6.601562 27.125 -6.28125 C 27.382812 -5.96875 27.8125 -5.78125 28.40625 -5.71875 L 28.40625 0 C 27.769531 0.101562 27.195312 0.1875 26.6875 0.25 C 26.1875 0.320312 25.765625 0.359375 25.421875 0.359375 C 24.023438 0.359375 22.96875 0.046875 22.25 -0.578125 C 21.53125 -1.203125 21.082031 -1.96875 20.90625 -2.875 L 20.75 -4.296875 C 19.5625 -2.753906 18.078125 -1.5625 16.296875 -0.71875 C 14.515625 0.113281 12.695312 0.53125 10.84375 0.53125 C 9.03125 0.53125 7.394531 0.15625 5.9375 -0.59375 C 4.488281 -1.351562 3.351562 -2.382812 2.53125 -3.6875 C 1.71875 -5 1.3125 -6.476562 1.3125 -8.125 Z M 18.390625 -6.703125 C 18.773438 -7.128906 19.085938 -7.550781 19.328125 -7.96875 C 19.578125 -8.382812 19.703125 -8.769531 19.703125 -9.125 L 19.703125 -11.890625 C 18.867188 -12.242188 17.960938 -12.515625 16.984375 -12.703125 C 16.003906 -12.898438 15.078125 -13 14.203125 -13 C 12.390625 -13 10.894531 -12.601562 9.71875 -11.8125 C 8.550781 -11.03125 7.96875 -9.992188 7.96875 -8.703125 C 7.96875 -8.003906 8.160156 -7.335938 8.546875 -6.703125 C 8.929688 -6.078125 9.488281 -5.570312 10.21875 -5.1875 C 10.945312 -4.800781 11.820312 -4.609375 12.84375 -4.609375 C 13.882812 -4.609375 14.910156 -4.804688 15.921875 -5.203125 C 16.941406 -5.609375 17.765625 -6.109375 18.390625 -6.703125 Z M 18.390625 -6.703125 "/></g></g></g><g fill="#000000" fill-opacity="1"><g transform="translate(114.455198, 327.291425)"><g><path d="M 3.140625 -38.25 L 10.171875 -38.25 L 10.171875 -8.796875 C 10.171875 -7.546875 10.378906 -6.703125 10.796875 -6.265625 C 11.210938 -5.828125 11.789062 -5.609375 12.53125 -5.609375 C 13.082031 -5.609375 13.65625 -5.675781 14.25 -5.8125 C 14.84375 -5.957031 15.367188 -6.132812 15.828125 -6.34375 L 16.765625 -1 C 15.828125 -0.539062 14.726562 -0.191406 13.46875 0.046875 C 12.207031 0.296875 11.070312 0.421875 10.0625 0.421875 C 7.863281 0.421875 6.160156 -0.160156 4.953125 -1.328125 C 3.742188 -2.503906 3.140625 -4.175781 3.140625 -6.34375 Z M 3.140625 -38.25 "/></g></g></g><g fill="#000000" fill-opacity="1"><g transform="translate(131.064236, 327.291425)"><g><path d="M 19.65625 0.53125 C 17.519531 0.53125 15.640625 0.0507812 14.015625 -0.90625 C 12.390625 -1.875 11.125 -3.179688 10.21875 -4.828125 L 10.21875 11.15625 L 3.203125 11.15625 L 3.203125 -27.453125 L 9.328125 -27.453125 L 9.328125 -22.75 C 10.378906 -24.351562 11.707031 -25.617188 13.3125 -26.546875 C 14.914062 -27.472656 16.75 -27.9375 18.8125 -27.9375 C 20.664062 -27.9375 22.367188 -27.566406 23.921875 -26.828125 C 25.472656 -26.097656 26.828125 -25.078125 27.984375 -23.765625 C 29.140625 -22.453125 30.039062 -20.945312 30.6875 -19.25 C 31.332031 -17.5625 31.65625 -15.738281 31.65625 -13.78125 C 31.65625 -11.125 31.140625 -8.710938 30.109375 -6.546875 C 29.078125 -4.378906 27.660156 -2.65625 25.859375 -1.375 C 24.054688 -0.101562 21.988281 0.53125 19.65625 0.53125 Z M 17.296875 -5.453125 C 18.378906 -5.453125 19.351562 -5.675781 20.21875 -6.125 C 21.09375 -6.582031 21.851562 -7.203125 22.5 -7.984375 C 23.15625 -8.773438 23.644531 -9.664062 23.96875 -10.65625 C 24.300781 -11.65625 24.46875 -12.695312 24.46875 -13.78125 C 24.46875 -14.9375 24.285156 -16.003906 23.921875 -16.984375 C 23.554688 -17.960938 23.023438 -18.828125 22.328125 -19.578125 C 21.628906 -20.328125 20.816406 -20.910156 19.890625 -21.328125 C 18.960938 -21.742188 17.957031 -21.953125 16.875 -21.953125 C 16.207031 -21.953125 15.53125 -21.835938 14.84375 -21.609375 C 14.164062 -21.390625 13.515625 -21.066406 12.890625 -20.640625 C 12.265625 -20.222656 11.710938 -19.734375 11.234375 -19.171875 C 10.765625 -18.617188 10.425781 -18.007812 10.21875 -17.34375 L 10.21875 -10.90625 C 10.632812 -9.882812 11.203125 -8.953125 11.921875 -8.109375 C 12.640625 -7.273438 13.46875 -6.625 14.40625 -6.15625 C 15.351562 -5.6875 16.316406 -5.453125 17.296875 -5.453125 Z M 17.296875 -5.453125 "/></g></g></g><g fill="#000000" fill-opacity="1"><g transform="translate(164.282312, 327.291425)"><g><path d="M 1.3125 -8.125 C 1.3125 -9.90625 1.804688 -11.46875 2.796875 -12.8125 C 3.796875 -14.15625 5.1875 -15.191406 6.96875 -15.921875 C 8.75 -16.660156 10.796875 -17.03125 13.109375 -17.03125 C 14.253906 -17.03125 15.421875 -16.941406 16.609375 -16.765625 C 17.796875 -16.597656 18.828125 -16.320312 19.703125 -15.9375 L 19.703125 -17.40625 C 19.703125 -19.144531 19.1875 -20.484375 18.15625 -21.421875 C 17.125 -22.367188 15.597656 -22.84375 13.578125 -22.84375 C 12.066406 -22.84375 10.628906 -22.582031 9.265625 -22.0625 C 7.910156 -21.539062 6.484375 -20.769531 4.984375 -19.75 L 2.71875 -24.375 C 4.539062 -25.5625 6.398438 -26.453125 8.296875 -27.046875 C 10.203125 -27.640625 12.207031 -27.9375 14.3125 -27.9375 C 18.21875 -27.9375 21.265625 -26.957031 23.453125 -25 C 25.640625 -23.039062 26.734375 -20.242188 26.734375 -16.609375 L 26.734375 -7.859375 C 26.734375 -7.128906 26.863281 -6.601562 27.125 -6.28125 C 27.382812 -5.96875 27.8125 -5.78125 28.40625 -5.71875 L 28.40625 0 C 27.769531 0.101562 27.195312 0.1875 26.6875 0.25 C 26.1875 0.320312 25.765625 0.359375 25.421875 0.359375 C 24.023438 0.359375 22.96875 0.046875 22.25 -0.578125 C 21.53125 -1.203125 21.082031 -1.96875 20.90625 -2.875 L 20.75 -4.296875 C 19.5625 -2.753906 18.078125 -1.5625 16.296875 -0.71875 C 14.515625 0.113281 12.695312 0.53125 10.84375 0.53125 C 9.03125 0.53125 7.394531 0.15625 5.9375 -0.59375 C 4.488281 -1.351562 3.351562 -2.382812 2.53125 -3.6875 C 1.71875 -5 1.3125 -6.476562 1.3125 -8.125 Z M 18.390625 -6.703125 C 18.773438 -7.128906 19.085938 -7.550781 19.328125 -7.96875 C 19.578125 -8.382812 19.703125 -8.769531 19.703125 -9.125 L 19.703125 -11.890625 C 18.867188 -12.242188 17.960938 -12.515625 16.984375 -12.703125 C 16.003906 -12.898438 15.078125 -13 14.203125 -13 C 12.390625 -13 10.894531 -12.601562 9.71875 -11.8125 C 8.550781 -11.03125 7.96875 -9.992188 7.96875 -8.703125 C 7.96875 -8.003906 8.160156 -7.335938 8.546875 -6.703125 C 8.929688 -6.078125 9.488281 -5.570312 10.21875 -5.1875 C 10.945312 -4.800781 11.820312 -4.609375 12.84375 -4.609375 C 13.882812 -4.609375 14.910156 -4.804688 15.921875 -5.203125 C 16.941406 -5.609375 17.765625 -6.109375 18.390625 -6.703125 Z M 18.390625 -6.703125 "/></g></g></g><g fill="#000000" fill-opacity="1"><g transform="translate(194.35672, 327.291425)"><g><path d="M 3.203125 0 L 3.203125 -27.453125 L 10.21875 -27.453125 L 10.21875 0 Z M 3.203125 -31.28125 L 3.203125 -38.25 L 10.21875 -38.25 L 10.21875 -31.28125 Z M 3.203125 -31.28125 "/></g></g></g><g fill="#000000" fill-opacity="1"><g transform="translate(207.717307, 327.291425)"><g><path d="M 13.3125 0.53125 C 10.96875 0.53125 8.726562 0.144531 6.59375 -0.625 C 4.46875 -1.394531 2.632812 -2.53125 1.09375 -4.03125 L 3.609375 -8.59375 C 5.253906 -7.269531 6.867188 -6.289062 8.453125 -5.65625 C 10.046875 -5.03125 11.578125 -4.71875 13.046875 -4.71875 C 14.410156 -4.71875 15.503906 -4.960938 16.328125 -5.453125 C 17.148438 -5.941406 17.5625 -6.675781 17.5625 -7.65625 C 17.5625 -8.3125 17.332031 -8.820312 16.875 -9.1875 C 16.414062 -9.5625 15.757812 -9.890625 14.90625 -10.171875 C 14.050781 -10.453125 13.015625 -10.765625 11.796875 -11.109375 C 9.765625 -11.773438 8.066406 -12.421875 6.703125 -13.046875 C 5.347656 -13.679688 4.328125 -14.476562 3.640625 -15.4375 C 2.960938 -16.394531 2.625 -17.625 2.625 -19.125 C 2.625 -20.945312 3.082031 -22.507812 4 -23.8125 C 4.925781 -25.125 6.21875 -26.144531 7.875 -26.875 C 9.539062 -27.613281 11.492188 -27.984375 13.734375 -27.984375 C 15.691406 -27.984375 17.539062 -27.675781 19.28125 -27.0625 C 21.03125 -26.457031 22.617188 -25.472656 24.046875 -24.109375 L 21.21875 -19.65625 C 19.820312 -20.738281 18.492188 -21.53125 17.234375 -22.03125 C 15.984375 -22.539062 14.710938 -22.796875 13.421875 -22.796875 C 12.679688 -22.796875 11.988281 -22.707031 11.34375 -22.53125 C 10.695312 -22.351562 10.171875 -22.0625 9.765625 -21.65625 C 9.367188 -21.257812 9.171875 -20.695312 9.171875 -19.96875 C 9.171875 -19.300781 9.351562 -18.785156 9.71875 -18.421875 C 10.082031 -18.054688 10.640625 -17.734375 11.390625 -17.453125 C 12.148438 -17.171875 13.070312 -16.859375 14.15625 -16.515625 C 16.351562 -15.878906 18.210938 -15.226562 19.734375 -14.5625 C 21.253906 -13.90625 22.394531 -13.09375 23.15625 -12.125 C 23.925781 -11.164062 24.3125 -9.847656 24.3125 -8.171875 C 24.3125 -5.453125 23.316406 -3.320312 21.328125 -1.78125 C 19.335938 -0.238281 16.664062 0.53125 13.3125 0.53125 Z M 13.3125 0.53125 "/></g></g></g><g fill="#ff6f00" fill-opacity="1"><g transform="translate(233.601552, 327.291425)"><g><path d="M 3.046875 0 L 3.046875 -7.546875 L 8.796875 -7.546875 L 8.796875 0 Z M 3.046875 0 "/></g></g></g><g fill="#ff6f00" fill-opacity="1"><g transform="translate(245.390305, 327.291425)"><g><path d="M 1.515625 -13.734375 C 1.515625 -16.390625 2.039062 -18.789062 3.09375 -20.9375 C 4.144531 -23.082031 5.59375 -24.785156 7.4375 -26.046875 C 9.289062 -27.304688 11.40625 -27.9375 13.78125 -27.9375 C 15.8125 -27.9375 17.640625 -27.4375 19.265625 -26.4375 C 20.890625 -25.445312 22.15625 -24.179688 23.0625 -22.640625 L 23.0625 -38.25 L 30.078125 -38.25 L 30.078125 -7.859375 C 30.078125 -7.128906 30.195312 -6.601562 30.4375 -6.28125 C 30.6875 -5.96875 31.109375 -5.78125 31.703125 -5.71875 L 31.703125 0 C 30.484375 0.238281 29.488281 0.359375 28.71875 0.359375 C 27.457031 0.359375 26.414062 0.046875 25.59375 -0.578125 C 24.78125 -1.203125 24.320312 -2.023438 24.21875 -3.046875 L 24.109375 -4.765625 C 23.097656 -3.054688 21.726562 -1.742188 20 -0.828125 C 18.269531 0.078125 16.457031 0.53125 14.5625 0.53125 C 12.675781 0.53125 10.9375 0.164062 9.34375 -0.5625 C 7.757812 -1.300781 6.378906 -2.316406 5.203125 -3.609375 C 4.035156 -4.910156 3.128906 -6.425781 2.484375 -8.15625 C 1.835938 -9.882812 1.515625 -11.742188 1.515625 -13.734375 Z M 23.0625 -10.0625 L 23.0625 -16.609375 C 22.707031 -17.617188 22.144531 -18.523438 21.375 -19.328125 C 20.613281 -20.140625 19.757812 -20.78125 18.8125 -21.25 C 17.875 -21.71875 16.929688 -21.953125 15.984375 -21.953125 C 14.898438 -21.953125 13.921875 -21.722656 13.046875 -21.265625 C 12.171875 -20.816406 11.410156 -20.207031 10.765625 -19.4375 C 10.117188 -18.675781 9.628906 -17.785156 9.296875 -16.765625 C 8.960938 -15.753906 8.796875 -14.691406 8.796875 -13.578125 C 8.796875 -12.453125 8.976562 -11.390625 9.34375 -10.390625 C 9.71875 -9.398438 10.253906 -8.535156 10.953125 -7.796875 C 11.648438 -7.066406 12.460938 -6.492188 13.390625 -6.078125 C 14.316406 -5.660156 15.320312 -5.453125 16.40625 -5.453125 C 17.070312 -5.453125 17.742188 -5.5625 18.421875 -5.78125 C 19.097656 -6.007812 19.742188 -6.328125 20.359375 -6.734375 C 20.972656 -7.140625 21.515625 -7.628906 21.984375 -8.203125 C 22.453125 -8.773438 22.8125 -9.394531 23.0625 -10.0625 Z M 23.0625 -10.0625 "/></g></g></g><g fill="#ff6f00" fill-opacity="1"><g transform="translate(279.184717, 327.291425)"><g><path d="M 15.9375 0.53125 C 13.726562 0.53125 11.734375 0.15625 9.953125 -0.59375 C 8.171875 -1.351562 6.648438 -2.382812 5.390625 -3.6875 C 4.140625 -5 3.171875 -6.503906 2.484375 -8.203125 C 1.804688 -9.898438 1.46875 -11.691406 1.46875 -13.578125 C 1.46875 -16.191406 2.050781 -18.582031 3.21875 -20.75 C 4.394531 -22.914062 6.070312 -24.65625 8.25 -25.96875 C 10.4375 -27.28125 13.015625 -27.9375 15.984375 -27.9375 C 18.984375 -27.9375 21.550781 -27.28125 23.6875 -25.96875 C 25.820312 -24.65625 27.457031 -22.925781 28.59375 -20.78125 C 29.726562 -18.632812 30.296875 -16.316406 30.296875 -13.828125 C 30.296875 -13.410156 30.273438 -12.984375 30.234375 -12.546875 C 30.203125 -12.109375 30.171875 -11.753906 30.140625 -11.484375 L 8.90625 -11.484375 C 9.050781 -10.078125 9.460938 -8.847656 10.140625 -7.796875 C 10.816406 -6.753906 11.6875 -5.960938 12.75 -5.421875 C 13.820312 -4.878906 14.96875 -4.609375 16.1875 -4.609375 C 17.59375 -4.609375 18.914062 -4.945312 20.15625 -5.625 C 21.394531 -6.3125 22.238281 -7.210938 22.6875 -8.328125 L 28.71875 -6.65625 C 28.050781 -5.257812 27.097656 -4.019531 25.859375 -2.9375 C 24.617188 -1.851562 23.160156 -1.003906 21.484375 -0.390625 C 19.804688 0.222656 17.957031 0.53125 15.9375 0.53125 Z M 8.75 -15.9375 L 23.109375 -15.9375 C 22.972656 -17.332031 22.582031 -18.546875 21.9375 -19.578125 C 21.289062 -20.609375 20.441406 -21.410156 19.390625 -21.984375 C 18.335938 -22.554688 17.164062 -22.84375 15.875 -22.84375 C 14.625 -22.84375 13.484375 -22.554688 12.453125 -21.984375 C 11.421875 -21.410156 10.582031 -20.609375 9.9375 -19.578125 C 9.289062 -18.546875 8.894531 -17.332031 8.75 -15.9375 Z M 8.75 -15.9375 "/></g></g></g><g fill="#ff6f00" fill-opacity="1"><g transform="translate(310.568992, 327.291425)"><g><path d="M 10.59375 0 L 0.46875 -27.453125 L 7.75 -27.453125 L 14.671875 -6.390625 L 21.640625 -27.453125 L 28.296875 -27.453125 L 18.234375 0 Z M 10.59375 0 "/></g></g></g><g fill="#000000" fill-opacity="1"><g transform="translate(42.630808, 360.23506)"><g><path d="M 1.703125 0 L 1.703125 -13.53125 L 6.296875 -13.53125 C 7.722656 -13.53125 8.914062 -13.226562 9.875 -12.625 C 10.84375 -12.019531 11.566406 -11.207031 12.046875 -10.1875 C 12.523438 -9.164062 12.765625 -8.03125 12.765625 -6.78125 C 12.765625 -5.414062 12.5 -4.222656 11.96875 -3.203125 C 11.445312 -2.179688 10.695312 -1.390625 9.71875 -0.828125 C 8.75 -0.273438 7.609375 0 6.296875 0 Z M 11.4375 -6.78125 C 11.4375 -7.863281 11.234375 -8.820312 10.828125 -9.65625 C 10.429688 -10.5 9.851562 -11.160156 9.09375 -11.640625 C 8.332031 -12.117188 7.398438 -12.359375 6.296875 -12.359375 L 3.03125 -12.359375 L 3.03125 -1.1875 L 6.296875 -1.1875 C 7.410156 -1.1875 8.347656 -1.429688 9.109375 -1.921875 C 9.867188 -2.421875 10.445312 -3.09375 10.84375 -3.9375 C 11.238281 -4.78125 11.4375 -5.726562 11.4375 -6.78125 Z M 11.4375 -6.78125 "/></g></g></g><g fill="#000000" fill-opacity="1"><g transform="translate(56.25608, 360.23506)"><g><path d="M 5.71875 0.1875 C 5.007812 0.1875 4.347656 0.0507812 3.734375 -0.21875 C 3.128906 -0.488281 2.601562 -0.863281 2.15625 -1.34375 C 1.707031 -1.820312 1.359375 -2.367188 1.109375 -2.984375 C 0.867188 -3.609375 0.75 -4.28125 0.75 -5 C 0.75 -5.925781 0.957031 -6.773438 1.375 -7.546875 C 1.800781 -8.328125 2.390625 -8.945312 3.140625 -9.40625 C 3.890625 -9.875 4.742188 -10.109375 5.703125 -10.109375 C 6.679688 -10.109375 7.535156 -9.867188 8.265625 -9.390625 C 8.992188 -8.921875 9.566406 -8.300781 9.984375 -7.53125 C 10.410156 -6.769531 10.625 -5.929688 10.625 -5.015625 C 10.625 -4.910156 10.625 -4.8125 10.625 -4.71875 C 10.625 -4.625 10.613281 -4.550781 10.59375 -4.5 L 2.09375 -4.5 C 2.15625 -3.789062 2.351562 -3.15625 2.6875 -2.59375 C 3.03125 -2.039062 3.472656 -1.601562 4.015625 -1.28125 C 4.554688 -0.957031 5.144531 -0.796875 5.78125 -0.796875 C 6.425781 -0.796875 7.035156 -0.960938 7.609375 -1.296875 C 8.191406 -1.628906 8.597656 -2.0625 8.828125 -2.59375 L 9.953125 -2.28125 C 9.742188 -1.8125 9.429688 -1.382812 9.015625 -1 C 8.597656 -0.625 8.101562 -0.332031 7.53125 -0.125 C 6.96875 0.0820312 6.363281 0.1875 5.71875 0.1875 Z M 2.0625 -5.4375 L 9.390625 -5.4375 C 9.347656 -6.15625 9.15625 -6.785156 8.8125 -7.328125 C 8.476562 -7.878906 8.039062 -8.3125 7.5 -8.625 C 6.957031 -8.9375 6.363281 -9.09375 5.71875 -9.09375 C 5.070312 -9.09375 4.476562 -8.9375 3.9375 -8.625 C 3.40625 -8.3125 2.972656 -7.878906 2.640625 -7.328125 C 2.304688 -6.773438 2.113281 -6.144531 2.0625 -5.4375 Z M 2.0625 -5.4375 "/></g></g></g><g fill="#000000" fill-opacity="1"><g transform="translate(67.442143, 360.23506)"><g><path d="M 4.6875 0.1875 C 3.875 0.1875 3.117188 0.0546875 2.421875 -0.203125 C 1.722656 -0.472656 1.117188 -0.882812 0.609375 -1.4375 L 1.140625 -2.34375 C 1.703125 -1.820312 2.265625 -1.441406 2.828125 -1.203125 C 3.390625 -0.972656 3.988281 -0.859375 4.625 -0.859375 C 5.40625 -0.859375 6.035156 -1.015625 6.515625 -1.328125 C 7.003906 -1.640625 7.25 -2.085938 7.25 -2.671875 C 7.25 -3.066406 7.128906 -3.367188 6.890625 -3.578125 C 6.648438 -3.785156 6.3125 -3.957031 5.875 -4.09375 C 5.4375 -4.226562 4.914062 -4.367188 4.3125 -4.515625 C 3.625 -4.703125 3.046875 -4.898438 2.578125 -5.109375 C 2.117188 -5.328125 1.769531 -5.597656 1.53125 -5.921875 C 1.300781 -6.242188 1.1875 -6.664062 1.1875 -7.1875 C 1.1875 -7.832031 1.347656 -8.367188 1.671875 -8.796875 C 1.992188 -9.222656 2.4375 -9.546875 3 -9.765625 C 3.5625 -9.992188 4.195312 -10.109375 4.90625 -10.109375 C 5.664062 -10.109375 6.335938 -9.984375 6.921875 -9.734375 C 7.503906 -9.492188 7.976562 -9.160156 8.34375 -8.734375 L 7.71875 -7.859375 C 7.363281 -8.265625 6.941406 -8.566406 6.453125 -8.765625 C 5.960938 -8.960938 5.421875 -9.0625 4.828125 -9.0625 C 4.421875 -9.0625 4.03125 -9.003906 3.65625 -8.890625 C 3.289062 -8.785156 2.988281 -8.609375 2.75 -8.359375 C 2.519531 -8.109375 2.40625 -7.769531 2.40625 -7.34375 C 2.40625 -6.988281 2.492188 -6.710938 2.671875 -6.515625 C 2.847656 -6.316406 3.113281 -6.148438 3.46875 -6.015625 C 3.820312 -5.878906 4.257812 -5.734375 4.78125 -5.578125 C 5.53125 -5.378906 6.1875 -5.175781 6.75 -4.96875 C 7.3125 -4.757812 7.742188 -4.488281 8.046875 -4.15625 C 8.347656 -3.820312 8.5 -3.359375 8.5 -2.765625 C 8.5 -1.835938 8.148438 -1.113281 7.453125 -0.59375 C 6.753906 -0.0703125 5.832031 0.1875 4.6875 0.1875 Z M 4.6875 0.1875 "/></g></g></g><g fill="#000000" fill-opacity="1"><g transform="translate(76.646337, 360.23506)"><g><path d="M 0.625 -2.859375 C 0.625 -3.484375 0.800781 -4.019531 1.15625 -4.46875 C 1.519531 -4.914062 2.015625 -5.265625 2.640625 -5.515625 C 3.265625 -5.765625 3.992188 -5.890625 4.828125 -5.890625 C 5.304688 -5.890625 5.804688 -5.847656 6.328125 -5.765625 C 6.847656 -5.691406 7.3125 -5.582031 7.71875 -5.4375 L 7.71875 -6.265625 C 7.71875 -7.109375 7.46875 -7.773438 6.96875 -8.265625 C 6.476562 -8.765625 5.796875 -9.015625 4.921875 -9.015625 C 4.390625 -9.015625 3.863281 -8.914062 3.34375 -8.71875 C 2.832031 -8.519531 2.296875 -8.234375 1.734375 -7.859375 L 1.234375 -8.765625 C 1.890625 -9.210938 2.523438 -9.546875 3.140625 -9.765625 C 3.765625 -9.992188 4.398438 -10.109375 5.046875 -10.109375 C 6.265625 -10.109375 7.226562 -9.753906 7.9375 -9.046875 C 8.65625 -8.347656 9.015625 -7.382812 9.015625 -6.15625 L 9.015625 -1.5625 C 9.015625 -1.382812 9.050781 -1.253906 9.125 -1.171875 C 9.207031 -1.085938 9.332031 -1.039062 9.5 -1.03125 L 9.5 0 C 9.351562 0.0078125 9.226562 0.0195312 9.125 0.03125 C 9.03125 0.0507812 8.957031 0.0507812 8.90625 0.03125 C 8.582031 0.0195312 8.335938 -0.078125 8.171875 -0.265625 C 8.015625 -0.453125 7.925781 -0.65625 7.90625 -0.875 L 7.890625 -1.59375 C 7.441406 -1.03125 6.863281 -0.59375 6.15625 -0.28125 C 5.445312 0.03125 4.722656 0.1875 3.984375 0.1875 C 3.347656 0.1875 2.769531 0.0507812 2.25 -0.21875 C 1.738281 -0.488281 1.335938 -0.851562 1.046875 -1.3125 C 0.765625 -1.78125 0.625 -2.296875 0.625 -2.859375 Z M 7.28125 -2.09375 C 7.414062 -2.269531 7.519531 -2.441406 7.59375 -2.609375 C 7.675781 -2.773438 7.71875 -2.921875 7.71875 -3.046875 L 7.71875 -4.5 C 7.289062 -4.664062 6.84375 -4.789062 6.375 -4.875 C 5.914062 -4.96875 5.445312 -5.015625 4.96875 -5.015625 C 4.039062 -5.015625 3.289062 -4.828125 2.71875 -4.453125 C 2.15625 -4.085938 1.875 -3.585938 1.875 -2.953125 C 1.875 -2.585938 1.96875 -2.242188 2.15625 -1.921875 C 2.34375 -1.597656 2.617188 -1.328125 2.984375 -1.109375 C 3.359375 -0.898438 3.796875 -0.796875 4.296875 -0.796875 C 4.910156 -0.796875 5.488281 -0.914062 6.03125 -1.15625 C 6.570312 -1.40625 6.988281 -1.71875 7.28125 -2.09375 Z M 7.28125 -2.09375 "/></g></g></g><g fill="#000000" fill-opacity="1"><g transform="translate(87.03202, 360.23506)"><g><path d="M 6.390625 -8.78125 C 5.523438 -8.757812 4.765625 -8.519531 4.109375 -8.0625 C 3.453125 -7.601562 2.988281 -6.972656 2.71875 -6.171875 L 2.71875 0 L 1.4375 0 L 1.4375 -9.9375 L 2.65625 -9.9375 L 2.65625 -7.546875 C 3 -8.242188 3.453125 -8.804688 4.015625 -9.234375 C 4.578125 -9.671875 5.175781 -9.914062 5.8125 -9.96875 C 5.9375 -9.976562 6.046875 -9.984375 6.140625 -9.984375 C 6.242188 -9.984375 6.328125 -9.976562 6.390625 -9.96875 Z M 6.390625 -8.78125 "/></g></g></g><g fill="#000000" fill-opacity="1"><g transform="translate(93.720798, 360.23506)"><g><path d="M 6.390625 -8.78125 C 5.523438 -8.757812 4.765625 -8.519531 4.109375 -8.0625 C 3.453125 -7.601562 2.988281 -6.972656 2.71875 -6.171875 L 2.71875 0 L 1.4375 0 L 1.4375 -9.9375 L 2.65625 -9.9375 L 2.65625 -7.546875 C 3 -8.242188 3.453125 -8.804688 4.015625 -9.234375 C 4.578125 -9.671875 5.175781 -9.914062 5.8125 -9.96875 C 5.9375 -9.976562 6.046875 -9.984375 6.140625 -9.984375 C 6.242188 -9.984375 6.328125 -9.976562 6.390625 -9.96875 Z M 6.390625 -8.78125 "/></g></g></g><g fill="#000000" fill-opacity="1"><g transform="translate(100.409576, 360.23506)"><g><path d="M 5.65625 0.1875 C 4.945312 0.1875 4.289062 0.0507812 3.6875 -0.21875 C 3.082031 -0.488281 2.5625 -0.863281 2.125 -1.34375 C 1.6875 -1.820312 1.347656 -2.367188 1.109375 -2.984375 C 0.867188 -3.597656 0.75 -4.25 0.75 -4.9375 C 0.75 -5.644531 0.867188 -6.304688 1.109375 -6.921875 C 1.347656 -7.546875 1.6875 -8.09375 2.125 -8.5625 C 2.570312 -9.039062 3.097656 -9.414062 3.703125 -9.6875 C 4.304688 -9.96875 4.96875 -10.109375 5.6875 -10.109375 C 6.394531 -10.109375 7.046875 -9.96875 7.640625 -9.6875 C 8.242188 -9.414062 8.765625 -9.039062 9.203125 -8.5625 C 9.648438 -8.09375 9.992188 -7.546875 10.234375 -6.921875 C 10.472656 -6.304688 10.59375 -5.644531 10.59375 -4.9375 C 10.59375 -4.25 10.472656 -3.597656 10.234375 -2.984375 C 9.992188 -2.367188 9.65625 -1.820312 9.21875 -1.34375 C 8.78125 -0.863281 8.257812 -0.488281 7.65625 -0.21875 C 7.050781 0.0507812 6.382812 0.1875 5.65625 0.1875 Z M 2.0625 -4.921875 C 2.0625 -4.179688 2.222656 -3.507812 2.546875 -2.90625 C 2.867188 -2.300781 3.300781 -1.820312 3.84375 -1.46875 C 4.394531 -1.125 5 -0.953125 5.65625 -0.953125 C 6.320312 -0.953125 6.925781 -1.128906 7.46875 -1.484375 C 8.019531 -1.835938 8.457031 -2.320312 8.78125 -2.9375 C 9.113281 -3.5625 9.28125 -4.234375 9.28125 -4.953125 C 9.28125 -5.691406 9.113281 -6.363281 8.78125 -6.96875 C 8.457031 -7.582031 8.019531 -8.066406 7.46875 -8.421875 C 6.925781 -8.773438 6.320312 -8.953125 5.65625 -8.953125 C 5 -8.953125 4.398438 -8.769531 3.859375 -8.40625 C 3.316406 -8.039062 2.878906 -7.554688 2.546875 -6.953125 C 2.222656 -6.347656 2.0625 -5.671875 2.0625 -4.921875 Z M 2.0625 -4.921875 "/></g></g></g><g fill="#000000" fill-opacity="1"><g transform="translate(111.748078, 360.23506)"><g><path d="M 1.484375 -13.921875 L 2.78125 -13.921875 L 2.78125 -2.25 C 2.78125 -1.75 2.867188 -1.421875 3.046875 -1.265625 C 3.222656 -1.117188 3.441406 -1.046875 3.703125 -1.046875 C 3.929688 -1.046875 4.160156 -1.070312 4.390625 -1.125 C 4.617188 -1.175781 4.8125 -1.226562 4.96875 -1.28125 L 5.203125 -0.234375 C 4.960938 -0.128906 4.664062 -0.046875 4.3125 0.015625 C 3.96875 0.078125 3.664062 0.109375 3.40625 0.109375 C 2.820312 0.109375 2.351562 -0.0625 2 -0.40625 C 1.65625 -0.75 1.484375 -1.21875 1.484375 -1.8125 Z M 1.484375 -13.921875 "/></g></g></g><g fill="#000000" fill-opacity="1"><g transform="translate(116.931396, 360.23506)"><g><path d="M 1.484375 -13.921875 L 2.78125 -13.921875 L 2.78125 -2.25 C 2.78125 -1.75 2.867188 -1.421875 3.046875 -1.265625 C 3.222656 -1.117188 3.441406 -1.046875 3.703125 -1.046875 C 3.929688 -1.046875 4.160156 -1.070312 4.390625 -1.125 C 4.617188 -1.175781 4.8125 -1.226562 4.96875 -1.28125 L 5.203125 -0.234375 C 4.960938 -0.128906 4.664062 -0.046875 4.3125 0.015625 C 3.96875 0.078125 3.664062 0.109375 3.40625 0.109375 C 2.820312 0.109375 2.351562 -0.0625 2 -0.40625 C 1.65625 -0.75 1.484375 -1.21875 1.484375 -1.8125 Z M 1.484375 -13.921875 "/></g></g></g><g fill="#000000" fill-opacity="1"><g transform="translate(122.114714, 360.23506)"><g><path d="M 5.65625 0.1875 C 4.945312 0.1875 4.289062 0.0507812 3.6875 -0.21875 C 3.082031 -0.488281 2.5625 -0.863281 2.125 -1.34375 C 1.6875 -1.820312 1.347656 -2.367188 1.109375 -2.984375 C 0.867188 -3.597656 0.75 -4.25 0.75 -4.9375 C 0.75 -5.644531 0.867188 -6.304688 1.109375 -6.921875 C 1.347656 -7.546875 1.6875 -8.09375 2.125 -8.5625 C 2.570312 -9.039062 3.097656 -9.414062 3.703125 -9.6875 C 4.304688 -9.96875 4.96875 -10.109375 5.6875 -10.109375 C 6.394531 -10.109375 7.046875 -9.96875 7.640625 -9.6875 C 8.242188 -9.414062 8.765625 -9.039062 9.203125 -8.5625 C 9.648438 -8.09375 9.992188 -7.546875 10.234375 -6.921875 C 10.472656 -6.304688 10.59375 -5.644531 10.59375 -4.9375 C 10.59375 -4.25 10.472656 -3.597656 10.234375 -2.984375 C 9.992188 -2.367188 9.65625 -1.820312 9.21875 -1.34375 C 8.78125 -0.863281 8.257812 -0.488281 7.65625 -0.21875 C 7.050781 0.0507812 6.382812 0.1875 5.65625 0.1875 Z M 2.0625 -4.921875 C 2.0625 -4.179688 2.222656 -3.507812 2.546875 -2.90625 C 2.867188 -2.300781 3.300781 -1.820312 3.84375 -1.46875 C 4.394531 -1.125 5 -0.953125 5.65625 -0.953125 C 6.320312 -0.953125 6.925781 -1.128906 7.46875 -1.484375 C 8.019531 -1.835938 8.457031 -2.320312 8.78125 -2.9375 C 9.113281 -3.5625 9.28125 -4.234375 9.28125 -4.953125 C 9.28125 -5.691406 9.113281 -6.363281 8.78125 -6.96875 C 8.457031 -7.582031 8.019531 -8.066406 7.46875 -8.421875 C 6.925781 -8.773438 6.320312 -8.953125 5.65625 -8.953125 C 5 -8.953125 4.398438 -8.769531 3.859375 -8.40625 C 3.316406 -8.039062 2.878906 -7.554688 2.546875 -6.953125 C 2.222656 -6.347656 2.0625 -5.671875 2.0625 -4.921875 Z M 2.0625 -4.921875 "/></g></g></g><g fill="#000000" fill-opacity="1"><g transform="translate(133.453216, 360.23506)"><g/></g></g><g fill="#000000" fill-opacity="1"><g transform="translate(138.312588, 360.23506)"><g><path d="M 4.6875 0.1875 C 3.875 0.1875 3.117188 0.0546875 2.421875 -0.203125 C 1.722656 -0.472656 1.117188 -0.882812 0.609375 -1.4375 L 1.140625 -2.34375 C 1.703125 -1.820312 2.265625 -1.441406 2.828125 -1.203125 C 3.390625 -0.972656 3.988281 -0.859375 4.625 -0.859375 C 5.40625 -0.859375 6.035156 -1.015625 6.515625 -1.328125 C 7.003906 -1.640625 7.25 -2.085938 7.25 -2.671875 C 7.25 -3.066406 7.128906 -3.367188 6.890625 -3.578125 C 6.648438 -3.785156 6.3125 -3.957031 5.875 -4.09375 C 5.4375 -4.226562 4.914062 -4.367188 4.3125 -4.515625 C 3.625 -4.703125 3.046875 -4.898438 2.578125 -5.109375 C 2.117188 -5.328125 1.769531 -5.597656 1.53125 -5.921875 C 1.300781 -6.242188 1.1875 -6.664062 1.1875 -7.1875 C 1.1875 -7.832031 1.347656 -8.367188 1.671875 -8.796875 C 1.992188 -9.222656 2.4375 -9.546875 3 -9.765625 C 3.5625 -9.992188 4.195312 -10.109375 4.90625 -10.109375 C 5.664062 -10.109375 6.335938 -9.984375 6.921875 -9.734375 C 7.503906 -9.492188 7.976562 -9.160156 8.34375 -8.734375 L 7.71875 -7.859375 C 7.363281 -8.265625 6.941406 -8.566406 6.453125 -8.765625 C 5.960938 -8.960938 5.421875 -9.0625 4.828125 -9.0625 C 4.421875 -9.0625 4.03125 -9.003906 3.65625 -8.890625 C 3.289062 -8.785156 2.988281 -8.609375 2.75 -8.359375 C 2.519531 -8.109375 2.40625 -7.769531 2.40625 -7.34375 C 2.40625 -6.988281 2.492188 -6.710938 2.671875 -6.515625 C 2.847656 -6.316406 3.113281 -6.148438 3.46875 -6.015625 C 3.820312 -5.878906 4.257812 -5.734375 4.78125 -5.578125 C 5.53125 -5.378906 6.1875 -5.175781 6.75 -4.96875 C 7.3125 -4.757812 7.742188 -4.488281 8.046875 -4.15625 C 8.347656 -3.820312 8.5 -3.359375 8.5 -2.765625 C 8.5 -1.835938 8.148438 -1.113281 7.453125 -0.59375 C 6.753906 -0.0703125 5.832031 0.1875 4.6875 0.1875 Z M 4.6875 0.1875 "/></g></g></g><g fill="#000000" fill-opacity="1"><g transform="translate(147.516782, 360.23506)"><g><path d="M 5.65625 0.1875 C 4.945312 0.1875 4.289062 0.0507812 3.6875 -0.21875 C 3.082031 -0.488281 2.5625 -0.863281 2.125 -1.34375 C 1.6875 -1.820312 1.347656 -2.367188 1.109375 -2.984375 C 0.867188 -3.597656 0.75 -4.25 0.75 -4.9375 C 0.75 -5.644531 0.867188 -6.304688 1.109375 -6.921875 C 1.347656 -7.546875 1.6875 -8.09375 2.125 -8.5625 C 2.570312 -9.039062 3.097656 -9.414062 3.703125 -9.6875 C 4.304688 -9.96875 4.96875 -10.109375 5.6875 -10.109375 C 6.394531 -10.109375 7.046875 -9.96875 7.640625 -9.6875 C 8.242188 -9.414062 8.765625 -9.039062 9.203125 -8.5625 C 9.648438 -8.09375 9.992188 -7.546875 10.234375 -6.921875 C 10.472656 -6.304688 10.59375 -5.644531 10.59375 -4.9375 C 10.59375 -4.25 10.472656 -3.597656 10.234375 -2.984375 C 9.992188 -2.367188 9.65625 -1.820312 9.21875 -1.34375 C 8.78125 -0.863281 8.257812 -0.488281 7.65625 -0.21875 C 7.050781 0.0507812 6.382812 0.1875 5.65625 0.1875 Z M 2.0625 -4.921875 C 2.0625 -4.179688 2.222656 -3.507812 2.546875 -2.90625 C 2.867188 -2.300781 3.300781 -1.820312 3.84375 -1.46875 C 4.394531 -1.125 5 -0.953125 5.65625 -0.953125 C 6.320312 -0.953125 6.925781 -1.128906 7.46875 -1.484375 C 8.019531 -1.835938 8.457031 -2.320312 8.78125 -2.9375 C 9.113281 -3.5625 9.28125 -4.234375 9.28125 -4.953125 C 9.28125 -5.691406 9.113281 -6.363281 8.78125 -6.96875 C 8.457031 -7.582031 8.019531 -8.066406 7.46875 -8.421875 C 6.925781 -8.773438 6.320312 -8.953125 5.65625 -8.953125 C 5 -8.953125 4.398438 -8.769531 3.859375 -8.40625 C 3.316406 -8.039062 2.878906 -7.554688 2.546875 -6.953125 C 2.222656 -6.347656 2.0625 -5.671875 2.0625 -4.921875 Z M 2.0625 -4.921875 "/></g></g></g><g fill="#000000" fill-opacity="1"><g transform="translate(158.855283, 360.23506)"><g><path d="M 1.90625 0 L 1.90625 -8.90625 L 0.53125 -8.90625 L 0.53125 -9.9375 L 1.90625 -9.9375 L 1.90625 -10.203125 C 1.90625 -11.015625 2.019531 -11.710938 2.25 -12.296875 C 2.488281 -12.878906 2.828125 -13.328125 3.265625 -13.640625 C 3.703125 -13.953125 4.222656 -14.109375 4.828125 -14.109375 C 5.210938 -14.109375 5.585938 -14.050781 5.953125 -13.9375 C 6.328125 -13.820312 6.648438 -13.671875 6.921875 -13.484375 L 6.515625 -12.546875 C 6.347656 -12.679688 6.128906 -12.785156 5.859375 -12.859375 C 5.597656 -12.941406 5.335938 -12.984375 5.078125 -12.984375 C 4.472656 -12.984375 4.007812 -12.75 3.6875 -12.28125 C 3.363281 -11.8125 3.203125 -11.128906 3.203125 -10.234375 L 3.203125 -9.9375 L 5.953125 -9.9375 L 5.953125 -8.90625 L 3.203125 -8.90625 L 3.203125 0 Z M 1.90625 0 "/></g></g></g><g fill="#000000" fill-opacity="1"><g transform="translate(165.143859, 360.23506)"><g><path d="M 6.203125 -0.484375 C 6.097656 -0.441406 5.9375 -0.367188 5.71875 -0.265625 C 5.5 -0.160156 5.238281 -0.0703125 4.9375 0 C 4.632812 0.0703125 4.304688 0.109375 3.953125 0.109375 C 3.578125 0.109375 3.226562 0.0390625 2.90625 -0.09375 C 2.582031 -0.238281 2.320312 -0.453125 2.125 -0.734375 C 1.9375 -1.015625 1.84375 -1.367188 1.84375 -1.796875 L 1.84375 -8.90625 L 0.484375 -8.90625 L 0.484375 -9.9375 L 1.84375 -9.9375 L 1.84375 -13.28125 L 3.140625 -13.28125 L 3.140625 -9.9375 L 5.4375 -9.9375 L 5.4375 -8.90625 L 3.140625 -8.90625 L 3.140625 -2.15625 C 3.171875 -1.800781 3.300781 -1.535156 3.53125 -1.359375 C 3.769531 -1.179688 4.039062 -1.09375 4.34375 -1.09375 C 4.695312 -1.09375 5.019531 -1.148438 5.3125 -1.265625 C 5.601562 -1.390625 5.785156 -1.476562 5.859375 -1.53125 Z M 6.203125 -0.484375 "/></g></g></g><g fill="#000000" fill-opacity="1"><g transform="translate(171.527736, 360.23506)"><g><path d="M 13.9375 -9.9375 L 15.21875 -9.9375 L 10.9375 0 L 9.8125 0 L 7.734375 -4.9375 L 5.6875 0 L 4.5625 0 L 0.28125 -9.9375 L 1.546875 -9.9375 L 5.171875 -1.328125 L 7 -5.8125 L 5.3125 -9.90625 L 6.484375 -9.90625 L 7.734375 -6.6875 L 9.015625 -9.90625 L 10.15625 -9.90625 L 8.5 -5.8125 L 10.328125 -1.328125 Z M 13.9375 -9.9375 "/></g></g></g><g fill="#000000" fill-opacity="1"><g transform="translate(187.02053, 360.23506)"><g><path d="M 0.625 -2.859375 C 0.625 -3.484375 0.800781 -4.019531 1.15625 -4.46875 C 1.519531 -4.914062 2.015625 -5.265625 2.640625 -5.515625 C 3.265625 -5.765625 3.992188 -5.890625 4.828125 -5.890625 C 5.304688 -5.890625 5.804688 -5.847656 6.328125 -5.765625 C 6.847656 -5.691406 7.3125 -5.582031 7.71875 -5.4375 L 7.71875 -6.265625 C 7.71875 -7.109375 7.46875 -7.773438 6.96875 -8.265625 C 6.476562 -8.765625 5.796875 -9.015625 4.921875 -9.015625 C 4.390625 -9.015625 3.863281 -8.914062 3.34375 -8.71875 C 2.832031 -8.519531 2.296875 -8.234375 1.734375 -7.859375 L 1.234375 -8.765625 C 1.890625 -9.210938 2.523438 -9.546875 3.140625 -9.765625 C 3.765625 -9.992188 4.398438 -10.109375 5.046875 -10.109375 C 6.265625 -10.109375 7.226562 -9.753906 7.9375 -9.046875 C 8.65625 -8.347656 9.015625 -7.382812 9.015625 -6.15625 L 9.015625 -1.5625 C 9.015625 -1.382812 9.050781 -1.253906 9.125 -1.171875 C 9.207031 -1.085938 9.332031 -1.039062 9.5 -1.03125 L 9.5 0 C 9.351562 0.0078125 9.226562 0.0195312 9.125 0.03125 C 9.03125 0.0507812 8.957031 0.0507812 8.90625 0.03125 C 8.582031 0.0195312 8.335938 -0.078125 8.171875 -0.265625 C 8.015625 -0.453125 7.925781 -0.65625 7.90625 -0.875 L 7.890625 -1.59375 C 7.441406 -1.03125 6.863281 -0.59375 6.15625 -0.28125 C 5.445312 0.03125 4.722656 0.1875 3.984375 0.1875 C 3.347656 0.1875 2.769531 0.0507812 2.25 -0.21875 C 1.738281 -0.488281 1.335938 -0.851562 1.046875 -1.3125 C 0.765625 -1.78125 0.625 -2.296875 0.625 -2.859375 Z M 7.28125 -2.09375 C 7.414062 -2.269531 7.519531 -2.441406 7.59375 -2.609375 C 7.675781 -2.773438 7.71875 -2.921875 7.71875 -3.046875 L 7.71875 -4.5 C 7.289062 -4.664062 6.84375 -4.789062 6.375 -4.875 C 5.914062 -4.96875 5.445312 -5.015625 4.96875 -5.015625 C 4.039062 -5.015625 3.289062 -4.828125 2.71875 -4.453125 C 2.15625 -4.085938 1.875 -3.585938 1.875 -2.953125 C 1.875 -2.585938 1.96875 -2.242188 2.15625 -1.921875 C 2.34375 -1.597656 2.617188 -1.328125 2.984375 -1.109375 C 3.359375 -0.898438 3.796875 -0.796875 4.296875 -0.796875 C 4.910156 -0.796875 5.488281 -0.914062 6.03125 -1.15625 C 6.570312 -1.40625 6.988281 -1.71875 7.28125 -2.09375 Z M 7.28125 -2.09375 "/></g></g></g><g fill="#000000" fill-opacity="1"><g transform="translate(197.406213, 360.23506)"><g><path d="M 6.390625 -8.78125 C 5.523438 -8.757812 4.765625 -8.519531 4.109375 -8.0625 C 3.453125 -7.601562 2.988281 -6.972656 2.71875 -6.171875 L 2.71875 0 L 1.4375 0 L 1.4375 -9.9375 L 2.65625 -9.9375 L 2.65625 -7.546875 C 3 -8.242188 3.453125 -8.804688 4.015625 -9.234375 C 4.578125 -9.671875 5.175781 -9.914062 5.8125 -9.96875 C 5.9375 -9.976562 6.046875 -9.984375 6.140625 -9.984375 C 6.242188 -9.984375 6.328125 -9.976562 6.390625 -9.96875 Z M 6.390625 -8.78125 "/></g></g></g><g fill="#000000" fill-opacity="1"><g transform="translate(204.094991, 360.23506)"><g><path d="M 5.71875 0.1875 C 5.007812 0.1875 4.347656 0.0507812 3.734375 -0.21875 C 3.128906 -0.488281 2.601562 -0.863281 2.15625 -1.34375 C 1.707031 -1.820312 1.359375 -2.367188 1.109375 -2.984375 C 0.867188 -3.609375 0.75 -4.28125 0.75 -5 C 0.75 -5.925781 0.957031 -6.773438 1.375 -7.546875 C 1.800781 -8.328125 2.390625 -8.945312 3.140625 -9.40625 C 3.890625 -9.875 4.742188 -10.109375 5.703125 -10.109375 C 6.679688 -10.109375 7.535156 -9.867188 8.265625 -9.390625 C 8.992188 -8.921875 9.566406 -8.300781 9.984375 -7.53125 C 10.410156 -6.769531 10.625 -5.929688 10.625 -5.015625 C 10.625 -4.910156 10.625 -4.8125 10.625 -4.71875 C 10.625 -4.625 10.613281 -4.550781 10.59375 -4.5 L 2.09375 -4.5 C 2.15625 -3.789062 2.351562 -3.15625 2.6875 -2.59375 C 3.03125 -2.039062 3.472656 -1.601562 4.015625 -1.28125 C 4.554688 -0.957031 5.144531 -0.796875 5.78125 -0.796875 C 6.425781 -0.796875 7.035156 -0.960938 7.609375 -1.296875 C 8.191406 -1.628906 8.597656 -2.0625 8.828125 -2.59375 L 9.953125 -2.28125 C 9.742188 -1.8125 9.429688 -1.382812 9.015625 -1 C 8.597656 -0.625 8.101562 -0.332031 7.53125 -0.125 C 6.96875 0.0820312 6.363281 0.1875 5.71875 0.1875 Z M 2.0625 -5.4375 L 9.390625 -5.4375 C 9.347656 -6.15625 9.15625 -6.785156 8.8125 -7.328125 C 8.476562 -7.878906 8.039062 -8.3125 7.5 -8.625 C 6.957031 -8.9375 6.363281 -9.09375 5.71875 -9.09375 C 5.070312 -9.09375 4.476562 -8.9375 3.9375 -8.625 C 3.40625 -8.3125 2.972656 -7.878906 2.640625 -7.328125 C 2.304688 -6.773438 2.113281 -6.144531 2.0625 -5.4375 Z M 2.0625 -5.4375 "/></g></g></g><g fill="#000000" fill-opacity="1"><g transform="translate(215.281054, 360.23506)"><g/></g></g><g fill="#000000" fill-opacity="1"><g transform="translate(220.140426, 360.23506)"><g><path d="M 10.890625 0 L 4.140625 -7.109375 C 3.585938 -7.691406 3.144531 -8.1875 2.8125 -8.59375 C 2.488281 -9.007812 2.253906 -9.382812 2.109375 -9.71875 C 1.972656 -10.0625 1.90625 -10.398438 1.90625 -10.734375 C 1.90625 -11.296875 2.050781 -11.796875 2.34375 -12.234375 C 2.644531 -12.679688 3.050781 -13.035156 3.5625 -13.296875 C 4.082031 -13.566406 4.660156 -13.703125 5.296875 -13.703125 C 5.898438 -13.703125 6.4375 -13.585938 6.90625 -13.359375 C 7.382812 -13.140625 7.765625 -12.832031 8.046875 -12.4375 C 8.328125 -12.039062 8.46875 -11.570312 8.46875 -11.03125 C 8.46875 -10.457031 8.300781 -9.945312 7.96875 -9.5 C 7.644531 -9.050781 7.226562 -8.628906 6.71875 -8.234375 C 6.207031 -7.847656 5.640625 -7.460938 5.015625 -7.078125 C 4.492188 -6.710938 4.015625 -6.347656 3.578125 -5.984375 C 3.140625 -5.628906 2.789062 -5.25 2.53125 -4.84375 C 2.28125 -4.4375 2.15625 -3.972656 2.15625 -3.453125 C 2.15625 -2.890625 2.3125 -2.414062 2.625 -2.03125 C 2.945312 -1.644531 3.351562 -1.351562 3.84375 -1.15625 C 4.332031 -0.957031 4.835938 -0.859375 5.359375 -0.859375 C 6.046875 -0.859375 6.675781 -1.015625 7.25 -1.328125 C 7.832031 -1.640625 8.335938 -2.070312 8.765625 -2.625 C 9.203125 -3.175781 9.535156 -3.804688 9.765625 -4.515625 C 10.003906 -5.222656 10.125 -5.976562 10.125 -6.78125 L 11.234375 -6.78125 C 11.234375 -5.820312 11.078125 -4.914062 10.765625 -4.0625 C 10.460938 -3.21875 10.039062 -2.476562 9.5 -1.84375 C 8.957031 -1.207031 8.320312 -0.707031 7.59375 -0.34375 C 6.863281 0.0078125 6.070312 0.1875 5.21875 0.1875 C 4.4375 0.1875 3.710938 0.03125 3.046875 -0.28125 C 2.390625 -0.59375 1.863281 -1.019531 1.46875 -1.5625 C 1.082031 -2.113281 0.890625 -2.753906 0.890625 -3.484375 C 0.890625 -4.171875 1.050781 -4.769531 1.375 -5.28125 C 1.707031 -5.800781 2.128906 -6.265625 2.640625 -6.671875 C 3.148438 -7.085938 3.691406 -7.484375 4.265625 -7.859375 C 4.847656 -8.234375 5.363281 -8.582031 5.8125 -8.90625 C 6.269531 -9.226562 6.625 -9.554688 6.875 -9.890625 C 7.132812 -10.234375 7.265625 -10.601562 7.265625 -11 C 7.265625 -11.5 7.078125 -11.90625 6.703125 -12.21875 C 6.335938 -12.539062 5.867188 -12.703125 5.296875 -12.703125 C 4.878906 -12.703125 4.503906 -12.609375 4.171875 -12.421875 C 3.835938 -12.242188 3.578125 -12.007812 3.390625 -11.71875 C 3.203125 -11.425781 3.109375 -11.109375 3.109375 -10.765625 C 3.109375 -10.554688 3.15625 -10.332031 3.25 -10.09375 C 3.351562 -9.851562 3.550781 -9.554688 3.84375 -9.203125 C 4.144531 -8.859375 4.566406 -8.398438 5.109375 -7.828125 L 12.59375 0 Z M 10.890625 0 "/></g></g></g><g fill="#000000" fill-opacity="1"><g transform="translate(232.850995, 360.23506)"><g/></g></g><g fill="#000000" fill-opacity="1"><g transform="translate(237.710366, 360.23506)"><g><path d="M 0.796875 -6.859375 C 0.796875 -7.691406 0.9375 -8.503906 1.21875 -9.296875 C 1.507812 -10.085938 1.925781 -10.8125 2.46875 -11.46875 C 3.019531 -12.125 3.695312 -12.644531 4.5 -13.03125 C 5.300781 -13.414062 6.207031 -13.609375 7.21875 -13.609375 C 8.425781 -13.609375 9.457031 -13.332031 10.3125 -12.78125 C 11.175781 -12.226562 11.8125 -11.519531 12.21875 -10.65625 L 11.171875 -10.015625 C 10.878906 -10.609375 10.507812 -11.078125 10.0625 -11.421875 C 9.613281 -11.773438 9.140625 -12.023438 8.640625 -12.171875 C 8.140625 -12.328125 7.644531 -12.40625 7.15625 -12.40625 C 6.332031 -12.40625 5.609375 -12.242188 4.984375 -11.921875 C 4.367188 -11.597656 3.847656 -11.164062 3.421875 -10.625 C 2.992188 -10.082031 2.671875 -9.476562 2.453125 -8.8125 C 2.242188 -8.144531 2.140625 -7.46875 2.140625 -6.78125 C 2.140625 -6.03125 2.265625 -5.3125 2.515625 -4.625 C 2.765625 -3.945312 3.117188 -3.34375 3.578125 -2.8125 C 4.035156 -2.28125 4.570312 -1.859375 5.1875 -1.546875 C 5.8125 -1.242188 6.484375 -1.09375 7.203125 -1.09375 C 7.710938 -1.09375 8.234375 -1.179688 8.765625 -1.359375 C 9.296875 -1.535156 9.796875 -1.804688 10.265625 -2.171875 C 10.734375 -2.535156 11.101562 -3.015625 11.375 -3.609375 L 12.484375 -3.03125 C 12.203125 -2.351562 11.769531 -1.78125 11.1875 -1.3125 C 10.601562 -0.84375 9.953125 -0.488281 9.234375 -0.25 C 8.515625 -0.0078125 7.8125 0.109375 7.125 0.109375 C 6.195312 0.109375 5.34375 -0.0859375 4.5625 -0.484375 C 3.789062 -0.890625 3.125 -1.425781 2.5625 -2.09375 C 2 -2.757812 1.5625 -3.503906 1.25 -4.328125 C 0.945312 -5.160156 0.796875 -6.003906 0.796875 -6.859375 Z M 0.796875 -6.859375 "/></g></g></g><g fill="#000000" fill-opacity="1"><g transform="translate(250.782997, 360.23506)"><g><path d="M 5.65625 0.1875 C 4.945312 0.1875 4.289062 0.0507812 3.6875 -0.21875 C 3.082031 -0.488281 2.5625 -0.863281 2.125 -1.34375 C 1.6875 -1.820312 1.347656 -2.367188 1.109375 -2.984375 C 0.867188 -3.597656 0.75 -4.25 0.75 -4.9375 C 0.75 -5.644531 0.867188 -6.304688 1.109375 -6.921875 C 1.347656 -7.546875 1.6875 -8.09375 2.125 -8.5625 C 2.570312 -9.039062 3.097656 -9.414062 3.703125 -9.6875 C 4.304688 -9.96875 4.96875 -10.109375 5.6875 -10.109375 C 6.394531 -10.109375 7.046875 -9.96875 7.640625 -9.6875 C 8.242188 -9.414062 8.765625 -9.039062 9.203125 -8.5625 C 9.648438 -8.09375 9.992188 -7.546875 10.234375 -6.921875 C 10.472656 -6.304688 10.59375 -5.644531 10.59375 -4.9375 C 10.59375 -4.25 10.472656 -3.597656 10.234375 -2.984375 C 9.992188 -2.367188 9.65625 -1.820312 9.21875 -1.34375 C 8.78125 -0.863281 8.257812 -0.488281 7.65625 -0.21875 C 7.050781 0.0507812 6.382812 0.1875 5.65625 0.1875 Z M 2.0625 -4.921875 C 2.0625 -4.179688 2.222656 -3.507812 2.546875 -2.90625 C 2.867188 -2.300781 3.300781 -1.820312 3.84375 -1.46875 C 4.394531 -1.125 5 -0.953125 5.65625 -0.953125 C 6.320312 -0.953125 6.925781 -1.128906 7.46875 -1.484375 C 8.019531 -1.835938 8.457031 -2.320312 8.78125 -2.9375 C 9.113281 -3.5625 9.28125 -4.234375 9.28125 -4.953125 C 9.28125 -5.691406 9.113281 -6.363281 8.78125 -6.96875 C 8.457031 -7.582031 8.019531 -8.066406 7.46875 -8.421875 C 6.925781 -8.773438 6.320312 -8.953125 5.65625 -8.953125 C 5 -8.953125 4.398438 -8.769531 3.859375 -8.40625 C 3.316406 -8.039062 2.878906 -7.554688 2.546875 -6.953125 C 2.222656 -6.347656 2.0625 -5.671875 2.0625 -4.921875 Z M 2.0625 -4.921875 "/></g></g></g><g fill="#000000" fill-opacity="1"><g transform="translate(262.121499, 360.23506)"><g><path d="M 9.78125 0 L 8.484375 0 L 8.484375 -5.546875 C 8.484375 -6.710938 8.3125 -7.566406 7.96875 -8.109375 C 7.625 -8.648438 7.082031 -8.921875 6.34375 -8.921875 C 5.832031 -8.921875 5.328125 -8.796875 4.828125 -8.546875 C 4.335938 -8.296875 3.90625 -7.957031 3.53125 -7.53125 C 3.15625 -7.113281 2.882812 -6.628906 2.71875 -6.078125 L 2.71875 0 L 1.4375 0 L 1.4375 -9.9375 L 2.609375 -9.9375 L 2.609375 -7.6875 C 2.878906 -8.164062 3.226562 -8.585938 3.65625 -8.953125 C 4.09375 -9.316406 4.582031 -9.597656 5.125 -9.796875 C 5.675781 -10.003906 6.242188 -10.109375 6.828125 -10.109375 C 7.367188 -10.109375 7.828125 -10.003906 8.203125 -9.796875 C 8.585938 -9.597656 8.894531 -9.3125 9.125 -8.9375 C 9.351562 -8.5625 9.519531 -8.109375 9.625 -7.578125 C 9.726562 -7.046875 9.78125 -6.457031 9.78125 -5.8125 Z M 9.78125 0 "/></g></g></g><g fill="#000000" fill-opacity="1"><g transform="translate(273.231331, 360.23506)"><g><path d="M 4.6875 0.1875 C 3.875 0.1875 3.117188 0.0546875 2.421875 -0.203125 C 1.722656 -0.472656 1.117188 -0.882812 0.609375 -1.4375 L 1.140625 -2.34375 C 1.703125 -1.820312 2.265625 -1.441406 2.828125 -1.203125 C 3.390625 -0.972656 3.988281 -0.859375 4.625 -0.859375 C 5.40625 -0.859375 6.035156 -1.015625 6.515625 -1.328125 C 7.003906 -1.640625 7.25 -2.085938 7.25 -2.671875 C 7.25 -3.066406 7.128906 -3.367188 6.890625 -3.578125 C 6.648438 -3.785156 6.3125 -3.957031 5.875 -4.09375 C 5.4375 -4.226562 4.914062 -4.367188 4.3125 -4.515625 C 3.625 -4.703125 3.046875 -4.898438 2.578125 -5.109375 C 2.117188 -5.328125 1.769531 -5.597656 1.53125 -5.921875 C 1.300781 -6.242188 1.1875 -6.664062 1.1875 -7.1875 C 1.1875 -7.832031 1.347656 -8.367188 1.671875 -8.796875 C 1.992188 -9.222656 2.4375 -9.546875 3 -9.765625 C 3.5625 -9.992188 4.195312 -10.109375 4.90625 -10.109375 C 5.664062 -10.109375 6.335938 -9.984375 6.921875 -9.734375 C 7.503906 -9.492188 7.976562 -9.160156 8.34375 -8.734375 L 7.71875 -7.859375 C 7.363281 -8.265625 6.941406 -8.566406 6.453125 -8.765625 C 5.960938 -8.960938 5.421875 -9.0625 4.828125 -9.0625 C 4.421875 -9.0625 4.03125 -9.003906 3.65625 -8.890625 C 3.289062 -8.785156 2.988281 -8.609375 2.75 -8.359375 C 2.519531 -8.109375 2.40625 -7.769531 2.40625 -7.34375 C 2.40625 -6.988281 2.492188 -6.710938 2.671875 -6.515625 C 2.847656 -6.316406 3.113281 -6.148438 3.46875 -6.015625 C 3.820312 -5.878906 4.257812 -5.734375 4.78125 -5.578125 C 5.53125 -5.378906 6.1875 -5.175781 6.75 -4.96875 C 7.3125 -4.757812 7.742188 -4.488281 8.046875 -4.15625 C 8.347656 -3.820312 8.5 -3.359375 8.5 -2.765625 C 8.5 -1.835938 8.148438 -1.113281 7.453125 -0.59375 C 6.753906 -0.0703125 5.832031 0.1875 4.6875 0.1875 Z M 4.6875 0.1875 "/></g></g></g><g fill="#000000" fill-opacity="1"><g transform="translate(282.435525, 360.23506)"><g><path d="M 1.328125 -4.09375 L 1.328125 -9.9375 L 2.625 -9.9375 L 2.625 -4.328125 C 2.625 -3.191406 2.816406 -2.34375 3.203125 -1.78125 C 3.597656 -1.226562 4.175781 -0.953125 4.9375 -0.953125 C 5.445312 -0.953125 5.9375 -1.0625 6.40625 -1.28125 C 6.882812 -1.507812 7.304688 -1.828125 7.671875 -2.234375 C 8.046875 -2.648438 8.328125 -3.128906 8.515625 -3.671875 L 8.515625 -9.9375 L 9.8125 -9.9375 L 9.8125 -1.5625 C 9.8125 -1.382812 9.847656 -1.253906 9.921875 -1.171875 C 10.003906 -1.085938 10.125 -1.039062 10.28125 -1.03125 L 10.28125 0 C 10.125 0.0078125 10 0.015625 9.90625 0.015625 C 9.820312 0.0234375 9.742188 0.03125 9.671875 0.03125 C 9.410156 0.0078125 9.1875 -0.0859375 9 -0.265625 C 8.820312 -0.441406 8.726562 -0.660156 8.71875 -0.921875 L 8.671875 -2.25 C 8.242188 -1.488281 7.65625 -0.890625 6.90625 -0.453125 C 6.164062 -0.0234375 5.363281 0.1875 4.5 0.1875 C 3.457031 0.1875 2.664062 -0.171875 2.125 -0.890625 C 1.59375 -1.617188 1.328125 -2.6875 1.328125 -4.09375 Z M 1.328125 -4.09375 "/></g></g></g><g fill="#000000" fill-opacity="1"><g transform="translate(293.754981, 360.23506)"><g><path d="M 1.484375 -13.921875 L 2.78125 -13.921875 L 2.78125 -2.25 C 2.78125 -1.75 2.867188 -1.421875 3.046875 -1.265625 C 3.222656 -1.117188 3.441406 -1.046875 3.703125 -1.046875 C 3.929688 -1.046875 4.160156 -1.070312 4.390625 -1.125 C 4.617188 -1.175781 4.8125 -1.226562 4.96875 -1.28125 L 5.203125 -0.234375 C 4.960938 -0.128906 4.664062 -0.046875 4.3125 0.015625 C 3.96875 0.078125 3.664062 0.109375 3.40625 0.109375 C 2.820312 0.109375 2.351562 -0.0625 2 -0.40625 C 1.65625 -0.75 1.484375 -1.21875 1.484375 -1.8125 Z M 1.484375 -13.921875 "/></g></g></g><g fill="#000000" fill-opacity="1"><g transform="translate(298.938299, 360.23506)"><g><path d="M 6.203125 -0.484375 C 6.097656 -0.441406 5.9375 -0.367188 5.71875 -0.265625 C 5.5 -0.160156 5.238281 -0.0703125 4.9375 0 C 4.632812 0.0703125 4.304688 0.109375 3.953125 0.109375 C 3.578125 0.109375 3.226562 0.0390625 2.90625 -0.09375 C 2.582031 -0.238281 2.320312 -0.453125 2.125 -0.734375 C 1.9375 -1.015625 1.84375 -1.367188 1.84375 -1.796875 L 1.84375 -8.90625 L 0.484375 -8.90625 L 0.484375 -9.9375 L 1.84375 -9.9375 L 1.84375 -13.28125 L 3.140625 -13.28125 L 3.140625 -9.9375 L 5.4375 -9.9375 L 5.4375 -8.90625 L 3.140625 -8.90625 L 3.140625 -2.15625 C 3.171875 -1.800781 3.300781 -1.535156 3.53125 -1.359375 C 3.769531 -1.179688 4.039062 -1.09375 4.34375 -1.09375 C 4.695312 -1.09375 5.019531 -1.148438 5.3125 -1.265625 C 5.601562 -1.390625 5.785156 -1.476562 5.859375 -1.53125 Z M 6.203125 -0.484375 "/></g></g></g><g fill="#000000" fill-opacity="1"><g transform="translate(305.322176, 360.23506)"><g><path d="M 1.4375 0 L 1.4375 -9.9375 L 2.71875 -9.9375 L 2.71875 0 Z M 1.4375 -12.015625 L 1.4375 -13.921875 L 2.71875 -13.921875 L 2.71875 -12.015625 Z M 1.4375 -12.015625 "/></g></g></g><g fill="#000000" fill-opacity="1"><g transform="translate(309.476445, 360.23506)"><g><path d="M 9.78125 0 L 8.484375 0 L 8.484375 -5.546875 C 8.484375 -6.710938 8.3125 -7.566406 7.96875 -8.109375 C 7.625 -8.648438 7.082031 -8.921875 6.34375 -8.921875 C 5.832031 -8.921875 5.328125 -8.796875 4.828125 -8.546875 C 4.335938 -8.296875 3.90625 -7.957031 3.53125 -7.53125 C 3.15625 -7.113281 2.882812 -6.628906 2.71875 -6.078125 L 2.71875 0 L 1.4375 0 L 1.4375 -9.9375 L 2.609375 -9.9375 L 2.609375 -7.6875 C 2.878906 -8.164062 3.226562 -8.585938 3.65625 -8.953125 C 4.09375 -9.316406 4.582031 -9.597656 5.125 -9.796875 C 5.675781 -10.003906 6.242188 -10.109375 6.828125 -10.109375 C 7.367188 -10.109375 7.828125 -10.003906 8.203125 -9.796875 C 8.585938 -9.597656 8.894531 -9.3125 9.125 -8.9375 C 9.351562 -8.5625 9.519531 -8.109375 9.625 -7.578125 C 9.726562 -7.046875 9.78125 -6.457031 9.78125 -5.8125 Z M 9.78125 0 "/></g></g></g><g fill="#000000" fill-opacity="1"><g transform="translate(320.586276, 360.23506)"><g><path d="M 5.40625 0.140625 C 4.738281 0.140625 4.117188 0 3.546875 -0.28125 C 2.972656 -0.5625 2.476562 -0.941406 2.0625 -1.421875 C 1.65625 -1.898438 1.335938 -2.441406 1.109375 -3.046875 C 0.878906 -3.660156 0.765625 -4.289062 0.765625 -4.9375 C 0.765625 -5.632812 0.875 -6.289062 1.09375 -6.90625 C 1.320312 -7.519531 1.640625 -8.066406 2.046875 -8.546875 C 2.460938 -9.035156 2.945312 -9.414062 3.5 -9.6875 C 4.0625 -9.96875 4.6875 -10.109375 5.375 -10.109375 C 6.226562 -10.109375 6.96875 -9.890625 7.59375 -9.453125 C 8.226562 -9.023438 8.757812 -8.492188 9.1875 -7.859375 L 9.1875 -9.9375 L 10.34375 -9.9375 L 10.34375 0.03125 C 10.34375 0.945312 10.125 1.71875 9.6875 2.34375 C 9.25 2.976562 8.660156 3.453125 7.921875 3.765625 C 7.179688 4.085938 6.367188 4.25 5.484375 4.25 C 4.359375 4.25 3.445312 4.046875 2.75 3.640625 C 2.050781 3.234375 1.476562 2.6875 1.03125 2 L 1.828125 1.375 C 2.222656 2 2.75 2.460938 3.40625 2.765625 C 4.0625 3.066406 4.753906 3.21875 5.484375 3.21875 C 6.140625 3.21875 6.734375 3.097656 7.265625 2.859375 C 7.804688 2.628906 8.238281 2.28125 8.5625 1.8125 C 8.894531 1.34375 9.0625 0.75 9.0625 0.03125 L 9.0625 -1.921875 C 8.675781 -1.296875 8.148438 -0.796875 7.484375 -0.421875 C 6.828125 -0.046875 6.132812 0.140625 5.40625 0.140625 Z M 5.78125 -0.953125 C 6.164062 -0.953125 6.539062 -1.019531 6.90625 -1.15625 C 7.269531 -1.300781 7.601562 -1.488281 7.90625 -1.71875 C 8.21875 -1.957031 8.472656 -2.222656 8.671875 -2.515625 C 8.878906 -2.804688 9.007812 -3.101562 9.0625 -3.40625 L 9.0625 -6.484375 C 8.863281 -6.960938 8.585938 -7.390625 8.234375 -7.765625 C 7.878906 -8.140625 7.472656 -8.429688 7.015625 -8.640625 C 6.566406 -8.847656 6.101562 -8.953125 5.625 -8.953125 C 5.0625 -8.953125 4.5625 -8.832031 4.125 -8.59375 C 3.6875 -8.363281 3.316406 -8.054688 3.015625 -7.671875 C 2.722656 -7.285156 2.492188 -6.847656 2.328125 -6.359375 C 2.160156 -5.878906 2.078125 -5.398438 2.078125 -4.921875 C 2.078125 -4.390625 2.171875 -3.882812 2.359375 -3.40625 C 2.554688 -2.925781 2.820312 -2.5 3.15625 -2.125 C 3.488281 -1.75 3.878906 -1.457031 4.328125 -1.25 C 4.785156 -1.050781 5.269531 -0.953125 5.78125 -0.953125 Z M 5.78125 -0.953125 "/></g></g></g></svg>