<svg xmlns="http://www.w3.org/2000/svg" xmlns:xlink="http://www.w3.org/1999/xlink" width="500" zoomAndPan="magnify" viewBox="0 0 375 374.999991" height="500" preserveAspectRatio="xMidYMid meet" version="1.0"><defs><g/></defs><g fill="#ff6f00" fill-opacity="1"><g transform="translate(0.0000045, 289.331145)"><g><path d="M 69.859375 -226.796875 L 69.859375 -221.046875 L 57.453125 -221.046875 C 54.835938 -221.046875 52.769531 -219.9375 51.25 -217.71875 C 49.738281 -215.507812 48.984375 -212.585938 48.984375 -208.953125 C 48.984375 -190.804688 48.984375 -174.878906 48.984375 -161.171875 C 48.984375 -147.460938 48.984375 -136.828125 48.984375 -129.265625 C 48.984375 -121.710938 48.882812 -117.9375 48.6875 -117.9375 C 48.6875 -113.5 46.617188 -109.265625 42.484375 -105.234375 C 38.347656 -101.203125 32.753906 -98.175781 25.703125 -96.15625 C 32.753906 -94.144531 38.347656 -91.171875 42.484375 -87.234375 C 46.617188 -83.304688 48.6875 -79.023438 48.6875 -74.390625 L 48.984375 16.625 C 48.984375 20.257812 49.738281 23.1875 51.25 25.40625 C 52.769531 27.625 54.835938 28.734375 57.453125 28.734375 L 69.859375 28.734375 L 69.859375 34.78125 L 57.453125 34.78125 C 52.816406 34.78125 49.035156 33.113281 46.109375 29.78125 C 43.191406 26.457031 41.734375 22.070312 41.734375 16.625 L 41.734375 -75.59375 C 41.734375 -80.84375 39.613281 -85.128906 35.375 -88.453125 C 31.144531 -91.773438 25.503906 -93.4375 18.453125 -93.4375 L 16.625 -93.4375 L 16.625 -98.578125 L 18.453125 -98.578125 C 25.503906 -98.578125 31.144531 -100.238281 35.375 -103.5625 C 39.613281 -106.894531 41.734375 -111.179688 41.734375 -116.421875 L 41.734375 -208.65625 C 41.734375 -214.09375 43.191406 -218.472656 46.109375 -221.796875 C 49.035156 -225.128906 52.816406 -226.796875 57.453125 -226.796875 Z M 69.859375 -226.796875 "/></g></g></g><g fill="#ff6f00" fill-opacity="1"><g transform="translate(78.634431, 289.331145)"><g/></g></g><g fill="#ff6f00" fill-opacity="1"><g transform="translate(122.179345, 289.331145)"><g/></g></g><g fill="#ff6f00" fill-opacity="1"><g transform="translate(165.724258, 289.331145)"><g/></g></g><g fill="#ff6f00" fill-opacity="1"><g transform="translate(209.269172, 289.331145)"><g/></g></g><g fill="#ff6f00" fill-opacity="1"><g transform="translate(252.814085, 289.331145)"><g/></g></g><g fill="#ff6f00" fill-opacity="1"><g transform="translate(296.365537, 289.331145)"><g><path d="M 9.078125 -226.796875 L 21.171875 -226.796875 C 26.003906 -226.796875 29.878906 -225.128906 32.796875 -221.796875 C 35.722656 -218.472656 37.1875 -214.09375 37.1875 -208.65625 C 37.1875 -190.3125 37.1875 -174.179688 37.1875 -160.265625 C 37.1875 -146.359375 37.1875 -135.570312 37.1875 -127.90625 C 37.1875 -120.25 37.085938 -116.421875 36.890625 -116.421875 C 37.085938 -111.179688 39.351562 -106.894531 43.6875 -103.5625 C 48.03125 -100.238281 53.628906 -98.578125 60.484375 -98.578125 L 62.296875 -98.578125 L 62.296875 -93.4375 L 60.484375 -93.4375 C 53.628906 -93.4375 48.03125 -91.773438 43.6875 -88.453125 C 39.351562 -85.128906 37.085938 -80.84375 36.890625 -75.59375 L 37.1875 16.625 C 37.1875 22.070312 35.722656 26.457031 32.796875 29.78125 C 29.878906 33.113281 26.003906 34.78125 21.171875 34.78125 L 9.078125 34.78125 L 9.078125 28.734375 L 21.171875 28.734375 C 23.785156 28.734375 25.898438 27.625 27.515625 25.40625 C 29.128906 23.1875 29.9375 20.257812 29.9375 16.625 L 29.9375 -74.390625 C 30.132812 -79.023438 32.347656 -83.304688 36.578125 -87.234375 C 40.816406 -91.171875 46.363281 -94.144531 53.21875 -96.15625 C 46.363281 -98.175781 40.816406 -101.203125 36.578125 -105.234375 C 32.347656 -109.265625 30.132812 -113.5 29.9375 -117.9375 L 29.9375 -208.953125 C 29.9375 -212.585938 29.128906 -215.507812 27.515625 -217.71875 C 25.898438 -219.9375 23.785156 -221.046875 21.171875 -221.046875 L 9.078125 -221.046875 Z M 9.078125 -226.796875 "/></g></g></g><g fill="#f9f7f8" fill-opacity="1"><g transform="translate(88.252967, 271.395222)"><g><path d="M 23.78125 -160.0625 L 34.984375 -160.0625 L 99.25 -65.40625 L 163.5 -160.0625 L 174.703125 -160.0625 L 174.703125 0 L 162.8125 0 L 162.8125 -139.03125 L 99.46875 -46.875 L 98.5625 -46.875 L 35.21875 -139.03125 L 35.21875 0 L 23.78125 0 Z M 23.78125 -160.0625 "/></g></g></g><path stroke-linecap="butt" transform="matrix(0.75, 0, 0, 0.75, 112.217503, 263.581886)" fill="none" stroke-linejoin="miter" d="M 0.00166303 5.500194 L 150.189173 5.500194 " stroke="#ffffff" stroke-width="11" stroke-opacity="1" stroke-miterlimit="4"/></svg>